<svg width="87" height="79" viewBox="0 0 87 79" fill="none" xmlns="http://www.w3.org/2000/svg">
<ellipse cx="2.81471" cy="65.7055" rx="2.81471" ry="2.8123" fill="url(#paint0_linear)"/>
<ellipse cx="29.9378" cy="65.7055" rx="2.8147" ry="2.8123" fill="url(#paint1_linear)"/>
<ellipse cx="57.0608" cy="65.7055" rx="2.8147" ry="2.8123" fill="url(#paint2_linear)"/>
<ellipse cx="84.1858" cy="65.7055" rx="2.81471" ry="2.8123" fill="url(#paint3_linear)"/>
<ellipse cx="2.81471" cy="44.7411" rx="2.81471" ry="2.8123" fill="url(#paint4_linear)"/>
<ellipse cx="29.9378" cy="44.7411" rx="2.8147" ry="2.8123" fill="url(#paint5_linear)"/>
<ellipse cx="57.0608" cy="44.7411" rx="2.8147" ry="2.8123" fill="url(#paint6_linear)"/>
<ellipse cx="84.1858" cy="44.7411" rx="2.81471" ry="2.8123" fill="url(#paint7_linear)"/>
<ellipse cx="2.81471" cy="23.7767" rx="2.81471" ry="2.8123" fill="url(#paint8_linear)"/>
<ellipse cx="29.9378" cy="23.7767" rx="2.8147" ry="2.8123" fill="url(#paint9_linear)"/>
<ellipse cx="57.0608" cy="23.7767" rx="2.8147" ry="2.8123" fill="url(#paint10_linear)"/>
<ellipse cx="84.1858" cy="23.7767" rx="2.81471" ry="2.8123" fill="url(#paint11_linear)"/>
<ellipse cx="2.81471" cy="2.8123" rx="2.81471" ry="2.8123" fill="url(#paint12_linear)"/>
<ellipse cx="29.9378" cy="2.8123" rx="2.8147" ry="2.8123" fill="url(#paint13_linear)"/>
<ellipse cx="57.0608" cy="2.8123" rx="2.8147" ry="2.8123" fill="url(#paint14_linear)"/>
<ellipse cx="84.1858" cy="2.8123" rx="2.81471" ry="2.8123" fill="url(#paint15_linear)"/>
<defs>
<linearGradient id="paint0_linear" x1="2.81471" y1="62.8932" x2="2.81471" y2="68.5178" gradientUnits="userSpaceOnUse">
<stop stop-color="#32255B"/>
<stop offset="1" stop-color="#2B2A36"/>
</linearGradient>
<linearGradient id="paint1_linear" x1="29.9378" y1="62.8932" x2="29.9378" y2="68.5178" gradientUnits="userSpaceOnUse">
<stop stop-color="#32255B"/>
<stop offset="1" stop-color="#2B2A36"/>
</linearGradient>
<linearGradient id="paint2_linear" x1="57.0608" y1="62.8932" x2="57.0608" y2="68.5178" gradientUnits="userSpaceOnUse">
<stop stop-color="#32255B"/>
<stop offset="1" stop-color="#2B2A36"/>
</linearGradient>
<linearGradient id="paint3_linear" x1="84.1858" y1="62.8932" x2="84.1858" y2="68.5178" gradientUnits="userSpaceOnUse">
<stop stop-color="#32255B"/>
<stop offset="1" stop-color="#2B2A36"/>
</linearGradient>
<linearGradient id="paint4_linear" x1="2.81471" y1="41.9288" x2="2.81471" y2="47.5534" gradientUnits="userSpaceOnUse">
<stop stop-color="#32255B"/>
<stop offset="1" stop-color="#2B2A36"/>
</linearGradient>
<linearGradient id="paint5_linear" x1="29.9378" y1="41.9288" x2="29.9378" y2="47.5534" gradientUnits="userSpaceOnUse">
<stop stop-color="#32255B"/>
<stop offset="1" stop-color="#2B2A36"/>
</linearGradient>
<linearGradient id="paint6_linear" x1="57.0608" y1="41.9288" x2="57.0608" y2="47.5534" gradientUnits="userSpaceOnUse">
<stop stop-color="#32255B"/>
<stop offset="1" stop-color="#2B2A36"/>
</linearGradient>
<linearGradient id="paint7_linear" x1="84.1858" y1="41.9288" x2="84.1858" y2="47.5534" gradientUnits="userSpaceOnUse">
<stop stop-color="#32255B"/>
<stop offset="1" stop-color="#2B2A36"/>
</linearGradient>
<linearGradient id="paint8_linear" x1="2.81471" y1="20.9644" x2="2.81471" y2="26.589" gradientUnits="userSpaceOnUse">
<stop stop-color="#32255B"/>
<stop offset="1" stop-color="#2B2A36"/>
</linearGradient>
<linearGradient id="paint9_linear" x1="29.9378" y1="20.9644" x2="29.9378" y2="26.589" gradientUnits="userSpaceOnUse">
<stop stop-color="#32255B"/>
<stop offset="1" stop-color="#2B2A36"/>
</linearGradient>
<linearGradient id="paint10_linear" x1="57.0608" y1="20.9644" x2="57.0608" y2="26.589" gradientUnits="userSpaceOnUse">
<stop stop-color="#32255B"/>
<stop offset="1" stop-color="#2B2A36"/>
</linearGradient>
<linearGradient id="paint11_linear" x1="84.1858" y1="20.9644" x2="84.1858" y2="26.589" gradientUnits="userSpaceOnUse">
<stop stop-color="#32255B"/>
<stop offset="1" stop-color="#2B2A36"/>
</linearGradient>
<linearGradient id="paint12_linear" x1="2.81471" y1="0" x2="2.81471" y2="5.6246" gradientUnits="userSpaceOnUse">
<stop stop-color="#32255B"/>
<stop offset="1" stop-color="#2B2A36"/>
</linearGradient>
<linearGradient id="paint13_linear" x1="29.9378" y1="0" x2="29.9378" y2="5.6246" gradientUnits="userSpaceOnUse">
<stop stop-color="#32255B"/>
<stop offset="1" stop-color="#2B2A36"/>
</linearGradient>
<linearGradient id="paint14_linear" x1="57.0608" y1="0" x2="57.0608" y2="5.6246" gradientUnits="userSpaceOnUse">
<stop stop-color="#32255B"/>
<stop offset="1" stop-color="#2B2A36"/>
</linearGradient>
<linearGradient id="paint15_linear" x1="84.1858" y1="0" x2="84.1858" y2="5.6246" gradientUnits="userSpaceOnUse">
<stop stop-color="#32255B"/>
<stop offset="1" stop-color="#2B2A36"/>
</linearGradient>
</defs>
</svg>
