<svg width="87" height="79" viewBox="0 0 87 79" fill="none" xmlns="http://www.w3.org/2000/svg">
<ellipse cx="2.81471" cy="65.7055" rx="2.81471" ry="2.8123" fill="url(#paint0_linear)"/>
<ellipse cx="29.9378" cy="65.7055" rx="2.8147" ry="2.8123" fill="url(#paint1_linear)"/>
<ellipse cx="57.0608" cy="65.7055" rx="2.8147" ry="2.8123" fill="url(#paint2_linear)"/>
<ellipse cx="84.1858" cy="65.7055" rx="2.81471" ry="2.8123" fill="url(#paint3_linear)"/>
<ellipse cx="2.81471" cy="44.7411" rx="2.81471" ry="2.8123" fill="url(#paint4_linear)"/>
<ellipse cx="29.9378" cy="44.7411" rx="2.8147" ry="2.8123" fill="url(#paint5_linear)"/>
<ellipse cx="57.0608" cy="44.7411" rx="2.8147" ry="2.8123" fill="url(#paint6_linear)"/>
<ellipse cx="84.1858" cy="44.7411" rx="2.81471" ry="2.8123" fill="url(#paint7_linear)"/>
<ellipse cx="2.81471" cy="23.7767" rx="2.81471" ry="2.8123" fill="url(#paint8_linear)"/>
<ellipse cx="29.9378" cy="23.7767" rx="2.8147" ry="2.8123" fill="url(#paint9_linear)"/>
<ellipse cx="57.0608" cy="23.7767" rx="2.8147" ry="2.8123" fill="url(#paint10_linear)"/>
<ellipse cx="84.1858" cy="23.7767" rx="2.81471" ry="2.8123" fill="url(#paint11_linear)"/>
<ellipse cx="2.81471" cy="2.8123" rx="2.81471" ry="2.8123" fill="url(#paint12_linear)"/>
<ellipse cx="29.9378" cy="2.8123" rx="2.8147" ry="2.8123" fill="url(#paint13_linear)"/>
<ellipse cx="57.0608" cy="2.8123" rx="2.8147" ry="2.8123" fill="url(#paint14_linear)"/>
<ellipse cx="84.1858" cy="2.8123" rx="2.81471" ry="2.8123" fill="url(#paint15_linear)"/>
<defs>
<linearGradient id="paint0_linear" x1="5.62941" y1="63.3619" x2="8.02176e-09" y2="63.3619" gradientUnits="userSpaceOnUse">
<stop stop-color="#2575FC"/>
<stop offset="1" stop-color="#5235DD"/>
</linearGradient>
<linearGradient id="paint1_linear" x1="32.7525" y1="63.3619" x2="27.123" y2="63.3619" gradientUnits="userSpaceOnUse">
<stop stop-color="#2575FC"/>
<stop offset="1" stop-color="#5235DD"/>
</linearGradient>
<linearGradient id="paint2_linear" x1="59.8755" y1="63.3619" x2="54.2461" y2="63.3619" gradientUnits="userSpaceOnUse">
<stop stop-color="#2575FC"/>
<stop offset="1" stop-color="#5235DD"/>
</linearGradient>
<linearGradient id="paint3_linear" x1="87.0005" y1="63.3619" x2="81.3711" y2="63.3619" gradientUnits="userSpaceOnUse">
<stop stop-color="#2575FC"/>
<stop offset="1" stop-color="#5235DD"/>
</linearGradient>
<linearGradient id="paint4_linear" x1="5.62941" y1="42.3975" x2="8.02176e-09" y2="42.3975" gradientUnits="userSpaceOnUse">
<stop stop-color="#2575FC"/>
<stop offset="1" stop-color="#5235DD"/>
</linearGradient>
<linearGradient id="paint5_linear" x1="32.7525" y1="42.3975" x2="27.123" y2="42.3975" gradientUnits="userSpaceOnUse">
<stop stop-color="#2575FC"/>
<stop offset="1" stop-color="#5235DD"/>
</linearGradient>
<linearGradient id="paint6_linear" x1="59.8755" y1="42.3975" x2="54.2461" y2="42.3975" gradientUnits="userSpaceOnUse">
<stop stop-color="#2575FC"/>
<stop offset="1" stop-color="#5235DD"/>
</linearGradient>
<linearGradient id="paint7_linear" x1="87.0005" y1="42.3975" x2="81.3711" y2="42.3975" gradientUnits="userSpaceOnUse">
<stop stop-color="#2575FC"/>
<stop offset="1" stop-color="#5235DD"/>
</linearGradient>
<linearGradient id="paint8_linear" x1="5.62941" y1="21.4331" x2="8.02176e-09" y2="21.4331" gradientUnits="userSpaceOnUse">
<stop stop-color="#2575FC"/>
<stop offset="1" stop-color="#5235DD"/>
</linearGradient>
<linearGradient id="paint9_linear" x1="32.7525" y1="21.4331" x2="27.123" y2="21.4331" gradientUnits="userSpaceOnUse">
<stop stop-color="#2575FC"/>
<stop offset="1" stop-color="#5235DD"/>
</linearGradient>
<linearGradient id="paint10_linear" x1="59.8755" y1="21.4331" x2="54.2461" y2="21.4331" gradientUnits="userSpaceOnUse">
<stop stop-color="#2575FC"/>
<stop offset="1" stop-color="#5235DD"/>
</linearGradient>
<linearGradient id="paint11_linear" x1="87.0005" y1="21.4331" x2="81.3711" y2="21.4331" gradientUnits="userSpaceOnUse">
<stop stop-color="#2575FC"/>
<stop offset="1" stop-color="#5235DD"/>
</linearGradient>
<linearGradient id="paint12_linear" x1="5.62941" y1="0.468715" x2="8.02176e-09" y2="0.468715" gradientUnits="userSpaceOnUse">
<stop stop-color="#2575FC"/>
<stop offset="1" stop-color="#5235DD"/>
</linearGradient>
<linearGradient id="paint13_linear" x1="32.7525" y1="0.468715" x2="27.123" y2="0.468715" gradientUnits="userSpaceOnUse">
<stop stop-color="#2575FC"/>
<stop offset="1" stop-color="#5235DD"/>
</linearGradient>
<linearGradient id="paint14_linear" x1="59.8755" y1="0.468715" x2="54.2461" y2="0.468715" gradientUnits="userSpaceOnUse">
<stop stop-color="#2575FC"/>
<stop offset="1" stop-color="#5235DD"/>
</linearGradient>
<linearGradient id="paint15_linear" x1="87.0005" y1="0.468715" x2="81.3711" y2="0.468715" gradientUnits="userSpaceOnUse">
<stop stop-color="#2575FC"/>
<stop offset="1" stop-color="#5235DD"/>
</linearGradient>
</defs>
</svg>
