<svg width="416" height="24" viewBox="0 0 416 24" fill="none" xmlns="http://www.w3.org/2000/svg">
<path d="M7.7 19.24C6.28667 19.24 5.07333 18.94 4.06 18.34C3.04667 17.7267 2.26667 16.88 1.72 15.8C1.17333 14.7067 0.9 13.4467 0.9 12.02C0.9 10.5933 1.17333 9.33333 1.72 8.24C2.26667 7.14667 3.04667 6.29333 4.06 5.68C5.07333 5.06667 6.28667 4.76 7.7 4.76C9.38 4.76 10.7533 5.18 11.82 6.02C12.9 6.84667 13.5733 8.01333 13.84 9.52H11.02C10.8467 8.76 10.4733 8.16667 9.9 7.74C9.34 7.3 8.59333 7.08 7.66 7.08C6.36667 7.08 5.35333 7.52 4.62 8.4C3.88667 9.28 3.52 10.4867 3.52 12.02C3.52 13.5533 3.88667 14.76 4.62 15.64C5.35333 16.5067 6.36667 16.94 7.66 16.94C8.59333 16.94 9.34 16.74 9.9 16.34C10.4733 15.9267 10.8467 15.36 11.02 14.64H13.84C13.5733 16.08 12.9 17.2067 11.82 18.02C10.7533 18.8333 9.38 19.24 7.7 19.24ZM19.8061 19.24C18.8461 19.24 17.9794 19.02 17.2061 18.58C16.4461 18.14 15.8394 17.5333 15.3861 16.76C14.9461 15.9733 14.7261 15.0667 14.7261 14.04C14.7261 13.0133 14.9528 12.1133 15.4061 11.34C15.8594 10.5533 16.4661 9.94 17.2261 9.5C17.9994 9.06 18.8661 8.84 19.8261 8.84C20.7728 8.84 21.6261 9.06 22.3861 9.5C23.1594 9.94 23.7661 10.5533 24.2061 11.34C24.6594 12.1133 24.8861 13.0133 24.8861 14.04C24.8861 15.0667 24.6594 15.9733 24.2061 16.76C23.7661 17.5333 23.1594 18.14 22.3861 18.58C21.6128 19.02 20.7528 19.24 19.8061 19.24ZM19.8061 17.02C20.4728 17.02 21.0528 16.7733 21.5461 16.28C22.0394 15.7733 22.2861 15.0267 22.2861 14.04C22.2861 13.0533 22.0394 12.3133 21.5461 11.82C21.0528 11.3133 20.4794 11.06 19.8261 11.06C19.1461 11.06 18.5594 11.3133 18.0661 11.82C17.5861 12.3133 17.3461 13.0533 17.3461 14.04C17.3461 15.0267 17.5861 15.7733 18.0661 16.28C18.5594 16.7733 19.1394 17.02 19.8061 17.02ZM26.175 19V9.08H28.435L28.655 10.42C28.975 9.94 29.395 9.56 29.915 9.28C30.4483 8.98667 31.0617 8.84 31.755 8.84C33.2883 8.84 34.375 9.43333 35.015 10.62C35.375 10.0733 35.855 9.64 36.455 9.32C37.0683 9 37.735 8.84 38.455 8.84C39.7483 8.84 40.7417 9.22667 41.435 10C42.1283 10.7733 42.475 11.9067 42.475 13.4V19H39.915V13.64C39.915 12.7867 39.7483 12.1333 39.415 11.68C39.095 11.2267 38.595 11 37.915 11C37.2217 11 36.6617 11.2533 36.235 11.76C35.8217 12.2667 35.615 12.9733 35.615 13.88V19H33.055V13.64C33.055 12.7867 32.8883 12.1333 32.555 11.68C32.2217 11.2267 31.7083 11 31.015 11C30.335 11 29.7817 11.2533 29.355 11.76C28.9417 12.2667 28.735 12.9733 28.735 13.88V19H26.175ZM43.9055 19V9.08H46.1655L46.3855 10.42C46.7055 9.94 47.1255 9.56 47.6455 9.28C48.1788 8.98667 48.7921 8.84 49.4855 8.84C51.0188 8.84 52.1055 9.43333 52.7455 10.62C53.1055 10.0733 53.5855 9.64 54.1855 9.32C54.7988 9 55.4655 8.84 56.1855 8.84C57.4788 8.84 58.4721 9.22667 59.1655 10C59.8588 10.7733 60.2055 11.9067 60.2055 13.4V19H57.6455V13.64C57.6455 12.7867 57.4788 12.1333 57.1455 11.68C56.8255 11.2267 56.3255 11 55.6455 11C54.9521 11 54.3921 11.2533 53.9655 11.76C53.5521 12.2667 53.3455 12.9733 53.3455 13.88V19H50.7855V13.64C50.7855 12.7867 50.6188 12.1333 50.2855 11.68C49.9521 11.2267 49.4388 11 48.7455 11C48.0655 11 47.5121 11.2533 47.0855 11.76C46.6721 12.2667 46.4655 12.9733 46.4655 13.88V19H43.9055ZM65.3559 19.24C64.1159 19.24 63.1559 18.8533 62.4759 18.08C61.8093 17.3067 61.4759 16.1733 61.4759 14.68V9.08H64.0159V14.44C64.0159 15.2933 64.1893 15.9467 64.5359 16.4C64.8826 16.8533 65.4293 17.08 66.1759 17.08C66.8826 17.08 67.4626 16.8267 67.9159 16.32C68.3826 15.8133 68.6159 15.1067 68.6159 14.2V9.08H71.1759V19H68.9159L68.7159 17.32C68.4093 17.9067 67.9626 18.3733 67.3759 18.72C66.8026 19.0667 66.1293 19.24 65.3559 19.24ZM72.8039 19V9.08H75.0639L75.2639 10.76C75.5706 10.1733 76.0106 9.70667 76.5839 9.36C77.1706 9.01333 77.8572 8.84 78.6439 8.84C79.8706 8.84 80.8239 9.22667 81.5039 10C82.1839 10.7733 82.5239 11.9067 82.5239 13.4V19H79.9639V13.64C79.9639 12.7867 79.7906 12.1333 79.4439 11.68C79.0972 11.2267 78.5572 11 77.8239 11C77.1039 11 76.5106 11.2533 76.0439 11.76C75.5906 12.2667 75.3639 12.9733 75.3639 13.88V19H72.8039ZM85.3519 7.54C84.8852 7.54 84.4985 7.4 84.1919 7.12C83.8985 6.84 83.7519 6.48667 83.7519 6.06C83.7519 5.63333 83.8985 5.28667 84.1919 5.02C84.4985 4.74 84.8852 4.6 85.3519 4.6C85.8185 4.6 86.1985 4.74 86.4919 5.02C86.7985 5.28667 86.9519 5.63333 86.9519 6.06C86.9519 6.48667 86.7985 6.84 86.4919 7.12C86.1985 7.4 85.8185 7.54 85.3519 7.54ZM84.0719 19V9.08H86.6319V19H84.0719ZM93.1639 19.24C92.1506 19.24 91.2572 19.02 90.4839 18.58C89.7106 18.14 89.0972 17.5267 88.6439 16.74C88.2039 15.9533 87.9839 15.0533 87.9839 14.04C87.9839 13.0267 88.2039 12.1267 88.6439 11.34C89.0972 10.5533 89.7106 9.94 90.4839 9.5C91.2572 9.06 92.1506 8.84 93.1639 8.84C94.4306 8.84 95.4972 9.17333 96.3639 9.84C97.2306 10.4933 97.7839 11.4 98.0239 12.56H95.3239C95.1906 12.08 94.9239 11.7067 94.5239 11.44C94.1372 11.16 93.6772 11.02 93.1439 11.02C92.4372 11.02 91.8372 11.2867 91.3439 11.82C90.8506 12.3533 90.6039 13.0933 90.6039 14.04C90.6039 14.9867 90.8506 15.7267 91.3439 16.26C91.8372 16.7933 92.4372 17.06 93.1439 17.06C93.6772 17.06 94.1372 16.9267 94.5239 16.66C94.9239 16.3933 95.1906 16.0133 95.3239 15.52H98.0239C97.7839 16.64 97.2306 17.54 96.3639 18.22C95.4972 18.9 94.4306 19.24 93.1639 19.24ZM102.716 19.24C101.863 19.24 101.163 19.1067 100.616 18.84C100.069 18.56 99.6628 18.1933 99.3961 17.74C99.1294 17.2867 98.9961 16.7867 98.9961 16.24C98.9961 15.32 99.3561 14.5733 100.076 14C100.796 13.4267 101.876 13.14 103.316 13.14H105.836V12.9C105.836 12.22 105.643 11.72 105.256 11.4C104.869 11.08 104.389 10.92 103.816 10.92C103.296 10.92 102.843 11.0467 102.456 11.3C102.069 11.54 101.829 11.9 101.736 12.38H99.2361C99.3028 11.66 99.5428 11.0333 99.9561 10.5C100.383 9.96667 100.929 9.56 101.596 9.28C102.263 8.98667 103.009 8.84 103.836 8.84C105.249 8.84 106.363 9.19333 107.176 9.9C107.989 10.6067 108.396 11.6067 108.396 12.9V19H106.216L105.976 17.4C105.683 17.9333 105.269 18.3733 104.736 18.72C104.216 19.0667 103.543 19.24 102.716 19.24ZM103.296 17.24C104.029 17.24 104.596 17 104.996 16.52C105.409 16.04 105.669 15.4467 105.776 14.74H103.596C102.916 14.74 102.429 14.8667 102.136 15.12C101.843 15.36 101.696 15.66 101.696 16.02C101.696 16.4067 101.843 16.7067 102.136 16.92C102.429 17.1333 102.816 17.24 103.296 17.24ZM114.122 19C113.082 19 112.249 18.7467 111.622 18.24C110.996 17.7333 110.682 16.8333 110.682 15.54V11.22H108.982V9.08H110.682L110.982 6.42H113.242V9.08H115.922V11.22H113.242V15.56C113.242 16.04 113.342 16.3733 113.542 16.56C113.756 16.7333 114.116 16.82 114.622 16.82H115.862V19H114.122ZM118.5 7.54C118.034 7.54 117.647 7.4 117.34 7.12C117.047 6.84 116.9 6.48667 116.9 6.06C116.9 5.63333 117.047 5.28667 117.34 5.02C117.647 4.74 118.034 4.6 118.5 4.6C118.967 4.6 119.347 4.74 119.64 5.02C119.947 5.28667 120.1 5.63333 120.1 6.06C120.1 6.48667 119.947 6.84 119.64 7.12C119.347 7.4 118.967 7.54 118.5 7.54ZM117.22 19V9.08H119.78V19H117.22ZM126.212 19.24C125.252 19.24 124.386 19.02 123.612 18.58C122.852 18.14 122.246 17.5333 121.792 16.76C121.352 15.9733 121.132 15.0667 121.132 14.04C121.132 13.0133 121.359 12.1133 121.812 11.34C122.266 10.5533 122.872 9.94 123.632 9.5C124.406 9.06 125.272 8.84 126.232 8.84C127.179 8.84 128.032 9.06 128.792 9.5C129.566 9.94 130.172 10.5533 130.612 11.34C131.066 12.1133 131.292 13.0133 131.292 14.04C131.292 15.0667 131.066 15.9733 130.612 16.76C130.172 17.5333 129.566 18.14 128.792 18.58C128.019 19.02 127.159 19.24 126.212 19.24ZM126.212 17.02C126.879 17.02 127.459 16.7733 127.952 16.28C128.446 15.7733 128.692 15.0267 128.692 14.04C128.692 13.0533 128.446 12.3133 127.952 11.82C127.459 11.3133 126.886 11.06 126.232 11.06C125.552 11.06 124.966 11.3133 124.472 11.82C123.992 12.3133 123.752 13.0533 123.752 14.04C123.752 15.0267 123.992 15.7733 124.472 16.28C124.966 16.7733 125.546 17.02 126.212 17.02ZM132.581 19V9.08H134.841L135.041 10.76C135.348 10.1733 135.788 9.70667 136.361 9.36C136.948 9.01333 137.635 8.84 138.421 8.84C139.648 8.84 140.601 9.22667 141.281 10C141.961 10.7733 142.301 11.9067 142.301 13.4V19H139.741V13.64C139.741 12.7867 139.568 12.1333 139.221 11.68C138.875 11.2267 138.335 11 137.601 11C136.881 11 136.288 11.2533 135.821 11.76C135.368 12.2667 135.141 12.9733 135.141 13.88V19H132.581Z" fill="url(#paint0_linear)"/>
<defs>
<linearGradient id="paint0_linear" x1="4.00548e-09" y1="12.96" x2="168.324" y2="-20.3349" gradientUnits="userSpaceOnUse">
<stop stop-color="#261F74"/>
<stop offset="1" stop-color="#7D1F9D"/>
</linearGradient>
</defs>
</svg>
