<svg width="24" height="24" viewBox="0 0 24 24" fill="none" xmlns="http://www.w3.org/2000/svg">
<path d="M12 22C10.8954 22 10 21.1046 10 20H14C14 21.1046 13.1046 22 12 22ZM20 19H4V17L6 16V10.5C5.94732 9.08913 6.26594 7.68914 6.924 6.44001C7.57904 5.28153 8.6987 4.45889 10 4.18001V2.00001H13.646C12.3464 3.45245 12.1295 5.57641 13.1087 7.26156C14.0879 8.9467 16.0406 9.80995 17.946 9.40001C17.981 9.75701 17.998 10.127 17.998 10.5V16L19.998 17V19H20ZM17 8.00001C15.4097 7.99755 14.0977 6.75456 14.0093 5.16674C13.9209 3.57891 15.0869 2.198 16.6671 2.01907C18.2473 1.84014 19.6926 2.92536 19.9615 4.49274C20.2304 6.06013 19.2295 7.56502 17.68 7.92301C17.457 7.97424 17.2288 8.00007 17 8.00001Z" fill="url(#paint0_linear)"/>
<defs>
<linearGradient id="paint0_linear" x1="4" y1="12.7999" x2="23.4271" y2="12.2874" gradientUnits="userSpaceOnUse">
<stop stop-color="#261F74"/>
<stop offset="1" stop-color="#7D1F9D"/>
</linearGradient>
</defs>
</svg>
