<svg width="24" height="24" viewBox="0 0 24 24" fill="none" xmlns="http://www.w3.org/2000/svg">
<path d="M19 10H17V7H14V5H17V2H19V5H22V7H19V10Z" fill="url(#paint0_linear)"/>
<path d="M21 12H19V15H8.334C7.90107 14.9988 7.47964 15.1393 7.134 15.4L5 17V5H12V3H5C3.89543 3 3 3.89543 3 5V21L7.8 17.4C8.14582 17.1396 8.56713 16.9992 9 17H19C20.1046 17 21 16.1046 21 15V12Z" fill="url(#paint1_linear)"/>
<defs>
<linearGradient id="paint0_linear" x1="3" y1="12.26" x2="26.0533" y2="11.5" gradientUnits="userSpaceOnUse">
<stop stop-color="#261F74"/>
<stop offset="1" stop-color="#7D1F9D"/>
</linearGradient>
<linearGradient id="paint1_linear" x1="3" y1="12.26" x2="26.0533" y2="11.5" gradientUnits="userSpaceOnUse">
<stop stop-color="#261F74"/>
<stop offset="1" stop-color="#7D1F9D"/>
</linearGradient>
</defs>
</svg>
