<svg width="24" height="24" viewBox="0 0 24 24" fill="none" xmlns="http://www.w3.org/2000/svg">
<path d="M12 22C7.439 22 4 20.065 4 17.5V6H4.047C4.39672 4.70025 5.33486 3.63924 6.582 3.133C8.27819 2.34779 10.1313 1.96027 12 2C16.561 2 20 3.935 20 6.5C19.999 6.66776 19.9829 6.8351 19.952 7H20V17.5C20 20.065 16.561 22 12 22ZM5.777 9.394V17.5C5.777 18.519 8.2 20 12 20C15.8 20 18.222 18.519 18.222 17.5V9.394C16.3471 10.5202 14.1857 11.0781 12 11C9.81398 11.0779 7.6523 10.52 5.777 9.394ZM12 4C8.2 4 5.777 5.481 5.777 6.5C5.777 7.519 8.2 9 12 9C15.8 9 18.222 7.519 18.222 6.5C18.222 5.481 15.8 4 12 4Z" fill="url(#paint0_linear)"/>
<defs>
<linearGradient id="paint0_linear" x1="4" y1="12.7987" x2="23.4209" y2="12.2866" gradientUnits="userSpaceOnUse">
<stop stop-color="#261F74"/>
<stop offset="1" stop-color="#7D1F9D"/>
</linearGradient>
</defs>
</svg>
