<svg width="24" height="24" viewBox="0 0 24 24" fill="none" xmlns="http://www.w3.org/2000/svg">
<path d="M8.41421 0.414154L7 1.82837L8.17166 3.00003H4.00005C3.44705 3.00003 3.00005 3.44703 3.00005 4.00003V6.59003C3.00005 7.11303 3.21305 7.62703 3.58305 7.99703L9.00005 13.414L9.00005 21C9.00005 21.347 9.18005 21.668 9.47505 21.851C9.63505 21.95 9.81705 22 10 22C10.153 22 10.306 21.965 10.447 21.895L14.447 19.895C14.786 19.725 15 19.379 15 19L15 13.414L16.7929 11.6212L19.7279 14.5563L21.1421 13.1421L8.41421 0.414154ZM15.3789 10.2072L13.293 12.293C13.105 12.48 13 12.734 13 13L13 18.382L11 19.382V13C11 12.734 10.895 12.48 10.707 12.293L5.00005 6.59003V5.00003L10.1717 5.00003L15.3789 10.2072Z" fill="url(#paint0_linear)"/>
<path d="M20 3.00003H13.8285L15.8285 5.00003H19.001L19.003 6.58303L18.2073 7.37882L19.6213 8.79282L20.417 7.99703C20.787 7.62703 21 7.11303 21 6.59003V4.00003C21 3.44703 20.553 3.00003 20 3.00003Z" fill="url(#paint1_linear)"/>
<defs>
<linearGradient id="paint0_linear" x1="3.00005" y1="12.0705" x2="25.0195" y2="11.4604" gradientUnits="userSpaceOnUse">
<stop stop-color="#261F74"/>
<stop offset="1" stop-color="#7D1F9D"/>
</linearGradient>
<linearGradient id="paint1_linear" x1="3.00005" y1="12.0705" x2="25.0195" y2="11.4604" gradientUnits="userSpaceOnUse">
<stop stop-color="#261F74"/>
<stop offset="1" stop-color="#7D1F9D"/>
</linearGradient>
</defs>
</svg>
