<svg width="24" height="24" viewBox="0 0 24 24" fill="none" xmlns="http://www.w3.org/2000/svg">
<path d="M3 11V3H11V11H3ZM6 6V8H8V6H6Z" fill="url(#paint0_linear)"/>
<path d="M13 11V3H21V11H13ZM16 6V8H18V6H16Z" fill="url(#paint1_linear)"/>
<path d="M3 13V21H11V13H3ZM8 16V18H6V16H8Z" fill="url(#paint2_linear)"/>
<path d="M16 13H13V15H16V19H15V17H13V21H17V19H19V21H21V18H19V17H18V16H21V13H18V15H16V13Z" fill="url(#paint3_linear)"/>
<defs>
<linearGradient id="paint0_linear" x1="3" y1="12.72" x2="24.84" y2="12" gradientUnits="userSpaceOnUse">
<stop stop-color="#261F74"/>
<stop offset="1" stop-color="#7D1F9D"/>
</linearGradient>
<linearGradient id="paint1_linear" x1="3" y1="12.72" x2="24.84" y2="12" gradientUnits="userSpaceOnUse">
<stop stop-color="#261F74"/>
<stop offset="1" stop-color="#7D1F9D"/>
</linearGradient>
<linearGradient id="paint2_linear" x1="3" y1="12.72" x2="24.84" y2="12" gradientUnits="userSpaceOnUse">
<stop stop-color="#261F74"/>
<stop offset="1" stop-color="#7D1F9D"/>
</linearGradient>
<linearGradient id="paint3_linear" x1="3" y1="12.72" x2="24.84" y2="12" gradientUnits="userSpaceOnUse">
<stop stop-color="#261F74"/>
<stop offset="1" stop-color="#7D1F9D"/>
</linearGradient>
</defs>
</svg>
