<svg width="24" height="24" viewBox="0 0 24 24" fill="none" xmlns="http://www.w3.org/2000/svg">
<path d="M20 17H16V13H20V17ZM14 17H10V13H14V17ZM8 17H4V13H8V17ZM20 11H16V7H20V11ZM12 11C10.8954 11 10 10.1046 10 9C10 7.89543 10.8954 7 12 7C13.1046 7 14 7.89543 14 9C14 9.53043 13.7893 10.0391 13.4142 10.4142C13.0391 10.7893 12.5304 11 12 11ZM8 11H4V7H8V11Z" fill="url(#paint0_linear)"/>
<defs>
<linearGradient id="paint0_linear" x1="4" y1="12.4" x2="23.3805" y2="11.3777" gradientUnits="userSpaceOnUse">
<stop stop-color="#261F74"/>
<stop offset="1" stop-color="#7D1F9D"/>
</linearGradient>
</defs>
</svg>
