<svg width="24" height="24" viewBox="0 0 24 24" fill="none" xmlns="http://www.w3.org/2000/svg">
<path d="M17.577 19L12.81 14.234C10.6538 15.6564 7.771 15.2164 6.13731 13.2156C4.50363 11.2147 4.64908 8.30214 6.47399 6.474C8.3018 4.6484 11.2147 4.50231 13.216 6.13589C15.2173 7.76946 15.6575 10.6526 14.235 12.809L19 17.577L17.577 19ZM10.034 7.014C8.59323 7.01309 7.35247 8.03002 7.07047 9.44291C6.78848 10.8558 7.5438 12.2711 8.87451 12.8234C10.2052 13.3756 11.7407 12.9109 12.542 11.7135C13.3432 10.5161 13.1871 8.91947 12.169 7.9C11.6042 7.33135 10.8354 7.0123 10.034 7.014Z" fill="url(#paint0_linear)"/>
<defs>
<linearGradient id="paint0_linear" x1="5.00238" y1="12.5606" x2="21.9861" y2="12.0008" gradientUnits="userSpaceOnUse">
<stop stop-color="#261F74"/>
<stop offset="1" stop-color="#7D1F9D"/>
</linearGradient>
</defs>
</svg>
