<svg width="24" height="24" viewBox="0 0 24 24" fill="none" xmlns="http://www.w3.org/2000/svg">
<path d="M18.677 19.607L12.962 13.891C10.4197 15.6985 6.91645 15.2564 4.90288 12.8739C2.88932 10.4915 3.03717 6.96359 5.24301 4.758C7.44827 2.55145 10.9765 2.40296 13.3594 4.41642C15.7423 6.42988 16.1846 9.93345 14.377 12.476L20.092 18.192L18.678 19.606L18.677 19.607ZM9.48501 4.99999C7.58871 4.99956 5.9527 6.33068 5.56749 8.18744C5.18227 10.0442 6.15372 11.9163 7.89369 12.6702C9.63365 13.4242 11.6639 12.8528 12.7553 11.3021C13.8466 9.75128 13.6991 7.64732 12.402 6.264L13.007 6.864L12.325 6.184L12.313 6.172C11.5648 5.41918 10.5464 4.99713 9.48501 4.99999Z" fill="url(#paint0_linear)"/>
<defs>
<linearGradient id="paint0_linear" x1="3.48538" y1="11.9675" x2="23.6348" y2="11.3033" gradientUnits="userSpaceOnUse">
<stop stop-color="#261F74"/>
<stop offset="1" stop-color="#7D1F9D"/>
</linearGradient>
</defs>
</svg>
