<svg width="24" height="24" viewBox="0 0 24 24" fill="none" xmlns="http://www.w3.org/2000/svg">
<path d="M16.577 20L10.81 14.234C8.65381 15.6564 5.771 15.2164 4.13731 13.2155C2.50363 11.2147 2.64908 8.30213 4.47399 6.474C6.3018 4.64839 9.21469 4.50231 11.216 6.13588C13.2173 7.76946 13.6575 10.6526 12.235 12.809L18 18.576L16.577 20ZM8.03399 7.01399C6.59323 7.01308 5.35247 8.03002 5.07047 9.4429C4.78848 10.8558 5.5438 12.2711 6.87451 12.8234C8.20523 13.3756 9.74072 12.9109 10.542 11.7135C11.3432 10.5161 11.1871 8.91946 10.169 7.9C9.60424 7.33134 8.83543 7.0123 8.03399 7.01399ZM19 11H17V9H15V7H17V5H19V7H21V9H19V11Z" fill="url(#paint0_linear)"/>
<defs>
<linearGradient id="paint0_linear" x1="3.00238" y1="13.1" x2="24.8291" y2="12.2366" gradientUnits="userSpaceOnUse">
<stop stop-color="#261F74"/>
<stop offset="1" stop-color="#7D1F9D"/>
</linearGradient>
</defs>
</svg>
