<svg width="24" height="24" viewBox="0 0 24 24" fill="none" xmlns="http://www.w3.org/2000/svg">
<path d="M12.2495 19.26C10.9028 19.26 9.75612 18.9533 8.80946 18.34C7.87612 17.7267 7.22279 16.8867 6.84946 15.82L8.82946 14.66C9.38946 16.2333 10.5495 17.02 12.3095 17.02C13.1761 17.02 13.8228 16.8533 14.2495 16.52C14.6895 16.1733 14.9095 15.7267 14.9095 15.18C14.9095 14.6803 14.7322 14.287 14.3778 14H4V12H20V14H17.0721C17.1637 14.3399 17.2095 14.7199 17.2095 15.14C17.2095 16.4067 16.7495 17.4133 15.8295 18.16C14.9228 18.8933 13.7295 19.26 12.2495 19.26Z" fill="url(#paint0_linear)"/>
<path d="M7.76946 10.42C7.87043 10.6279 7.99389 10.8212 8.13984 11H12.8543C12.7586 10.9683 12.657 10.935 12.5495 10.9C11.4828 10.5667 10.7428 10.2533 10.3295 9.96001C9.92946 9.65334 9.72946 9.24001 9.72946 8.72001C9.72946 8.18667 9.92946 7.76667 10.3295 7.46001C10.7295 7.14001 11.2628 6.98001 11.9295 6.98001C13.3028 6.98001 14.2828 7.63334 14.8695 8.94001L16.8095 7.82001C16.3561 6.86001 15.7095 6.10667 14.8695 5.56001C14.0295 5.01334 13.0495 4.74001 11.9295 4.74001C10.6895 4.74001 9.62946 5.10667 8.74946 5.84001C7.86946 6.56001 7.42946 7.54001 7.42946 8.78001C7.42946 9.40667 7.54279 9.95334 7.76946 10.42Z" fill="url(#paint1_linear)"/>
<defs>
<linearGradient id="paint0_linear" x1="4" y1="12.5808" x2="23.4088" y2="11.8757" gradientUnits="userSpaceOnUse">
<stop stop-color="#261F74"/>
<stop offset="1" stop-color="#7D1F9D"/>
</linearGradient>
<linearGradient id="paint1_linear" x1="4" y1="12.5808" x2="23.4088" y2="11.8757" gradientUnits="userSpaceOnUse">
<stop stop-color="#261F74"/>
<stop offset="1" stop-color="#7D1F9D"/>
</linearGradient>
</defs>
</svg>
