<svg width="24" height="24" viewBox="0 0 24 24" fill="none" xmlns="http://www.w3.org/2000/svg">
<path d="M19 10H13V21H4.99916C3.89459 21 3 20.1046 3 19V5C3 3.89543 3.89543 3 5 3H19C20.1046 3 21 3.89543 21 5V13H19V10ZM11 10H5V14H11V10ZM11 19V16H5V19H11ZM13 5V8H19V5H13ZM11 5H5V8H11V5Z" fill="url(#paint0_linear)"/>
<path d="M16 18V16H24V18H16Z" fill="url(#paint1_linear)"/>
<defs>
<linearGradient id="paint0_linear" x1="3" y1="12.72" x2="28.47" y2="11.7404" gradientUnits="userSpaceOnUse">
<stop stop-color="#261F74"/>
<stop offset="1" stop-color="#7D1F9D"/>
</linearGradient>
<linearGradient id="paint1_linear" x1="3" y1="12.72" x2="28.47" y2="11.7404" gradientUnits="userSpaceOnUse">
<stop stop-color="#261F74"/>
<stop offset="1" stop-color="#7D1F9D"/>
</linearGradient>
</defs>
</svg>
