<svg width="24" height="24" viewBox="0 0 24 24" fill="none" xmlns="http://www.w3.org/2000/svg">
<path d="M16 20H5C4.44772 20 4 19.5523 4 19V11.14C4 10.8807 4.10076 10.6315 4.281 10.445L9.781 4.745C9.96945 4.54976 10.2292 4.43949 10.5005 4.43949C10.7718 4.43949 11.0315 4.54976 11.22 4.745L14.02 7.645L12.59 9.047L10.5 6.88L6 11.54V17.995H17V18.995C17.0013 19.2611 16.8966 19.5167 16.7089 19.7053C16.5212 19.894 16.2661 20 16 20ZM20 14H12V12H20V14Z" fill="url(#paint0_linear)"/>
<defs>
<linearGradient id="paint0_linear" x1="4" y1="12.8422" x2="23.4121" y2="12.1841" gradientUnits="userSpaceOnUse">
<stop stop-color="#261F74"/>
<stop offset="1" stop-color="#7D1F9D"/>
</linearGradient>
</defs>
</svg>
