<svg width="24" height="24" viewBox="0 0 24 24" fill="none" xmlns="http://www.w3.org/2000/svg">
<g clip-path="url(#clip0)">
<path d="M18.97 21.971L17 20H5.99998C2.87435 20.0019 0.27087 17.6038 0.0163398 14.4886C-0.23819 11.3734 1.9415 8.58454 5.02598 8.079L5.04498 8.045L1.99998 5L3.41498 3.586L20.385 20.556L18.971 21.97L18.97 21.971ZM6.81298 9.814L5.34798 10.053C3.2921 10.391 1.83999 12.2506 2.01036 14.3271C2.18072 16.4036 3.9165 18.0016 5.99998 18H15L6.81298 9.814ZM21.8 19.144L20.341 17.686C21.5098 17.1027 22.1668 15.8301 21.9655 14.5394C21.7642 13.2488 20.7509 12.2367 19.46 12.037L18.144 11.837L17.822 10.546C17.3801 8.77672 16.1576 7.30443 14.4997 6.54492C12.8418 5.78541 10.9284 5.82113 9.29998 6.642L7.82898 5.173C10.0012 3.84531 12.6757 3.63082 15.0318 4.59533C17.3879 5.55985 19.1443 7.58819 19.762 10.058C21.7954 10.3711 23.4295 11.8978 23.8799 13.9053C24.3302 15.9129 23.5048 17.9913 21.8 19.143V19.144Z" fill="url(#paint0_linear)"/>
</g>
<defs>
<linearGradient id="paint0_linear" x1="-0.00384521" y1="13.5139" x2="29.1002" y2="12.2611" gradientUnits="userSpaceOnUse">
<stop stop-color="#261F74"/>
<stop offset="1" stop-color="#7D1F9D"/>
</linearGradient>
<clipPath id="clip0">
<rect width="24" height="24" fill="white"/>
</clipPath>
</defs>
</svg>
