<svg width="24" height="24" viewBox="0 0 24 24" fill="none" xmlns="http://www.w3.org/2000/svg">
<g clip-path="url(#clip0)">
<path d="M19 20H6.00001C2.87438 20.0018 0.2709 17.6038 0.0163703 14.4886C-0.23816 11.3733 1.94153 8.58452 5.02601 8.07898C6.44572 5.56187 9.11012 4.0035 12 3.99993C13.8017 3.99334 15.5517 4.6015 16.961 5.72398C18.3449 6.82158 19.3289 8.34432 19.761 10.057C22.3478 10.4509 24.1933 12.7726 23.9936 15.3816C23.794 17.9905 21.6166 20.0043 19 20ZM12 5.99997C9.83172 6.00254 7.83268 7.17208 6.76801 9.06098L6.30001 9.89998L5.35101 10.055C3.30129 10.3984 1.85602 12.2543 2.02522 14.3257C2.19442 16.397 3.92173 17.9938 6.00001 18H19C20.5686 18.0016 21.8736 16.7946 21.9942 15.2307C22.1148 13.6667 21.0103 12.2739 19.46 12.035L18.144 11.835L17.822 10.543C17.1573 7.86979 14.7546 5.99494 12 5.99997ZM9.41301 16.414L8.00001 15L10.293 12.707L8.00001 10.414L9.41401 8.99998L11.707 11.292L14 8.99998L15.414 10.414L13.121 12.707L15.414 15L14 16.413L11.706 14.121L9.41401 16.414H9.41301Z" fill="url(#paint0_linear)"/>
</g>
<defs>
<linearGradient id="paint0_linear" x1="-0.0038147" y1="12.6399" x2="29.0915" y2="11.2004" gradientUnits="userSpaceOnUse">
<stop stop-color="#261F74"/>
<stop offset="1" stop-color="#7D1F9D"/>
</linearGradient>
<clipPath id="clip0">
<rect width="24" height="24" fill="white"/>
</clipPath>
</defs>
</svg>
