<svg width="24" height="24" viewBox="0 0 24 24" fill="none" xmlns="http://www.w3.org/2000/svg">
<g clip-path="url(#clip0)">
<path d="M19 20H5.99998C2.87435 20.0018 0.27087 17.6038 0.0163398 14.4886C-0.23819 11.3733 1.9415 8.58453 5.02598 8.07899C6.44569 5.56188 9.11009 4.0035 12 3.99993C13.802 3.99312 15.5524 4.60129 16.962 5.72399C18.3461 6.82185 19.3301 8.34497 19.762 10.058C22.3459 10.455 24.1878 12.7755 23.988 15.3821C23.7882 17.9887 21.6142 20.0014 19 20ZM12 5.99998C9.83169 6.00255 7.83265 7.17209 6.76798 9.06099L6.29998 9.89999L5.35098 10.055C3.30126 10.3984 1.85599 12.2543 2.02519 14.3257C2.19439 16.3971 3.9217 17.9938 5.99998 18H19C20.5686 18.0016 21.8736 16.7946 21.9942 15.2307C22.1148 13.6667 21.0103 12.2739 19.46 12.035L18.144 11.835L17.822 10.543C17.1573 7.8698 14.7546 5.99495 12 5.99998ZM13.45 16H10.55V13H7.99998L12 8.99999L16 13H13.45V16Z" fill="url(#paint0_linear)"/>
</g>
<defs>
<linearGradient id="paint0_linear" x1="-0.00384521" y1="12.6399" x2="29.0847" y2="11.2011" gradientUnits="userSpaceOnUse">
<stop stop-color="#261F74"/>
<stop offset="1" stop-color="#7D1F9D"/>
</linearGradient>
<clipPath id="clip0">
<rect width="24" height="24" fill="white"/>
</clipPath>
</defs>
</svg>
