<svg width="24" height="24" viewBox="0 0 24 24" fill="none" xmlns="http://www.w3.org/2000/svg">
<path d="M11.1725 3.70284C11.347 3.43096 11.2737 3.06338 11.0096 2.88588L9.83148 2.094C9.57246 1.9199 9.22685 1.99428 9.05572 2.26092L7.59692 4.53398L9.87852 5.71902L11.1725 3.70284Z" fill="url(#paint0_linear)"/>
<path d="M13.1771 7.43227L14.2451 5.76809C14.4196 5.49621 14.3463 5.12863 14.0822 4.95113L12.9041 4.15925C12.6451 3.98515 12.2995 4.05952 12.1283 4.32617L10.8955 6.24719L13.1771 7.43227Z" fill="url(#paint1_linear)"/>
<path d="M14.4661 10.8577L13.4331 10.3808C13.1136 10.2333 12.9989 9.8225 13.1928 9.52027L15.2008 6.39135C15.3719 6.12471 15.7175 6.05033 15.9766 6.22444L16.9121 6.85331C17.1762 7.03081 17.2495 7.39839 17.075 7.67026L15.1645 10.6473C15.0121 10.8847 14.7171 10.9736 14.4661 10.8577Z" fill="url(#paint2_linear)"/>
<path d="M19.7425 8.75555L18.8069 8.12672C18.5479 7.95262 18.2023 8.02699 18.0311 8.29363L16.318 10.963C16.1241 11.2652 16.2388 11.676 16.5583 11.8235L17.5913 12.3004C17.8424 12.4163 18.1373 12.3275 18.2897 12.09L19.9053 9.57247C20.0798 9.30067 20.0065 8.93309 19.7425 8.75555Z" fill="url(#paint3_linear)"/>
<path d="M17.1328 13.3714C17.3506 13.472 17.5818 13.523 17.8199 13.523C18.2937 13.523 18.7387 13.3181 19.0559 12.9649V14.6799C19.0559 15.8385 18.5018 16.9138 17.5739 17.5564C17.3645 17.7014 17.223 17.7997 17.223 17.7997C17.0666 17.9085 16.9726 18.0912 16.9726 18.2867V21.4141C16.9726 21.7377 16.7201 22.0001 16.4086 22.0001H7.87785C7.51092 22.0001 7.24164 21.6418 7.33065 21.272L8.36211 16.9861C8.40303 16.8161 8.36854 16.6361 8.26814 16.4953L4.1108 10.6651C3.96919 10.4666 3.96276 10.197 4.09475 9.99135L6.69018 5.94708C6.84797 5.70122 7.15733 5.61587 7.41176 5.74802L11.975 8.11814C12.2784 8.27576 12.3802 8.67401 12.192 8.96725L11.8469 9.50499C11.7423 9.66799 11.5662 9.76592 11.3776 9.76592H7.81491C7.49434 9.76592 7.23622 10.0437 7.25149 10.3802C7.26578 10.6953 7.52713 10.9378 7.83085 10.9378H10.2439L12.8586 16.37C12.9944 16.6522 13.3201 16.7865 13.5978 16.6588C13.8943 16.5225 14.0181 16.1585 13.8747 15.8607L11.5052 10.9378H11.8617L17.1328 13.3714Z" fill="url(#paint4_linear)"/>
<defs>
<linearGradient id="paint0_linear" x1="4" y1="12.8" x2="23.4211" y2="12.2878" gradientUnits="userSpaceOnUse">
<stop stop-color="#261F74"/>
<stop offset="1" stop-color="#7D1F9D"/>
</linearGradient>
<linearGradient id="paint1_linear" x1="4" y1="12.8" x2="23.4211" y2="12.2878" gradientUnits="userSpaceOnUse">
<stop stop-color="#261F74"/>
<stop offset="1" stop-color="#7D1F9D"/>
</linearGradient>
<linearGradient id="paint2_linear" x1="4" y1="12.8" x2="23.4211" y2="12.2878" gradientUnits="userSpaceOnUse">
<stop stop-color="#261F74"/>
<stop offset="1" stop-color="#7D1F9D"/>
</linearGradient>
<linearGradient id="paint3_linear" x1="4" y1="12.8" x2="23.4211" y2="12.2878" gradientUnits="userSpaceOnUse">
<stop stop-color="#261F74"/>
<stop offset="1" stop-color="#7D1F9D"/>
</linearGradient>
<linearGradient id="paint4_linear" x1="4" y1="12.8" x2="23.4211" y2="12.2878" gradientUnits="userSpaceOnUse">
<stop stop-color="#261F74"/>
<stop offset="1" stop-color="#7D1F9D"/>
</linearGradient>
</defs>
</svg>
