<svg width="63" height="44" viewBox="0 0 63 44" fill="none" xmlns="http://www.w3.org/2000/svg">
<circle cx="5.55882" cy="5.55882" r="5.55882" fill="url(#paint0_linear)"/>
<circle cx="22.8529" cy="5.55882" r="5.55882" fill="url(#paint1_linear)"/>
<circle cx="40.147" cy="5.55882" r="5.55882" fill="url(#paint2_linear)"/>
<circle cx="57.4413" cy="5.55882" r="5.55882" fill="url(#paint3_linear)"/>
<circle cx="5.55882" cy="21.6176" r="5.55882" fill="url(#paint4_linear)"/>
<circle cx="22.8529" cy="21.6176" r="5.55882" fill="url(#paint5_linear)"/>
<circle cx="40.147" cy="21.6176" r="5.55882" fill="url(#paint6_linear)"/>
<circle cx="57.4413" cy="21.6176" r="5.55882" fill="url(#paint7_linear)"/>
<circle cx="5.55882" cy="37.6765" r="5.55882" fill="url(#paint8_linear)"/>
<circle cx="22.8529" cy="37.6765" r="5.55882" fill="url(#paint9_linear)"/>
<circle cx="40.147" cy="37.6765" r="5.55882" fill="url(#paint10_linear)"/>
<circle cx="57.4413" cy="37.6765" r="5.55882" fill="url(#paint11_linear)"/>
<defs>
<linearGradient id="paint0_linear" x1="11.1176" y1="0.926468" x2="1.58424e-08" y2="0.926469" gradientUnits="userSpaceOnUse">
<stop stop-color="#2575FC"/>
<stop offset="1" stop-color="#5235DD"/>
</linearGradient>
<linearGradient id="paint1_linear" x1="28.4117" y1="0.926468" x2="17.2941" y2="0.926469" gradientUnits="userSpaceOnUse">
<stop stop-color="#2575FC"/>
<stop offset="1" stop-color="#5235DD"/>
</linearGradient>
<linearGradient id="paint2_linear" x1="45.7058" y1="0.926468" x2="34.5881" y2="0.926469" gradientUnits="userSpaceOnUse">
<stop stop-color="#2575FC"/>
<stop offset="1" stop-color="#5235DD"/>
</linearGradient>
<linearGradient id="paint3_linear" x1="63.0001" y1="0.926468" x2="51.8824" y2="0.926469" gradientUnits="userSpaceOnUse">
<stop stop-color="#2575FC"/>
<stop offset="1" stop-color="#5235DD"/>
</linearGradient>
<linearGradient id="paint4_linear" x1="11.1176" y1="16.9853" x2="1.58424e-08" y2="16.9853" gradientUnits="userSpaceOnUse">
<stop stop-color="#2575FC"/>
<stop offset="1" stop-color="#5235DD"/>
</linearGradient>
<linearGradient id="paint5_linear" x1="28.4117" y1="16.9853" x2="17.2941" y2="16.9853" gradientUnits="userSpaceOnUse">
<stop stop-color="#2575FC"/>
<stop offset="1" stop-color="#5235DD"/>
</linearGradient>
<linearGradient id="paint6_linear" x1="45.7058" y1="16.9853" x2="34.5881" y2="16.9853" gradientUnits="userSpaceOnUse">
<stop stop-color="#2575FC"/>
<stop offset="1" stop-color="#5235DD"/>
</linearGradient>
<linearGradient id="paint7_linear" x1="63.0001" y1="16.9853" x2="51.8824" y2="16.9853" gradientUnits="userSpaceOnUse">
<stop stop-color="#2575FC"/>
<stop offset="1" stop-color="#5235DD"/>
</linearGradient>
<linearGradient id="paint8_linear" x1="11.1176" y1="33.0441" x2="1.58424e-08" y2="33.0441" gradientUnits="userSpaceOnUse">
<stop stop-color="#2575FC"/>
<stop offset="1" stop-color="#5235DD"/>
</linearGradient>
<linearGradient id="paint9_linear" x1="28.4117" y1="33.0441" x2="17.2941" y2="33.0441" gradientUnits="userSpaceOnUse">
<stop stop-color="#2575FC"/>
<stop offset="1" stop-color="#5235DD"/>
</linearGradient>
<linearGradient id="paint10_linear" x1="45.7058" y1="33.0441" x2="34.5881" y2="33.0441" gradientUnits="userSpaceOnUse">
<stop stop-color="#2575FC"/>
<stop offset="1" stop-color="#5235DD"/>
</linearGradient>
<linearGradient id="paint11_linear" x1="63.0001" y1="33.0441" x2="51.8824" y2="33.0441" gradientUnits="userSpaceOnUse">
<stop stop-color="#2575FC"/>
<stop offset="1" stop-color="#5235DD"/>
</linearGradient>
</defs>
</svg>
