<svg width="24" height="24" viewBox="0 0 24 24" fill="none" xmlns="http://www.w3.org/2000/svg">
<path d="M9.094 21.006C8.46522 20.9719 7.87354 20.6977 7.441 20.24C6.9236 19.7422 6.46188 19.1897 6.064 18.592C5.44249 17.702 4.9512 16.7279 4.605 15.699C4.21286 14.5922 4.00641 13.4282 3.994 12.254C3.96386 11.1019 4.24951 9.96346 4.82 8.96202C5.23757 8.24012 5.83318 7.63728 6.55 7.21102C7.25888 6.78659 8.06781 6.55813 8.894 6.54902C9.51681 6.58587 10.1288 6.72823 10.704 6.97002C11.1626 7.17178 11.6452 7.31362 12.14 7.39202C12.686 7.27763 13.2195 7.11017 13.733 6.89202C14.3407 6.65474 14.9841 6.52187 15.636 6.49902C15.723 6.49902 15.809 6.49902 15.892 6.50902C17.3215 6.55048 18.6511 7.25221 19.492 8.40902C18.155 9.12387 17.334 10.5303 17.369 12.046C17.3558 13.1956 17.8351 14.2959 18.686 15.069C19.0689 15.4339 19.5148 15.7262 20.002 15.932C19.902 16.232 19.787 16.522 19.665 16.814C19.3877 17.4593 19.0456 18.0748 18.644 18.651C18.2649 19.2282 17.8235 19.7621 17.328 20.243C16.8756 20.6919 16.2726 20.9567 15.636 20.986C15.0964 20.9621 14.5662 20.8355 14.074 20.613C13.5432 20.3818 12.9728 20.2551 12.394 20.24C11.7989 20.2517 11.2116 20.3777 10.664 20.611C10.191 20.8244 9.68575 20.9572 9.169 21.004L9.094 21.006ZM12.244 6.49902C12.169 6.49902 12.094 6.49902 12.019 6.49002C12.0032 6.37099 11.9949 6.25109 11.994 6.13102C12.0267 5.13216 12.4171 4.17826 13.094 3.44302C13.4723 3.0206 13.9309 2.67762 14.443 2.43402C14.9209 2.18802 15.4431 2.04012 15.979 1.99902C15.994 2.13002 15.994 2.25802 15.994 2.38002C15.9798 3.36317 15.6104 4.308 14.954 5.04002C14.3105 5.9028 13.3185 6.43689 12.244 6.49902Z" fill="url(#paint0_linear)"/>
<defs>
<linearGradient id="paint0_linear" x1="3.99184" y1="12.2628" x2="23.4236" y2="11.7232" gradientUnits="userSpaceOnUse">
<stop stop-color="#261F74"/>
<stop offset="1" stop-color="#7D1F9D"/>
</linearGradient>
</defs>
</svg>
