<svg width="24" height="24" viewBox="0 0 24 24" fill="none" xmlns="http://www.w3.org/2000/svg">
<path d="M16.286 17.714C14.6462 17.7134 13.0855 17.0091 12 15.78C10.2599 17.7526 7.39792 18.2824 5.067 17.0634C2.73608 15.8444 1.53849 13.1916 2.1659 10.6371C2.7933 8.0826 5.08358 6.28645 7.714 6.286C8.61295 6.28385 9.49945 6.49605 10.3 6.905C9.67562 7.63707 9.19184 8.47818 8.873 9.386C7.7165 8.87377 6.36084 9.18295 5.54079 10.146C4.72075 11.109 4.63153 12.4966 5.32149 13.5567C6.01145 14.6168 7.31635 15.097 8.52893 14.7371C9.74151 14.3772 10.5731 13.2629 10.573 11.998C10.573 8.84224 13.1312 6.284 16.287 6.284C19.4428 6.284 22.001 8.84224 22.001 11.998C22.001 15.1538 19.4428 17.712 16.287 17.712L16.286 17.714ZM13.43 12.1C13.4574 13.6679 14.7435 14.9206 16.3116 14.9069C17.8796 14.8932 19.1436 13.6181 19.1436 12.05C19.1436 10.4819 17.8796 9.20683 16.3116 9.19311C14.7435 9.17938 13.4574 10.4321 13.43 12V12.1Z" fill="url(#paint0_linear)"/>
<defs>
<linearGradient id="paint0_linear" x1="2.00043" y1="12.4563" x2="26.2136" y2="11.0596" gradientUnits="userSpaceOnUse">
<stop stop-color="#261F74"/>
<stop offset="1" stop-color="#7D1F9D"/>
</linearGradient>
</defs>
</svg>
