<svg width="24" height="24" viewBox="0 0 24 24" fill="none" xmlns="http://www.w3.org/2000/svg">
<path d="M19.625 22L17.583 20.2L16.432 19.13L15.215 18L15.715 19.759H4.947C3.86861 19.7551 2.99723 18.8784 2.99999 17.8V4.957C2.99834 3.87939 3.8694 3.00386 4.947 3H17.678C18.7556 3.00386 19.6267 3.87939 19.625 4.957V22ZM15.1 13.508C14.6783 14.0735 14.0713 14.4728 13.385 14.636C13.667 14.996 14.007 15.403 14.01 15.407C15.1571 15.4312 16.2433 14.8917 16.917 13.963C16.8825 12.0377 16.4149 10.1449 15.549 8.425C14.7866 7.82677 13.8586 7.47763 12.891 7.425H12.88L12.747 7.577C13.6113 7.80915 14.4173 8.22 15.113 8.783C14.2278 8.29641 13.2565 7.98665 12.253 7.871C11.6152 7.80017 10.9712 7.80654 10.335 7.89C10.29 7.89089 10.2452 7.89557 10.201 7.904H10.173C9.42734 7.98985 8.69981 8.19232 8.017 8.504C7.675 8.661 7.465 8.775 7.456 8.779C7.447 8.783 7.456 8.779 7.456 8.772C8.19388 8.19164 9.04517 7.7723 9.955 7.541L9.855 7.427H9.849C8.88139 7.47976 7.95343 7.82888 7.191 8.427C6.3219 10.1457 5.85416 12.0393 5.823 13.965C6.48833 14.8999 7.576 15.4415 8.723 15.409C8.723 15.409 9.081 14.973 9.36 14.62C8.691 14.4519 8.10152 14.0558 7.693 13.5C7.7 13.505 7.799 13.572 7.959 13.66C7.96975 13.6726 7.98303 13.6829 7.998 13.69C8.01067 13.6988 8.02405 13.7065 8.038 13.713C8.05381 13.7202 8.06888 13.7289 8.083 13.739C8.30611 13.862 8.53769 13.9689 8.776 14.059C9.22907 14.2384 9.69772 14.3756 10.176 14.469C10.5947 14.5479 11.0199 14.5881 11.446 14.589C11.8455 14.589 12.2442 14.5521 12.637 14.479C13.11 14.3959 13.5721 14.259 14.014 14.071C14.3957 13.9242 14.76 13.7353 15.1 13.508ZM13.062 13.081C12.6269 13.1189 12.2132 12.8859 12.0201 12.4942C11.827 12.1025 11.8942 11.6324 12.1893 11.3104C12.4844 10.9885 12.9469 10.8807 13.3539 11.039C13.7609 11.1973 14.029 11.5893 14.029 12.026C14.051 12.5839 13.6187 13.0551 13.061 13.081H13.062ZM9.594 13.081C9.04684 13.0333 8.62695 12.5752 8.62695 12.026C8.62695 11.4768 9.04684 11.0187 9.594 10.971C9.84604 10.9718 10.087 11.0746 10.262 11.256C10.4605 11.4621 10.5685 11.7389 10.562 12.025C10.5851 12.5839 10.1518 13.0561 9.593 13.081H9.594Z" fill="url(#paint0_linear)"/>
<defs>
<linearGradient id="paint0_linear" x1="2.99998" y1="13.26" x2="23.1768" y2="12.678" gradientUnits="userSpaceOnUse">
<stop stop-color="#261F74"/>
<stop offset="1" stop-color="#7D1F9D"/>
</linearGradient>
</defs>
</svg>
