<svg width="24" height="24" viewBox="0 0 24 24" fill="none" xmlns="http://www.w3.org/2000/svg">
<path d="M8.945 22.0001C7.28009 22.013 5.7887 20.9726 5.22601 19.4056C4.66331 17.8386 5.15215 16.0871 6.445 15.038C5.528 14.2958 4.99523 13.1792 4.99523 11.9995C4.99523 10.8198 5.528 9.7032 6.445 8.96102C5.15173 7.91226 4.6626 6.16065 5.22541 4.59358C5.78821 3.02651 7.27999 1.98634 8.945 1.99989H15.055C16.72 1.98634 18.2118 3.02651 18.7746 4.59358C19.3374 6.16065 18.8483 7.91226 17.555 8.96102C18.8479 10.0101 19.3367 11.7616 18.774 13.3286C18.2113 14.8956 16.7199 15.936 15.055 15.923C14.286 15.924 13.5335 15.7001 12.89 15.279V18.079C12.8806 20.25 11.116 22.0039 8.945 22.0001ZM8.923 15.924C7.73854 15.9427 6.7917 16.9148 6.80412 18.0993C6.81654 19.2839 7.78356 20.2359 8.96816 20.2298C10.1527 20.2236 11.1099 19.2616 11.11 18.077V15.924H8.922H8.923ZM15.056 9.84702C13.8684 9.85309 12.91 10.8197 12.914 12.0073C12.9181 13.1949 13.883 14.155 15.0706 14.153C16.2583 14.151 17.22 13.1877 17.22 12C17.2156 10.8081 16.2469 9.84481 15.055 9.84702H15.056ZM8.946 9.84699C8.17681 9.84291 7.46385 10.2495 7.0757 10.9136C6.68754 11.5776 6.68316 12.3984 7.0642 13.0666C7.44524 13.7348 8.15381 14.1489 8.923 14.153H11.11V9.84699H8.946ZM12.89 3.77002V8.07704H15.054C16.2115 8.08242 17.1665 7.17244 17.217 6.01602V6.45102V5.92302C17.212 4.7325 16.2455 3.77002 15.055 3.77002H12.89ZM8.944 3.77002C8.17481 3.77002 7.46404 4.18038 7.07945 4.84652C6.69485 5.51266 6.69485 6.33338 7.07945 6.99952C7.46404 7.66566 8.17481 8.07602 8.944 8.07602H11.11V3.77002H8.944Z" fill="url(#paint0_linear)"/>
<defs>
<linearGradient id="paint0_linear" x1="4.99459" y1="12.8" x2="22.0038" y2="12.4072" gradientUnits="userSpaceOnUse">
<stop stop-color="#261F74"/>
<stop offset="1" stop-color="#7D1F9D"/>
</linearGradient>
</defs>
</svg>
