<svg width="24" height="24" viewBox="0 0 24 24" fill="none" xmlns="http://www.w3.org/2000/svg">
<path d="M19.362 20.993H4.638C3.73784 20.9919 3.00855 20.2622 3.008 19.362V4.638C3.0091 3.73823 3.73823 3.0091 4.638 3.008H19.361C20.2611 3.00909 20.9908 3.7379 20.993 4.638V19.362C20.9919 20.2623 20.2623 20.9919 19.362 20.993ZM6.673 9.67L6.285 11.1H7.563L6.737 14.466C6.6763 14.7322 6.64279 15.004 6.637 15.277C6.59052 15.7164 6.74776 16.1529 7.06378 16.4617C7.37979 16.7705 7.81979 16.9176 8.258 16.861C9.18776 16.8207 10.0229 16.2804 10.441 15.449L10.114 16.749H11.925L12.958 12.608C13.218 11.548 13.73 11.008 14.477 11.008C14.7424 10.9882 15.0031 11.086 15.1901 11.2754C15.377 11.4649 15.4713 11.7269 15.448 11.992C15.4506 12.1889 15.4219 12.3851 15.363 12.573L14.835 14.479C14.7589 14.7429 14.7205 15.0163 14.721 15.291C14.6924 15.7297 14.8603 16.1585 15.1793 16.4611C15.4984 16.7636 15.9354 16.9087 16.372 16.857C17.402 16.857 18.12 16.157 18.509 14.776L17.802 14.503C17.526 15.292 17.232 15.676 16.902 15.676C16.661 15.676 16.534 15.509 16.534 15.192C16.5408 15.0257 16.5659 14.8607 16.609 14.7L17.129 12.842C17.2469 12.4597 17.3076 12.0621 17.309 11.662C17.3685 11.1304 17.2011 10.5984 16.848 10.1965C16.4949 9.79471 15.9888 9.56035 15.454 9.551C14.4058 9.69414 13.5008 10.3569 13.048 11.313L13.408 9.696H10.62L10.229 11.096H11.523L10.723 14.284C10.4436 15.0672 9.72659 15.6103 8.897 15.667C8.86618 15.6675 8.83539 15.6651 8.805 15.66C8.562 15.603 8.421 15.51 8.421 15.208C8.42666 14.9584 8.46362 14.7104 8.531 14.47L9.747 9.67H6.673ZM9.018 6.508C8.62858 6.508 8.26874 6.71575 8.07403 7.053C7.87932 7.39024 7.87932 7.80575 8.07403 8.143C8.26874 8.48024 8.62858 8.688 9.018 8.688V8.663C9.30954 8.66536 9.59023 8.55251 9.799 8.349C10.0037 8.14689 10.118 7.87064 10.116 7.583C10.1083 6.98351 9.61751 6.50299 9.018 6.508Z" fill="url(#paint0_linear)"/>
<defs>
<linearGradient id="paint0_linear" x1="3.008" y1="12.7199" x2="24.8298" y2="12.0005" gradientUnits="userSpaceOnUse">
<stop stop-color="#261F74"/>
<stop offset="1" stop-color="#7D1F9D"/>
</linearGradient>
</defs>
</svg>
