<svg width="24" height="24" viewBox="0 0 24 24" fill="none" xmlns="http://www.w3.org/2000/svg">
<path d="M10.396 22C10.0737 21.9999 9.75716 21.915 9.478 21.754L4.958 19.144C4.39155 18.8156 4.04234 18.2108 4.041 17.556V12.336C4.04198 11.6809 4.39124 11.0757 4.958 10.747L6.331 9.95401V11.664C6.33255 12.6467 6.85668 13.5544 7.707 14.047L12.228 16.657C13.0793 17.1492 14.1287 17.1492 14.98 16.657L16.752 15.635V17.556C16.751 18.2112 16.4018 18.8164 15.835 19.145L11.314 21.755C11.0347 21.9157 10.7182 22.0002 10.396 22ZM13.603 16.109C13.281 16.109 12.9648 16.024 12.686 15.863L8.165 13.253C7.59786 12.9246 7.24819 12.3194 7.247 11.664V6.44402C7.24798 5.78861 7.59771 5.18325 8.165 4.85501L12.686 2.24601C13.2534 1.9184 13.9526 1.9184 14.52 2.24601L19.041 4.85601C19.6079 5.18451 19.9572 5.78981 19.958 6.44501V11.665C19.9572 12.3202 19.6079 12.9255 19.041 13.254L14.52 15.864C14.241 16.0245 13.9248 16.109 13.603 16.109Z" fill="url(#paint0_linear)"/>
<defs>
<linearGradient id="paint0_linear" x1="4.041" y1="12.8001" x2="23.3613" y2="12.2932" gradientUnits="userSpaceOnUse">
<stop stop-color="#261F74"/>
<stop offset="1" stop-color="#7D1F9D"/>
</linearGradient>
</defs>
</svg>
