<svg width="24" height="24" viewBox="0 0 24 24" fill="none" xmlns="http://www.w3.org/2000/svg">
<path d="M11.398 21.009H8.874C8.74575 21.0163 8.62209 20.9602 8.543 20.859C8.46283 20.7563 8.43011 20.6243 8.453 20.496C8.493 20.255 8.543 19.937 8.606 19.533C8.641 19.311 8.679 19.07 8.72 18.806C8.845 18.006 8.93 17.469 8.987 17.118C9.00967 16.9774 9.03667 16.8107 9.068 16.618V16.598C9.11933 16.2787 9.182 15.8907 9.256 15.434L9.356 14.815V14.81C9.428 14.3654 9.48467 14.0117 9.526 13.749C9.5306 13.641 9.57981 13.5398 9.66189 13.4694C9.74398 13.3991 9.85157 13.366 9.959 13.378H11.479C12.2082 13.3859 12.9361 13.3148 13.65 13.166C14.7249 12.9515 15.7219 12.4509 16.536 11.717C17.2493 11.0318 17.7848 10.1829 18.096 9.24402C18.2479 8.80785 18.3656 8.36049 18.448 7.90602C18.455 7.86402 18.463 7.84002 18.473 7.83202C18.479 7.82431 18.4882 7.81986 18.498 7.82002H18.508C18.53 7.82924 18.5508 7.84098 18.57 7.85502C19.0947 8.25248 19.4458 8.8371 19.55 9.48702C19.6683 10.1669 19.6548 10.8632 19.51 11.538C19.3206 12.8439 18.6601 14.0354 17.653 14.888C16.5404 15.681 15.1924 16.0743 13.828 16.004H13.389C13.2256 16.0027 13.0674 16.0618 12.945 16.17C12.8181 16.2802 12.7335 16.4312 12.706 16.597L12.665 16.791L12.112 20.269L12.091 20.42C12.0624 20.5876 11.9744 20.7392 11.843 20.847C11.7193 20.9534 11.5611 21.011 11.398 21.009ZM7.82 19.009H4.855C4.71351 19.012 4.57812 18.9515 4.486 18.844C4.38998 18.7385 4.34761 18.5948 4.371 18.454L6.702 3.66402C6.73131 3.47427 6.83002 3.30215 6.979 3.18102C7.12289 3.05694 7.307 2.98941 7.497 2.99099H13.511C13.8407 3.00401 14.1685 3.04787 14.49 3.12202C14.8732 3.19455 15.2491 3.30165 15.613 3.44202C16.2753 3.67622 16.8496 4.10842 17.258 4.68002C17.6452 5.26349 17.8435 5.95198 17.826 6.65202C17.809 7.46388 17.6531 8.26683 17.365 9.02602C16.9057 10.5007 15.7791 11.6732 14.324 12.191C13.5072 12.4676 12.6513 12.6111 11.789 12.616C11.779 12.622 11.349 12.623 10.889 12.623L9.989 12.616C9.39531 12.5554 8.86449 12.9865 8.802 13.58C8.789 13.634 8.485 15.527 7.947 18.909C7.94702 18.9411 7.93266 18.9715 7.90786 18.9918C7.88306 19.0122 7.85045 19.0203 7.819 19.014L7.82 19.009Z" fill="url(#paint0_linear)"/>
<defs>
<linearGradient id="paint0_linear" x1="4.36469" y1="12.7211" x2="22.8919" y2="12.2036" gradientUnits="userSpaceOnUse">
<stop stop-color="#261F74"/>
<stop offset="1" stop-color="#7D1F9D"/>
</linearGradient>
</defs>
</svg>
