<svg width="24" height="24" viewBox="0 0 24 24" fill="none" xmlns="http://www.w3.org/2000/svg">
<path d="M5.4 21C5.22943 21.0027 5.05985 20.9735 4.9 20.914L12.954 12.857L15.62 15.526L6.365 20.726C6.07183 20.8978 5.73972 20.9921 5.4 21ZM4.236 20.335C4.07228 20.0385 3.9908 19.7036 4 19.365V4.65998C3.99865 4.43676 4.03239 4.21472 4.1 4.00198L12.333 12.237L4.233 20.337L4.236 20.335ZM16.415 15.077L13.574 12.238L16.707 9.10598L19.49 10.669C20.0242 10.9081 20.3817 11.4238 20.418 12.008C20.3819 12.5927 20.0239 13.109 19.489 13.348L16.415 15.077ZM12.954 11.614L4.614 3.27498C4.84298 3.10565 5.12021 3.01418 5.405 3.01398C5.74134 3.02592 6.06947 3.12109 6.36 3.29098L15.911 8.65898L12.955 11.614H12.954Z" fill="url(#paint0_linear)"/>
<defs>
<linearGradient id="paint0_linear" x1="3.9993" y1="12.7265" x2="23.9243" y2="12.1269" gradientUnits="userSpaceOnUse">
<stop stop-color="#261F74"/>
<stop offset="1" stop-color="#7D1F9D"/>
</linearGradient>
</defs>
</svg>
