<svg width="24" height="24" viewBox="0 0 24 24" fill="none" xmlns="http://www.w3.org/2000/svg">
<path d="M14.641 22.024C13.4805 22.0201 12.5415 21.0785 12.541 19.918V17.811H14.641C15.8047 17.811 16.748 18.7543 16.748 19.918C16.748 21.0816 15.8047 22.025 14.641 22.025V22.024ZM9.359 22.024C8.19847 22.0201 7.25955 21.0785 7.259 19.918V14.644C7.259 13.8925 7.65993 13.1981 8.31075 12.8223C8.96158 12.4465 9.76343 12.4465 10.4143 12.8223C11.0651 13.1981 11.466 13.8925 11.466 14.644V19.918C11.4655 21.0813 10.5223 22.024 9.359 22.024ZM19.909 16.751H14.641C13.4776 16.751 12.5345 15.8079 12.5345 14.6445C12.5345 13.4811 13.4776 12.538 14.641 12.538H19.909C21.0724 12.538 22.0155 13.4811 22.0155 14.6445C22.0155 15.8079 21.0724 16.751 19.909 16.751ZM4.092 16.751C2.92862 16.751 1.9855 15.8079 1.9855 14.6445C1.9855 13.4811 2.92862 12.538 4.092 12.538H6.192V14.644C6.192 15.8069 5.24989 16.7499 4.087 16.751H4.092ZM19.909 11.462H17.809V9.35598C17.8123 8.19697 18.754 7.25978 19.913 7.26198C21.072 7.26419 22.0101 8.20496 22.009 9.36398C22.0079 10.523 21.068 11.462 19.909 11.462ZM14.641 11.462C13.4805 11.4581 12.5415 10.5165 12.541 9.35598V4.08198C12.541 3.33047 12.9419 2.63605 13.5928 2.2603C14.2436 1.88454 15.0454 1.88454 15.6963 2.2603C16.3471 2.63605 16.748 3.33047 16.748 4.08198V9.35598C16.7475 10.5193 15.8043 11.462 14.641 11.462ZM9.359 11.462H4.092C2.92862 11.462 1.9855 10.5189 1.9855 9.35548C1.9855 8.19209 2.92862 7.24898 4.092 7.24898H9.359C10.5224 7.24898 11.4655 8.19209 11.4655 9.35548C11.4655 10.5189 10.5224 11.462 9.359 11.462ZM11.459 6.18899H9.359C8.50676 6.19141 7.73706 5.67995 7.40914 4.89331C7.08122 4.10667 7.25973 3.19994 7.86136 2.5963C8.46299 1.99267 9.36912 1.81114 10.1569 2.13644C10.9446 2.46174 11.4586 3.22973 11.459 4.08198V6.18798V6.18899Z" fill="url(#paint0_linear)"/>
<defs>
<linearGradient id="paint0_linear" x1="1.9855" y1="12.8029" x2="26.2886" y2="12.0024" gradientUnits="userSpaceOnUse">
<stop stop-color="#261F74"/>
<stop offset="1" stop-color="#7D1F9D"/>
</linearGradient>
</defs>
</svg>
