<svg width="24" height="24" viewBox="0 0 24 24" fill="none" xmlns="http://www.w3.org/2000/svg">
<path d="M10.464 8.06408C10.729 8.06408 10.944 10.1701 10.944 12.7681L10.943 13.1191C10.924 15.5531 10.717 17.4721 10.464 17.4721C10.208 17.4721 9.999 15.5071 9.984 13.0321V12.6801C9.989 10.1221 10.202 8.06408 10.464 8.06408V8.06408ZM8.8 9.02408C9.059 9.02408 9.27 10.8241 9.28 13.0781V13.4181C9.27 15.6721 9.059 17.4721 8.8 17.4721C8.545 17.4721 8.336 15.7171 8.32 13.5021V13.1621L8.322 12.8221C8.347 10.6891 8.552 9.02408 8.8 9.02408ZM7.136 9.02408C7.391 9.02408 7.6 10.7791 7.616 12.9941V13.3341L7.614 13.6741C7.589 15.8071 7.384 17.4721 7.136 17.4721C6.877 17.4721 6.666 15.6721 6.656 13.4181V13.0781C6.666 10.8241 6.877 9.02408 7.136 9.02408V9.02408ZM5.472 9.60008C5.737 9.60008 5.952 11.3621 5.952 13.5361L5.95 13.8711C5.93 15.8881 5.723 17.4721 5.472 17.4721C5.21 17.4721 4.998 15.7551 4.992 13.6201V13.4521C4.998 11.3171 5.21 9.60008 5.472 9.60008V9.60008ZM3.808 11.3281C4.073 11.3281 4.288 12.7031 4.288 14.4001V14.5581C4.275 16.1811 4.065 17.4721 3.808 17.4721C3.543 17.4721 3.328 16.0971 3.328 14.4001V14.2421C3.341 12.6191 3.551 11.3281 3.808 11.3281V11.3281ZM14.592 6.52808C17.172 6.52808 19.312 8.41408 19.71 10.8821C20.1694 10.7502 20.6517 10.7179 21.1247 10.7873C21.5976 10.8567 22.0503 11.0263 22.4524 11.2845C22.8546 11.5428 23.1971 11.884 23.4569 12.2852C23.7168 12.6864 23.888 13.1384 23.9593 13.611C24.0305 14.0837 24.0001 14.5661 23.87 15.026C23.7399 15.486 23.5132 15.9129 23.205 16.2782C22.8968 16.6436 22.5142 16.939 22.0827 17.1447C21.6513 17.3504 21.1809 17.4617 20.703 17.4711L20.64 17.4721H12.48C12.2763 17.4721 12.081 17.3912 11.9369 17.2471C11.7929 17.1031 11.712 16.9078 11.712 16.7041V7.40108C12.5639 6.83038 13.5666 6.52645 14.592 6.52808V6.52808ZM2.144 11.1361C2.409 11.1361 2.624 12.4681 2.624 14.1121V14.2681C2.61 15.8381 2.401 17.0881 2.144 17.0881C1.884 17.0881 1.671 15.7981 1.664 14.1901V14.1121C1.664 12.4681 1.879 11.1361 2.144 11.1361ZM0.48 12.0961C0.745 12.0961 0.96 13.0421 0.96 14.2081V14.3391C0.944 15.4441 0.735 16.3201 0.48 16.3201C0.215 16.3201 0 15.3741 0 14.2081V14.0771C0.016 12.9721 0.225 12.0961 0.48 12.0961Z" fill="url(#paint0_linear)"/>
<defs>
<linearGradient id="paint0_linear" x1="6.67491e-10" y1="12.4378" x2="28.9962" y2="10.3418" gradientUnits="userSpaceOnUse">
<stop stop-color="#261F74"/>
<stop offset="1" stop-color="#7D1F9D"/>
</linearGradient>
</defs>
</svg>
