<svg width="24" height="24" viewBox="0 0 24 24" fill="none" xmlns="http://www.w3.org/2000/svg">
<path d="M12.01 22C7.96869 22.0053 4.32329 19.5723 2.77763 15.8383C1.23196 12.1042 2.0913 7.80657 4.954 4.954C7.47317 2.42574 11.1509 1.43555 14.5989 2.35723C18.0469 3.2789 20.7401 5.97206 21.6618 9.42008C22.5834 12.8681 21.5933 16.5458 19.065 19.065C17.1997 20.9462 14.6593 22.0031 12.01 22ZM10.528 15.272C12.3657 15.2337 14.1771 15.7133 15.755 16.656C15.8523 16.7213 15.9668 16.7561 16.084 16.756C16.2975 16.7506 16.4939 16.6378 16.606 16.456C16.6933 16.2875 16.7084 16.0909 16.648 15.911C16.5969 15.7742 16.4905 15.6653 16.355 15.611C14.5784 14.5542 12.5407 14.0175 10.474 14.062C9.19173 14.0718 7.91441 14.2224 6.665 14.511C6.33743 14.5983 6.13825 14.9298 6.215 15.26C6.29234 15.5265 6.529 15.7155 6.806 15.732C6.85916 15.7318 6.91202 15.7241 6.963 15.709C8.13134 15.431 9.3271 15.2844 10.528 15.272ZM10.338 12.296C12.5863 12.2695 14.801 12.8429 16.754 13.957C16.8653 14.0379 16.9994 14.0813 17.137 14.081C17.4065 14.0705 17.6547 13.9319 17.805 13.708C17.9224 13.5367 17.959 13.3226 17.905 13.122C17.8684 12.9481 17.7593 12.7982 17.605 12.71C15.3967 11.4347 12.8869 10.7748 10.337 10.799C8.99276 10.7908 7.65456 10.9794 6.365 11.359C5.96876 11.4894 5.74748 11.9107 5.865 12.311C5.96309 12.6345 6.26838 12.8499 6.606 12.834C6.67777 12.8347 6.74934 12.8263 6.819 12.809C7.95878 12.4587 9.14564 12.2857 10.338 12.296ZM10.527 9.208C13.091 9.13404 15.631 9.71938 17.904 10.908C18.0572 10.9917 18.2294 11.0348 18.404 11.033C18.7141 11.0395 19.0096 10.9017 19.204 10.66C19.3249 10.4388 19.3564 10.1797 19.292 9.936C19.2318 9.69286 19.0741 9.48526 18.856 9.362C16.2928 7.99965 13.4208 7.32309 10.519 7.398C8.91223 7.38147 7.31094 7.58811 5.761 8.012C5.32563 8.14664 5.05571 8.58113 5.12789 9.03109C5.20008 9.48105 5.59236 9.8093 6.048 9.801C6.13671 9.80108 6.22496 9.78828 6.31 9.763C7.68128 9.37421 9.10181 9.18691 10.527 9.207V9.208Z" fill="url(#paint0_linear)"/>
<defs>
<linearGradient id="paint0_linear" x1="2.0187" y1="12.8085" x2="26.2632" y2="12.0093" gradientUnits="userSpaceOnUse">
<stop stop-color="#261F74"/>
<stop offset="1" stop-color="#7D1F9D"/>
</linearGradient>
</defs>
</svg>
