<svg width="24" height="24" viewBox="0 0 24 24" fill="none" xmlns="http://www.w3.org/2000/svg">
<path d="M18.84 20.999H4.381V14.599H5.981V19.399H17.24V14.599H18.84V20.999ZM15.64 17.799H7.581V16.199H15.636V17.799H15.64ZM15.64 15.799L7.781 14.16L8.119 12.608L15.98 14.25L15.637 15.799H15.64ZM16.079 13.762L8.799 10.362V10.356L9.473 8.89902L16.754 12.299L16.081 13.763L16.079 13.762ZM17.002 11.917L10.832 6.77702H10.841L11.854 5.56302L18.016 10.699L16.999 11.918L17.002 11.917ZM18.31 10.417L13.503 3.96802L14.813 2.99902L19.619 9.45002L18.307 10.421L18.31 10.417Z" fill="url(#paint0_linear)"/>
<defs>
<linearGradient id="paint0_linear" x1="4.381" y1="12.719" x2="22.8755" y2="12.2029" gradientUnits="userSpaceOnUse">
<stop stop-color="#261F74"/>
<stop offset="1" stop-color="#7D1F9D"/>
</linearGradient>
</defs>
</svg>
