<svg width="24" height="24" viewBox="0 0 24 24" fill="none" xmlns="http://www.w3.org/2000/svg">
<path d="M11.999 22C7.05568 21.9349 3.06416 17.9433 2.999 13C3.06416 8.05669 7.05568 4.06517 11.999 4.00002C16.9423 4.06517 20.9338 8.05669 20.999 13C20.9338 17.9433 16.9423 21.9349 11.999 22ZM11.999 6.00002C8.15417 6.05063 5.04962 9.15518 4.999 13C5.04962 16.8448 8.15417 19.9494 11.999 20C15.8438 19.9494 18.9484 16.8448 18.999 13C18.9484 9.15518 15.8438 6.05063 11.999 6.00002ZM16.999 14H10.999V8.00002H12.999V12H16.999V14ZM20.291 6.70802L17.282 3.70802L18.691 2.29102L21.701 5.29102L20.291 6.70702V6.70802ZM3.706 6.70802L2.291 5.29102L5.282 2.29102L6.697 3.70802L3.708 6.70802H3.706Z" fill="url(#paint0_linear)"/>
<defs>
<linearGradient id="paint0_linear" x1="2.291" y1="12.9339" x2="25.8426" y2="12.1692" gradientUnits="userSpaceOnUse">
<stop stop-color="#261F74"/>
<stop offset="1" stop-color="#7D1F9D"/>
</linearGradient>
</defs>
</svg>
