<svg width="24" height="24" viewBox="0 0 24 24" fill="none" xmlns="http://www.w3.org/2000/svg">
<path d="M12 22C7.05668 21.9349 3.06516 17.9433 3.00001 13C3.06516 8.05669 7.05668 4.06517 12 4.00002C16.9433 4.06517 20.9349 8.05669 21 13C20.9349 17.9433 16.9433 21.9349 12 22ZM12 6.00002C8.15518 6.05063 5.05063 9.15518 5.00001 13C5.05063 16.8448 8.15518 19.9494 12 20C15.8448 19.9494 18.9494 16.8448 19 13C18.9494 9.15518 15.8448 6.05063 12 6.00002ZM13 18H11V14H7.00001V12H11V8.00002H13V12H17V14H13V18ZM20.292 6.70802L17.283 3.70802L18.692 2.29102L21.702 5.29102L20.292 6.70702V6.70802ZM3.70901 6.70802L2.29201 5.29102L5.28301 2.29102L6.69801 3.70702L3.70901 6.70702V6.70802Z" fill="url(#paint0_linear)"/>
<defs>
<linearGradient id="paint0_linear" x1="2.29201" y1="12.9339" x2="25.8436" y2="12.1692" gradientUnits="userSpaceOnUse">
<stop stop-color="#261F74"/>
<stop offset="1" stop-color="#7D1F9D"/>
</linearGradient>
</defs>
</svg>
