<svg width="24" height="24" viewBox="0 0 24 24" fill="none" xmlns="http://www.w3.org/2000/svg">
<path d="M18 22C15.8082 21.9947 14.0268 20.2306 14 18.039V16H10V18.02C9.98897 20.2265 8.19325 22.0073 5.98673 22C3.78022 21.9927 1.9964 20.1999 2.00005 17.9934C2.00372 15.7869 3.79347 14.0001 6 14H8V10H6C3.79347 10 2.00372 8.21318 2.00005 6.00666C1.9964 3.80013 3.78022 2.00739 5.98673 2.00002C8.19325 1.9927 9.98897 3.77352 10 5.98002V8.00002H14V6.00002C14 3.79088 15.7909 2.00002 18 2.00002C20.2091 2.00002 22 3.79088 22 6.00002C22 8.20916 20.2091 10 18 10H16V14H18C20.2091 14 22 15.7909 22 18C22 20.2092 20.2091 22 18 22ZM16 16V18C16 19.1046 16.8954 20 18 20C19.1046 20 20 19.1046 20 18C20 16.8955 19.1046 16 18 16H16ZM6 16C4.89543 16 4 16.8955 4 18C4 19.1046 4.89543 20 6 20C6.53215 20.0057 7.04417 19.7968 7.42048 19.4205C7.79679 19.0442 8.00568 18.5322 8 18V16H6ZM10 10V14H14V10H10ZM18 4.00002C17.4678 3.99435 16.9558 4.20324 16.5795 4.57955C16.2032 4.95586 15.9943 5.46787 16 6.00002V8.00002H18C18.5322 8.0057 19.0442 7.79681 19.4205 7.4205C19.7968 7.04419 20.0057 6.53218 20 6.00002C20.0057 5.46787 19.7968 4.95586 19.4205 4.57955C19.0442 4.20324 18.5322 3.99435 18 4.00002ZM6 4.00002C5.46785 3.99435 4.95584 4.20324 4.57952 4.57955C4.20321 4.95586 3.99432 5.46787 4 6.00002C3.99432 6.53218 4.20321 7.04419 4.57952 7.4205C4.95584 7.79681 5.46785 8.0057 6 8.00002H8V6.00002C8.00568 5.46787 7.79679 4.95586 7.42048 4.57955C7.04417 4.20324 6.53215 3.99435 6 4.00002Z" fill="url(#paint0_linear)"/>
<defs>
<linearGradient id="paint0_linear" x1="2.00005" y1="12.8" x2="26.2667" y2="12" gradientUnits="userSpaceOnUse">
<stop stop-color="#261F74"/>
<stop offset="1" stop-color="#7D1F9D"/>
</linearGradient>
</defs>
</svg>
