<svg width="24" height="24" viewBox="0 0 24 24" fill="none" xmlns="http://www.w3.org/2000/svg">
<path d="M13.66 4.3C13.5649 3.83433 13.1553 3.5 12.68 3.5H5.5C4.94772 3.5 4.5 3.94772 4.5 4.5V19.5C4.5 20.0523 4.94772 20.5 5.5 20.5C6.05228 20.5 6.5 20.0523 6.5 19.5V13.5H12.1L12.34 14.7C12.4307 15.1683 12.8431 15.5048 13.32 15.5H18.5C19.0523 15.5 19.5 15.0523 19.5 14.5V6.5C19.5 5.94772 19.0523 5.5 18.5 5.5H13.9L13.66 4.3Z" fill="url(#paint0_linear)"/>
<defs>
<linearGradient id="paint0_linear" x1="4.5" y1="12.68" x2="22.7044" y2="12.1505" gradientUnits="userSpaceOnUse">
<stop stop-color="#261F74"/>
<stop offset="1" stop-color="#7D1F9D"/>
</linearGradient>
</defs>
</svg>
