<svg width="24" height="24" viewBox="0 0 24 24" fill="none" xmlns="http://www.w3.org/2000/svg">
<path d="M6 22C4.31414 21.9996 2.8095 20.9422 2.2379 19.3562C1.6663 17.7702 2.15046 15.9961 3.44846 14.9203C4.74646 13.8445 6.57963 13.698 8.032 14.554L14.554 8.03199C13.5337 6.29851 13.9613 4.07679 15.5522 2.84588C17.143 1.61498 19.401 1.75882 20.8228 3.18164C22.2446 4.60446 22.3868 6.86249 21.1548 8.45248C19.9228 10.0425 17.7008 10.4685 15.968 9.44699L9.447 15.968C10.1765 17.2049 10.187 18.7379 9.47451 19.9846C8.76205 21.2314 7.43596 22.0006 6 22ZM6 16C4.89543 16 4 16.8954 4 18C4 19.1046 4.89543 20 6 20C7.10457 20 8 19.1046 8 18C8 16.8954 7.10457 16 6 16ZM18 3.99999C16.9074 4.0011 16.0179 4.87884 16.0022 5.97133C15.9866 7.06382 16.8506 7.96669 17.9427 7.99911C19.0348 8.03153 19.9508 7.18149 20 6.08999V6.48999V5.99999C20 4.89542 19.1046 3.99999 18 3.99999Z" fill="url(#paint0_linear)"/>
<defs>
<linearGradient id="paint0_linear" x1="2.00076" y1="12.8048" x2="26.2567" y2="12.0051" gradientUnits="userSpaceOnUse">
<stop stop-color="#261F74"/>
<stop offset="1" stop-color="#7D1F9D"/>
</linearGradient>
</defs>
</svg>
