<svg width="24" height="24" viewBox="0 0 24 24" fill="none" xmlns="http://www.w3.org/2000/svg">
<path d="M11.995 4.00001C7.83622 3.99432 4.36666 7.17599 4.01301 11.3197C3.65936 15.4634 6.53957 19.187 10.6392 19.8862C14.7388 20.5853 18.6903 18.0267 19.73 14H17.649C16.6318 16.8771 13.617 18.5324 10.6435 17.8465C7.66991 17.1605 5.6849 14.3519 6.03081 11.3199C6.37672 8.28792 8.94335 5.99856 11.995 6.00001C13.5845 6.00234 15.1064 6.64379 16.218 7.78002L13 11H20V4.00001L17.649 6.35002C16.1527 4.84464 14.1175 3.99873 11.995 4.00001Z" fill="url(#paint0_linear)"/>
<defs>
<linearGradient id="paint0_linear" x1="3.98367" y1="12.6405" x2="23.4168" y2="11.9993" gradientUnits="userSpaceOnUse">
<stop stop-color="#261F74"/>
<stop offset="1" stop-color="#7D1F9D"/>
</linearGradient>
</defs>
</svg>
