<svg width="24" height="24" viewBox="0 0 24 24" fill="none" xmlns="http://www.w3.org/2000/svg">
<path d="M13.82 22H10.18C9.71011 22 9.30355 21.673 9.20299 21.214L8.79599 19.33C8.25305 19.0921 7.73822 18.7946 7.26099 18.443L5.42399 19.028C4.976 19.1709 4.48898 18.9823 4.25399 18.575L2.42999 15.424C2.19758 15.0165 2.27765 14.5025 2.62299 14.185L4.04799 12.885C3.98319 12.2961 3.98319 11.7019 4.04799 11.113L2.62299 9.816C2.27714 9.49837 2.19704 8.98372 2.42999 8.576L4.24999 5.423C4.48498 5.0157 4.972 4.82714 5.41999 4.97L7.25699 5.555C7.50106 5.37416 7.75513 5.20722 8.01799 5.055C8.27033 4.91269 8.53003 4.78385 8.79599 4.669L9.20399 2.787C9.30406 2.32797 9.71018 2.00049 10.18 2H13.82C14.2898 2.00049 14.6959 2.32797 14.796 2.787L15.208 4.67C15.4888 4.79352 15.7622 4.93308 16.027 5.088C16.2743 5.23078 16.5133 5.38736 16.743 5.557L18.581 4.972C19.0287 4.82967 19.5151 5.01816 19.75 5.425L21.57 8.578C21.8024 8.98548 21.7223 9.49951 21.377 9.817L19.952 11.117C20.0168 11.7059 20.0168 12.3001 19.952 12.889L21.377 14.189C21.7223 14.5065 21.8024 15.0205 21.57 15.428L19.75 18.581C19.5151 18.9878 19.0287 19.1763 18.581 19.034L16.743 18.449C16.5104 18.6203 16.2687 18.7789 16.019 18.924C15.7568 19.0759 15.4864 19.2131 15.209 19.335L14.796 21.214C14.6955 21.6726 14.2895 21.9996 13.82 22ZM11.996 8C9.78686 8 7.99599 9.79086 7.99599 12C7.99599 14.2091 9.78686 16 11.996 16C14.2051 16 15.996 14.2091 15.996 12C15.996 9.79086 14.2051 8 11.996 8Z" fill="url(#paint0_linear)"/>
<defs>
<linearGradient id="paint0_linear" x1="2.29744" y1="12.8" x2="25.8434" y2="12.0469" gradientUnits="userSpaceOnUse">
<stop stop-color="#261F74"/>
<stop offset="1" stop-color="#7D1F9D"/>
</linearGradient>
</defs>
</svg>
