<svg width="24" height="24" viewBox="0 0 24 24" fill="none" xmlns="http://www.w3.org/2000/svg">
<path d="M20.292 21.707L11.586 13H7V11H9.586L7.586 9H7C5.34314 9 4 10.3431 4 12C4 13.6569 5.34314 15 7 15H10V17H7C4.48155 17.0021 2.35464 15.1307 2.03605 12.6325C1.71746 10.1343 3.30664 7.78905 5.745 7.159L2.292 3.707L3.707 2.293L21.707 20.293L20.293 21.706L20.292 21.707ZM20.136 15.893L18.708 14.466C19.7865 13.7188 20.2543 12.3575 19.863 11.1052C19.4717 9.85294 18.312 9.0002 17 9H14V7H17C19.12 7.00025 21.0094 8.33744 21.7146 10.3367C22.4199 12.336 21.7876 14.5627 20.137 15.893H20.136Z" fill="url(#paint0_linear)"/>
<defs>
<linearGradient id="paint0_linear" x1="1.99551" y1="12.7766" x2="26.2656" y2="11.9521" gradientUnits="userSpaceOnUse">
<stop stop-color="#261F74"/>
<stop offset="1" stop-color="#7D1F9D"/>
</linearGradient>
</defs>
</svg>
