<svg width="48" height="29" viewBox="0 0 48 29" fill="none" xmlns="http://www.w3.org/2000/svg">
<path d="M29.9465 4.23805C32.1381 3.25458 34.5392 2.91771 36.8446 3.23197C39.15 3.54623 41.2957 4.47264 43.0165 5.95343C44.1404 6.94944 45.0747 8.15877 45.7618 9.47704C46.3334 10.5865 46.7279 11.7784 46.9453 13.0528C47.0087 13.4548 46.6695 13.8192 46.267 13.7816L44.4555 13.6124L42.275 13.4089C42.0066 13.3838 41.7873 13.1983 41.7084 12.9599C41.5295 12.3492 41.2772 11.7976 40.9915 11.2428C40.6144 10.5806 40.1609 10.0102 39.6309 9.53166C38.6624 8.68216 37.4249 8.17059 36.0862 8.01259C34.7474 7.85459 33.341 8.0533 32.0681 8.62751C30.8287 9.20486 29.7901 10.164 28.8365 11.2961C27.9134 12.464 27.0754 13.8049 26.2741 15.1162L26.1914 15.2735L26.1088 15.4308C24.8242 17.555 23.332 19.7259 21.5019 21.5352C19.6718 23.3445 17.5038 24.7922 14.8337 25.467C12.3041 26.0889 9.78815 25.854 7.57532 24.9213C5.36559 23.9559 3.49255 22.2959 2.28234 20.0707C0.837924 17.4607 0.980377 14.4286 1.27381 11.3243C1.27641 11.2968 2.64995 11.8572 2.64995 11.8572C2.64995 11.8572 2.70066 11.8619 3.46956 12.2052L4.29589 12.5428L4.93175 12.7905C5.73388 13.1425 5.58755 13.0678 5.98426 13.26C5.98426 13.26 5.98426 13.26 5.96758 13.4358C5.929 13.8422 5.7661 16.1716 6.69052 17.8421C7.3503 19.0918 8.3828 19.9803 9.5501 20.5183C10.754 21.0267 12.0959 21.152 13.5148 20.8225C15.2815 20.3934 16.842 19.285 18.1957 17.8602C19.5493 16.4355 20.7296 14.6975 21.7695 13.0124L21.8521 12.8551L21.9347 12.6978C22.8951 11.1373 23.8983 9.48186 25.1911 7.98542C26.49 6.42355 28.0021 5.1126 29.9465 4.23805Z" fill="#EFEFEF"/>
<path fill-rule="evenodd" clip-rule="evenodd" d="M45.6855 17.4054C45.7362 16.7352 45.2371 16.1496 44.5707 16.0974C43.9044 16.0453 43.3231 16.5463 43.2724 17.2165C43.2217 17.8867 43.7208 18.4723 44.3872 18.5244C45.0535 18.5766 45.6348 18.0756 45.6855 17.4054ZM47.0373 17.5112C47.1448 16.0901 46.0865 14.8484 44.6736 14.7378C43.2606 14.6272 42.0281 15.6895 41.9206 17.1106C41.8131 18.5317 42.8714 19.7735 44.2843 19.8841C45.6973 19.9947 46.9298 18.9323 47.0373 17.5112Z" fill="url(#paint0_linear)" fill-opacity="0.9"/>
<path d="M7.18734 3.013C8.86271 3.14416 10.1175 4.61649 9.99008 6.30153C9.86262 7.98656 8.40114 9.24623 6.72578 9.11506C5.05041 8.98389 3.79559 7.51157 3.92304 5.82653C4.0505 4.14149 5.51198 2.88183 7.18734 3.013Z" fill="url(#paint1_linear)" fill-opacity="0.9"/>
<defs>
<linearGradient id="paint0_linear" x1="26.5925" y1="18.503" x2="27.1756" y2="11.0553" gradientUnits="userSpaceOnUse">
<stop stop-color="#FF8C61"/>
<stop offset="1" stop-color="#FFD100"/>
<stop offset="1" stop-color="#FFD100"/>
</linearGradient>
<linearGradient id="paint1_linear" x1="-14.2518" y1="7.47745" x2="-13.5605" y2="-1.35351" gradientUnits="userSpaceOnUse">
<stop stop-color="#FF8C61"/>
<stop offset="1" stop-color="#FFD100"/>
<stop offset="1" stop-color="#FFD100"/>
</linearGradient>
</defs>
</svg>
