<svg width="109" height="24" viewBox="0 0 109 24" fill="none" xmlns="http://www.w3.org/2000/svg">
<path fill-rule="evenodd" clip-rule="evenodd" d="M41.4251 12.7869C41.2381 12.7869 41.085 12.6375 41.085 12.4548V11.475V10.4953C41.085 10.3126 41.2381 10.1631 41.4251 10.1631H43.6863H45.9476C46.1346 10.1631 46.2876 10.3126 46.2876 10.4953V11.475V12.4548C46.2876 12.6375 46.1346 12.7869 45.9476 12.7869H43.6863H41.4251ZM34.4543 22.5847C34.4543 22.7674 34.6073 22.9169 34.7943 22.9169H41.4421H48.0898C48.2769 22.9169 48.4299 22.7674 48.4299 22.5847V21.605V20.6252C48.4299 20.4425 48.2769 20.293 48.0898 20.293H42.7682H37.4466C37.2596 20.293 37.1066 20.1436 37.1066 19.9609V11.4584V2.95594C37.1066 2.77327 37.2596 2.62381 37.4466 2.62381H42.7682H48.0898C48.2769 2.62381 48.4299 2.47436 48.4299 2.29168V1.31191V0.332129C48.4299 0.149458 48.2769 0 48.0898 0H41.4421H34.7943C34.6073 0 34.4543 0.149458 34.4543 0.332129V11.4252V22.5847ZM24.0828 12.5379C24.0828 12.7206 24.2358 12.8701 24.4228 12.8701H26.6841H28.9454C29.1324 12.8701 29.2854 12.7206 29.2854 12.5379V11.5582V10.5784C29.2854 10.3957 29.1324 10.2463 28.9454 10.2463H26.6841H24.4228C24.2358 10.2463 24.0828 10.3957 24.0828 10.5784V11.5582V12.5379ZM17.7921 23C17.6051 23 17.452 22.8505 17.452 22.6679V11.5748V0.481677C17.452 0.299006 17.6051 0.149548 17.7921 0.149548H24.4399H31.0876C31.2746 0.149548 31.4277 0.299006 31.4277 0.481677V1.39503V2.37481C31.4277 2.55748 31.2746 2.70694 31.0876 2.70694H25.766H20.4444C20.2574 2.70694 20.1044 2.8564 20.1044 3.03907V11.5416V20.0441C20.1044 20.2267 20.2574 20.3762 20.4444 20.3762H25.766H31.0876C31.2746 20.3762 31.4277 20.5256 31.4277 20.7083V21.6881V22.6679C31.4277 22.8505 31.2746 23 31.0876 23H24.4399H17.7921ZM13.6949 17.3539C13.7459 16.2081 13.4569 15.0456 12.8448 14.016C12.3007 13.1026 11.5526 12.4218 10.6855 11.8572C9.88465 11.3144 9.02092 10.9097 8.20007 10.5251L8.15942 10.5061C8.14 10.497 8.12061 10.4879 8.10124 10.4788L8.01623 10.4456L7.93122 10.4124C7.01312 9.98064 6.06101 9.48245 5.26191 8.88462C4.46282 8.28678 3.81675 7.57271 3.51071 6.72578C3.27269 6.04492 3.27269 5.38066 3.47671 4.76622C3.69773 4.16839 4.10578 3.62038 4.71785 3.23843C5.53395 2.70702 6.57107 2.55756 7.67619 2.75684C8.69631 2.93951 9.78444 3.4377 10.8046 4.2016C10.9576 4.31784 11.1616 4.28463 11.2636 4.15178L11.8247 3.4211L12.3857 2.67381C12.5047 2.54096 12.4707 2.34168 12.3347 2.24204C10.8726 1.16262 9.29138 0.498367 7.7782 0.282483C6.18002 0.0665993 4.63284 0.348908 3.35769 1.17923C2.26957 1.8767 1.50448 2.87309 1.11344 4.00232C0.739393 5.13156 0.739393 6.37704 1.18144 7.58931C1.6575 8.86801 2.5076 9.86439 3.52771 10.6781C4.54783 11.4918 5.73797 12.1229 6.8941 12.6543L6.97911 12.6875L7.06412 12.7207C7.7782 13.0528 8.50929 13.4016 9.15536 13.8001C9.78444 14.2153 10.3285 14.6803 10.6855 15.2615C11.0426 15.8593 11.2126 16.5402 11.1956 17.2044C11.1786 17.8687 10.9746 18.4997 10.5835 19.0145C10.3625 19.2969 10.0905 19.5459 9.76743 19.7618C9.4954 19.9279 9.22337 20.0774 8.91734 20.1936C8.79832 20.2434 8.71331 20.3597 8.71331 20.4925V21.5719V22.4687C8.71331 22.668 8.91734 22.8174 9.12136 22.7676C9.76743 22.6015 10.3625 22.3524 10.9066 22.0203C11.5526 21.6218 12.1307 21.107 12.5898 20.5091C13.2698 19.5958 13.6439 18.4997 13.6949 17.3539ZM1.11344 18.3669C1.21545 18.2174 1.41947 18.1842 1.57249 18.3005C2.15056 18.7322 2.71162 19.1142 3.23868 19.3965C3.79975 19.712 4.36081 19.9611 4.90487 20.1438C5.04089 20.1936 5.1259 20.3098 5.1259 20.4427V21.4889V22.369C5.1259 22.5683 4.92188 22.7178 4.71785 22.668C3.98677 22.4687 3.25568 22.1864 2.5246 21.821C1.74251 21.4225 0.943416 20.9243 0.127322 20.3265C-0.00869373 20.2268 -0.0426976 20.0275 0.0593142 19.8947L0.603377 19.1142L1.11344 18.3669ZM67.5062 2.1423C68.9514 3.40439 69.8355 5.16466 69.8355 7.09101C69.8355 8.58559 69.2914 9.98053 68.3903 11.143C67.5572 12.1892 66.3841 13.0195 65.041 13.5343C64.8369 13.6173 64.7519 13.8166 64.8539 13.9827L67.4552 18.3003L69.9545 22.4519C70.0905 22.6678 69.9035 22.9335 69.6315 22.9335H68.5774H67.1322C66.9962 22.9335 66.8772 22.8671 66.8092 22.7675L64.2589 18.5328L61.7086 14.2982C61.6406 14.1986 61.5215 14.1321 61.3855 14.1321H60.2804H59.3283C59.1243 14.1321 58.9543 13.9827 58.9543 13.8V12.8202V11.8404C58.9543 11.6578 59.1243 11.5083 59.3283 11.5083H60.4334H61.9126C63.2898 11.5083 64.5479 11.0101 65.449 10.213C66.3501 9.41591 66.9112 8.30328 66.9112 7.09101C66.9112 5.87874 66.3501 4.76611 65.449 3.969C64.5479 3.1719 63.2898 2.6737 61.9126 2.6737H58.2402H54.9248C54.7208 2.6737 54.5508 2.82316 54.5508 3.00583V12.8036V22.6014C54.5508 22.7841 54.3807 22.9335 54.1767 22.9335H53.0716H51.9665C51.7624 22.9335 51.5924 22.7841 51.5924 22.6014V11.5083V0.415232C51.5924 0.232561 51.7624 0.0831032 51.9665 0.0831032H56.744H61.8956C64.0888 0.0831032 66.0611 0.88021 67.5062 2.1423Z" fill="url(#paint0_linear)"/>
<path d="M73 22.6881C73 22.8687 73.1194 23 73.2537 23H74H74.7463C74.8806 23 75 22.8522 75 22.6881V12V1.31194C75 1.13134 74.8806 1 74.7463 1H74H73.2537C73.1194 1 73 1.14776 73 1.31194V12V22.6881Z" fill="#121212"/>
<path d="M91.1244 14.4516C91.7506 15.4562 92.0463 16.5904 91.9941 17.7084C91.9419 18.8264 91.5592 19.8958 90.8634 20.787C90.3938 21.3703 89.8023 21.8726 89.1413 22.2614C88.5847 22.5855 87.9759 22.8286 87.3148 22.9906C87.1061 23.0392 86.8974 22.8934 86.8974 22.6989V21.824V20.787C86.8974 20.6574 86.9844 20.5439 87.1061 20.4953C87.4192 20.3819 87.6975 20.2361 87.9759 20.074C88.3064 19.8634 88.5847 19.6204 88.8108 19.3449C89.2109 18.8426 89.4197 18.2269 89.437 17.5788C89.4544 16.9307 89.2805 16.2663 88.9152 15.683C88.5499 15.1159 87.9933 14.6623 87.3496 14.2572C86.6886 13.8683 85.9406 13.5281 85.2101 13.204L85.1231 13.1716L85.0361 13.1392C83.8532 12.6207 82.6356 12.005 81.5919 11.211C80.5482 10.4171 79.6784 9.4449 79.1914 8.19727C78.7391 7.01446 78.7391 5.79924 79.1218 4.69743C79.5219 3.59563 80.3047 2.62345 81.4179 1.94293C82.7226 1.13278 84.3055 0.857333 85.9406 1.06797C87.4888 1.27861 89.1065 1.92673 90.6025 2.97992C90.7417 3.07714 90.7765 3.27157 90.6547 3.4012L90.0807 4.13033L89.5066 4.84326C89.4023 4.97289 89.1935 5.00529 89.037 4.89187C87.9933 4.14653 86.88 3.66044 85.8363 3.48221C84.7056 3.28778 83.6445 3.4336 82.8095 3.9521C82.1833 4.32477 81.7658 4.85946 81.5397 5.44277C81.331 6.04228 81.331 6.6904 81.5745 7.35472C81.8876 8.18107 82.5486 8.8778 83.3662 9.46111C84.1837 10.0444 85.1579 10.5305 86.0972 10.9518L86.1842 10.9842L86.2711 11.0166C87.1409 11.4055 88.0628 11.8105 88.9152 12.3614C89.8023 12.9123 90.5677 13.5767 91.1244 14.4516ZM79.6088 18.6482C79.4523 18.5348 79.2436 18.5672 79.1392 18.713L78.6173 19.4421L78.0607 20.2037C77.9563 20.3333 77.9911 20.5277 78.1303 20.6249C78.9652 21.2083 79.7828 21.6943 80.583 22.0832C81.331 22.4397 82.0789 22.7151 82.8269 22.9096C83.0357 22.9582 83.2444 22.8123 83.2444 22.6179V21.7592V20.7384C83.2444 20.6087 83.1574 20.4953 83.0183 20.4467C82.4616 20.2685 81.8876 20.0254 81.3136 19.7176C80.7569 19.4421 80.1829 19.0695 79.6088 18.6482Z" fill="#121212"/>
<path d="M99.6325 7.59534C99.6325 7.41121 99.7863 7.26055 99.9744 7.26055H101.017H102.06C102.248 7.26055 102.402 7.41121 102.402 7.59534V15.6303V23.6652C102.402 23.8493 102.248 24 102.06 24H101H99.9744C99.7863 24 99.6325 23.8493 99.6325 23.6652V15.6303V7.59534ZM108.658 3.61135C108.846 3.61135 109 3.4607 109 3.27657V2.28894V1.33479C109 1.15066 108.846 1 108.658 1H101H93.3419C93.1538 1 93 1.15066 93 1.33479V2.32242V3.31004C93 3.49418 93.1538 3.64483 93.3419 3.64483H101H108.658V3.61135Z" fill="#121212"/>
<defs>
<linearGradient id="paint0_linear" x1="75.8881" y1="11.5008" x2="-5.18226" y2="9.10153" gradientUnits="userSpaceOnUse">
<stop stop-color="#1C175B"/>
<stop offset="0.296875" stop-color="#352C9C"/>
<stop offset="0.557292" stop-color="#502691"/>
<stop offset="0.734375" stop-color="#592B9E"/>
<stop offset="1" stop-color="#90189C"/>
</linearGradient>
</defs>
</svg>
