<svg width="2068" height="1500" viewBox="0 0 2068 1500" fill="none" xmlns="http://www.w3.org/2000/svg">
<g clip-path="url(#clip0)">
<path opacity="0.19" d="M1199.5 1093.4C1499.11 1093.4 1742 850.739 1742 551.4C1742 252.062 1499.11 9.40039 1199.5 9.40039C899.886 9.40039 657 252.062 657 551.4C657 850.739 899.886 1093.4 1199.5 1093.4Z" fill="url(#paint0_radial)"/>
<path opacity="0.84" d="M1681.4 326.6L1674.2 325.7L1678.8 320.2L1679.7 313L1685.2 317.6L1692.4 318.5L1687.8 324L1686.9 331.2L1681.4 326.6ZM1925.2 155.7L1929.3 148.1L1936.9 143.9L1929.3 139.8L1925.1 132.3L1921 139.9L1913.4 144.1L1921 148.2L1925.2 155.7ZM1671.2 746.2L1679.8 744.8L1687.8 748.3L1686.4 739.7L1689.9 731.7L1681.3 733.1L1673.3 729.6L1674.7 738.2L1671.2 746.2ZM1924.3 541.5L1925.8 535.1L1930.6 530.5L1924.2 529L1919.6 524.2L1918.1 530.6L1913.3 535.2L1919.7 536.7L1924.3 541.5ZM1402.7 157.5L1408.2 154.1L1414.7 154.2L1411.3 148.7L1411.4 142.2L1405.9 145.6L1399.4 145.5L1402.8 151L1402.7 157.5ZM1999.9 296.5L1995.4 289.1L1995.6 280.5L1988.2 284.9L1979.6 284.7L1984.1 292.1L1983.9 300.7L1991.3 296.3L1999.9 296.5ZM630.1 141.1L633.3 132.9L640.4 127.7L632.2 124.5L627 117.4L623.8 125.6L616.7 130.8L624.9 134L630.1 141.1ZM635.4 511.1L639.4 505.5L645.8 502.9L640.2 498.9L637.6 492.5L633.6 498.1L627.2 500.7L632.8 504.7L635.4 511.1ZM872.4 365.4L875.7 361.3L880.7 359.7L876.6 356.4L874.9 351.4L871.6 355.5L866.6 357.1L870.7 360.4L872.4 365.4ZM931.1 104.1L932.6 94.6998L938.9 87.5998L929.5 86.0998L922.4 79.7998L920.9 89.1998L914.6 96.2998L924 97.7998L931.1 104.1ZM1288.2 628.5L1289.8 622.2L1294.5 617.8L1288.2 616.2L1283.8 611.5L1282.2 617.8L1277.5 622.2L1283.8 623.8L1288.2 628.5ZM822.9 205L818.8 199.6L818.2 192.8L812.8 196.9L806 197.5L810.1 202.9L810.7 209.7L816.1 205.6L822.9 205ZM793.9 620.8L800.8 621.6L806.1 626L806.9 619.1L811.3 613.8L804.4 613L799.1 608.6L798.3 615.5L793.9 620.8ZM1016.4 443.6L1021.7 436.2L1030.2 432.8L1022.8 427.5L1019.4 419L1014.1 426.4L1005.6 429.8L1013 435.1L1016.4 443.6ZM1339 351.2L1342.9 345.3L1349.4 342.4L1343.5 338.5L1340.6 332L1336.7 337.9L1330.2 340.8L1336.1 344.7L1339 351.2ZM1585.4 175.2L1591.9 171.4L1599.5 171.7L1595.7 165.2L1596 157.6L1589.5 161.4L1581.9 161.1L1585.8 167.6L1585.4 175.2ZM1358.4 769.6L1361.5 762.7L1367.9 758.5L1360.9 755.4L1356.7 749L1353.6 755.9L1347.2 760.1L1354.2 763.2L1358.4 769.6ZM1575.5 592.6L1580.7 584.7L1589.3 580.9L1581.4 575.7L1577.5 567.1L1572.3 575L1563.7 578.8L1571.6 584L1575.5 592.6ZM1607.4 250.1L1607.9 246.2L1610.4 243.2L1606.5 242.7L1603.5 240.2L1603 244.1L1600.5 247.1L1604.4 247.6L1607.4 250.1ZM1598.8 477.6L1603.5 476.8L1607.9 478.7L1607.1 474L1609 469.6L1604.3 470.4L1599.9 468.5L1600.7 473.2L1598.8 477.6ZM1732.7 213.9L1735.7 212H1739.3L1737.4 209V205.4L1734.4 207.3H1730.8L1732.7 210.3V213.9ZM1028.3 146L1030 141.5L1033.9 138.7L1029.4 137L1026.6 133.1L1024.9 137.6L1021 140.4L1025.5 142.1L1028.3 146ZM1031.2 348.8L1033.4 345.7L1036.9 344.3L1033.8 342.1L1032.4 338.6L1030.2 341.7L1026.7 343.1L1029.8 345.3L1031.2 348.8ZM1157.2 447.4L1159 445.2L1161.8 444.3L1159.6 442.5L1158.7 439.7L1156.9 441.9L1154.1 442.8L1156.3 444.6L1157.2 447.4ZM1193.2 125.7L1194 120.6L1197.5 116.7L1192.3 115.9L1188.4 112.4L1187.6 117.5L1184.1 121.4L1189.3 122.2L1193.2 125.7ZM1256.8 515.6L1260.3 515.3L1263.4 516.9L1263.1 513.5L1264.7 510.4L1261.2 510.7L1258.1 509.1L1258.4 512.5L1256.8 515.6ZM1388.9 413.1L1389.8 409.6L1392.4 407.2L1388.9 406.3L1386.5 403.7L1385.6 407.2L1383 409.6L1386.5 410.5L1388.9 413.1ZM1268.5 725.6L1270.2 721.7L1273.7 719.3L1269.8 717.6L1267.4 714.1L1265.7 718L1262.2 720.4L1266.1 722.1L1268.5 725.6ZM1395.3 638.2L1394.8 634.2L1396.6 630.6L1392.6 631.1L1389 629.3L1389.5 633.3L1387.7 636.9L1391.7 636.4L1395.3 638.2ZM656.8 367.5L654.5 364.5L654.2 360.8L651.2 363.1L647.5 363.4L649.8 366.4L650.1 370.1L653.1 367.8L656.8 367.5ZM1027.4 630.4L1031.2 630.9L1034.1 633.3L1034.6 629.5L1037 626.6L1033.2 626.1L1030.3 623.7L1029.8 627.5L1027.4 630.4ZM1240 311.7L1242.9 307.6L1247.6 305.7L1243.5 302.8L1241.6 298.1L1238.7 302.2L1234 304.1L1238.1 307L1240 311.7ZM1416.8 261.1L1418.9 257.8L1422.5 256.2L1419.2 254.1L1417.6 250.5L1415.5 253.8L1411.9 255.4L1415.2 257.5L1416.8 261.1ZM1551.8 164.7L1555.4 162.6L1559.5 162.8L1557.4 159.2L1557.6 155.1L1554 157.2L1549.9 157L1552 160.6L1551.8 164.7ZM1427.4 490.4L1429.1 486.6L1432.6 484.3L1428.8 482.6L1426.5 479.1L1424.8 482.9L1421.3 485.2L1425.1 486.9L1427.4 490.4ZM1843.1 410.7L1846 406.4L1850.7 404.3L1846.4 401.5L1844.3 396.8L1841.4 401.1L1836.7 403.2L1841 406L1843.1 410.7ZM206.2 290.8L199 289.9L203.6 284.4L204.5 277.2L210 281.8L217.2 282.7L212.6 288.2L211.7 295.4L206.2 290.8ZM449.9 119.9L454 112.3L461.6 108.1L454 104L449.8 96.4998L445.7 104.1L438.1 108.3L445.7 112.4L449.9 119.9ZM196 710.4L204.6 709L212.6 712.5L211.2 703.9L214.7 695.9L206.1 697.3L198.1 693.8L199.5 702.4L196 710.4ZM449 505.7L450.5 499.3L455.3 494.7L448.9 493.2L444.3 488.4L442.8 494.8L438 499.4L444.4 500.9L449 505.7ZM524.6 260.7L520.1 253.3L520.3 244.7L512.9 249.1L504.3 248.9L508.8 256.3L508.6 264.9L516 260.5L524.6 260.7ZM110.1 139.4L116.6 135.6L124.2 135.9L120.4 129.4L120.7 121.8L114.2 125.6L106.6 125.3L110.5 131.8L110.1 139.4ZM100.2 556.9L105.4 549L114 545.2L106.1 540L102.2 531.4L97.0001 539.3L88.4001 543.1L96.3002 548.3L100.2 556.9ZM132.2 214.4L132.7 210.5L135.2 207.5L131.3 207L128.3 204.5L127.8 208.4L125.3 211.4L129.2 211.9L132.2 214.4ZM123.6 441.8L128.3 441L132.7 442.9L131.9 438.2L133.8 433.8L129.1 434.6L124.7 432.7L125.5 437.4L123.6 441.8ZM257.4 178.1L260.4 176.2H264L262.1 173.2V169.6L259.1 171.5H255.5L257.4 174.5V178.1ZM76.5001 128.9L80.1001 126.8L84.2001 127L82.1001 123.4L82.3001 119.3L78.7001 121.4L74.6001 121.2L76.7001 124.8L76.5001 128.9ZM367.9 374.9L370.8 370.6L375.5 368.5L371.2 365.7L369.1 361L366.2 365.3L361.5 367.4L365.8 370.2L367.9 374.9Z" fill="url(#paint1_linear)"/>
<path d="M1212.1 598.4C1212.1 598.4 1228.3 565.3 1234.9 557.7C1241.5 550.1 1257.3 505.4 1271.1 503.3C1284.9 501.2 1271.7 520.7 1271.7 520.7C1271.7 520.7 1238.8 612.3 1212.1 598.4Z" fill="#5235DD"/>
<path d="M1211.1 601.4C1211.1 601.4 1227.3 568.3 1233.9 560.7C1240.5 553 1256.3 508.4 1270.1 506.3C1283.9 504.2 1270.7 523.7 1270.7 523.7C1270.7 523.7 1237.8 615.3 1211.1 601.4Z" fill="url(#paint2_linear)"/>
<path d="M1230.5 613.9C1230.5 613.9 1273.3 571.8 1262.7 552.9C1251.3 532.5 1250 510.3 1242.7 510.1C1235.9 509.9 1234.8 538 1240.5 559.8C1244.3 574.4 1213 597 1220.2 602.9C1227.4 608.8 1230.5 613.9 1230.5 613.9Z" fill="#5235DD"/>
<path d="M1233.5 613.9C1233.5 613.9 1276.3 571.8 1265.7 552.9C1254.3 532.5 1253 510.3 1245.7 510.1C1238.9 509.9 1237.8 538 1243.5 559.8C1247.3 574.4 1216 597 1223.2 602.9C1230.4 608.8 1233.5 613.9 1233.5 613.9Z" fill="url(#paint3_linear)"/>
<path d="M1298.9 560.3C1294.6 560.9 1290.2 565.6 1285.9 572C1291.7 559 1295.4 548.9 1295.4 548.9C1295.4 548.9 1308.6 529.4 1294.8 531.5C1281 533.6 1265.2 578.2 1258.6 585.9C1258 586.6 1257.2 587.6 1256.4 588.8C1241.6 576.1 1228.4 568.6 1228.4 568.6C1213.8 571.2 1203.9 576.1 1203.9 576.1C1203.9 576.1 1186.5 561 1179.7 595.9C1168.9 651.4 1133.7 696.6 1133.7 696.6L1189.5 727.2C1189.5 727.2 1212.1 678.9 1224.4 664.8C1237.8 649.5 1255.2 644 1265.1 636.6C1269.9 633 1278.5 621.2 1279.5 615C1291.6 596.7 1299.8 577.6 1299.8 577.6C1299.8 577.6 1312.8 558.3 1298.9 560.3Z" fill="url(#paint4_linear)"/>
<path d="M1205.5 623.9C1218.1 622.7 1229.4 607.3 1215 585.8C1200.6 564.3 1210.6 557.3 1216.7 549.2C1222.8 541.1 1226.7 525.2 1218.2 522.3C1209.8 519.4 1204.6 532 1194.6 539C1177.7 550.8 1181 570.5 1181 570.5C1181 570.5 1171 627.3 1205.5 623.9Z" fill="#5235DD"/>
<path d="M1205.2 625.8C1217.7 624.2 1228.5 608.4 1213.4 587.4C1198.3 566.4 1208.1 559 1213.9 550.8C1219.8 542.5 1223.1 526.5 1214.5 523.8C1206 521.2 1201.3 533.9 1191.5 541.2C1175 553.6 1178.9 573.2 1178.9 573.2C1178.9 573.2 1170.8 630.3 1205.2 625.8Z" fill="url(#paint5_linear)"/>
<path d="M530.5 1182L641.5 1252.5C670.2 1270.7 677 1302.3 634.1 1339.3L479.4 1498.5H598.9C604.3 1493.3 609.1 1488.9 611.7 1486.7C611.7 1486.7 722 1389.2 755.3 1351.3C800.6 1299.7 806 1271.6 775.9 1235.3L636.7 1079.4C619 1058 610.1 1070.9 589.1 1089.1L552.8 1120.6C527.5 1142.3 502.5 1164.2 530.5 1182Z" fill="url(#paint6_linear)"/>
<path d="M407.5 1498.5L461.3 1360.1L529.9 1169C540.4 1158.4 549.9 1146.9 558.2 1134.5C587.7 1090.5 602.5 1036.3 596.3 979.6V979.5C595.2 969.1 593.3 958.9 590.9 949C589.3 949.1 587.6 949.3 586 949.5C527.4 955.9 476.3 983.5 439.5 1023.8C432 1032 425.1 1040.8 418.8 1050L380.9 1214L375.5 1237.3L315.2 1498.5H407.5Z" fill="url(#paint7_linear)"/>
<path d="M1240.7 662C1219.4 727.4 1190.1 755.6 1150.5 810.2C1136.1 830 1120.7 849 1104.2 867.1C1069.2 863 1035.1 856.2 1002 846.8C965.3 836.4 929.9 822.9 896.1 806.6C838.7 778.9 786 743.1 739.5 700.7C729 691.1 718.8 681.2 708.9 671C715.3 670.1 721.8 669.4 728.4 668.8C741.3 667.7 754.3 667.1 767.4 667.1C768.5 667.1 769.7 667.1 770.8 667.1C771.1 666.7 771.4 666.4 771.7 666C877.6 671.3 976.8 701.6 1063.7 751.1C1104.7 698.1 1124.8 678.5 1161.7 626.1C1172.9 631.6 1229.2 656.9 1240.7 662Z" fill="url(#paint8_linear)"/>
<path d="M973.7 718.9C970.9 742.3 966.3 765 959.9 787.1C938 792 916.7 798.5 896.2 806.5C771.4 855.4 674.7 960.3 637.3 1090.3C635.1 1090.8 633 1091.2 630.8 1091.7C626.4 1092.6 622.1 1093.4 617.7 1094.2C593.3 1098.5 568.2 1100.7 542.6 1100.7C508.9 1100.7 476.1 1096.9 444.6 1089.6C443.3 1089.3 442 1089 440.7 1088.7C412.5 1081.9 385.4 1072.4 359.6 1060.4C380.6 1050.7 400.6 1039.3 419.6 1026.4C435.1 1015.9 449.8 1004.5 463.8 992.2C472.3 984.7 480.5 976.9 488.4 968.8C526 930.1 556.4 884.3 577.5 833.7C579.4 829.2 581.2 824.7 582.9 820.2C597.6 781.3 606.9 739.8 609.8 696.5C631 688.2 653 681.6 675.6 676.7C675.6 676.7 675.6 676.7 675.7 676.7C686.6 674.3 697.7 672.4 709 670.9C715.4 670 721.9 669.3 728.5 668.7C741.4 667.6 754.4 667 767.5 667C768.6 667 769.8 667 770.9 667C820.6 667.4 868.2 676.1 912.6 691.8C933.7 699.2 954.1 708.3 973.7 718.9Z" fill="url(#paint9_linear)"/>
<path d="M894.5 593.3C898.8 610.7 906.5 626.5 916.9 640C909.1 642.4 901.7 645.6 894.7 649.4C867 664.4 846 689.3 835.6 718.6C809.1 710.9 785.8 694.7 769.3 672.7C771.8 662 772.9 650.8 772.4 639.3C781.2 633.9 788 625.8 791.9 616.3C790.3 614 789.2 611.3 788.7 608.4C787.6 601.6 790.2 595 795 590.7C797.7 588.3 801 586.7 804.7 586.1C805 586 805.3 586 805.6 586C804.5 583 803.6 579.9 803.1 576.7C798.7 550.2 816.7 525.2 843.2 520.9C843.4 520.9 843.5 520.8 843.7 520.8C843.9 521.1 844.1 521.4 844.3 521.6C854 534.3 865.1 545.7 877.4 555.7C881.7 559.2 886.1 562.5 890.6 565.6C893.5 567.6 896.5 569.6 899.6 571.5C904.1 574.3 908.7 576.8 913.4 579.2C907.6 584.2 901.2 588.9 894.5 593.3Z" fill="url(#paint10_linear)"/>
<path d="M844.8 510.7C845.4 514 845.3 517.4 844.8 520.5C844.7 520.5 844.6 520.5 844.4 520.6C844 520.3 843.7 520.1 843.3 519.8C843.5 520.1 843.7 520.4 843.9 520.7C843.7 520.7 843.6 520.7 843.4 520.8C816.9 525.2 799 550.2 803.3 576.6C803.8 579.8 804.7 583 805.8 585.9C805.5 585.9 805.2 586 804.9 586C801.1 586.6 797.8 588.3 795.2 590.6C790.4 594.9 787.8 601.5 788.9 608.3C789.4 611.2 790.5 613.9 792.1 616.2C788.2 625.7 781.4 633.7 772.6 639.2C772.5 636.3 772.3 633.3 772 630.4C771.8 629 771.7 627.6 771.5 626.2C768.4 604.6 760 585 747.8 568.6C744.4 564.1 740.7 559.8 736.8 555.8C742.4 554 747.8 551.9 753.2 549.7C753.5 549.6 753.7 549.5 754 549.4C766.9 543.9 779 537.1 790.3 529.2C800.2 522.3 809.3 514.6 817.8 506.1C821.2 502.7 824.5 499.1 827.7 495.4C829 493.9 830.3 492.3 831.6 490.8C838.3 495 843.4 502.1 844.8 510.7Z" fill="url(#paint11_linear)"/>
<path d="M871.2 568.1C871.5 570 871.5 571.8 871.3 573.6C865.4 576.6 859.1 578.9 852.4 580.4C858.9 575.2 864.5 569 869.1 562.1C870.2 563.9 870.9 565.9 871.2 568.1Z" fill="url(#paint12_linear)"/>
<path d="M871.2 568.1C871.5 570 871.5 571.8 871.3 573.6C865.4 576.6 859.1 578.9 852.4 580.4C858.9 575.2 864.5 569 869.1 562.1C870.2 563.9 870.9 565.9 871.2 568.1Z" fill="#232323"/>
<path d="M1215.5 452.4L1233.5 372.9L1245.9 450.4L1278.2 468L1239.9 484.7L1229.8 565L1214.5 485.7L1178.2 468L1215.5 452.4Z" fill="#5235DD"/>
<path d="M613.9 1003.4V1063.6H235.8V1003.4H214.6V1500H235.8V1439.8H613.9V1500H635.1V1003.4H613.9ZM613.9 1089.5V1238.7H235.8V1089.5H613.9ZM235.9 1413.9V1264.7H614V1413.9H235.9Z" fill="url(#paint13_linear)"/>
<path d="M924 255L928 241.7L936.2 251.3L948.6 254.3L938.5 263.9L934.5 277.2L926.3 267.5L913.9 264.6L924 255Z" fill="#5235DD"/>
<path d="M233.4 1118.3C240 1121.4 251.6 1097 259.8 1079.4C263.6 1071.1 272.3 1067.2 273 1060.6C274.4 1059.3 271.9 1062.3 273 1060.6C280.3 1049.2 274.5 1025.5 263.1 1018.1C251.7 1010.8 236.6 1014 229.2 1025.4C221.9 1036.8 225.1 1051.9 236.5 1059.2C238.1 1060.2 238.7 1062.2 237.9 1063.9C237.2 1065.3 236.5 1066.7 235.8 1068.2C227.6 1085.9 226.8 1115.2 233.4 1118.3Z" fill="url(#paint14_linear)"/>
<path d="M297.6 1011.3L243.9 1070.1C240.8 1073.5 222.5 1084.6 206.7 1092.3C189.4 1100.6 188.9 1077.2 188.9 1077.2C188.9 1077.2 190 1069.3 182 1054.4C182 1054.4 174.1 1027 176.9 1024.2C185.2 1015.9 168.5 1001.5 199 1007.5L255.8 989.5L297.6 1011.3Z" fill="url(#paint15_linear)"/>
<path d="M624.4 691.9C620.5 737.6 608.4 780.9 589.7 820.5C467.3 849.6 364 928.2 302.4 1034C300.8 1036.7 299.3 1039.4 297.8 1042.1C293.3 1040.2 288.8 1038.2 284.4 1036.2C260.3 1025.2 246.5 1006.3 223.2 986C318.9 841.9 455.2 743.7 624.4 691.9Z" fill="url(#paint16_linear)"/>
<path d="M289.1 111.4L290.5 106.1L294.1 110.2L299.4 111.6L295.3 115.2L293.9 120.5L290.3 116.5L285 115L289.1 111.4Z" fill="#5235DD"/>
<path d="M301.8 480.9L304.7 472.8L308.5 478L314.9 479.1L309 485.4L306 493.5L302.2 488.2L295.8 487.2L301.8 480.9Z" fill="#5235DD"/>
<path opacity="0.76" d="M1722 104.7L1726.3 89.5L1736.5 101L1751.3 104.8L1739.7 115.6L1735.3 130.9L1725.2 119.4L1710.3 115.5L1722 104.7Z" fill="#5235DD"/>
<path d="M823 736.6L830 716.7C803.5 717.2 769.4 672.6 769.4 672.6C780.5 732.3 823 736.6 823 736.6Z" fill="#232323"/>
<path d="M829.9 740.7C829.9 740.7 783.6 869.8 667.8 895.9C624.8 905.6 629.9 954.7 629.9 954.7C629.9 954.7 679.1 932 694.6 926.4C752.2 905.7 833.1 833 829.9 740.7Z" fill="#232323"/>
<path d="M835.7 718.5V736.6C835.7 736.6 855.3 692.9 852.5 691.7C849.7 690.6 835.7 718.5 835.7 718.5Z" fill="#232323"/>
</g>
<defs>
<radialGradient id="paint0_radial" cx="0" cy="0" r="1" gradientUnits="userSpaceOnUse" gradientTransform="translate(1199.5 551.44) scale(542.543 542)">
<stop stop-color="#5235DD"/>
<stop offset="1" stop-color="#212121"/>
</radialGradient>
<linearGradient id="paint1_linear" x1="-1047.4" y1="861.396" x2="2362.47" y2="-176.179" gradientUnits="userSpaceOnUse">
<stop stop-color="#212121"/>
<stop offset="1" stop-color="#5235DD"/>
</linearGradient>
<linearGradient id="paint2_linear" x1="1191.65" y1="554.436" x2="1296.63" y2="554.436" gradientUnits="userSpaceOnUse">
<stop stop-color="#212121"/>
<stop offset="1" stop-color="#2575FC"/>
</linearGradient>
<linearGradient id="paint3_linear" x1="1429.77" y1="767.288" x2="1221.27" y2="541.425" gradientUnits="userSpaceOnUse">
<stop stop-color="#212121"/>
<stop offset="0.203" stop-color="#212224"/>
<stop offset="0.3443" stop-color="#21262D"/>
<stop offset="0.4669" stop-color="#212C3C"/>
<stop offset="0.5789" stop-color="#223452"/>
<stop offset="0.6836" stop-color="#223F6F"/>
<stop offset="0.7829" stop-color="#234C91"/>
<stop offset="0.878" stop-color="#245CBB"/>
<stop offset="0.9675" stop-color="#256EE9"/>
<stop offset="1" stop-color="#2575FC"/>
</linearGradient>
<linearGradient id="paint4_linear" x1="1103.36" y1="712.445" x2="1337.51" y2="545.308" gradientUnits="userSpaceOnUse">
<stop stop-color="#212121"/>
<stop offset="1" stop-color="#2575FC"/>
</linearGradient>
<linearGradient id="paint5_linear" x1="1109.31" y1="678.955" x2="1234.47" y2="548.372" gradientUnits="userSpaceOnUse">
<stop stop-color="#212121"/>
<stop offset="0.0949867" stop-color="#212429"/>
<stop offset="0.2464" stop-color="#222D41"/>
<stop offset="0.4354" stop-color="#223C66"/>
<stop offset="0.6545" stop-color="#23509B"/>
<stop offset="0.8961" stop-color="#2469DD"/>
<stop offset="1" stop-color="#2575FC"/>
</linearGradient>
<linearGradient id="paint6_linear" x1="453.882" y1="1346.35" x2="982.267" y2="1130.12" gradientUnits="userSpaceOnUse">
<stop stop-color="#212121"/>
<stop offset="0.7831" stop-color="#2575FC"/>
</linearGradient>
<linearGradient id="paint7_linear" x1="336.106" y1="1473.96" x2="672.246" y2="646.223" gradientUnits="userSpaceOnUse">
<stop stop-color="#212121"/>
<stop offset="1" stop-color="#2575FC"/>
</linearGradient>
<linearGradient id="paint8_linear" x1="357.589" y1="1397.24" x2="954.129" y2="714.627" gradientUnits="userSpaceOnUse">
<stop stop-color="#212121"/>
<stop offset="0.203" stop-color="#212224"/>
<stop offset="0.3443" stop-color="#21262D"/>
<stop offset="0.4669" stop-color="#212C3C"/>
<stop offset="0.5789" stop-color="#223452"/>
<stop offset="0.6836" stop-color="#223F6F"/>
<stop offset="0.7829" stop-color="#234C91"/>
<stop offset="0.878" stop-color="#245CBB"/>
<stop offset="0.9675" stop-color="#256EE9"/>
<stop offset="1" stop-color="#2575FC"/>
</linearGradient>
<linearGradient id="paint9_linear" x1="274.251" y1="1514.05" x2="819.099" y2="679.624" gradientUnits="userSpaceOnUse">
<stop stop-color="#212121"/>
<stop offset="0.203" stop-color="#212224"/>
<stop offset="0.3443" stop-color="#21262D"/>
<stop offset="0.4669" stop-color="#212C3C"/>
<stop offset="0.5789" stop-color="#223452"/>
<stop offset="0.6836" stop-color="#223F6F"/>
<stop offset="0.7829" stop-color="#234C91"/>
<stop offset="0.878" stop-color="#245CBB"/>
<stop offset="0.9675" stop-color="#256EE9"/>
<stop offset="1" stop-color="#2575FC"/>
</linearGradient>
<linearGradient id="paint10_linear" x1="721.98" y1="703.721" x2="862.257" y2="599.377" gradientUnits="userSpaceOnUse">
<stop stop-color="#212121"/>
<stop offset="1" stop-color="#2575FC"/>
</linearGradient>
<linearGradient id="paint11_linear" x1="750.187" y1="601.841" x2="856.636" y2="508.087" gradientUnits="userSpaceOnUse">
<stop stop-color="#212121"/>
<stop offset="1" stop-color="#2575FC"/>
</linearGradient>
<linearGradient id="paint12_linear" x1="852.485" y1="571.2" x2="871.495" y2="571.2" gradientUnits="userSpaceOnUse">
<stop stop-color="#212121"/>
<stop offset="1" stop-color="#2575FC"/>
</linearGradient>
<linearGradient id="paint13_linear" x1="61.5889" y1="1704.95" x2="888.809" y2="672.952" gradientUnits="userSpaceOnUse">
<stop stop-color="#212121"/>
<stop offset="1" stop-color="#5235DD"/>
</linearGradient>
<linearGradient id="paint14_linear" x1="222.691" y1="733.204" x2="259.726" y2="1156.66" gradientUnits="userSpaceOnUse">
<stop stop-color="#212121"/>
<stop offset="0.203" stop-color="#212224"/>
<stop offset="0.3443" stop-color="#21262D"/>
<stop offset="0.4669" stop-color="#212C3C"/>
<stop offset="0.5789" stop-color="#223452"/>
<stop offset="0.6836" stop-color="#223F6F"/>
<stop offset="0.7829" stop-color="#234C91"/>
<stop offset="0.878" stop-color="#245CBB"/>
<stop offset="0.9675" stop-color="#256EE9"/>
<stop offset="1" stop-color="#2575FC"/>
</linearGradient>
<linearGradient id="paint15_linear" x1="563.995" y1="765.069" x2="135.567" y2="1098.92" gradientUnits="userSpaceOnUse">
<stop stop-color="#212121"/>
<stop offset="0.203" stop-color="#212224"/>
<stop offset="0.3443" stop-color="#21262D"/>
<stop offset="0.4669" stop-color="#212C3C"/>
<stop offset="0.5789" stop-color="#223452"/>
<stop offset="0.6836" stop-color="#223F6F"/>
<stop offset="0.7829" stop-color="#234C91"/>
<stop offset="0.878" stop-color="#245CBB"/>
<stop offset="0.9675" stop-color="#256EE9"/>
<stop offset="1" stop-color="#2575FC"/>
</linearGradient>
<linearGradient id="paint16_linear" x1="-507.969" y1="1497.12" x2="1056.89" y2="446.14" gradientUnits="userSpaceOnUse">
<stop stop-color="#212121"/>
<stop offset="0.1748" stop-color="#212224"/>
<stop offset="0.3139" stop-color="#21262E"/>
<stop offset="0.4408" stop-color="#222C3F"/>
<stop offset="0.5603" stop-color="#223657"/>
<stop offset="0.6748" stop-color="#234175"/>
<stop offset="0.7855" stop-color="#23509B"/>
<stop offset="0.8927" stop-color="#2461C7"/>
<stop offset="0.9953" stop-color="#2574FA"/>
<stop offset="1" stop-color="#2575FC"/>
</linearGradient>
<clipPath id="clip0">
<rect width="2068" height="1500" fill="white"/>
</clipPath>
</defs>
</svg>
