<svg width="48" height="29" viewBox="0 0 48 29" fill="none" xmlns="http://www.w3.org/2000/svg">
<g filter="url(#filter0_i)">
<path d="M29.7966 3.6332C31.978 2.54328 34.3894 2.12152 36.7233 2.38157C39.0572 2.64163 41.2479 3.54474 43.0264 5.03844C44.1887 6.04412 45.1661 7.27783 45.8975 8.63239C46.5062 9.77259 46.9387 11.004 47.1952 12.3266C47.2708 12.7439 46.9394 13.1338 46.5324 13.1065L44.7007 12.9832L42.496 12.8349C42.2246 12.8167 41.9981 12.6297 41.9116 12.3834C41.7133 11.7517 41.4429 11.1839 41.1386 10.6138C40.739 9.93426 40.265 9.35275 39.7167 8.86929C38.7153 8.01184 37.4525 7.51467 36.0979 7.3892C34.7433 7.26372 33.3309 7.51222 32.064 8.14839C30.8311 8.78684 29.8117 9.81752 28.8832 11.0261C27.9864 12.2711 27.1804 13.694 26.4106 15.085L26.3319 15.2515L26.2531 15.4179C25.0197 17.6709 23.5783 19.9785 21.7856 21.919C19.9929 23.8595 17.8489 25.4329 15.1762 26.2149C12.6434 26.9377 10.0995 26.7666 7.84091 25.8589C5.58449 24.917 3.64733 23.2409 2.36208 20.9559C0.829427 18.2764 0.884658 15.1104 1.09003 11.8645C1.09184 11.8357 2.49325 12.3798 2.49325 12.3798C2.49325 12.3798 2.54452 12.3833 3.32989 12.7187L4.173 13.0465L4.82142 13.2862C5.64054 13.6296 5.4908 13.5561 5.89645 13.7449C5.89645 13.7449 5.89645 13.7449 5.88475 13.9286C5.8577 14.3536 5.76136 16.7876 6.74225 18.5024C7.44401 19.7863 8.51108 20.6825 9.70386 21.2093C10.9327 21.7042 12.2895 21.7955 13.7107 21.4102C15.4798 20.9108 17.021 19.7092 18.3444 18.1837C19.6679 16.6582 20.8074 14.8111 21.8069 13.0234L21.8856 12.8569L21.9643 12.6904C22.8873 11.0349 23.8507 9.27911 25.1106 7.68064C26.3749 6.01375 27.8614 4.60227 29.7966 3.6332Z" fill="black"/>
</g>
<path fill-rule="evenodd" clip-rule="evenodd" d="M11.752 26.6555L11.7484 26.67C11.6784 26.6627 11.6084 26.6548 11.5386 26.6463C10.3003 26.5813 9.09636 26.3114 7.96411 25.8564C5.7077 24.9145 3.77054 23.2384 2.4853 20.9535C2.30052 20.6304 2.13883 20.3003 1.99769 19.9639C1.96451 19.8956 1.93198 19.8269 1.90012 19.7579C1.27445 18.3484 0.913029 16.8129 0.825864 15.2746C0.758726 13.9826 0.740074 12.7525 1.06944 11.4479C1.17815 11.0386 1.79366 10.7615 2.15069 10.9619L3.75732 11.8637L5.69123 12.9492C5.92925 13.0828 6.05503 13.3494 6.0288 13.6091C6.02292 13.6525 6.01745 13.6959 6.01237 13.7391C6.01477 13.7402 6.0172 13.7414 6.01965 13.7425L6.00795 13.9263C5.98615 14.2687 5.91936 15.9157 6.40752 17.4397C6.44434 17.5371 6.48333 17.6333 6.5245 17.7285C7.06739 18.9347 8.00001 19.9285 9.17362 20.6264C10.0968 21.1755 11.1508 21.5311 12.2485 21.6444C12.7654 21.6314 13.295 21.5538 13.8339 21.4077C15.6029 20.9084 17.1442 19.7067 18.4676 18.1812C19.791 16.6558 20.9305 14.8088 21.93 13.021L22.0087 12.8546L22.0875 12.6881C22.1231 12.6242 22.1588 12.5601 22.1946 12.4959C23.0852 10.8973 24.0224 9.2151 25.2337 7.67838C26.498 6.01151 27.9845 4.60006 29.9197 3.631C32.1011 2.5411 34.5125 2.11934 36.8463 2.37939C39.1802 2.63944 41.371 3.54254 43.1494 5.03622C44.3117 6.04189 45.2892 7.27557 46.0205 8.63011C46.6292 9.7703 47.0618 11.0017 47.3182 12.3243C47.3938 12.7416 47.0624 13.1315 46.6554 13.1041L44.8238 12.9809L42.619 12.8326C42.3477 12.8143 42.1211 12.6274 42.0346 12.3811C41.8364 11.7494 41.566 11.1816 41.2616 10.6115C40.862 9.93196 40.3881 9.35046 39.8398 8.86701C38.8384 8.00957 37.5756 7.51242 36.221 7.38695C34.8664 7.26147 33.4539 7.50997 32.1871 8.14612C30.9542 8.78456 29.9348 9.81523 29.0063 11.0238C28.1095 12.2688 27.3036 13.6917 26.5337 15.0826L26.455 15.2491L26.3763 15.4155C25.1428 17.6684 23.7014 19.9761 21.9088 21.9165C20.1161 23.857 17.9721 25.4304 15.2993 26.2124C14.1091 26.5521 12.9164 26.6943 11.752 26.6555Z" fill="black"/>
<path fill-rule="evenodd" clip-rule="evenodd" d="M45.707 17.4015C45.7504 16.7245 45.2419 16.1394 44.5713 16.0946C43.9006 16.0498 43.3217 16.5623 43.2783 17.2393C43.2349 17.9163 43.7433 18.5014 44.414 18.5462C45.0847 18.591 45.6636 18.0785 45.707 17.4015ZM47.0676 17.4923C47.1597 16.0568 46.0815 14.8161 44.6594 14.7211C43.2373 14.6262 42.0098 15.713 41.9177 17.1485C41.8256 18.584 42.9038 19.8247 44.3259 19.9196C45.748 20.0146 46.9755 18.9278 47.0676 17.4923Z" fill="url(#paint0_linear)" fill-opacity="0.9"/>
<path d="M7.3224 3.00063C9.00863 3.1132 10.2871 4.58433 10.1779 6.28647C10.0687 7.98862 8.61326 9.27722 6.92703 9.16465C5.2408 9.05208 3.96235 7.58095 4.07153 5.8788C4.18071 4.17666 5.63617 2.88805 7.3224 3.00063Z" fill="url(#paint1_linear)" fill-opacity="0.9"/>
<defs>
<filter id="filter0_i" x="0.984314" y="2.30707" width="56.2217" height="34.3571" filterUnits="userSpaceOnUse" color-interpolation-filters="sRGB">
<feFlood flood-opacity="0" result="BackgroundImageFix"/>
<feBlend mode="normal" in="SourceGraphic" in2="BackgroundImageFix" result="shape"/>
<feColorMatrix in="SourceAlpha" type="matrix" values="0 0 0 0 0 0 0 0 0 0 0 0 0 0 0 0 0 0 127 0" result="hardAlpha"/>
<feOffset dx="10" dy="10"/>
<feGaussianBlur stdDeviation="10.5"/>
<feComposite in2="hardAlpha" operator="arithmetic" k2="-1" k3="1"/>
<feColorMatrix type="matrix" values="0 0 0 0 0 0 0 0 0 0 0 0 0 0 0 0 0 0 0.85 0"/>
<feBlend mode="normal" in2="shape" result="effect1_innerShadow"/>
</filter>
<linearGradient id="paint0_linear" x1="26.5195" y1="18.7349" x2="27.0218" y2="11.2113" gradientUnits="userSpaceOnUse">
<stop stop-color="#FF8C61"/>
<stop offset="1" stop-color="#FFD100"/>
<stop offset="1" stop-color="#FFD100"/>
</linearGradient>
<linearGradient id="paint1_linear" x1="-14.1866" y1="7.75987" x2="-13.591" y2="-1.16105" gradientUnits="userSpaceOnUse">
<stop stop-color="#FF8C61"/>
<stop offset="1" stop-color="#FFD100"/>
<stop offset="1" stop-color="#FFD100"/>
</linearGradient>
</defs>
</svg>
