<svg width="48" height="30" viewBox="0 0 48 30" fill="none" xmlns="http://www.w3.org/2000/svg">
<path d="M29.7281 3.59815C31.9185 2.5035 34.3393 2.0787 36.6818 2.33768C39.0243 2.59667 41.2227 3.50062 43.0068 4.99713C44.1727 6.00472 45.153 7.24113 45.8861 8.59891C46.4962 9.74183 46.9295 10.9763 47.186 12.3025C47.2616 12.7209 46.9286 13.1122 46.5201 13.085L44.6816 12.9629L42.4687 12.8158C42.1963 12.7977 41.969 12.6104 41.8824 12.3635C41.6839 11.7302 41.4128 11.161 41.1077 10.5895C40.7071 9.90839 40.2318 9.32562 39.6818 8.84124C38.6772 7.98216 37.41 7.48458 36.0504 7.35979C34.6908 7.23501 33.2728 7.48529 32.0007 8.12421C30.7627 8.7654 29.7387 9.79974 28.8057 11.0124C27.9046 12.2616 27.0946 13.6891 26.3208 15.0846L26.2417 15.2516L26.1625 15.4185C24.9227 17.6787 23.4742 19.9939 21.6733 21.9413C19.8724 23.8886 17.7191 25.468 15.0357 26.2543C12.4929 26.981 9.93947 26.8114 7.673 25.9029C5.40874 24.9601 3.46549 23.2808 2.17706 20.9904C0.640592 18.3046 0.698364 15.1297 0.9069 11.8745C0.908745 11.8457 2.31505 12.3903 2.31505 12.3903C2.31505 12.3903 2.36651 12.3937 3.1546 12.7294L4.00066 13.0575L4.65135 13.2973C5.47331 13.6411 5.32306 13.5675 5.7301 13.7565C5.7301 13.7565 5.7301 13.7565 5.71822 13.9408C5.69076 14.3669 5.59226 16.8078 6.5756 18.5267C7.27906 19.8136 8.34951 20.7115 9.54641 21.2389C10.7796 21.7342 12.1414 21.8247 13.5682 21.4372C15.3444 20.9351 16.8923 19.7289 18.2219 18.1981C19.5514 16.6673 20.6966 14.8142 21.7012 13.0207L21.7803 12.8537L21.8595 12.6867C22.7871 11.0259 23.7555 9.26442 25.0214 7.66051C26.2917 5.98799 27.7848 4.57142 29.7281 3.59815Z" fill="white"/>
<path fill-rule="evenodd" clip-rule="evenodd" d="M45.6981 17.4058C45.7418 16.7276 45.2314 16.1415 44.558 16.0968C43.8847 16.052 43.3034 16.5655 43.2597 17.2437C43.216 17.9219 43.7264 18.508 44.3997 18.5527C45.0731 18.5975 45.6544 18.084 45.6981 17.4058ZM47.0641 17.4965C47.1567 16.0585 46.0744 14.8158 44.6467 14.7209C43.2189 14.626 41.9864 15.7149 41.8937 17.153C41.801 18.591 42.8833 19.8337 44.3111 19.9286C45.7388 20.0235 46.9714 18.9346 47.0641 17.4965Z" fill="white"/>
<path d="M7.15339 2.97764C8.84633 3.09013 10.1296 4.56364 10.0198 6.26881C9.90987 7.97398 8.4484 9.2651 6.75546 9.1526C5.06252 9.04011 3.77921 7.5666 3.88909 5.86143C3.99898 4.15626 5.46046 2.86514 7.15339 2.97764Z" fill="white"/>
</svg>
