<svg width="110" height="25" viewBox="0 0 110 25" fill="none" xmlns="http://www.w3.org/2000/svg">
<g clip-path="url(#clip0)">
<path fill-rule="evenodd" clip-rule="evenodd" d="M41.421 13.0785C41.234 13.0785 41.0809 12.9256 41.0809 12.7388V11.7367V10.7345C41.0809 10.5477 41.234 10.3948 41.421 10.3948H43.682H45.943C46.13 10.3948 46.283 10.5477 46.283 10.7345V11.7367V12.7388C46.283 12.9256 46.13 13.0785 45.943 13.0785H43.682H41.421ZM34.4508 23.0996C34.4508 23.2865 34.6038 23.4393 34.7909 23.4393H41.438H48.0851C48.2721 23.4393 48.4251 23.2865 48.4251 23.0996V22.0975V21.0954C48.4251 20.9086 48.2721 20.7557 48.0851 20.7557H42.764H37.4429C37.2559 20.7557 37.1029 20.6028 37.1029 20.416V11.7197V3.02333C37.1029 2.8365 37.2559 2.68363 37.4429 2.68363H42.764H48.0851C48.2721 2.68363 48.4251 2.53077 48.4251 2.34393V1.34182V0.3397C48.4251 0.152865 48.2721 0 48.0851 0H41.438H34.7909C34.6038 0 34.4508 0.152865 34.4508 0.3397V11.6857V23.0996ZM24.0804 12.8238C24.0804 13.0106 24.2334 13.1635 24.4204 13.1635H26.6815H28.9425C29.1295 13.1635 29.2825 13.0106 29.2825 12.8238V11.8217V10.8196C29.2825 10.6327 29.1295 10.4799 28.9425 10.4799H26.6815H24.4204C24.2334 10.4799 24.0804 10.6327 24.0804 10.8196V11.8217V12.8238ZM17.7903 23.5244C17.6033 23.5244 17.4503 23.3715 17.4503 23.1847V11.8387V0.492657C17.4503 0.305822 17.6033 0.152957 17.7903 0.152957H24.4374H31.0845C31.2715 0.152957 31.4245 0.305822 31.4245 0.492657V1.42683V2.42895C31.4245 2.61578 31.2715 2.76865 31.0845 2.76865H25.7634H20.4424C20.2554 2.76865 20.1024 2.92152 20.1024 3.10835V11.8047V20.501C20.1024 20.6878 20.2554 20.8407 20.4424 20.8407H25.7634H31.0845C31.2715 20.8407 31.4245 20.9936 31.4245 21.1804V22.1825V23.1847C31.4245 23.3715 31.2715 23.5244 31.0845 23.5244H24.4374H17.7903ZM13.6935 17.7495C13.7445 16.5776 13.4555 15.3886 12.8435 14.3355C12.2995 13.4014 11.5515 12.705 10.6845 12.1275C9.88367 11.5723 9.02002 11.1584 8.19925 10.7651C8.16624 10.7493 8.1333 10.7335 8.10044 10.7177L8.01543 10.6838L7.93043 10.6498C7.01242 10.2082 6.0604 9.69862 5.26139 9.08716C4.46238 8.4757 3.81637 7.74534 3.51036 6.87911C3.27236 6.18272 3.27236 5.50332 3.47636 4.87487C3.69737 4.26341 4.10537 3.70291 4.71738 3.31225C5.5334 2.76873 6.57041 2.61586 7.67543 2.81968C8.69545 3.00652 9.78346 3.51607 10.8035 4.29738C10.9565 4.41628 11.1605 4.38231 11.2625 4.24643L11.8235 3.49908L12.3845 2.73476C12.5035 2.59888 12.4695 2.39506 12.3335 2.29315C10.8715 1.18912 9.29046 0.50972 7.77743 0.288915C6.17941 0.0681092 4.63238 0.356854 3.35736 1.20611C2.26934 1.91948 1.50433 2.93858 1.11332 4.09356C0.739319 5.24854 0.739319 6.52242 1.18133 7.76233C1.65733 9.07017 2.50735 10.0893 3.52736 10.9215C4.54738 11.7538 5.7374 12.3992 6.89342 12.9428L6.97842 12.9767L7.06342 13.0107C7.77743 13.3504 8.50844 13.7071 9.15445 14.1147C9.78346 14.5394 10.3275 15.0149 10.6845 15.6094C11.0415 16.2209 11.2115 16.9173 11.1945 17.5967C11.1775 18.2761 10.9735 18.9215 10.5825 19.448C10.3615 19.7368 10.0895 19.9915 9.76646 20.2124C9.49446 20.3822 9.22245 20.5351 8.91645 20.654C8.79745 20.7049 8.71245 20.8238 8.71245 20.9597V22.0637V22.9809C8.71245 23.1847 8.91645 23.3376 9.12045 23.2866C9.76646 23.1168 10.3615 22.862 10.9055 22.5223C11.5515 22.1147 12.1295 21.5881 12.5885 20.9767C13.2685 20.0425 13.6425 18.9215 13.6935 17.7495ZM1.11332 18.7856C1.21533 18.6327 1.41933 18.5988 1.57233 18.7177C2.15034 19.1593 2.71135 19.5499 3.23836 19.8387C3.79937 20.1614 4.36038 20.4162 4.90439 20.603C5.04039 20.654 5.12539 20.7729 5.12539 20.9087V21.9788V22.879C5.12539 23.0828 4.92139 23.2357 4.71738 23.1847C3.98637 22.9809 3.25536 22.6922 2.52435 22.3185C1.74233 21.9109 0.943322 21.4013 0.127309 20.7898C-0.00869287 20.6879 -0.0426933 20.4841 0.0593083 20.3482L0.603317 19.5499L1.11332 18.7856ZM67.4995 2.19114C68.9445 3.482 69.8286 5.28241 69.8286 7.25268C69.8286 8.78133 69.2845 10.2081 68.3835 11.397C67.5505 12.4671 66.3775 13.3163 65.0345 13.8429C64.8305 13.9278 64.7455 14.1316 64.8475 14.3015L67.4485 18.7176L69.9476 22.9638C70.0836 23.1846 69.8966 23.4564 69.6246 23.4564H68.5705H67.1255C66.9895 23.4564 66.8705 23.3884 66.8025 23.2865L64.2525 18.9554L61.7024 14.6242C61.6344 14.5223 61.5154 14.4543 61.3794 14.4543H60.2744H59.3224C59.1184 14.4543 58.9484 14.3015 58.9484 14.1146V13.1125V12.1104C58.9484 11.9236 59.1184 11.7707 59.3224 11.7707H60.4274H61.9064C63.2835 11.7707 64.5415 11.2611 65.4425 10.4459C66.3435 9.63058 66.9045 8.49258 66.9045 7.25268C66.9045 6.01277 66.3435 4.87478 65.4425 4.0595C64.5415 3.24421 63.2835 2.73466 61.9064 2.73466H58.2344H54.9193C54.7153 2.73466 54.5453 2.88753 54.5453 3.07436V13.0955V23.1167C54.5453 23.3035 54.3753 23.4564 54.1713 23.4564H53.0663H51.9613C51.7573 23.4564 51.5873 23.3035 51.5873 23.1167V11.7707V0.424703C51.5873 0.237868 51.7573 0.0850024 51.9613 0.0850024H56.7384H61.8894C64.0825 0.0850024 66.0545 0.900282 67.4995 2.19114Z" fill="white" fill-opacity="0.9"/>
<path d="M73.1262 23.2188C73.1262 23.4056 73.2622 23.5415 73.4152 23.5415H74.2652H75.1153C75.2683 23.5415 75.4043 23.3886 75.4043 23.2188V12.1615V1.10427C75.4043 0.917437 75.2683 0.781555 75.1153 0.781555H74.2652H73.4152C73.2622 0.781555 73.1262 0.934422 73.1262 1.10427V12.1615V23.2188Z" fill="white"/>
<path d="M91.4184 14.4036C92.0304 15.4566 92.3194 16.6456 92.2684 17.8176C92.2174 18.9895 91.8434 20.1105 91.1634 21.0447C90.7044 21.6562 90.1264 22.1827 89.4804 22.5903C88.9364 22.93 88.3414 23.1848 87.6954 23.3547C87.4914 23.4056 87.2874 23.2528 87.2874 23.0489V22.1317V21.0447C87.2874 20.9088 87.3724 20.7899 87.4914 20.739C87.7974 20.6201 88.0694 20.4672 88.3414 20.2974C88.6644 20.0766 88.9364 19.8218 89.1574 19.533C89.5484 19.0065 89.7524 18.3611 89.7694 17.6817C89.7864 17.0023 89.6164 16.3059 89.2594 15.6944C88.9024 15.0999 88.3584 14.6244 87.7294 14.1997C87.0834 13.7921 86.3524 13.4354 85.6383 13.0957L85.5533 13.0617L85.4683 13.0278C84.3123 12.4842 83.1223 11.8388 82.1023 11.0066C81.0823 10.1743 80.2323 9.15518 79.7562 7.84734C79.3142 6.60743 79.3142 5.33355 79.6882 4.17857C80.0793 3.02359 80.8443 2.00449 81.9323 1.29112C83.2073 0.441864 84.7543 0.15312 86.3524 0.373925C87.8654 0.594731 89.4464 1.27413 90.9084 2.37816C91.0444 2.48007 91.0784 2.68389 90.9594 2.81977L90.3984 3.5841L89.8374 4.33144C89.7354 4.46732 89.5314 4.50129 89.3784 4.38239C88.3584 3.60108 87.2704 3.09153 86.2503 2.90469C85.1453 2.70087 84.1083 2.85374 83.2923 3.39726C82.6803 3.78792 82.2723 4.34842 82.0513 4.95988C81.8473 5.58833 81.8473 6.26773 82.0853 6.96412C82.3913 7.83035 83.0373 8.56071 83.8363 9.17217C84.6353 9.78363 85.5873 10.2932 86.5054 10.7348L86.5904 10.7688L86.6754 10.8027C87.5254 11.2104 88.4264 11.635 89.2594 12.2125C90.1264 12.79 90.8744 13.4864 91.4184 14.4036ZM80.1643 18.8027C80.0112 18.6838 79.8072 18.7178 79.7052 18.8706L79.1952 19.635L78.6512 20.4332C78.5492 20.5691 78.5832 20.7729 78.7192 20.8749C79.5352 21.4863 80.3343 21.9959 81.1163 22.4035C81.8473 22.7772 82.5783 23.0659 83.3093 23.2697C83.5133 23.3207 83.7173 23.1678 83.7173 22.964V22.0638V20.9938C83.7173 20.8579 83.6323 20.739 83.4963 20.688C82.9523 20.5012 82.3913 20.2464 81.8303 19.9237C81.2863 19.635 80.7253 19.2443 80.1643 18.8027Z" fill="white"/>
<path d="M100.684 7.69429C100.684 7.50746 100.837 7.35459 101.024 7.35459H102.061H103.098C103.285 7.35459 103.438 7.50746 103.438 7.69429V15.8471V23.9999C103.438 24.1867 103.285 24.3396 103.098 24.3396H102.044H101.024C100.837 24.3396 100.684 24.1867 100.684 23.9999V15.8471V7.69429ZM109.66 3.65186C109.847 3.65186 110 3.499 110 3.31216V2.31004V1.3419C110 1.15506 109.847 1.0022 109.66 1.0022H102.044H94.4278C94.2408 1.0022 94.0878 1.15506 94.0878 1.3419V2.34401V3.34613C94.0878 3.53297 94.2408 3.68583 94.4278 3.68583H102.044H109.66V3.65186Z" fill="white"/>
</g>
<defs>
<clipPath id="clip0">
<rect width="110" height="24.3396" fill="white"/>
</clipPath>
</defs>
</svg>
