<svg width="24" height="24" viewBox="0 0 24 24" fill="none" xmlns="http://www.w3.org/2000/svg">
<path d="M10 21H4C2.89543 21 2 20.1046 2 19V9C2 7.89543 2.89543 7 4 7H5V5C5 3.89543 5.89543 3 7 3H20C21.1046 3 22 3.89543 22 5V16C22 17.1046 21.1046 18 20 18H12V19C12 20.1046 11.1046 21 10 21ZM4 9V19H10V9H4ZM7 7H10C11.1046 7 12 7.89543 12 9V16H20V5H7V7Z" fill="url(#paint0_linear)"/>
<defs>
<linearGradient id="paint0_linear" x1="2" y1="12.72" x2="26.2605" y2="11.8313" gradientUnits="userSpaceOnUse">
<stop stop-color="#261F74"/>
<stop offset="1" stop-color="#7D1F9D"/>
</linearGradient>
</defs>
</svg>
