<svg width="3000" height="1500" viewBox="0 0 3000 1500" fill="none" xmlns="http://www.w3.org/2000/svg">
<path opacity="0.57" d="M2647.4 289L2640.2 288.1L2644.9 282.5L2645.8 275.3L2651.4 280L2658.6 280.9L2653.9 286.5L2653 293.7L2647.4 289ZM2893.2 116.5L2897.3 108.8L2904.9 104.5L2897.2 100.4L2892.9 92.8002L2888.8 100.5L2881.2 104.8L2888.9 108.9L2893.2 116.5ZM2637.1 712.6L2645.8 711.2L2653.9 714.7L2652.5 706L2656 697.9L2647.3 699.3L2639.2 695.8L2640.6 704.5L2637.1 712.6ZM2892.3 506L2893.8 499.5L2898.6 494.9L2892.1 493.4L2887.5 488.6L2886 495.1L2881.2 499.7L2887.7 501.2L2892.3 506ZM2366.3 118.4L2371.9 114.9L2378.5 115L2375 109.4L2375.1 102.8L2369.5 106.3L2362.9 106.2L2366.4 111.8L2366.3 118.4ZM2968.6 258.6L2964.1 251.1L2964.4 242.4L2956.9 246.9L2948.2 246.6L2952.7 254.1L2952.4 262.8L2959.9 258.3L2968.6 258.6ZM1587.1 101.8L1590.3 93.5002L1597.5 88.3002L1589.2 85.1002L1584 77.9002L1580.8 86.2002L1573.6 91.4002L1581.9 94.6002L1587.1 101.8ZM1592.4 475.4L1596.4 469.7L1602.8 467.1L1597.1 463.1L1594.5 456.7L1590.5 462.4L1584.1 465L1589.8 469L1592.4 475.4ZM1890.7 64.4002L1892.2 54.9002L1898.6 47.7002L1889.1 46.2002L1881.9 39.8002L1880.4 49.3002L1874 56.5002L1883.5 58.0002L1890.7 64.4002ZM2250.8 593.9L2252.4 587.5L2257.2 583L2250.8 581.4L2246.3 576.6L2244.7 583L2239.9 587.5L2246.3 589.1L2250.8 593.9ZM1781.6 166.3L1777.4 160.8L1776.8 154L1771.3 158.2L1764.5 158.8L1768.7 164.3L1769.3 171.1L1774.8 166.9L1781.6 166.3ZM1752.3 586L1759.2 586.8L1764.6 591.2L1765.4 584.3L1769.8 578.9L1762.9 578.1L1757.5 573.7L1756.7 580.6L1752.3 586ZM1976.7 407.2L1982.1 399.7L1990.7 396.3L1983.2 390.9L1979.8 382.3L1974.4 389.8L1965.8 393.2L1973.3 398.6L1976.7 407.2ZM2302.1 313.9L2306 307.9L2312.5 305L2306.5 301.1L2303.6 294.6L2299.7 300.6L2293.2 303.5L2299.2 307.4L2302.1 313.9ZM2550.5 136.2L2557.1 132.3L2564.7 132.6L2560.8 126L2561.1 118.4L2554.5 122.3L2546.9 122L2550.8 128.6L2550.5 136.2ZM2321.7 736.3L2324.9 729.3L2331.3 725.1L2324.3 721.9L2320.1 715.5L2316.9 722.5L2310.5 726.7L2317.5 729.9L2321.7 736.3ZM2540.5 557.6L2545.7 549.6L2554.4 545.7L2546.4 540.5L2542.5 531.8L2537.3 539.8L2528.6 543.7L2536.6 548.9L2540.5 557.6ZM2572.8 211.9L2573.3 207.9L2575.9 204.8L2571.9 204.3L2568.8 201.7L2568.3 205.7L2565.7 208.8L2569.7 209.3L2572.8 211.9ZM2564.1 441.5L2568.9 440.7L2573.3 442.6L2572.5 437.8L2574.4 433.4L2569.6 434.2L2565.2 432.3L2566 437.1L2564.1 441.5ZM2699.1 175.3L2702.2 173.4H2705.8L2703.9 170.3V166.7L2700.8 168.6H2697.2L2699.1 171.7V175.3ZM1988.7 106.7L1990.5 102.2L1994.4 99.3002L1989.9 97.5002L1987 93.6002L1985.2 98.1002L1981.3 101L1985.8 102.8L1988.7 106.7ZM2118.7 411.1L2120.5 408.8L2123.3 407.9L2121 406.1L2120.1 403.3L2118.3 405.6L2115.5 406.5L2117.8 408.3L2118.7 411.1ZM2155 86.2002L2155.8 81.0002L2159.3 77.1002L2154.1 76.3002L2150.2 72.8002L2149.4 78.0002L2145.9 81.9002L2151.1 82.7002L2155 86.2002ZM2219.2 479.9L2222.7 479.6L2225.8 481.2L2225.5 477.7L2227.1 474.6L2223.6 474.9L2220.5 473.3L2220.8 476.8L2219.2 479.9ZM2352.4 376.4L2353.3 372.9L2355.9 370.4L2352.4 369.5L2349.9 366.9L2349 370.4L2346.4 372.9L2349.9 373.8L2352.4 376.4ZM2230.9 691.8L2232.6 687.9L2236.1 685.5L2232.2 683.8L2229.8 680.3L2228.1 684.2L2224.6 686.6L2228.5 688.3L2230.9 691.8ZM2358.8 603.7L2358.3 599.6L2360.1 595.9L2356 596.4L2352.3 594.6L2352.8 598.7L2351 602.4L2355.1 601.9L2358.8 603.7ZM1987.8 595.8L1991.6 596.3L1994.5 598.7L1995 594.9L1997.4 592L1993.6 591.5L1990.7 589.1L1990.2 592.9L1987.8 595.8ZM2202.2 274L2205.1 269.9L2209.8 268L2205.7 265.1L2203.8 260.4L2200.9 264.5L2196.2 266.4L2200.3 269.3L2202.2 274ZM2380.5 223L2382.7 219.7L2386.3 218.1L2383 215.9L2381.4 212.3L2379.2 215.6L2375.6 217.2L2378.9 219.4L2380.5 223ZM2516.7 125.6L2520.3 123.5L2524.5 123.7L2522.4 120.1L2522.6 115.9L2519 118L2514.8 117.8L2516.9 121.4L2516.7 125.6ZM2391.2 454.4L2392.9 450.6L2396.4 448.3L2392.6 446.6L2390.3 443.1L2388.6 446.9L2385.1 449.2L2388.9 450.9L2391.2 454.4ZM2810.5 374L2813.4 369.6L2818.2 367.5L2813.8 364.6L2811.7 359.8L2808.8 364.2L2804 366.3L2808.4 369.2L2810.5 374ZM1159.5 252.9L1152.3 252L1157 246.4L1157.9 239.2L1163.5 243.9L1170.7 244.8L1166 250.4L1165.1 257.6L1159.5 252.9ZM1405.4 80.4002L1409.5 72.7002L1417.1 68.4002L1409.4 64.3002L1405.1 56.7002L1401 64.4002L1393.4 68.7002L1401.1 72.8002L1405.4 80.4002ZM1149.3 676.5L1158 675.1L1166.1 678.6L1164.7 669.9L1168.2 661.8L1159.5 663.2L1151.4 659.7L1152.8 668.4L1149.3 676.5ZM1404.5 469.9L1406 463.4L1410.8 458.8L1404.3 457.3L1399.7 452.5L1398.2 459L1393.4 463.6L1399.9 465.1L1404.5 469.9ZM878.4 82.2002L884 78.7002L890.6 78.8002L887.1 73.2002L887.2 66.6002L881.6 70.1002L875 70.0002L878.5 75.6002L878.4 82.2002ZM1480.7 222.5L1476.2 215L1476.5 206.3L1469 210.8L1460.3 210.5L1464.8 218L1464.5 226.7L1472 222.2L1480.7 222.5ZM99.3002 65.6002L102.5 57.3002L109.7 52.1002L101.4 48.9002L96.2002 41.7002L92.9002 50.0002L85.7002 55.2002L94.0002 58.4002L99.3002 65.6002ZM104.6 439.2L108.6 433.5L115 430.9L109.3 426.9L106.7 420.5L102.7 426.2L96.3002 428.8L102 432.8L104.6 439.2ZM343.6 292.1L347 288L352.1 286.3L348 282.9L346.3 277.8L342.9 281.9L337.8 283.6L341.9 287L343.6 292.1ZM402.8 28.3002L404.3 18.8002L410.7 11.6002L401.2 10.1002L394 3.7002L392.5 13.2002L386.1 20.4002L395.6 21.9002L402.8 28.3002ZM519.8 746.7L526.2 746.1L531.9 749L531.3 742.6L534.2 736.9L527.8 737.5L522.1 734.6L522.7 741L519.8 746.7ZM762.9 557.7L764.5 551.3L769.3 546.8L762.9 545.2L758.4 540.4L756.8 546.8L752 551.3L758.4 552.9L762.9 557.7ZM293.7 130.2L289.5 124.7L288.9 117.9L283.4 122.1L276.6 122.7L280.8 128.2L281.4 135L286.9 130.8L293.7 130.2ZM264.4 549.9L271.3 550.7L276.7 555.1L277.5 548.2L281.9 542.8L275 542L269.6 537.6L268.8 544.5L264.4 549.9ZM488.8 371L494.2 363.5L502.8 360.1L495.3 354.7L491.9 346.1L486.5 353.6L477.9 357L485.4 362.4L488.8 371ZM814.2 277.8L818.1 271.8L824.6 268.9L818.6 265L815.7 258.5L811.8 264.5L805.3 267.4L811.3 271.3L814.2 277.8ZM1062.7 100.1L1069.3 96.2002L1076.9 96.5002L1073 89.9002L1073.3 82.3002L1066.7 86.2002L1059.1 85.9002L1063 92.5002L1062.7 100.1ZM833.8 700.2L837 693.2L843.4 689L836.4 685.8L832.2 679.4L829 686.4L822.6 690.6L829.6 693.8L833.8 700.2ZM1052.7 521.5L1057.9 513.5L1066.6 509.6L1058.6 504.4L1054.7 495.7L1049.5 503.7L1040.8 507.6L1048.8 512.8L1052.7 521.5ZM1084.9 175.7L1085.4 171.7L1088 168.6L1084 168.1L1080.9 165.5L1080.4 169.5L1077.8 172.6L1081.8 173.1L1084.9 175.7ZM1076.2 405.3L1081 404.5L1085.4 406.4L1084.6 401.6L1086.5 397.2L1081.7 398L1077.3 396.1L1078.1 400.9L1076.2 405.3ZM1211.2 139.1L1214.3 137.2H1217.9L1216 134.1V130.5L1212.9 132.4H1209.3L1211.2 135.5V139.1ZM500.8 70.6002L502.6 66.1002L506.5 63.2002L502 61.4002L499.1 57.5002L497.3 62.0002L493.4 64.9002L497.9 66.7002L500.8 70.6002ZM503.7 275.3L505.9 272.2L509.4 270.8L506.3 268.6L504.9 265.1L502.7 268.2L499.2 269.6L502.3 271.8L503.7 275.3ZM630.8 374.9L632.6 372.6L635.4 371.7L633.1 369.9L632.2 367.1L630.4 369.4L627.6 370.3L629.9 372.1L630.8 374.9ZM667.2 50.1002L668 44.9002L671.5 41.0002L666.3 40.2002L662.4 36.7002L661.6 41.9002L658.1 45.8002L663.3 46.6002L667.2 50.1002ZM731.3 443.8L734.8 443.5L737.9 445.1L737.6 441.6L739.2 438.5L735.7 438.8L732.6 437.2L732.9 440.7L731.3 443.8ZM864.5 340.2L865.4 336.7L868 334.2L864.5 333.3L862 330.7L861.1 334.2L858.5 336.7L862 337.6L864.5 340.2ZM743.1 655.7L744.8 651.8L748.3 649.4L744.4 647.7L742 644.2L740.3 648.1L736.8 650.5L740.7 652.2L743.1 655.7ZM870.9 567.5L870.4 563.4L872.2 559.7L868.1 560.2L864.4 558.4L864.9 562.5L863.1 566.2L867.2 565.7L870.9 567.5ZM126.2 294.2L123.9 291.2L123.6 287.5L120.6 289.8L116.9 290.1L119.2 293.1L119.5 296.8L122.5 294.5L126.2 294.2ZM499.9 559.6L503.7 560.1L506.6 562.5L507.1 558.7L509.5 555.8L505.7 555.3L502.8 552.9L502.3 556.7L499.9 559.6ZM714.3 237.9L717.2 233.8L721.9 231.9L717.8 229L715.9 224.3L713 228.4L708.3 230.3L712.4 233.2L714.3 237.9ZM892.6 186.8L894.8 183.5L898.4 181.9L895.1 179.7L893.5 176.1L891.3 179.4L887.7 181L891 183.2L892.6 186.8ZM1028.8 89.4002L1032.4 87.3002L1036.6 87.5002L1034.5 83.9002L1034.7 79.7002L1031.1 81.8002L1026.9 81.6002L1029 85.2002L1028.8 89.4002ZM903.4 418.3L905.1 414.5L908.6 412.2L904.8 410.5L902.5 407L900.8 410.8L897.3 413.1L901.1 414.8L903.4 418.3ZM1322.6 337.9L1325.5 333.5L1330.3 331.4L1325.9 328.5L1323.8 323.7L1320.9 328.1L1316.1 330.2L1320.5 333.1L1322.6 337.9Z" fill="url(#paint0_radial)"/>
<path d="M1498.7 355.6L1240.1 272.9L1286.3 388.8L1498.7 355.6Z" fill="#5235DD"/>
<path d="M0 338.3L1274.5 320.1L1274.6 350.1L0 339.3V338.3Z" fill="#5235DD"/>
<path d="M0 1029.5L1709 1012.6L1543.2 1500H0V1029.5Z" fill="url(#paint1_linear)"/>
<path d="M31.9004 1500H1642L1740.9 1209.3L31.9004 1226.1V1500Z" fill="url(#paint2_linear)"/>
<path d="M0 1500H1430.7L1559.8 1120.7L0 1136.1V1500Z" fill="url(#paint3_linear)"/>
<path d="M0 1500H1052.6L1126.8 1228L0 1241.9V1500Z" fill="url(#paint4_linear)"/>
<path d="M1546.6 494.1L1490.3 549.1L1490.2 549.2C1475.7 566.8 1460.5 581.3 1433.2 537.5C1433 537.2 1432.9 537 1432.7 536.8L1372.4 461.9C1372 461.4 1371.2 461.3 1370.7 461.8L1344.9 486.2C1344.5 486.6 1344.4 487.2 1344.7 487.6C1350.6 497.4 1394.3 581.8 1415 616.9C1438.5 656.6 1464 657.2 1490.7 640.1L1606.1 560.1C1620.4 550.9 1682 537.5 1682.3 528.1C1682.6 516.8 1666.9 431.2 1573.5 474.5C1571.6 475.3 1548.2 492.6 1546.6 494.1Z" fill="url(#paint5_linear)"/>
<path d="M1564.6 195.5C1564.6 195.5 1562.9 173.4 1557 171.1C1550.7 168.6 1545.7 163 1544.4 164.8C1543.2 166.5 1547.7 171.9 1553.3 176.3C1557.1 179.2 1558 195.5 1560.5 195.3C1563 195 1564.6 195.5 1564.6 195.5Z" fill="url(#paint6_linear)"/>
<path d="M1558.6 199.6L1559.3 177.1C1559.3 177.1 1541.5 158.6 1547 153C1547 153 1551 155.7 1557.2 163.1C1561.9 168.6 1565.6 170.8 1566.7 173.7C1568.5 178.5 1567.9 193.6 1567.9 193.6C1567.9 193.6 1568.7 199 1558.6 199.6Z" fill="url(#paint7_linear)"/>
<path d="M1549.8 230.8C1545.9 229.2 1540 225.2 1532.9 215C1524 202.2 1518 200.5 1518 200.5C1516.3 196.8 1527.9 196.4 1533.9 205C1538 210.9 1542.6 210.6 1547 209.3C1547.5 208 1548.1 206.6 1548.8 205.2C1551.6 199.6 1556.5 193.5 1560.5 188.2L1563.3 169.8C1563.3 169.8 1548.1 149.1 1554.2 144.2C1554.2 144.2 1559.8 148.8 1564.1 157.4C1565.5 160.1 1566.7 161.8 1567.7 162.9C1567.7 152.1 1567.6 140.2 1572.2 139.7C1574.4 139.4 1578.6 175.7 1576.6 182.8C1569.6 208 1582.2 231.1 1582.2 231.1H1581.9C1593.5 238.3 1603.3 246.1 1603.3 246.1C1599.6 258.3 1586.5 266.3 1586.5 266.3L1549.8 230.8Z" fill="url(#paint8_linear)"/>
<path d="M2078.2 554.9C2078.7 558.2 2080.6 563.6 2087.2 571.1C2095.4 580.5 2095.6 585.5 2095.6 585.5C2098.1 587.5 2100.7 578.6 2095.2 572.3C2091.4 568 2092.6 564.4 2094.4 561.3C2095.5 561.2 2096.7 561 2098 560.7C2102.9 559.6 2108.6 557 2113.5 554.9L2128.4 556.3C2128.4 556.3 2141.5 572.2 2146.6 568.4C2146.6 568.4 2144.1 563.2 2138.3 558.1C2136.4 556.5 2135.4 555.2 2134.7 554.2C2143.1 556.3 2152.3 558.7 2153.6 555.2C2154.2 553.6 2126.8 543.2 2120.9 543.3C2100 543.8 2084.4 529.5 2084.4 529.5V529.8C2081.1 519.4 2076.9 510.3 2076.9 510.3C2066.7 510.8 2057.9 519.4 2057.9 519.4L2078.2 554.9Z" fill="url(#paint9_linear)"/>
<path d="M2064.9 534.8C2072.8 532.1 2080.7 529.8 2088.4 527.9C2082.6 506.7 2055.1 457.3 2041.5 438.4C2021 409.8 1994 388.6 1964 375.3C1946.4 367.6 1927.8 362.6 1908.9 360.4C1901.3 384.9 1889 409.7 1872.4 433.2C1928.9 432 1985.1 451.3 2029.4 489.1C2039.7 497.9 2048.5 508.3 2055.7 519.8C2060.2 527.2 2064.9 534.7 2064.9 534.8Z" fill="url(#paint10_linear)"/>
<path d="M1676.7 598.9C1698.1 697.1 1707 789.3 1693.3 885C1683.7 886 1674.1 886.7 1664.6 887C1661.6 863.8 1657.6 840.5 1652.5 817.3C1630.5 716.5 1610.7 646 1555.6 569.1C1537.1 543.3 1558.7 501.3 1564.4 491.2C1572.1 477.7 1607.3 458 1626.7 449.9C1638.6 483 1669.1 563.9 1676.7 598.9Z" fill="url(#paint11_linear)"/>
<path d="M1274.6 457.2C1275.4 456 1276.2 454.9 1277 453.7C1280.6 448.7 1284.5 444.1 1288.8 439.9C1306.7 432 1326.6 429.2 1346 432C1346.4 430 1346.7 428.1 1347 426.1C1351.3 424.1 1355.5 422.3 1359.9 420.6C1360.7 425.6 1362.2 430.5 1364.3 435.3C1364.5 435.7 1364.7 436.1 1364.9 436.5C1366.2 439.3 1367.8 442.1 1369.6 444.8C1358.1 450 1346.5 454.4 1334.6 457.9C1323.6 454.4 1312.1 452.8 1300.8 453.1C1291.8 453.5 1283 454.8 1274.6 457.2Z" fill="url(#paint12_linear)"/>
<path d="M1930.9 369.8C1930.8 369.9 1933.2 395.8 1888.1 433C1886.4 434.4 1883.6 433.1 1881.4 433.3C1801.7 437.3 1727.4 478.3 1681.6 544.6C1680.3 544.5 1679 544.3 1677.7 544.2C1675.1 543.9 1672.5 543.5 1669.8 543.1C1655.2 540.9 1638.6 541.4 1626.2 532.6C1594.9 510.4 1579.1 467.8 1566.9 456.2C1580.6 454.7 1616.7 449.2 1639.8 437.1C1672.9 419.8 1675 413 1696.5 388.4C1698.4 386.2 1700.3 384 1702.1 381.8C1717.8 362.6 1750.1 324.1 1759.9 300.2C1879 320.6 1921.9 360.1 1930.9 369.8Z" fill="url(#paint13_linear)"/>
<path d="M1831.6 372.1L1844.1 372.8C1839.4 357.7 1859.3 330.9 1859.3 330.9C1827.1 347.1 1831.6 372.1 1831.6 372.1Z" fill="#212121"/>
<path d="M1838.6 378.2C1838.6 378.2 1794.6 447 1724 446.9C1697.8 446.9 1694.2 476 1694.2 476C1694.2 476 1725.7 469.3 1735.5 468.1C1771.6 463.8 1828.2 432.2 1838.6 378.2Z" fill="#212121"/>
<path d="M1850.7 379.5L1841.3 384.8C1841.3 384.8 1869.7 382.1 1869.5 380.3C1869.3 378.5 1850.7 379.5 1850.7 379.5Z" fill="#212121"/>
<path d="M1716.4 982.6C1707 976.8 1697.9 970.4 1689 963.4C1681 957 1673.4 950.2 1666.3 943.2C1666.5 939.7 1666.3 936.2 1665.9 932.7C1663 932.9 1660.2 933.2 1657.3 933.8C1654.2 930.4 1651.2 926.9 1648.3 923.3C1652.8 921 1657 918.2 1660.9 914.8C1663.6 912.5 1666.1 909.9 1668.4 907C1677 916.5 1684.7 926.5 1691.7 936.9C1701.5 951.3 1709.7 966.7 1716.4 982.6Z" fill="url(#paint14_linear)"/>
<path d="M1926.7 390.5C1917.3 395.7 1909.4 402.6 1903.3 410.7C1900.7 406.6 1897.7 402.8 1894.4 399.4C1881.4 385.8 1863.8 377.6 1845.2 376.2C1845.5 359.7 1851.2 343.7 1861.3 330.8C1867.9 330.5 1874.5 329.4 1881 327.4C1885.5 331.6 1891.2 334.3 1897.3 335C1898.4 333.7 1899.7 332.7 1901.4 331.9C1905.2 330.2 1909.4 330.6 1912.6 332.7C1914.4 333.9 1915.9 335.5 1916.8 337.6C1916.9 337.8 1917 337.9 1917 338.1C1918.5 337 1920.2 336 1922 335.2C1936.6 328.5 1953.8 334.9 1960.5 349.5C1960.5 349.6 1960.6 349.7 1960.6 349.8C1960.5 350 1960.3 350.1 1960.2 350.3C1954.4 357.9 1949.6 366.1 1945.7 374.7C1944.4 377.7 1943.1 380.8 1942 383.9C1941.3 385.9 1940.6 388 1940 390C1939.1 393 1938.3 396.1 1937.7 399.1C1934 396.6 1930.2 393.6 1926.7 390.5Z" fill="url(#paint15_linear)"/>
<path d="M1903.4 410.5C1903.3 410.6 1903.3 410.6 1903.2 410.7C1903 410.4 1902.9 410.2 1902.7 409.9C1900.2 406.1 1897.4 402.6 1894.3 399.4C1894.2 399.3 1894.1 399.2 1894 399.1C1881 385.7 1863.5 377.6 1845.1 376.2C1845.4 359.7 1851.1 343.7 1861.2 330.8C1867.8 330.6 1874.4 329.4 1880.9 327.4C1885.4 331.6 1891.1 334.3 1897.2 335C1898.3 333.7 1899.6 332.7 1901.3 331.9C1905.1 330.2 1909.3 330.6 1912.5 332.7C1913.8 333.5 1914.9 334.6 1915.8 335.9C1915.8 336 1915.9 336 1915.9 336.1C1915.9 336.1 1915.9 336.2 1916 336.2C1916 336.2 1916 336.3 1916.1 336.3C1916.2 336.5 1916.3 336.7 1916.4 336.9C1916.5 337 1916.5 337.1 1916.6 337.3C1916.6 337.3 1916.6 337.3 1916.6 337.4C1916.6 337.5 1916.7 337.6 1916.7 337.7C1916.8 337.9 1916.9 338 1916.9 338.2C1917.1 338.1 1917.2 338 1917.4 337.9C1917.5 337.8 1917.6 337.8 1917.7 337.7C1917.7 337.7 1917.8 337.7 1917.8 337.6C1917.9 337.6 1917.9 337.5 1918 337.5C1918.1 337.4 1918.3 337.3 1918.4 337.3C1918.5 337.2 1918.7 337.1 1918.8 337C1919.8 336.4 1920.8 335.8 1921.9 335.4C1936.5 328.7 1953.7 335.1 1960.4 349.7C1960.4 349.8 1960.5 349.9 1960.5 350C1960.4 350.2 1960.2 350.3 1960.1 350.5C1959.1 351.8 1958.2 353 1957.3 354.3C1952.7 360.8 1948.8 367.7 1945.6 374.9C1944.3 377.9 1943 381 1941.9 384.1C1941.2 386.1 1940.5 388.2 1939.9 390.2C1939 393.2 1938.2 396.3 1937.6 399.3C1933.7 396.6 1930 393.7 1926.4 390.5C1926.3 390.6 1926.2 390.6 1926.1 390.7C1917.2 395.8 1909.5 402.6 1903.4 410.5Z" fill="url(#paint16_linear)"/>
<path d="M1937.6 373.1C1936.6 373.6 1935.5 373.9 1934.5 374C1931.8 371.1 1929.5 367.8 1927.6 364.2C1931.6 367.1 1936.1 369.4 1940.8 370.9C1939.8 371.8 1938.8 372.5 1937.6 373.1Z" fill="#212121"/>
<path d="M1917.1 338.2C1917 338 1917 337.8 1916.9 337.7C1917.6 337.4 1918.3 337.2 1919 337C1918.3 337.4 1917.7 337.8 1917.1 338.2Z" fill="url(#paint17_linear)"/>
<path d="M1917.1 338.2C1917 338 1917 337.8 1916.9 337.7C1917.6 337.4 1918.3 337.2 1919 337C1918.3 337.4 1917.7 337.8 1917.1 338.2Z" stroke="#231F20" stroke-width="3" stroke-miterlimit="10"/>
<path d="M1926.3 390.7C1923.8 387.3 1919.2 386 1915.3 387.8C1913.9 388.4 1912.3 387.8 1911.8 386.4C1905.2 367.3 1914 345.9 1932.8 337.3C1934.2 336.7 1935.5 336.1 1936.9 335.7C1937.2 335.7 1937.6 335.8 1937.9 335.8L1938 335.9C1938.2 336 1938.4 336.1 1938.5 336.2C1938.6 336.2 1938.6 336.3 1938.7 336.3C1938.8 336.4 1939 336.5 1939.1 336.5C1939.2 336.5 1939.2 336.6 1939.3 336.6C1939.5 336.7 1939.6 336.8 1939.8 336.9L1939.9 337C1940 337.1 1940.2 337.2 1940.3 337.3L1940.4 337.4C1940.6 337.5 1940.7 337.7 1940.9 337.8L1941 337.9C1941.1 338 1941.3 338.1 1941.4 338.3L1941.5 338.4C1941.7 338.5 1941.8 338.7 1942 338.8L1942.1 338.9C1942.2 339 1942.4 339.2 1942.5 339.3L1942.6 339.4C1942.7 339.6 1942.9 339.7 1943 339.9C1943 340 1943.1 340 1943.1 340.1C1943.2 340.3 1943.4 340.4 1943.5 340.6C1943.5 340.6 1943.5 340.6 1943.5 340.7C1944.3 341.6 1945 342.6 1945.8 343.5C1948.1 346.1 1950.4 348.6 1952.9 350.9C1953.5 351.5 1954.1 352.1 1954.8 352.6C1954.8 352.6 1954.8 352.6 1954.9 352.6C1955.1 352.7 1955.2 352.9 1955.4 353L1955.5 353.1C1955.6 353.2 1955.8 353.3 1955.9 353.5C1956 353.5 1956 353.6 1956.1 353.6C1956.2 353.7 1956.4 353.8 1956.5 353.9C1956.6 354 1956.7 354 1956.8 354.1C1956.9 354.2 1957 354.2 1957.1 354.3C1957.1 354.3 1957.1 354.3 1957.2 354.3C1957.4 354.4 1957.6 354.5 1957.8 354.7L1957.9 354.8C1958.1 354.9 1958.3 355 1958.4 355.1L1958.5 355.2C1959 355.5 1959.4 355.7 1959.9 355.9H1960C1960.2 356 1960.4 356.1 1960.6 356.2C1960.7 356.2 1960.7 356.2 1960.8 356.3C1961 356.4 1961.2 356.4 1961.3 356.5C1961.4 356.5 1961.4 356.5 1961.5 356.6C1961.7 356.7 1961.9 356.7 1962.1 356.8H1962.2C1962.7 357 1963.2 357.1 1963.6 357.2H1963.7C1963.9 357.3 1964.1 357.3 1964.3 357.3C1964.4 357.3 1964.4 357.3 1964.5 357.3C1964.7 357.3 1964.9 357.4 1965 357.4H1965.1C1965.8 357.5 1966.6 357.6 1967.3 357.7H1967.4C1967.5 357.7 1967.7 357.7 1967.9 357.7C1968 357.7 1968.1 357.7 1968.2 357.7C1968.4 357.7 1968.7 357.7 1968.9 357.7C1969 357.7 1969.1 357.7 1969.3 357.7C1969.4 357.7 1969.4 357.7 1969.5 357.7C1969.6 357.7 1969.7 357.7 1969.9 357.7C1970 357.7 1970 357.7 1970.1 357.7C1970.3 357.7 1970.5 357.7 1970.7 357.7C1970.8 357.7 1970.8 357.7 1970.9 357.7C1971 357.7 1971.1 357.7 1971.2 357.7C1971.3 357.7 1971.4 357.7 1971.4 357.7C1971.5 357.7 1971.6 357.7 1971.7 357.7C1971.8 357.7 1971.9 357.7 1972 357.7C1972.1 357.7 1972.3 357.7 1972.4 357.6C1972.5 357.6 1972.6 357.6 1972.7 357.5C1972.8 357.5 1972.9 357.5 1973 357.4C1973.1 357.4 1973.2 357.4 1973.3 357.3C1973.4 357.3 1973.5 357.3 1973.6 357.2C1973.7 357.2 1973.8 357.1 1974 357.1C1974.1 357.1 1974.2 357 1974.3 357C1974.4 357 1974.5 356.9 1974.7 356.9C1974.8 356.9 1974.9 356.9 1974.9 356.8C1975 356.8 1975.1 356.7 1975.2 356.7C1975.3 356.7 1975.4 356.7 1975.4 356.6C1975.5 356.6 1975.7 356.5 1975.8 356.5C1975.9 356.5 1976 356.4 1976 356.4C1976.1 356.4 1976.3 356.3 1976.4 356.3C1976.5 356.3 1976.5 356.2 1976.6 356.2C1976.7 356.2 1976.8 356.1 1976.9 356.1C1977 356.1 1977 356 1977.1 356C1977.2 355.9 1977.4 355.9 1977.5 355.8C1977.6 355.8 1977.6 355.7 1977.7 355.7C1977.8 355.6 1978 355.6 1978.1 355.5C1978.2 355.5 1978.2 355.4 1978.3 355.4C1978.4 355.3 1978.5 355.3 1978.6 355.2C1978.7 355.2 1978.7 355.1 1978.8 355.1C1978.9 355 1979.1 355 1979.2 354.9C1979.3 354.9 1979.3 354.8 1979.4 354.8C1979.5 354.7 1979.7 354.6 1979.8 354.6C1979.9 354.6 1979.9 354.5 1980 354.5C1980.1 354.4 1980.2 354.4 1980.3 354.3C1980.4 354.3 1980.4 354.2 1980.5 354.2C1980.6 354.1 1980.7 354 1980.9 354C1981 354 1981 353.9 1981.1 353.9C1981.2 353.8 1981.4 353.7 1981.5 353.6C1981.6 353.6 1981.6 353.5 1981.7 353.5C1981.8 353.4 1981.9 353.4 1982 353.3C1982.1 353.3 1982.1 353.2 1982.2 353.2C1982.3 353.1 1982.4 353 1982.5 352.9L1982.6 352.8C1982.7 352.7 1982.8 352.6 1982.9 352.5C1983 352.4 1983.1 352.3 1983.2 352.3C1983.3 352.2 1983.3 352.2 1983.4 352.1C1983.5 352 1983.6 351.9 1983.6 351.9C1983.7 351.8 1983.8 351.8 1983.8 351.7C1983.9 351.6 1983.9 351.6 1984 351.5C1984.1 351.4 1984.2 351.3 1984.2 351.2C1984.3 351.1 1984.3 351.1 1984.4 351C1984.5 350.9 1984.6 350.8 1984.7 350.7C1984.8 350.6 1984.8 350.6 1984.9 350.5C1985 350.4 1985.1 350.3 1985.2 350.2C1985.2 350.1 1985.3 350.1 1985.3 350C1985.4 349.9 1985.5 349.8 1985.6 349.6L1985.7 349.5C1985.8 349.4 1985.9 349.2 1986 349.1L1986.1 349C1986.2 348.9 1986.3 348.7 1986.4 348.6C1986.4 348.6 1986.4 348.5 1986.5 348.5C1986.6 348.3 1986.7 348.2 1986.8 348C1987.6 346.7 1988.3 345.3 1988.8 343.7C1989.5 341.7 1990.2 339.8 1991 337.8C1965.1 338.6 1934.6 308 1931.8 305.1C1931.8 305.1 1931.8 305.1 1931.7 305C1931.6 304.9 1931.6 304.9 1931.6 304.9C1931.4 304.8 1931.2 304.6 1931 304.5C1930.8 304.4 1930.6 304.3 1930.4 304.1C1929.7 303.7 1929.1 303.3 1928.4 303C1928.2 302.9 1928 302.8 1927.8 302.7C1927.6 302.6 1927.4 302.6 1927.3 302.5C1912.6 296.9 1901.8 315.1 1891.8 322.5C1891.6 322.6 1891.4 322.8 1891.2 322.9C1890.7 323.2 1890.3 323.5 1889.8 323.8C1889.5 324 1889.2 324.1 1889 324.3C1888.8 324.4 1888.6 324.5 1888.4 324.6C1888.3 324.6 1888.2 324.7 1888.1 324.7C1887.3 325 1886.6 325.4 1885.8 325.7C1884.1 326.3 1882.5 326.9 1880.8 327.5C1885.3 331.7 1891 334.4 1897.1 335.1C1898.2 333.8 1899.5 332.8 1901.2 332C1905 330.3 1909.2 330.7 1912.4 332.8C1912.5 332.9 1912.7 333 1912.8 333.1L1912.9 333.2C1913 333.3 1913.1 333.4 1913.2 333.5C1913.2 333.5 1913.3 333.5 1913.3 333.6C1913.4 333.7 1913.6 333.8 1913.7 333.9L1913.8 334C1913.9 334.1 1914 334.2 1914.1 334.3L1914.2 334.4C1914.3 334.5 1914.4 334.6 1914.6 334.8L1914.7 334.9C1914.8 335 1914.9 335.1 1915 335.2C1915 335.2 1915 335.3 1915.1 335.3C1915.2 335.4 1915.3 335.6 1915.4 335.7C1915.5 335.8 1915.6 336 1915.7 336.1C1915.7 336.2 1915.8 336.2 1915.8 336.3C1915.8 336.3 1915.8 336.3 1915.8 336.4C1915.8 336.4 1915.8 336.5 1915.9 336.5C1915.9 336.6 1916 336.6 1916 336.7L1916.1 336.8C1916.1 336.9 1916.2 337 1916.2 337.1V337.2C1916.3 337.3 1916.3 337.4 1916.4 337.5C1916.4 337.5 1916.4 337.5 1916.4 337.6C1916.4 337.7 1916.5 337.8 1916.5 337.9C1915.4 338.3 1914.4 338.7 1913.3 339.2C1891.7 349.1 1882.3 374.5 1892.1 396.1C1892.6 397.2 1893.2 398.3 1893.7 399.3C1896 403.5 1899 407.1 1902.4 410.1C1902.6 410.3 1902.8 410.5 1903 410.7C1909.5 402.6 1917.2 395.8 1926.3 390.7ZM1918.9 337C1918.8 337 1918.8 337.1 1918.7 337.1C1918.8 337.1 1918.8 337 1918.9 337ZM1917.8 337.7C1917.7 337.7 1917.7 337.8 1917.6 337.8C1917.6 337.8 1917.7 337.8 1917.8 337.7ZM1918.4 337.3C1918.3 337.4 1918.2 337.4 1918.1 337.5C1918.2 337.4 1918.3 337.4 1918.4 337.3Z" fill="url(#paint18_linear)"/>
<path d="M1783.1 345.4C1803.7 321 1794 300.5 1762.1 300.3C1688.2 299.7 1627.8 267.4 1594.2 222.9C1592.4 220.5 1590.7 218.1 1589 215.7C1587.4 217.2 1585.7 218.7 1584.1 220.2C1569.1 233.9 1562.7 240 1547.5 251.8C1552.7 261.2 1558.7 270.4 1565.5 279.4C1608.1 335.8 1663.1 376.7 1718.3 378.1C1728.3 378.3 1738.1 375.8 1746.9 371C1762.6 362.5 1775.4 354.6 1783.1 345.4Z" fill="url(#paint19_linear)"/>
<defs>
<radialGradient id="paint0_radial" cx="0" cy="0" r="1" gradientUnits="userSpaceOnUse" gradientTransform="translate(2219.58 -150.617) scale(1378.11)">
<stop stop-color="#5235DD"/>
<stop offset="1" stop-color="#212121"/>
</radialGradient>
<linearGradient id="paint1_linear" x1="0.001405" y1="1256.32" x2="2368.71" y2="1256.32" gradientUnits="userSpaceOnUse">
<stop stop-color="#212121"/>
<stop offset="0.368" stop-color="#23447D"/>
<stop offset="0.6714" stop-color="#245EC1"/>
<stop offset="0.8891" stop-color="#256FEC"/>
<stop offset="1" stop-color="#2575FC"/>
</linearGradient>
<linearGradient id="paint2_linear" x1="-207.093" y1="1354.64" x2="3760.01" y2="1354.64" gradientUnits="userSpaceOnUse">
<stop stop-color="#212121"/>
<stop offset="0.368" stop-color="#23447D"/>
<stop offset="0.6714" stop-color="#245EC1"/>
<stop offset="0.8891" stop-color="#256FEC"/>
<stop offset="1" stop-color="#2575FC"/>
</linearGradient>
<linearGradient id="paint3_linear" x1="-814.977" y1="1310.33" x2="1627.86" y2="1310.33" gradientUnits="userSpaceOnUse">
<stop stop-color="#212121"/>
<stop offset="0.368" stop-color="#23447D"/>
<stop offset="0.6714" stop-color="#245EC1"/>
<stop offset="0.8891" stop-color="#256FEC"/>
<stop offset="1" stop-color="#2575FC"/>
</linearGradient>
<linearGradient id="paint4_linear" x1="-446.512" y1="1363.98" x2="2169.06" y2="1363.98" gradientUnits="userSpaceOnUse">
<stop stop-color="#212121"/>
<stop offset="0.368" stop-color="#23447D"/>
<stop offset="0.6714" stop-color="#245EC1"/>
<stop offset="0.8891" stop-color="#256FEC"/>
<stop offset="1" stop-color="#2575FC"/>
</linearGradient>
<linearGradient id="paint5_linear" x1="1557.86" y1="428.254" x2="1435.65" y2="646.448" gradientUnits="userSpaceOnUse">
<stop stop-color="#212121"/>
<stop offset="0.138" stop-color="#212325"/>
<stop offset="0.2736" stop-color="#212731"/>
<stop offset="0.4084" stop-color="#222F45"/>
<stop offset="0.5427" stop-color="#223960"/>
<stop offset="0.6766" stop-color="#234784"/>
<stop offset="0.8104" stop-color="#2458B0"/>
<stop offset="0.9415" stop-color="#256BE3"/>
<stop offset="1" stop-color="#2575FC"/>
</linearGradient>
<linearGradient id="paint6_linear" x1="1597.42" y1="208.119" x2="1532.98" y2="166.594" gradientUnits="userSpaceOnUse">
<stop stop-color="#212121"/>
<stop offset="1" stop-color="#2575FC"/>
</linearGradient>
<linearGradient id="paint7_linear" x1="1568.77" y1="192.78" x2="1531.73" y2="153" gradientUnits="userSpaceOnUse">
<stop stop-color="#212121"/>
<stop offset="0.5151" stop-color="#2575FC"/>
</linearGradient>
<linearGradient id="paint8_linear" x1="1602.53" y1="229.088" x2="1558.72" y2="184.247" gradientUnits="userSpaceOnUse">
<stop stop-color="#212121"/>
<stop offset="1" stop-color="#2575FC"/>
</linearGradient>
<linearGradient id="paint9_linear" x1="2089.89" y1="514.286" x2="2116.22" y2="557.137" gradientUnits="userSpaceOnUse">
<stop stop-color="#212121"/>
<stop offset="1" stop-color="#2575FC"/>
</linearGradient>
<linearGradient id="paint10_linear" x1="1773.58" y1="268.841" x2="2016.66" y2="486.121" gradientUnits="userSpaceOnUse">
<stop stop-color="#212121"/>
<stop offset="0.0126186" stop-color="#212225"/>
<stop offset="0.2886" stop-color="#223F70"/>
<stop offset="0.5349" stop-color="#2456AC"/>
<stop offset="0.7429" stop-color="#2467D8"/>
<stop offset="0.9045" stop-color="#2571F2"/>
<stop offset="1" stop-color="#2575FC"/>
</linearGradient>
<linearGradient id="paint11_linear" x1="1585.43" y1="685.471" x2="1756.36" y2="643.322" gradientUnits="userSpaceOnUse">
<stop stop-color="#212121"/>
<stop offset="1" stop-color="#2575FC"/>
</linearGradient>
<linearGradient id="paint12_linear" x1="1390.29" y1="418.646" x2="1237.95" y2="478.382" gradientUnits="userSpaceOnUse">
<stop stop-color="#212121"/>
<stop offset="0.1993" stop-color="#223452"/>
<stop offset="0.5921" stop-color="#2457AD"/>
<stop offset="0.8679" stop-color="#256CE6"/>
<stop offset="1" stop-color="#2575FC"/>
</linearGradient>
<linearGradient id="paint13_linear" x1="1482.24" y1="444.746" x2="2013.1" y2="394.938" gradientUnits="userSpaceOnUse">
<stop stop-color="#212121"/>
<stop offset="0.4882" stop-color="#234D93"/>
<stop offset="0.8391" stop-color="#246ADE"/>
<stop offset="1" stop-color="#2575FC"/>
</linearGradient>
<linearGradient id="paint14_linear" x1="1626.76" y1="893.728" x2="1726.95" y2="973.617" gradientUnits="userSpaceOnUse">
<stop stop-color="#212121"/>
<stop offset="1" stop-color="#2575FC"/>
</linearGradient>
<linearGradient id="paint15_linear" x1="1835.99" y1="308.374" x2="1918.1" y2="372.845" gradientUnits="userSpaceOnUse">
<stop stop-color="#212121"/>
<stop offset="1" stop-color="#2575FC"/>
</linearGradient>
<linearGradient id="paint16_linear" x1="1828.14" y1="319.96" x2="1918.38" y2="369.489" gradientUnits="userSpaceOnUse">
<stop stop-color="#212121"/>
<stop offset="1" stop-color="#2575FC"/>
</linearGradient>
<linearGradient id="paint17_linear" x1="1917.22" y1="337.083" x2="1918.37" y2="337.841" gradientUnits="userSpaceOnUse">
<stop stop-color="#212121"/>
<stop offset="1" stop-color="#2575FC"/>
</linearGradient>
<linearGradient id="paint18_linear" x1="1901.51" y1="359.911" x2="2016.34" y2="313.353" gradientUnits="userSpaceOnUse">
<stop stop-color="#212121"/>
<stop offset="1" stop-color="#2575FC"/>
</linearGradient>
<linearGradient id="paint19_linear" x1="1465.52" y1="255.214" x2="1878.84" y2="349.491" gradientUnits="userSpaceOnUse">
<stop stop-color="#212121"/>
<stop offset="0.0948455" stop-color="#223351"/>
<stop offset="0.2503" stop-color="#234F9A"/>
<stop offset="0.3796" stop-color="#2464CF"/>
<stop offset="0.4761" stop-color="#2570F0"/>
<stop offset="0.5289" stop-color="#2575FC"/>
<stop offset="1" stop-color="#2575FC"/>
</linearGradient>
</defs>
</svg>
