<svg width="3000" height="1500" viewBox="0 0 3000 1500" fill="none" xmlns="http://www.w3.org/2000/svg">
<path opacity="0.82" d="M751.1 1206.6C1065.85 1206.6 1321 1184.17 1321 1156.5C1321 1128.83 1065.85 1106.4 751.1 1106.4C436.353 1106.4 181.2 1128.83 181.2 1156.5C181.2 1184.17 436.353 1206.6 751.1 1206.6Z" fill="url(#paint0_linear)"/>
<path opacity="0.82" d="M2253.1 1232.9C2567.85 1232.9 2823 1210.47 2823 1182.8C2823 1155.13 2567.85 1132.7 2253.1 1132.7C1938.35 1132.7 1683.2 1155.13 1683.2 1182.8C1683.2 1210.47 1938.35 1232.9 2253.1 1232.9Z" fill="url(#paint1_linear)"/>
<path d="M2470.2 828.2L2434.1 922.2C2434.1 922.2 2434.1 922.3 2434 922.3C2420.7 948.2 2411.3 973.4 2476.7 983.4C2477.1 983.5 2477.5 983.5 2477.8 983.6L2596.4 1016.5C2597.2 1016.7 2597.7 1017.6 2597.4 1018.5L2581.8 1061.2C2581.6 1061.9 2580.9 1062.3 2580.2 1062.2C2565.8 1060.3 2444.4 1051.7 2392.7 1045.1C2334.1 1037.6 2320.5 1008 2327 967.9L2362.5 791.7C2366 770.2 2350.6 691 2361.5 685.9C2374.6 679.7 2483.1 654.9 2479.7 786.5C2479.6 789.3 2471.2 825.6 2470.2 828.2Z" fill="url(#paint2_linear)"/>
<path d="M2247.1 450.9C2244.8 449 2240.9 448.1 2240.2 445.1C2231.1 405 2233.5 379.1 2237.7 363.5C2237.4 359.1 2237.3 354.7 2237.2 350.3C2212.2 345.9 2186.6 345.2 2161.3 348.5C2118 354 2075.6 370.9 2038.6 399.6C2014.2 418.6 1960.4 471.1 1945 496C1954.2 501.3 1963.3 507.2 1972.4 513.6C1972.4 513.6 1981.3 505.7 1989.9 498.1C2003.4 486.2 2018.5 476.2 2035 468.9C2104.5 438 2182 434.3 2252.6 455.9C2250.9 454.1 2249 452.5 2247.1 450.9Z" fill="url(#paint3_linear)"/>
<path d="M2104.6 742.9C2104.6 742.9 2076.2 750.4 2070.6 744C2064.6 737.2 2055.4 733.3 2057.1 730.9C2058.7 728.7 2067.4 731.9 2075.4 737.1C2080.7 740.6 2101.6 734.6 2102.4 737.8C2103.1 741.1 2104.6 742.9 2104.6 742.9Z" fill="url(#paint4_linear)"/>
<path d="M2107 733.5L2079 744.3C2079 744.3 2048 730.1 2043.3 739.4C2043.3 739.4 2048.5 743.3 2060.4 747.9C2069.4 751.3 2073.8 755 2077.8 755.2C2084.7 755.4 2103.3 748 2103.3 748C2103.3 748 2110.7 746.5 2107 733.5Z" fill="url(#paint5_linear)"/>
<path d="M2142.4 708.8C2138.7 704.6 2131.1 699 2115.2 694.5C2095.3 688.9 2090.4 682.2 2090.4 682.2C2085.1 681.7 2089.6 696.5 2103 700.2C2112.1 702.7 2113.8 708.7 2114.2 714.7C2112.7 715.9 2111.3 717.3 2109.8 718.8C2104 724.8 2098.5 733.5 2093.6 740.9L2071.7 752.5C2071.7 752.5 2039.1 742.4 2035.5 752.2C2035.5 752.2 2043.7 757.2 2056.4 758.9C2060.4 759.4 2063 760.3 2064.9 761.1C2051.3 765.8 2036.4 770.9 2037.7 776.9C2038.3 779.7 2085.7 769.2 2093.8 763.6C2122.4 743.8 2156.9 749.5 2156.9 749.5L2156.7 749.1C2158.7 750.7 2191.7 708.2 2191.7 708.2L2142.4 708.8Z" fill="url(#paint6_linear)"/>
<path d="M2246.1 786.5C2127.7 862.6 2027.5 945.2 1946.3 1053.5C1954.9 1064 1963.7 1074.2 1972.8 1083.9C1998.8 1063.9 2025.8 1044.8 2053.8 1026.8C2175.4 948.7 2272.4 925.7 2395.5 876.8C2461.5 850.6 2459.6 806.5 2463.8 790.9C2469.6 769.9 2454.2 715.5 2443 688.3C2398.7 709.4 2288.4 759.4 2246.1 786.5Z" fill="url(#paint7_linear)"/>
<path d="M2623.4 1140.3C2624.8 1139.3 2626.3 1138.2 2627.7 1137.1C2633.9 1132.2 2639.6 1126.9 2644.6 1121.3C2653.7 1098 2656.1 1072.4 2651.5 1047.7C2654 1047.1 2656.5 1046.5 2659 1046.1C2661.3 1040.6 2663.4 1035 2665.3 1029.4C2658.9 1028.6 2652.5 1027 2646.2 1024.6C2645.7 1024.4 2645.1 1024.2 2644.6 1024C2640.9 1022.5 2637.2 1020.6 2633.7 1018.5C2627.6 1033.4 2622.7 1048.6 2618.9 1064C2624 1077.9 2626.6 1092.5 2626.9 1107C2627.2 1118.1 2626 1129.4 2623.4 1140.3Z" fill="url(#paint8_linear)"/>
<path d="M2244.8 347.2C2244.7 347.4 2218.2 369.5 2225.6 446.9C2225.9 449.9 2229.7 451.3 2231.7 453.5C2302.8 532.2 2334.3 640.6 2314.9 746C2316.3 747.1 2317.6 748.2 2319 749.3C2321.8 751.5 2324.6 753.6 2327.4 755.7C2343.2 767.3 2358.3 783.4 2378.3 786.8C2428.6 795.3 2483.5 770.1 2505.9 770.7C2494.5 756.4 2465.6 717.3 2455.2 684.2C2440.4 636.8 2444.8 628.5 2447.7 585.1C2448 581.3 2448.3 577.4 2448.7 573.6C2450.8 552.3 2454.1 516.6 2459.7 485.6C2464.8 457.3 2452.1 428.8 2427.6 413.8C2322.6 349.1 2260.3 346.7 2244.8 347.2Z" fill="url(#paint9_linear)"/>
<path d="M2335.9 442.7L2323.4 431.6C2342 421.8 2348.5 377.9 2348.5 377.9C2363.7 423.5 2335.9 442.7 2335.9 442.7Z" fill="#212121"/>
<path d="M2323.6 441.9C2323.6 441.9 2300.3 547.9 2366.8 614.2C2391.5 638.8 2367.4 669.6 2367.4 669.6C2367.4 669.6 2344 633.7 2335.9 623.4C2306.2 585.3 2282.6 502.5 2323.6 441.9Z" fill="#212121"/>
<path d="M2311 431.7L2314.8 445.5C2314.8 445.5 2290.7 416.2 2292.6 414.8C2294.5 413.2 2311 431.7 2311 431.7Z" fill="#212121"/>
<path d="M1827 1127.4C1842 1131 1857.4 1133.7 1873.2 1135.5C1887.5 1137.1 1901.7 1137.9 1915.7 1137.9C1919 1134.3 1922.6 1130.9 1926.5 1127.9C1929.2 1130.9 1931.7 1134.1 1934 1137.4C1940.5 1137.1 1946.9 1136.6 1953.3 1135.9C1951.1 1129.2 1949.8 1122.2 1949.3 1115C1949 1110.1 1949.1 1105 1949.6 1099.9C1931.7 1100.8 1914.1 1103 1896.9 1106.4C1872.7 1111.2 1849.3 1118.3 1827 1127.4Z" fill="url(#paint10_linear)"/>
<path d="M2229.2 370.6C2233.2 384.3 2234 398.3 2232.2 411.7C2238.5 410.3 2244.9 409.6 2251.2 409.4C2276.2 408.8 2300.5 417.7 2319.2 433.8C2334.4 418 2344.1 397.7 2346.7 375.9C2340.8 369.5 2335.6 362.2 2331.4 354.1C2323.2 353.8 2315.3 351 2308.9 346C2309.1 343.8 2308.8 341.5 2308 339.3C2306.1 334.1 2301.7 330.6 2296.7 329.6C2293.9 329 2291 329.2 2288.2 330.2C2288 330.3 2287.7 330.4 2287.5 330.5C2287.1 328 2286.5 325.5 2285.5 323.1C2278.1 303.1 2255.8 292.9 2235.8 300.4C2235.7 300.4 2235.6 300.5 2235.4 300.5C2235.4 300.8 2235.3 301.1 2235.3 301.3C2233.6 313.9 2230.5 326.1 2226 337.9C2224.4 342 2222.7 346 2220.8 350C2219.6 352.6 2218.3 355.1 2216.9 357.6C2214.9 361.3 2212.8 364.9 2210.5 368.4C2216.6 369.5 2222.9 370.3 2229.2 370.6Z" fill="url(#paint11_linear)"/>
<path d="M2287.4 330.5C2287.6 330.4 2287.9 330.3 2288.1 330.2C2287.7 329.3 2287.2 328.4 2286.8 327.5C2287 328.6 2287.2 329.5 2287.4 330.5Z" fill="url(#paint12_linear)"/>
<path d="M2287.4 330.5C2287.6 330.4 2287.9 330.3 2288.1 330.2C2287.7 329.3 2287.2 328.4 2286.8 327.5C2287 328.6 2287.2 329.5 2287.4 330.5Z" stroke="#231F20" stroke-width="3" stroke-miterlimit="10"/>
<path d="M2232.3 411.4C2232.3 411.5 2232.3 411.6 2232.3 411.7C2232.7 411.6 2233.1 411.5 2233.5 411.4C2239.4 410.2 2245.4 409.5 2251.3 409.4C2251.5 409.4 2251.7 409.4 2251.9 409.4C2276.7 408.9 2300.8 417.8 2319.4 433.8C2334.6 418 2344.3 397.7 2346.9 375.9C2341 369.5 2335.8 362.2 2331.6 354.1C2323.4 353.8 2315.5 351 2309.1 346C2309.3 343.8 2309 341.5 2308.2 339.3C2306.3 334.1 2301.9 330.6 2296.9 329.6C2294.9 329.2 2292.9 329.2 2290.8 329.6C2290.7 329.6 2290.6 329.6 2290.5 329.7H2290.4C2290.3 329.7 2290.3 329.7 2290.2 329.7C2289.9 329.8 2289.6 329.8 2289.4 329.9C2289.2 329.9 2289.1 330 2288.9 330.1H2288.8C2288.7 330.1 2288.5 330.2 2288.4 330.2H2288.3C2288.1 330.3 2287.8 330.4 2287.6 330.5C2287.6 330.3 2287.5 330 2287.5 329.8C2287.5 329.6 2287.4 329.5 2287.4 329.3C2287.4 329.2 2287.4 329.2 2287.4 329.1C2287.4 329 2287.4 328.9 2287.3 328.8C2287.3 328.6 2287.2 328.4 2287.2 328.2C2287.2 328 2287.1 327.8 2287.1 327.6C2286.7 326.1 2286.3 324.6 2285.7 323.1C2278.3 303.1 2256 292.9 2236 300.4C2235.9 300.4 2235.8 300.5 2235.6 300.5C2235.6 300.8 2235.5 301.1 2235.5 301.3C2235.2 303.4 2234.9 305.4 2234.5 307.5C2232.7 317.9 2229.9 328.1 2226.1 337.9C2224.5 342 2222.8 346 2220.9 350C2219.7 352.6 2218.4 355.1 2217 357.6C2215 361.3 2212.9 364.9 2210.6 368.4C2216.8 369.5 2223.1 370.2 2229.4 370.6C2229.4 370.8 2229.5 370.9 2229.5 371.1C2233.2 384.6 2234 398.2 2232.3 411.4Z" fill="url(#paint13_linear)"/>
<path d="M2235.3 344.1C2235.8 345.5 2236.5 346.8 2237.4 347.9C2242.6 347.7 2247.9 346.8 2253.1 345.1C2246.6 344.1 2240.2 342 2234.4 339C2234.4 340.7 2234.7 342.4 2235.3 344.1Z" fill="#212121"/>
<path d="M2232.3 411.4C2232.7 411.4 2233.1 411.5 2233.4 411.5C2239.5 411.8 2245.6 411.2 2251.7 409.5C2253.2 409.1 2254.7 408.6 2256.3 408C2285.8 397 2300.9 364.1 2289.9 334.6C2289.4 333.1 2288.8 331.7 2288.1 330.3C2288.2 330.3 2288.4 330.2 2288.5 330.2H2288.6C2288.8 330.1 2288.9 330.1 2289.1 330.1C2289.1 330.1 2289.1 330.1 2289.2 330.1H2289.3C2289.4 330.1 2289.6 330 2289.7 330C2289.8 330 2289.8 330 2289.9 330C2290 330 2290.1 330 2290.2 329.9H2290.3H2290.4C2290.5 329.9 2290.6 329.9 2290.6 329.9C2290.8 329.9 2291.1 329.8 2291.3 329.8C2291.5 329.8 2291.8 329.7 2292 329.7H2292.1C2292.3 329.7 2292.5 329.7 2292.7 329.7C2292.8 329.7 2292.8 329.7 2292.9 329.7C2293.1 329.7 2293.3 329.7 2293.6 329.7C2293.7 329.7 2293.7 329.7 2293.8 329.7C2294 329.7 2294.2 329.7 2294.3 329.7C2294.4 329.7 2294.4 329.7 2294.5 329.7C2294.7 329.7 2294.9 329.7 2295.2 329.8H2295.3C2295.5 329.8 2295.7 329.8 2295.8 329.9C2295.9 329.9 2295.9 329.9 2296 329.9C2296.2 329.9 2296.4 330 2296.7 330C2301.7 331 2306.1 334.6 2308 339.7C2308.8 341.9 2309.1 344.2 2308.9 346.4C2315.3 351.4 2323.2 354.3 2331.4 354.5C2330.3 352.4 2329.3 350.3 2328.4 348.2C2327.9 347.2 2327.5 346.1 2327.1 345.1C2327 345 2327 344.8 2327 344.7C2326.9 344.4 2326.8 344.2 2326.7 343.9C2326.6 343.5 2326.5 343.1 2326.3 342.7C2326.1 342 2326 341.3 2325.8 340.5C2325.7 340.2 2325.7 339.9 2325.7 339.6C2323.3 323.2 2330.2 295.9 2311.1 287.4C2310.9 287.3 2310.6 287.2 2310.4 287.1C2310.1 287 2309.9 286.9 2309.6 286.8C2308.7 286.5 2307.7 286.2 2306.7 285.9C2306.4 285.8 2306.1 285.8 2305.8 285.7C2305.5 285.6 2305.2 285.6 2304.9 285.5C2304.9 285.5 2304.8 285.5 2304.6 285.5H2304.5C2299.2 285.6 2241.6 285.7 2218.1 260.6C2217 263.2 2215.9 265.7 2214.6 268.2C2213.6 270.1 2212.9 272.1 2212.4 274.1C2212.4 274.1 2212.4 274.1 2212.4 274.2C2212.3 274.4 2212.3 274.7 2212.2 274.9V275C2212.2 275.2 2212.1 275.5 2212.1 275.7C2212.1 275.8 2212.1 275.8 2212.1 275.9C2212.1 276.1 2212 276.3 2212 276.5C2212 276.6 2212 276.7 2212 276.7C2212 276.9 2212 277.1 2211.9 277.3C2211.9 277.4 2211.9 277.5 2211.9 277.6C2211.9 277.8 2211.9 278 2211.9 278.1C2211.9 278.2 2211.9 278.3 2211.9 278.4C2211.9 278.6 2211.9 278.7 2211.9 278.9C2211.9 279 2211.9 279.1 2211.9 279.3C2211.9 279.5 2211.9 279.6 2211.9 279.8C2211.9 279.9 2211.9 280.1 2211.9 280.2C2211.9 280.3 2211.9 280.5 2211.9 280.6C2211.9 280.8 2211.9 280.9 2211.9 281.1C2211.9 281.2 2211.9 281.4 2211.9 281.5C2211.9 281.7 2211.9 281.8 2211.9 282V282.1C2211.9 282.3 2211.9 282.5 2211.9 282.7C2211.9 282.8 2211.9 282.8 2211.9 282.9C2211.9 283.1 2211.9 283.3 2212 283.5C2212 283.6 2212 283.7 2212 283.8C2212 284 2212 284.1 2212.1 284.3C2212.1 284.4 2212.1 284.5 2212.1 284.6C2212.1 284.8 2212.2 285 2212.2 285.2C2212.2 285.3 2212.2 285.4 2212.2 285.5C2212.2 285.7 2212.3 285.9 2212.3 286.1C2212.3 286.2 2212.3 286.3 2212.4 286.4C2212.4 286.6 2212.5 286.7 2212.5 286.9C2212.5 287 2212.5 287.1 2212.6 287.2C2212.6 287.4 2212.7 287.6 2212.7 287.8C2212.7 287.9 2212.7 288 2212.8 288.1C2212.9 288.3 2212.9 288.5 2213 288.6C2213 288.7 2213.1 288.8 2213.1 288.9C2213.1 289 2213.2 289.2 2213.2 289.3C2213.2 289.4 2213.3 289.5 2213.3 289.6C2213.4 289.8 2213.4 290 2213.5 290.2C2213.5 290.3 2213.6 290.4 2213.6 290.5C2213.7 290.7 2213.7 290.9 2213.8 291C2213.8 291.1 2213.9 291.2 2213.9 291.3C2214 291.4 2214 291.6 2214.1 291.7C2214.1 291.8 2214.2 291.9 2214.2 292C2214.3 292.2 2214.4 292.3 2214.4 292.5C2214.4 292.6 2214.5 292.7 2214.5 292.8C2214.6 293 2214.7 293.1 2214.7 293.3C2214.7 293.4 2214.8 293.5 2214.8 293.6C2214.9 293.7 2214.9 293.9 2215 294C2215.1 294.1 2215.1 294.2 2215.2 294.3C2215.3 294.4 2215.4 294.6 2215.5 294.7C2215.6 294.8 2215.6 294.9 2215.7 295.1C2215.8 295.2 2215.9 295.4 2216 295.5C2216.1 295.6 2216.1 295.7 2216.2 295.8C2216.3 295.9 2216.3 296 2216.4 296.1C2216.5 296.2 2216.5 296.3 2216.6 296.4C2216.7 296.5 2216.8 296.6 2216.8 296.7C2216.9 296.9 2217 297 2217.1 297.2C2217.2 297.3 2217.3 297.4 2217.3 297.5C2217.4 297.6 2217.5 297.7 2217.5 297.8C2217.6 297.9 2217.6 298 2217.7 298.1C2217.8 298.2 2217.9 298.3 2218 298.4C2218.1 298.5 2218.1 298.5 2218.2 298.6C2218.4 298.8 2218.6 299 2218.7 299.2C2218.7 299.3 2218.8 299.3 2218.8 299.4C2218.9 299.5 2219 299.6 2219.1 299.7C2219.2 299.8 2219.2 299.8 2219.3 299.9C2219.4 300 2219.5 300.1 2219.6 300.3C2219.8 300.5 2220 300.7 2220.2 300.9C2220.3 301 2220.4 301.1 2220.5 301.2C2220.6 301.3 2220.8 301.5 2221 301.6C2221 301.6 2221.1 301.6 2221.1 301.7C2221.8 302.4 2222.6 303 2223.4 303.5L2223.5 303.6C2223.7 303.7 2223.9 303.9 2224.1 304C2224.2 304.1 2224.3 304.1 2224.3 304.2C2224.5 304.3 2224.8 304.5 2225 304.6L2225.1 304.7C2225.7 305 2226.3 305.4 2226.9 305.7C2227 305.7 2227 305.7 2227.1 305.8C2227.3 305.9 2227.6 306 2227.8 306.1C2227.9 306.1 2228 306.2 2228 306.2C2228.2 306.3 2228.5 306.4 2228.7 306.5C2228.8 306.5 2228.8 306.6 2228.9 306.6C2229.2 306.7 2229.4 306.8 2229.7 306.9H2229.8C2230.4 307.1 2231.1 307.3 2231.8 307.5C2231.9 307.5 2231.9 307.5 2232 307.6C2232.3 307.7 2232.5 307.7 2232.8 307.8C2232.9 307.8 2232.9 307.8 2233 307.9C2233.3 308 2233.6 308 2233.9 308.1H2234C2234 308.1 2234 308.1 2234.1 308.1C2234.2 308.1 2234.4 308.2 2234.5 308.2C2234.7 308.2 2234.8 308.3 2235 308.3C2235.2 308.3 2235.5 308.4 2235.7 308.4C2235.8 308.4 2235.9 308.4 2236 308.4C2236.3 308.4 2236.5 308.5 2236.8 308.5C2236.9 308.5 2236.9 308.5 2237 308.5C2237.3 308.5 2237.6 308.5 2237.9 308.6H2238C2239.1 308.7 2240.2 308.7 2241.4 308.7C2245.9 308.8 2250.5 308.7 2255.1 308.4C2256.7 308.3 2258.3 308.1 2259.9 308H2260C2260.3 308 2260.5 307.9 2260.8 307.9C2260.9 307.9 2261 307.9 2261.1 307.9C2261.4 307.9 2261.7 307.9 2262 307.9C2262.1 307.9 2262.1 307.9 2262.2 307.9C2262.5 307.9 2262.7 307.9 2263 307.9C2263.1 307.9 2263.2 307.9 2263.2 307.9C2263.5 307.9 2263.8 307.9 2264.1 307.9C2264.2 307.9 2264.2 307.9 2264.3 307.9C2264.5 307.9 2264.8 307.9 2265 308C2265.1 308 2265.1 308 2265.2 308C2265.5 308 2265.8 308.1 2266 308.1C2266.1 308.1 2266.2 308.1 2266.2 308.1C2266.4 308.1 2266.6 308.2 2266.9 308.2C2267 308.2 2267.1 308.2 2267.1 308.2C2267.4 308.3 2267.6 308.3 2267.9 308.4C2268 308.4 2268.1 308.4 2268.2 308.5C2268.4 308.5 2268.6 308.6 2268.8 308.7C2268.9 308.7 2269 308.7 2269 308.8C2269.3 308.9 2269.5 309 2269.8 309C2269.9 309 2269.9 309 2270 309.1C2270.4 309.4 2270.7 309.7 2271 310C2271.9 311.7 2272.7 313.5 2273.4 315.4C2283 341.2 2271.2 369.7 2247 381.4C2245.2 382.3 2243 381.4 2242.3 379.5C2240.3 374.1 2234.7 371 2229.2 371.8C2233.2 384.6 2234 398.2 2232.3 411.4ZM2286.9 328C2286.9 327.9 2286.8 327.8 2286.8 327.7C2286.8 327.7 2286.9 327.9 2286.9 328ZM2287.2 329.7C2287.2 329.6 2287.2 329.5 2287.1 329.4C2287.2 329.5 2287.2 329.6 2287.2 329.7ZM2287.1 328.9C2287.1 328.9 2287.1 328.8 2287.1 328.9C2287.1 328.7 2287 328.6 2287 328.4C2287 328.6 2287.1 328.7 2287.1 328.9Z" fill="url(#paint14_linear)"/>
<path d="M2463.7 511.4C2458.6 526.5 2373.9 629.9 2333.2 663.9C2273.6 713.6 2171.7 748.3 2136.4 758C2134.8 758.4 2139.8 698.2 2139.8 698.2C2158.5 687.2 2239.2 647.6 2264.1 620.2C2324.3 554.1 2309.6 475 2384.8 439.8C2472.1 398.9 2472.7 484.4 2463.7 511.4Z" fill="url(#paint15_linear)"/>
<path d="M633.8 831.5L669.9 925.5C669.9 925.5 669.9 925.6 670 925.6C683.3 951.5 692.7 976.7 627.3 986.7C626.9 986.8 626.5 986.8 626.2 986.9L507.6 1019.8C506.8 1020 506.3 1020.9 506.6 1021.8L522.2 1064.5C522.4 1065.2 523.1 1065.6 523.8 1065.5C538.2 1063.6 659.6 1055 711.3 1048.4C769.9 1040.9 783.5 1011.3 777 971.2L741.4 795C737.9 773.5 753.3 694.3 742.4 689.2C729.3 683 620.8 658.2 624.2 789.8C624.3 792.7 632.8 828.9 633.8 831.5Z" fill="url(#paint16_linear)"/>
<path d="M853.5 454.2C855.8 452.3 859.7 451.4 860.4 448.4C869.5 408.3 867.1 382.4 862.9 366.8C863.2 362.4 863.3 358 863.4 353.6C888.4 349.2 914 348.5 939.3 351.8C982.6 357.3 1025 374.2 1062 402.9C1086.4 421.9 1140.2 474.4 1155.6 499.3C1146.4 504.6 1137.3 510.5 1128.2 516.9C1128.2 516.9 1119.3 509 1110.7 501.4C1097.2 489.5 1082.1 479.5 1065.6 472.2C996.1 441.3 913.8 439.2 843.1 460.9C844.9 459.1 851.6 455.8 853.5 454.2Z" fill="url(#paint17_linear)"/>
<path d="M857.8 789.9C976.2 866 1076.4 948.6 1157.6 1056.9C1149 1067.4 1140.2 1077.6 1131.1 1087.3C1105.1 1067.3 1078.1 1048.2 1050.1 1030.2C928.5 952.1 831.5 929.1 708.4 880.2C642.4 854 644.3 809.9 640.1 794.3C634.3 773.3 649.7 718.9 660.9 691.7C705.2 712.7 815.6 762.7 857.8 789.9Z" fill="url(#paint18_linear)"/>
<path d="M480.5 1143.7C479.1 1142.7 477.6 1141.6 476.2 1140.5C470 1135.6 464.3 1130.3 459.3 1124.7C450.2 1101.4 447.8 1075.8 452.4 1051.1C449.9 1050.5 447.4 1049.9 444.9 1049.5C442.6 1044 440.5 1038.4 438.6 1032.8C445 1032 451.4 1030.4 457.7 1028C458.2 1027.8 458.8 1027.6 459.3 1027.4C463 1025.9 466.7 1024 470.2 1021.9C476.3 1036.8 481.2 1052 485 1067.4C479.9 1081.3 477.3 1095.9 477 1110.4C476.7 1121.5 477.9 1132.7 480.5 1143.7Z" fill="url(#paint19_linear)"/>
<path d="M859.2 350.6C859.3 350.8 885.8 372.9 878.4 450.3C878.1 453.3 874.3 454.7 872.3 456.9C801.2 535.6 769.7 644 789.1 749.4C787.7 750.5 786.4 751.6 785 752.7C782.2 754.9 779.4 757 776.6 759.1C760.8 770.7 745.7 786.8 725.7 790.2C675.4 798.7 620.5 773.5 598.1 774.1C609.5 759.8 638.4 720.7 648.8 687.6C663.6 640.2 659.2 631.9 656.3 588.5C656 584.7 655.7 580.8 655.3 577C653.2 555.7 649.9 520 644.3 489C639.2 460.7 651.9 432.2 676.4 417.2C781.3 352.4 843.7 350.1 859.2 350.6Z" fill="url(#paint20_linear)"/>
<path d="M872.9 368.7C869.9 382.2 869.8 395.7 872.4 408.6C866.2 407.6 860 407.3 853.9 407.5C829.7 408.4 804.5 418.4 787.3 435.1C768.3 427 763.1 404.7 759.3 383.9C764.7 377.4 769.5 366.9 773.1 358.8C781 358.1 788.5 354.8 794.4 349.6C794.1 347.5 794.2 345.2 794.9 343.1C796.5 338 800.5 334.3 805.3 333C807.9 332.3 810.8 332.3 813.6 333.1C813.8 333.2 814.1 333.2 814.3 333.3C814.5 330.9 815 328.4 815.8 326C821.8 306.2 842.7 295.1 862.5 301.1C862.6 301.1 862.7 301.2 862.9 301.2C863 301.5 863 301.7 863.1 302C865.5 314 869.2 325.7 874.3 336.8C876.1 340.7 878 344.5 880 348.2C881.3 350.6 882.7 353 884.2 355.3C886.3 358.7 888.6 362.1 891 365.3C885 366.9 879 368 872.9 368.7Z" fill="url(#paint21_linear)"/>
<path d="M866.8 294.8C866 297.3 864.9 299.6 863.4 301.6C863.3 301.6 863.2 301.5 863.1 301.5C862.9 301.2 862.8 300.9 862.6 300.6C862.6 300.9 862.7 301.1 862.7 301.4C862.6 301.4 862.5 301.3 862.3 301.3C842.5 295.3 821.6 306.4 815.6 326.2C814.9 328.6 814.4 331.1 814.1 333.5C813.9 333.4 813.6 333.3 813.4 333.3C810.6 332.4 807.7 332.5 805.1 333.2C800.3 334.5 796.3 338.2 794.7 343.3C794 345.5 793.9 347.7 794.2 349.8C788.3 355 780.8 358.3 772.9 359C773.8 356.9 774.7 354.8 775.5 352.7C775.9 351.7 776.2 350.7 776.6 349.6C781.9 333.7 782.8 317.3 779.9 301.7C779.1 297.4 778 293.2 776.7 289.1C781.2 289.7 785.6 290.2 790.1 290.5C790.3 290.5 790.5 290.5 790.8 290.5C801.6 291.1 812.3 290.5 822.7 289C831.9 287.6 840.8 285.4 849.5 282.5C853 281.3 856.5 280 860 278.5C861.4 277.9 862.9 277.3 864.3 276.6C867.7 281.7 868.8 288.3 866.8 294.8Z" fill="url(#paint22_linear)"/>
<path d="M865.4 343.4C865 344.8 864.4 346.1 863.6 347.2C858.5 347.3 853.4 346.7 848.3 345.4C854.6 344 860.6 341.7 866 338.4C866.1 340.1 865.9 341.7 865.4 343.4Z" fill="#212121"/>
<path d="M768 446.1L780.5 435C761.9 425.2 755.4 381.3 755.4 381.3C740.3 426.8 768 446.1 768 446.1Z" fill="#212121"/>
<path d="M780.3 445.3C780.3 445.3 803.6 551.3 737.1 617.6C712.4 642.2 736.5 673 736.5 673C736.5 673 759.9 637.1 768 626.8C797.7 588.7 821.3 505.8 780.3 445.3Z" fill="#212121"/>
<path d="M792.9 435L789.1 448.8C789.1 448.8 813.2 419.5 811.3 418.1C809.5 416.6 792.9 435 792.9 435Z" fill="#212121"/>
<path d="M1277 1130.8C1262 1134.4 1246.6 1137.1 1230.8 1138.9C1216.5 1140.5 1202.3 1141.3 1188.3 1141.3C1185 1137.7 1181.4 1134.3 1177.5 1131.3C1174.8 1134.3 1172.3 1137.5 1170 1140.8C1163.5 1140.5 1157.1 1140 1150.7 1139.3C1152.9 1132.6 1154.2 1125.6 1154.7 1118.4C1155 1113.5 1154.9 1108.4 1154.4 1103.3C1172.3 1104.2 1189.9 1106.4 1207.1 1109.8C1231.3 1114.6 1254.6 1121.6 1277 1130.8Z" fill="url(#paint23_linear)"/>
<path d="M816.6 333.9C816.4 333.8 816.1 333.7 815.9 333.6C816.3 332.7 816.8 331.8 817.2 330.9C816.9 331.9 816.7 332.9 816.6 333.9Z" fill="url(#paint24_linear)"/>
<path d="M1478.2 708.2C1477.7 708.2 1477.2 708.2 1476.7 708.2H1172.4C1121.6 708.2 1080.4 667 1080.4 616.2C1080.4 565.4 1121.6 524.2 1172.4 524.2H1402.6C1403 479.3 1418.4 438 1444 404.9H1159.3C1049.9 404.9 961.2 493.6 961.2 603V629.3C961.2 738.7 1049.9 827.4 1159.3 827.4H1489.9C1553.7 827.4 1610.4 797.3 1646.6 750.5H1600.7C1554.5 750.6 1511.9 734.7 1478.2 708.2Z" fill="#5235DD"/>
<path d="M1522 536.2C1549.9 552 1568.7 581.9 1568.7 616.3C1568.7 617.4 1568.7 618.4 1568.6 619.4C1582 627 1597.4 631.3 1613.8 631.3H1687.9C1687.9 630.7 1687.9 630 1687.9 629.4V603.1C1687.9 539.9 1658.3 483.7 1612.3 447.4C1563.3 448.2 1523.6 487.4 1522 536.2Z" fill="#5235DD"/>
<path d="M1613.8 631.3C1597.4 631.3 1581.9 627 1568.6 619.4C1567 668.2 1527.2 707.4 1478.2 708.2C1511.9 734.8 1554.4 750.6 1600.7 750.6H1646.6C1672.2 717.6 1687.5 676.2 1688 631.3H1613.8Z" fill="#5235DD"/>
<path d="M1931.3 328.1H1600.7C1536.9 328.1 1480.2 358.2 1444 405H1489.9C1536.1 405 1578.7 420.8 1612.4 447.4C1612.9 447.4 1613.4 447.4 1613.9 447.4H1918.2C1969 447.4 2010.2 488.6 2010.2 539.4C2010.2 590.2 1969 631.4 1918.2 631.4H1688H1613.9C1597.5 631.4 1582 627.1 1568.7 619.5C1540.8 603.7 1522 573.8 1522 539.4C1522 538.3 1522 537.3 1522.1 536.3C1508.7 528.7 1493.3 524.4 1476.9 524.4H1402.8C1402.8 525 1402.8 525.7 1402.8 526.3V552.6C1402.8 615.8 1432.4 672 1478.4 708.3C1512.1 734.9 1554.6 750.7 1600.9 750.7H1646.8H1931.5C2040.9 750.7 2129.6 662 2129.6 552.6V526.3C2129.4 416.8 2040.7 328.1 1931.3 328.1Z" fill="url(#paint25_linear)"/>
<path d="M1476.7 524.3C1493.1 524.3 1508.6 528.6 1521.9 536.2C1523.5 487.4 1563.3 448.2 1612.3 447.4C1578.6 420.8 1536.1 405 1489.8 405H1444C1418.4 438 1403.1 479.4 1402.6 524.3H1476.7Z" fill="#5235DD"/>
<path d="M974.3 777.9C974.3 777.9 996.5 797.2 1004.3 793.9C1012.7 790.4 1022.6 791 1022.2 788.1C1021.8 785.4 1012.5 784.4 1003 785.6C996.7 786.4 980.6 771.8 978.5 774.4C976.4 777 974.3 777.9 974.3 777.9Z" fill="url(#paint26_linear)"/>
<path d="M976.2 768.5L996.6 790.5C996.6 790.5 1030.7 791.4 1030.8 801.8C1030.8 801.8 1024.5 803 1011.7 801.9C1002.1 801 996.5 802.4 992.9 800.8C986.6 798 973.1 783.1 973.1 783.1C973.1 783.1 967.3 778.5 976.2 768.5Z" fill="url(#paint27_linear)"/>
<path d="M955.3 730.7C960.4 728.6 969.8 726.8 986 729.8C1006.4 733.5 1013.6 729.6 1013.6 729.6C1018.6 731.5 1008.1 742.8 994.4 740.2C985.1 738.5 981 743.1 978 748.3C978.8 750.1 979.5 751.9 980.2 753.9C982.8 761.8 983.9 772.1 985 780.9L999.6 801C999.6 801 1033.3 806.3 1032.2 816.7C1032.2 816.7 1022.7 817.6 1010.5 813.5C1006.6 812.2 1003.9 811.8 1001.9 811.7C1012.1 821.9 1023.2 833 1019.4 837.9C1017.6 840.2 979.7 809.9 974.9 801.3C957.9 771 924.5 760.9 924.5 760.9L924.8 760.6C907.2 764.6 890.6 766.4 890.6 766.4C882.7 751.4 887.6 731.6 887.6 731.6L955.3 730.7Z" fill="url(#paint28_linear)"/>
<path d="M639.1 500.9C642.4 516.5 715 628.7 751.7 667C805.4 723 902.7 768.9 936.8 782.5C938.3 783.1 940.1 722.7 940.1 722.7C922.7 709.6 847 661.3 825.3 631.3C772.9 558.8 796.3 481.9 725.6 438.6C643.3 388.2 633.1 473 639.1 500.9Z" fill="url(#paint29_linear)"/>
<defs>
<linearGradient id="paint0_linear" x1="1321.01" y1="1156.48" x2="-1954.37" y2="1156.48" gradientUnits="userSpaceOnUse">
<stop stop-color="#212121"/>
<stop offset="1" stop-color="#5235DD"/>
</linearGradient>
<linearGradient id="paint1_linear" x1="1683.17" y1="1182.82" x2="4958.55" y2="1182.82" gradientUnits="userSpaceOnUse">
<stop stop-color="#212121"/>
<stop offset="1" stop-color="#5235DD"/>
</linearGradient>
<linearGradient id="paint2_linear" x1="2566.65" y1="749.146" x2="2259.13" y2="1151.24" gradientUnits="userSpaceOnUse">
<stop stop-color="#212121"/>
<stop offset="0.138" stop-color="#212325"/>
<stop offset="0.2736" stop-color="#212731"/>
<stop offset="0.4084" stop-color="#222F45"/>
<stop offset="0.5427" stop-color="#223960"/>
<stop offset="0.6766" stop-color="#234784"/>
<stop offset="0.8104" stop-color="#2458B0"/>
<stop offset="0.9415" stop-color="#256BE3"/>
<stop offset="1" stop-color="#2575FC"/>
</linearGradient>
<linearGradient id="paint3_linear" x1="2027.12" y1="411.088" x2="2244.55" y2="469.17" gradientUnits="userSpaceOnUse">
<stop stop-color="#212121"/>
<stop offset="0.0126186" stop-color="#212225"/>
<stop offset="0.2886" stop-color="#223F70"/>
<stop offset="0.5349" stop-color="#2456AC"/>
<stop offset="0.7429" stop-color="#2467D8"/>
<stop offset="0.9045" stop-color="#2571F2"/>
<stop offset="1" stop-color="#2575FC"/>
</linearGradient>
<linearGradient id="paint4_linear" x1="2134.7" y1="778.552" x2="2054.38" y2="715.781" gradientUnits="userSpaceOnUse">
<stop stop-color="#212121"/>
<stop offset="1" stop-color="#2575FC"/>
</linearGradient>
<linearGradient id="paint5_linear" x1="2102.91" y1="749.28" x2="2036.76" y2="720.156" gradientUnits="userSpaceOnUse">
<stop stop-color="#212121"/>
<stop offset="0.5151" stop-color="#2575FC"/>
</linearGradient>
<linearGradient id="paint6_linear" x1="2148.23" y1="758.359" x2="2085.39" y2="728.874" gradientUnits="userSpaceOnUse">
<stop stop-color="#212121"/>
<stop offset="1" stop-color="#2575FC"/>
</linearGradient>
<linearGradient id="paint7_linear" x1="2261.94" y1="980.762" x2="2135.5" y2="771.735" gradientUnits="userSpaceOnUse">
<stop stop-color="#212121"/>
<stop offset="1" stop-color="#2575FC"/>
</linearGradient>
<linearGradient id="paint8_linear" x1="2666.93" y1="988.366" x2="2576.52" y2="1252.27" gradientUnits="userSpaceOnUse">
<stop stop-color="#212121"/>
<stop offset="0.1993" stop-color="#223452"/>
<stop offset="0.5921" stop-color="#2457AD"/>
<stop offset="0.8679" stop-color="#256CE6"/>
<stop offset="1" stop-color="#2575FC"/>
</linearGradient>
<linearGradient id="paint9_linear" x1="2758.6" y1="868.499" x2="2189.78" y2="445.284" gradientUnits="userSpaceOnUse">
<stop stop-color="#212121"/>
<stop offset="0.4882" stop-color="#234D93"/>
<stop offset="0.8391" stop-color="#246ADE"/>
<stop offset="1" stop-color="#2575FC"/>
</linearGradient>
<linearGradient id="paint10_linear" x1="2003.72" y1="1128.16" x2="1825.34" y2="1108.13" gradientUnits="userSpaceOnUse">
<stop stop-color="#212121"/>
<stop offset="1" stop-color="#2575FC"/>
</linearGradient>
<linearGradient id="paint11_linear" x1="2391.7" y1="378.652" x2="2253.87" y2="362.118" gradientUnits="userSpaceOnUse">
<stop stop-color="#212121"/>
<stop offset="1" stop-color="#2575FC"/>
</linearGradient>
<linearGradient id="paint12_linear" x1="2288.31" y1="329.307" x2="2286.52" y2="328.94" gradientUnits="userSpaceOnUse">
<stop stop-color="#212121"/>
<stop offset="1" stop-color="#2575FC"/>
</linearGradient>
<linearGradient id="paint13_linear" x1="2388.19" y1="396.928" x2="2256.77" y2="358.704" gradientUnits="userSpaceOnUse">
<stop stop-color="#212121"/>
<stop offset="1" stop-color="#2575FC"/>
</linearGradient>
<linearGradient id="paint14_linear" x1="2281.63" y1="365.543" x2="2217.39" y2="213.831" gradientUnits="userSpaceOnUse">
<stop stop-color="#212121"/>
<stop offset="1" stop-color="#2575FC"/>
</linearGradient>
<linearGradient id="paint15_linear" x1="1857.35" y1="1384.22" x2="2405.6" y2="422.896" gradientUnits="userSpaceOnUse">
<stop stop-color="#212121"/>
<stop offset="0.3796" stop-color="#224071"/>
<stop offset="1" stop-color="#2575FC"/>
</linearGradient>
<linearGradient id="paint16_linear" x1="537.302" y1="752.489" x2="844.817" y2="1154.58" gradientUnits="userSpaceOnUse">
<stop stop-color="#212121"/>
<stop offset="0.138" stop-color="#212325"/>
<stop offset="0.2736" stop-color="#212731"/>
<stop offset="0.4084" stop-color="#222F45"/>
<stop offset="0.5427" stop-color="#223960"/>
<stop offset="0.6766" stop-color="#234784"/>
<stop offset="0.8104" stop-color="#2458B0"/>
<stop offset="0.9415" stop-color="#256BE3"/>
<stop offset="1" stop-color="#2575FC"/>
</linearGradient>
<linearGradient id="paint17_linear" x1="1057.7" y1="403.407" x2="880.355" y2="494.405" gradientUnits="userSpaceOnUse">
<stop stop-color="#212121"/>
<stop offset="0.0126186" stop-color="#212225"/>
<stop offset="0.2886" stop-color="#223F70"/>
<stop offset="0.5349" stop-color="#2456AC"/>
<stop offset="0.7429" stop-color="#2467D8"/>
<stop offset="0.9045" stop-color="#2571F2"/>
<stop offset="1" stop-color="#2575FC"/>
</linearGradient>
<linearGradient id="paint18_linear" x1="842.004" y1="984.106" x2="968.45" y2="775.079" gradientUnits="userSpaceOnUse">
<stop stop-color="#212121"/>
<stop offset="1" stop-color="#2575FC"/>
</linearGradient>
<linearGradient id="paint19_linear" x1="437.023" y1="991.71" x2="527.427" y2="1255.62" gradientUnits="userSpaceOnUse">
<stop stop-color="#212121"/>
<stop offset="0.1993" stop-color="#223452"/>
<stop offset="0.5921" stop-color="#2457AD"/>
<stop offset="0.8679" stop-color="#256CE6"/>
<stop offset="1" stop-color="#2575FC"/>
</linearGradient>
<linearGradient id="paint20_linear" x1="345.345" y1="871.842" x2="914.164" y2="448.628" gradientUnits="userSpaceOnUse">
<stop stop-color="#212121"/>
<stop offset="0.4882" stop-color="#234D93"/>
<stop offset="0.8391" stop-color="#246ADE"/>
<stop offset="1" stop-color="#2575FC"/>
</linearGradient>
<linearGradient id="paint21_linear" x1="699.97" y1="388.712" x2="882.165" y2="355.574" gradientUnits="userSpaceOnUse">
<stop stop-color="#212121"/>
<stop offset="1" stop-color="#2575FC"/>
</linearGradient>
<linearGradient id="paint22_linear" x1="770.456" y1="325.34" x2="875.879" y2="297.019" gradientUnits="userSpaceOnUse">
<stop stop-color="#212121"/>
<stop offset="1" stop-color="#2575FC"/>
</linearGradient>
<linearGradient id="paint23_linear" x1="1100.23" y1="1131.5" x2="1278.61" y2="1111.47" gradientUnits="userSpaceOnUse">
<stop stop-color="#212121"/>
<stop offset="1" stop-color="#2575FC"/>
</linearGradient>
<linearGradient id="paint24_linear" x1="815.639" y1="332.651" x2="817.433" y2="332.284" gradientUnits="userSpaceOnUse">
<stop stop-color="#212121"/>
<stop offset="1" stop-color="#2575FC"/>
</linearGradient>
<linearGradient id="paint25_linear" x1="588.145" y1="539.357" x2="2013.84" y2="539.357" gradientUnits="userSpaceOnUse">
<stop stop-color="#212121"/>
<stop offset="0.3796" stop-color="#224071"/>
<stop offset="1" stop-color="#2575FC"/>
</linearGradient>
<linearGradient id="paint26_linear" x1="931.583" y1="796.726" x2="1031.33" y2="775.689" gradientUnits="userSpaceOnUse">
<stop stop-color="#212121"/>
<stop offset="1" stop-color="#2575FC"/>
</linearGradient>
<linearGradient id="paint27_linear" x1="973.007" y1="784.422" x2="1045.22" y2="787.367" gradientUnits="userSpaceOnUse">
<stop stop-color="#212121"/>
<stop offset="0.5151" stop-color="#2575FC"/>
</linearGradient>
<linearGradient id="paint28_linear" x1="907.14" y1="781.689" x2="990.485" y2="783.086" gradientUnits="userSpaceOnUse">
<stop stop-color="#212121"/>
<stop offset="1" stop-color="#2575FC"/>
</linearGradient>
<linearGradient id="paint29_linear" x1="1143.94" y1="1436.1" x2="706.648" y2="419.486" gradientUnits="userSpaceOnUse">
<stop stop-color="#212121"/>
<stop offset="0.3796" stop-color="#224071"/>
<stop offset="1" stop-color="#2575FC"/>
</linearGradient>
</defs>
</svg>
