<svg width="2000" height="2000" viewBox="0 0 2000 2000" fill="none" xmlns="http://www.w3.org/2000/svg">
<path d="M478.9 296.6C481.3 299.2 481.8 304.5 481.4 310.8C484.2 299.4 487 291 487 291C487 291 488.3 271.7 496.2 280.1C504.1 288.5 491.7 325.4 492.1 333.8C492.1 334.6 492.1 335.6 492 336.8C508 336.1 520.5 337.9 520.5 337.9C528.6 347 532.6 355.2 532.6 355.2C532.6 355.2 551.6 354.2 538.2 380.3C517 421.7 516.9 469 516.9 469C516.9 469 475.1 417.8 474.2 402.4C473.3 385.7 464.7 373.3 462.1 363.5C460.8 358.7 461.2 346.7 463.8 342.2C465.3 324.2 469.6 307.7 469.6 307.7C469.6 307.7 471 288.2 478.9 296.6Z" fill="url(#paint0_linear)"/>
<path d="M1571.6 738.5C1571.6 738.5 1597.6 727.4 1605.3 726.3C1613 725.2 1644.5 707.2 1653.6 712.9C1662.7 718.6 1645.3 723.3 1645.3 723.3C1645.3 723.3 1580.2 760 1571.6 738.5Z" fill="url(#paint1_linear)"/>
<path d="M1578.4 757.1C1578.4 757.1 1624.3 754.1 1627.7 737.8C1631.3 720.3 1641.7 706.7 1637.5 702.9C1633.6 699.4 1619 715.2 1611.3 730.6C1606.2 740.9 1576.7 738.4 1577.9 745.5C1579.1 752.6 1578.4 757.1 1578.4 757.1Z" fill="url(#paint2_linear)"/>
<path d="M1643.2 758.8C1640.4 757 1635.5 757.5 1629.7 759.1C1639.6 754.5 1646.8 750.4 1646.8 750.4C1646.8 750.4 1664.2 745.7 1655.1 740C1646 734.3 1614.5 752.3 1606.8 753.4C1606.1 753.5 1605.1 753.7 1604.1 754C1601.8 739.2 1598 728.2 1598 728.2C1588.2 722.4 1580 720.3 1580 720.3C1580 720.3 1577.5 702.8 1556 719.7C1521.9 746.5 1478.8 755.1 1478.8 755.1L1495.8 800.8C1495.8 800.8 1533.1 784.1 1547.3 782.1C1562.7 780 1575.6 785.5 1585.1 786.1C1589.7 786.4 1600.6 783.9 1604.3 780.7C1620.5 776.1 1634.8 769.2 1634.8 769.2C1634.8 769.2 1652.3 764.5 1643.2 758.8Z" fill="url(#paint3_linear)"/>
<path d="M1558.2 786.9C1506.8 811.2 1482.1 817.6 1431.8 829.4C1413.5 833.7 1395 837 1376.4 839.2C1358.1 819.3 1341.8 798.2 1327.2 776.2C1311.1 751.7 1297.3 726.1 1285.9 699.7C1265.5 652.6 1274.2 536.7 1282.3 556C1282.9 555.9 1283.6 555.8 1284.2 555.7C1343 611.8 1385.5 679.2 1411.1 751.5C1461.5 741.3 1483 739.9 1530.7 728C1534.3 737 1554.1 778.2 1558.2 786.9Z" fill="url(#paint4_linear)"/>
<path d="M469.499 396.8C461.799 453.1 463.099 478.6 466.899 530.2C467.899 543.4 469.399 556.5 471.399 569.6C472.999 579.9 479.799 588.7 489.299 592.8C508.899 601.2 528.899 608.2 548.999 614C577.199 622 606.599 623.5 633.799 643.1C665.299 665.8 678.399 710 705.599 699.7C728.599 691 742.499 568.9 718.599 563.1C667.099 550.6 623.699 539.4 567.099 527.2C555.199 524.6 546.299 514.8 544.799 502.8C540.399 467.5 536.399 446.2 533.999 405.4C524.299 404.7 478.999 398.1 469.499 396.8Z" fill="url(#paint5_linear)"/>
<path d="M1240.7 1123.2L1312 1197.1L1312.1 1197.2C1334.9 1216.2 1353.8 1236.2 1296.3 1271.5C1296 1271.7 1295.6 1271.9 1295.3 1272.2L1197 1350.2C1196.3 1350.8 1196.2 1351.8 1196.8 1352.4L1228.4 1386.3C1228.9 1386.8 1229.7 1386.9 1230.3 1386.6C1243.1 1379 1353.7 1322.7 1399.6 1295.9C1451.6 1265.6 1452.6 1232.3 1430.6 1197.3C1430.6 1197.3 1298.4 946.7 1286.1 946.3C1271.3 945.8 1159.6 965.6 1215.2 1087.8C1216.4 1090.4 1238.7 1121.1 1240.7 1123.2Z" fill="url(#paint6_linear)"/>
<path d="M1297.8 1189C1267.9 1342.8 1225.7 1480.9 1153.3 1610.7C1140.7 1606.5 1128.3 1601.9 1116.2 1596.8C1125.9 1561.6 1134.3 1525.8 1141.4 1489.3C1172.1 1331.4 1211.8 1220.6 1175.9 1080.1C1160.5 1019.9 1194.5 993 1207.4 981.9C1213.8 976.4 1225.8 968.8 1239.8 961.4C1272.1 944.3 1310.9 968.7 1309.6 1005.2C1307.5 1069.6 1305.3 1150.8 1297.8 1189Z" fill="url(#paint7_linear)"/>
<path d="M1205.1 569.6C1258.8 553.6 1315.1 560.9 1324.6 616.1C1326 624.5 1325.8 631.9 1323 637.4C1321.6 640.2 1317.8 653.2 1316.4 656C1269 755 1272 867.4 1320.7 966.8C1322.2 969.8 1321.8 973.3 1319.9 976C1317.8 979 1315.6 982 1313.3 985C1300.9 1001.4 1290.4 1022.1 1271.3 1031.5C1231.5 1051.1 1192.8 1054.9 1167.9 1051.8C1153.4 1050 1143.7 1043 1143.7 1043C1147.9 1022 1158.1 994.5 1159 962.7C1160.3 917.8 1156.8 891.9 1140.9 849.2C1139.5 845.4 1138.2 841.6 1136.5 837.9C1126.8 817.3 1106.4 756.4 1094.4 698.6C1078.4 621.5 1184 575.9 1205.1 569.6Z" fill="url(#paint8_linear)"/>
<path d="M1327.6 564.7C1323.7 579.1 1322.9 593.7 1325 607.8C1318.4 606.4 1311.7 605.7 1305.1 605.7C1278.9 605.4 1253.6 615.1 1234.2 632.2C1218 615.9 1207.6 594.7 1204.5 572C1210.6 565.2 1216 557.5 1220.3 549C1228.9 548.6 1237.1 545.5 1243.8 540.2C1243.6 537.9 1243.8 535.5 1244.7 533.2C1246.6 527.8 1251.2 524 1256.4 522.8C1259.3 522.2 1262.4 522.3 1265.4 523.4C1265.6 523.5 1265.9 523.6 1266.1 523.7C1266.5 521.1 1267.1 518.5 1268 515.9C1275.5 494.9 1298.7 483.9 1319.7 491.4C1319.8 491.4 1320 491.5 1320.1 491.5C1320.1 491.8 1320.2 492.1 1320.2 492.4C1322.1 505.5 1325.6 518.3 1330.5 530.6C1332.2 534.9 1334.1 539.1 1336.1 543.2C1337.4 545.9 1338.8 548.5 1340.3 551.1C1342.4 554.9 1344.7 558.6 1347.2 562.3C1340.7 563.3 1334.2 564.2 1327.6 564.7Z" fill="url(#paint9_linear)"/>
<path d="M1324.7 484.5C1323.7 487.2 1322.4 489.5 1320.7 491.6C1320.6 491.6 1320.5 491.5 1320.4 491.5C1320.2 491.2 1320.1 490.8 1319.9 490.5C1319.9 490.8 1320 491.1 1320 491.4C1319.9 491.4 1319.7 491.3 1319.6 491.3C1298.6 483.8 1275.4 494.7 1267.9 515.8C1267 518.4 1266.3 521 1266 523.6C1265.8 523.5 1265.5 523.4 1265.3 523.3C1262.3 522.2 1259.2 522.1 1256.3 522.7C1251.1 523.9 1246.5 527.6 1244.6 533.1C1243.8 535.4 1243.5 537.8 1243.7 540.1C1237.1 545.4 1228.8 548.6 1220.2 548.9C1221.3 546.7 1222.3 544.5 1223.3 542.2C1223.8 541.1 1224.2 540 1224.6 538.9C1231.1 521.9 1232.9 504.3 1230.6 487.4C1230 482.7 1229 478.1 1227.8 473.6C1232.6 474.5 1237.4 475.2 1242.2 475.7C1242.4 475.7 1242.7 475.8 1242.9 475.8C1254.5 477 1266.1 476.9 1277.5 475.7C1287.5 474.7 1297.3 472.7 1306.8 470C1310.7 468.9 1314.5 467.6 1318.3 466.2C1319.9 465.6 1321.4 465 1323 464.4C1326.4 470.4 1327.2 477.7 1324.7 484.5Z" fill="url(#paint10_linear)"/>
<path d="M1320.8 537C1320.3 538.5 1319.6 539.8 1318.7 541C1313.2 540.8 1307.7 540 1302.2 538.3C1309 537.1 1315.6 534.9 1321.7 531.7C1321.7 533.5 1321.4 535.2 1320.8 537Z" fill="#232323"/>
<path d="M1219 646L1233.8 630.4C1212.3 620.3 1205.5 565.3 1205.5 565.3C1186.9 625 1219 646 1219 646Z" fill="#232323"/>
<path d="M1233 647.4C1233 647.4 1267.2 756.3 1203.6 831.8C1180 859.8 1208 889.9 1208 889.9C1208 889.9 1229.2 850.2 1236.7 838.6C1264.4 795.9 1281.5 707 1233 647.4Z" fill="#232323"/>
<path d="M1241.4 629.2L1235.4 643C1235.4 643 1264.9 616.2 1263.2 614.4C1261.4 612.5 1241.4 629.2 1241.4 629.2Z" fill="#232323"/>
<path d="M1576.3 729.3L1587.9 774.6C1589.7 781.5 1596.5 782.3 1603.1 776.4L1680.8 706.5C1687.4 700.5 1691.3 690.1 1689.6 683.2L1678 637.9C1676.2 631 1669.4 630.2 1662.8 636.1L1585.1 706C1578.5 711.9 1574.5 722.4 1576.3 729.3Z" fill="url(#paint11_linear)"/>
<path d="M1556 749.8C1564.1 755.1 1578.2 751.4 1580 731.6C1581.8 711.8 1591.1 712.4 1598.7 710.6C1606.2 708.7 1616.3 701.1 1612.6 695.2C1609 689.4 1599.8 694.4 1590.5 693.8C1574.7 692.7 1567.2 706.1 1567.2 706.1C1567.2 706.1 1533.7 735.2 1556 749.8Z" fill="url(#paint12_linear)"/>
<path d="M1592.46 742.67C1595.83 741.592 1597.64 737.861 1596.51 734.337C1595.38 730.813 1591.74 728.83 1588.37 729.908C1585.01 730.985 1583.19 734.716 1584.32 738.24C1585.45 741.764 1589.09 743.747 1592.46 742.67Z" fill="#232323"/>
<path d="M1666.4 666.9L1600.1 676C1598.8 675.3 1568.9 682.4 1544.8 690.3C1537.7 692.6 1531.1 695 1525.9 697.2C1507.4 704.6 1482.3 716.6 1484.4 726.2C1487.7 740.9 1531.7 766 1531.7 766L1533.1 762.3C1533.1 762.3 1539.9 743.3 1548.5 731.4C1553.5 732.9 1559.1 733.8 1565.4 734C1574.2 734.2 1580.9 733.4 1586 731.9C1588.6 733.8 1591.7 736.6 1593.9 740.2C1598 747.1 1616 760.8 1618 759C1619.5 757.7 1603.8 737.2 1595.7 726.9C1596.9 725.9 1597.9 724.7 1598.7 723.6C1599.2 724.2 1599.7 724.9 1600.3 725.6C1626.8 759 1633.7 753.5 1633.7 753.5C1636.2 750.9 1603.8 714.8 1603.8 714.8C1603.8 714.8 1603 714.2 1601.7 713.3C1601.7 712.1 1601.5 711.1 1601.4 710.3C1601.3 709.7 1601.2 708.9 1601.2 707.9C1649.5 717.1 1669.2 716.1 1662.8 711.2C1657.3 707 1617.7 695.9 1601 691.3C1601 690.5 1601 689.7 1601 688.9C1657.7 682 1670.8 668.8 1666.4 666.9Z" fill="url(#paint13_linear)"/>
<path d="M1106.6 733.7C1152.5 762.1 1288.8 796.7 1355.6 797.7C1453.4 799.3 1523.8 775.5 1565.7 757.2C1567.6 756.4 1568.2 754.1 1567 752.4C1562.8 746 1556.3 739 1550 732C1537.3 717.9 1529.1 691.7 1529.1 691.7C1529.1 691.7 1515.6 695.1 1514.8 695.3C1505.6 698.1 1441.1 717 1415.9 713C1329.4 699.1 1204.9 624.4 1157.9 627C1049.2 632.7 1090.1 723.5 1106.6 733.7Z" fill="url(#paint14_linear)"/>
<path d="M515 367.8C515 367.8 521.3 338.1 520.9 329.8C520.5 321.5 532.9 284.5 525 276.1C517.1 267.7 515.8 287 515.8 287C515.8 287 490.6 363.2 515 367.8Z" fill="url(#paint15_linear)"/>
<path d="M488.9 360.9C488.9 360.9 482.6 311.9 499 305C516.7 297.6 528.9 283.8 533.7 287.4C538.2 290.7 524.6 309.5 509.9 320.7C500.1 328.2 508.8 358.8 501.1 358.9C493.4 359.1 488.9 360.9 488.9 360.9Z" fill="url(#paint16_linear)"/>
<path d="M696.1 1181.6C693 1339.2 712.7 1491.5 752 1634.4C764 1632.9 775.9 1631 787.7 1628.5C785.9 1591.8 785.4 1554.8 786.1 1517.5C789.6 1341 821.5 1172.4 876.9 1017C848.2 1023.7 818.4 1026.9 787.8 1026.2C760.4 1025.6 745.3 1024.2 719.6 1017.8C712.7 1072.2 697.2 1125.3 696.1 1181.6Z" fill="url(#paint17_linear)"/>
<path d="M719.8 1018.2C792.9 1228.5 907.6 1414.3 1052.4 1561.5C1064.6 1553.9 1076.5 1545.7 1088.1 1537C988.7 1385.2 914.8 1209.8 873.5 1019.5C873.1 1017.6 871.3 1016.4 869.4 1016.8C842 1023.5 813.6 1026.7 784.5 1026.1C762.3 1025.6 740.7 1022.9 719.8 1018.2Z" fill="url(#paint18_linear)"/>
<path d="M419.2 243.9C404.5 258.6 383.9 262.4 373.2 252.4C362.5 242.4 365.8 222.4 380.5 207.8C395.2 193.1 415.8 189.3 426.5 199.3C437.2 209.2 433.9 229.2 419.2 243.9Z" fill="url(#paint19_linear)"/>
<path d="M710.8 489.9L574.3 355.3L577.5 352L459 238L462.5 234.6L423.3 194.3L367.5 249.8L410.7 286.2L414.2 282.6L538.9 392.2L542.8 388.2L687.7 512.9L710.8 489.9Z" fill="url(#paint20_linear)"/>
<path d="M694.4 563.3C694.3 563.5 648.9 649.6 667.1 676.7C668.9 679.4 674.6 692 676 694.9C722.2 785.8 740.5 934.4 703 1041.3C701.9 1044.5 711.4 1052.5 714.1 1055.2C728.7 1070.4 746.3 1084.6 768 1087.1C828.1 1094.1 842.7 1063.6 867.6 1057.4C882.2 1053.8 882.5 1054.3 882.5 1054.3C882.9 1033.8 877.6 1020.4 872.9 988.1C866.2 942.6 866.7 915.8 877.7 870.4C878.7 866.4 879.7 862.4 880.8 858.4C884.2 846.2 888.7 829.6 894 811.8C912.7 749.2 892.7 681.2 842.7 639.2C759.3 569.3 708.9 565.3 694.4 563.3Z" fill="url(#paint21_linear)"/>
<path d="M743.5 678.7L741.1 663.9C776.4 656.1 802.7 631.2 802.7 631.2C783 679.9 743.5 678.7 743.5 678.7Z" fill="#232323"/>
<path d="M740.6 672C740.6 672 711.6 787 782.1 861.6C808.3 889.3 780.9 922.1 780.9 922.1C780.9 922.1 756.6 882.1 748.1 870.6C716.8 828 693.8 736.7 740.6 672Z" fill="#232323"/>
<path d="M733.5 659.7L730.6 675.1C730.6 675.1 721 634.8 723.6 634.2C726.2 633.7 733.5 659.7 733.5 659.7Z" fill="#232323"/>
<path d="M702.3 540.9C695.8 555.6 686.5 568.4 675.3 578.8C681.8 582.2 687.8 586.1 693.4 590.5C715.6 608.1 730.3 633.3 734.9 660.8C759.5 658.1 782.6 647.4 800.6 630.4C800.1 620.5 800.8 610.5 803 600.4C796.1 594.2 791.3 586 789.3 577.1C791.1 575.3 792.5 573.1 793.3 570.6C795.4 564.7 794.1 558.5 790.5 554C788.5 551.5 785.8 549.5 782.6 548.4C782.3 548.3 782.1 548.2 781.8 548.1C783.2 545.7 784.5 543 785.5 540.3C793.5 517.6 781.5 492.7 758.7 484.7C758.6 484.7 758.4 484.6 758.3 484.6C758.1 484.8 757.8 485 757.6 485.2C747.1 494.9 735.5 503.3 723.1 510.2C718.8 512.6 714.4 514.9 709.9 516.9C707 518.2 704 519.5 701 520.7C696.6 522.4 692.2 524 687.6 525.4C692.2 530.9 697.1 536 702.3 540.9Z" fill="url(#paint22_linear)"/>
<path d="M759 475.6C758 478.5 757.5 481.4 757.5 484.3C757.6 484.3 757.7 484.4 757.8 484.4C758.2 484.2 758.5 484 758.9 483.9C758.7 484.1 758.4 484.3 758.2 484.6C758.3 484.6 758.5 484.7 758.6 484.7C781.3 492.7 793.3 517.5 785.4 540.3C784.4 543.1 783.2 545.7 781.7 548.1C782 548.2 782.2 548.3 782.5 548.4C785.7 549.5 788.4 551.5 790.4 554C794 558.5 795.3 564.8 793.2 570.6C792.3 573.1 790.9 575.3 789.2 577.1C791.2 586.1 795.9 594.3 802.9 600.4C803.5 597.8 804.1 595.3 804.8 592.7C805.2 591.5 805.5 590.3 805.9 589.1C812 570.5 822.4 554.4 835.8 541.8C839.5 538.3 843.4 535.1 847.5 532.1C842.9 529.6 838.3 527 834 524.1C833.8 524 833.6 523.8 833.4 523.7C822.9 516.8 813.2 508.9 804.5 500.2C796.9 492.6 789.9 484.3 783.8 475.5C781.3 471.9 778.9 468.3 776.7 464.5C775.8 462.9 774.9 461.4 774 459.8C767.2 462.7 761.6 468.2 759 475.6Z" fill="url(#paint23_linear)"/>
<path d="M726.8 522.3C726.2 523.9 725.9 525.5 725.8 527.1C730.5 530.7 735.7 533.7 741.4 536C736.4 530.4 732.4 524 729.5 517.2C728.4 518.7 727.4 520.4 726.8 522.3Z" fill="#232323"/>
<path d="M870 664.3C880.6 672.8 1013.2 765.8 1049.4 815.1C1102.4 887.2 1122.2 952.9 1130.9 994.3C1131.3 996.1 1129.9 997.8 1128.1 997.9C1121.1 998.3 1112.6 997.2 1104 996.4C1086.5 994.7 1071 984.2 1063 968.5L1062.5 967.6C1051.1 945.3 1036.5 924.7 1018.9 906.8C962.7 849.8 838.5 799.7 818.4 761.4C766.8 662.8 856.2 653.3 870 664.3Z" fill="url(#paint24_linear)"/>
<path d="M503.9 392.3C496.8 385.1 497.8 369.8 517.7 364C537.6 358.2 535.1 348.8 535.5 340.7C535.9 332.6 541.7 320.8 548.4 323.4C555.1 326 551.7 336.3 554.3 345.8C558.6 361.7 546.4 372.1 546.4 372.1C546.4 372.1 523.4 412.1 503.9 392.3Z" fill="url(#paint25_linear)"/>
<path d="M764.7 1580.8C775.9 1605.9 757.2 1634 729.8 1633.9C729.4 1633.9 729.1 1633.9 728.7 1633.9C690 1633.9 653.8 1644.9 623.1 1663.9C674.9 1627.6 708.8 1567.4 708.8 1499.3C708.8 1478 705.5 1457.5 699.4 1438.3H756.9C750.8 1457.5 747.5 1478 747.5 1499.3C747.5 1528.3 753.6 1555.9 764.7 1580.8Z" fill="url(#paint26_linear)"/>
<path d="M708.1 1391.5C708.1 1397.5 707.9 1403.5 707.4 1409.4C706.6 1420.1 705.1 1430.7 702.9 1440.9H625.2C621.6 1440.9 618.3 1439.7 615.7 1437.7C611.9 1434.8 609.5 1430.3 609.5 1425.2C609.5 1420.8 611.3 1416.9 614.1 1414C615.1 1413 616.3 1412 617.7 1411.3C617.7 1409.7 617.8 1408.1 617.8 1406.6C617.8 1316.5 582.8 1236.3 518.4 1194.4C499.7 1182.3 507.9 1153.3 530.1 1152.7C547.5 1152.2 562.6 1152 571.4 1152C703.5 1152.1 708.1 1259.3 708.1 1391.5Z" fill="url(#paint27_linear)"/>
<path d="M893.8 1424.8C893.8 1429.2 892 1433.1 889.2 1436C886.3 1438.9 882.4 1440.6 878 1440.6H657.3C653.7 1440.6 650.4 1439.4 647.8 1437.4C644 1434.5 641.6 1430 641.6 1424.9C641.6 1420.5 643.4 1416.6 646.2 1413.7C647.2 1412.7 648.4 1411.7 649.8 1411C652 1409.8 654.6 1409.1 657.4 1409.1H878.2C886.8 1409 893.8 1416 893.8 1424.8Z" fill="url(#paint28_linear)"/>
<path d="M848.399 1710.2C862.041 1710.2 873.099 1699.14 873.099 1685.5C873.099 1671.86 862.041 1660.8 848.399 1660.8C834.758 1660.8 823.699 1671.86 823.699 1685.5C823.699 1699.14 834.758 1710.2 848.399 1710.2Z" fill="#3F86FC"/>
<path d="M596.599 1710.2C610.241 1710.2 621.299 1699.14 621.299 1685.5C621.299 1671.86 610.241 1660.8 596.599 1660.8C582.958 1660.8 571.899 1671.86 571.899 1685.5C571.899 1699.14 582.958 1710.2 596.599 1710.2Z" fill="#3F86FC"/>
<path d="M825 1442.9L932 1433.5C932.1 1433.5 932.1 1433.5 932.2 1433.5C962.3 1424.7 991 1419.9 988.1 1491.2C988.1 1491.6 988.1 1492 988.1 1492.5L998.6 1624.8C998.7 1625.7 999.5 1626.4 1000.5 1626.3L1048.9 1618.6C1049.6 1618.5 1050.2 1617.9 1050.3 1617.1C1051.2 1601.4 1067 1471.1 1070.6 1415C1074.7 1351.4 1046.1 1330.9 1002.3 1329.6L808.4 1331C784.9 1330.3 704.2 1297.7 696.6 1308.2C687.4 1320.9 638.8 1420.4 778.9 1443.7C781.9 1444.2 822.1 1443.4 825 1442.9Z" fill="url(#paint29_linear)"/>
<path d="M1016.7 1102.8C995.5 1093 958.7 1106.9 952.8 1139.9C936.2 1233.9 932.5 1300.7 924 1324.3C932.4 1318.2 1024.3 1170 1035 1160.1C1061.3 1135.4 1037.9 1112.6 1016.7 1102.8Z" fill="url(#paint30_linear)"/>
<path d="M963.199 1399.2C963.199 1399.2 774.499 1304 761.499 1302.3C723.699 1297.2 673.899 1295 668.799 1332.7C663.699 1370.5 705.399 1434 743.099 1439C744.799 1439.2 864.899 1458.2 864.899 1458.2C893.299 1462.6 903.999 1479.4 860.999 1520.5L721.199 1634L761.699 1690.7C764.099 1684.8 967.299 1539.2 993.499 1503.5C1028 1456.6 998.899 1417.2 963.199 1399.2Z" fill="url(#paint31_linear)"/>
<path d="M1010.7 1070C1007.3 1110.9 992.9 1148.7 970.3 1180.2C940 1222.6 895 1253.9 842.7 1266.6C817.7 1298.6 800.4 1336.9 793.6 1378.7C757.3 1351.5 713.4 1334 665.7 1329.9C664.4 1319.7 663.8 1309.3 663.8 1298.7C663.8 1277.8 666.4 1257.5 671.2 1238.1C698.3 1130 796.1 1049.9 912.6 1049.9C947.4 1049.9 980.6 1057.1 1010.7 1070Z" fill="url(#paint32_linear)"/>
<path d="M960.999 1120.6C960.999 1120.6 975.299 1246.1 890.199 1314.8C858.599 1340.3 882.799 1378.8 882.799 1378.8C882.799 1378.8 914.199 1340.1 924.799 1329.1C963.899 1288.6 1001.2 1195.6 960.999 1120.6Z" fill="#232323"/>
<path d="M1073.1 1081.1C1064.7 1093 1059.2 1106.2 1056.4 1119.8C1050.7 1116.3 1044.9 1113.5 1038.8 1111.3C1014.8 1102.3 988.299 1102.8 964.799 1112.2C949.499 1096.6 939.899 1074.8 944.599 1052.9C952.499 1048.7 972.899 1037.5 979.699 1031.1C987.699 1033.6 996.299 1033.4 1004.2 1030.8C1004.8 1028.6 1005.8 1026.5 1007.3 1024.6C1010.9 1020.2 1016.3 1018.3 1021.5 1019C1024.4 1019.4 1027.2 1020.5 1029.6 1022.5C1029.8 1022.7 1030 1022.8 1030.2 1023C1031.4 1020.7 1032.9 1018.5 1034.6 1016.5C1048.5 999.6 1073.4 997.2 1090.3 1011.1C1090.4 1011.2 1090.5 1011.3 1090.6 1011.4C1090.5 1011.7 1090.5 1012 1090.4 1012.2C1087.8 1024.9 1086.8 1037.8 1087.2 1050.7C1087.4 1055.2 1087.7 1059.7 1088.2 1064.1C1088.5 1067 1088.9 1069.9 1089.4 1072.7C1090.1 1076.9 1091 1081.1 1092 1085.3C1085.6 1084.2 1079.3 1082.9 1073.1 1081.1Z" fill="url(#paint33_linear)"/>
<path d="M1097.1 1006.4C1095.3 1008.5 1093.3 1010.3 1091.1 1011.6C1091 1011.5 1091 1011.5 1090.9 1011.4C1090.9 1011 1090.8 1010.7 1090.8 1010.3C1090.7 1010.6 1090.7 1010.9 1090.6 1011.2C1090.5 1011.1 1090.4 1011 1090.3 1010.9C1073.4 997 1048.5 999.4 1034.6 1016.3C1032.9 1018.4 1031.4 1020.5 1030.2 1022.8C1030 1022.6 1029.8 1022.5 1029.6 1022.3C1027.2 1020.3 1024.4 1019.2 1021.5 1018.8C1016.3 1018.1 1010.9 1020.1 1007.3 1024.4C1005.8 1026.3 1004.7 1028.4 1004.2 1030.6C996.299 1033.3 987.699 1033.4 979.699 1030.9C981.399 1029.3 983.099 1027.6 984.799 1025.8C985.599 1025 986.299 1024.1 987.099 1023.2C998.699 1009.8 1006.2 994.1 1009.7 977.8C1010.7 973.3 1011.3 968.8 1011.7 964.2C1015.8 966.6 1020 968.9 1024.2 970.9C1024.4 971 1024.6 971.1 1024.8 971.2C1035.1 976.1 1045.7 979.9 1056.6 982.6C1066.1 984.9 1075.8 986.4 1085.4 987.1C1089.3 987.4 1093.3 987.5 1097.2 987.5C1098.8 987.5 1100.5 987.5 1102.1 987.4C1103.2 994 1101.6 1000.9 1097.1 1006.4Z" fill="url(#paint34_linear)"/>
<path d="M1076 1053.4C1075 1054.6 1073.9 1055.6 1072.7 1056.4C1067.7 1054.4 1062.9 1051.8 1058.4 1048.5C1065.1 1049.7 1071.9 1049.8 1078.5 1048.9C1078.1 1050.4 1077.2 1052 1076 1053.4Z" fill="#232323"/>
<path d="M1238.7 1149.1L1178.7 1146.5C1177.7 1145.7 1150.1 1147.2 1127.6 1150.3C1121 1151.2 1114.8 1152.3 1109.8 1153.4C1092.3 1157 1068.2 1163.6 1068.6 1172.4C1069.2 1185.9 1104.1 1215.1 1104.1 1215.1L1105.9 1212.1C1105.9 1212.1 1115 1196.4 1124.4 1187.2C1128.6 1189.3 1133.3 1191 1138.9 1192.2C1146.6 1193.8 1152.7 1194.1 1157.5 1193.6C1159.5 1195.6 1161.8 1198.6 1163.2 1202.2C1165.7 1209 1179.4 1223.9 1181.5 1222.7C1183.1 1221.8 1172.4 1201.2 1166.9 1190.8C1168.2 1190.1 1169.2 1189.3 1170.1 1188.4C1170.4 1189.1 1170.8 1189.7 1171.2 1190.4C1189.3 1224.1 1196.3 1220.4 1196.3 1220.4C1199 1218.5 1176 1181.5 1176 1181.5C1176 1181.5 1175.4 1180.8 1174.4 1179.8C1174.6 1178.7 1174.6 1177.8 1174.6 1177.1C1174.6 1176.6 1174.7 1175.8 1174.8 1174.9C1216 1190.7 1233.6 1193 1228.7 1187.6C1224.5 1183 1191.3 1166.9 1177.3 1160.2C1177.4 1159.5 1177.6 1158.8 1177.7 1158C1228.6 1161 1242.3 1151.5 1238.7 1149.1Z" fill="url(#paint35_linear)"/>
<path d="M729.8 1757.2C719.9 1748.6 710.3 1739.2 701.3 1729.2C693.1 1720.1 685.5 1710.6 678.6 1700.9C679.5 1696.8 680 1692.7 680.2 1688.5C676.8 1688.1 673.3 1688 669.9 1688.1C666.9 1683.5 664.1 1678.8 661.3 1674C667 1672.2 672.5 1669.7 677.8 1666.5C681.4 1664.3 684.8 1661.7 688.1 1658.8C696.3 1671.6 703.5 1684.9 709.7 1698.5C718.4 1717.5 725.1 1737.2 729.8 1757.2Z" fill="url(#paint36_linear)"/>
<path d="M1102.8 1675.3C1089.7 1676.8 1076.4 1677.6 1062.9 1677.5C1050.7 1677.4 1038.6 1676.7 1026.7 1675.3C1024.3 1671.9 1021.5 1668.7 1018.6 1665.8C1016 1668.1 1013.6 1670.5 1011.3 1673.1C1005.9 1672.2 1000.5 1671.1 995.1 1669.9C997.6 1664.5 999.5 1658.7 1000.6 1652.6C1001.4 1648.4 1001.8 1644.2 1001.9 1639.8C1016.9 1642.4 1031.6 1646 1045.8 1650.5C1065.7 1657 1084.8 1665.3 1102.8 1675.3Z" fill="url(#paint37_linear)"/>
<path d="M1338.3 1264.6H922C911 1264.6 902 1255.7 902 1244.6H1338.3V1264.6Z" fill="url(#paint38_linear)"/>
<path d="M890 1264.6V1266.3C1043.6 1267.3 1167.8 1392.1 1167.8 1546C1167.8 1592 1156.7 1635.5 1137 1673.8H1338.3V1264.6H890Z" fill="url(#paint39_linear)"/>
<path d="M951.299 1128.9L963.599 1116.7C942.599 1103 935.999 1064.1 935.999 1064.1C922.799 1112.1 951.299 1128.9 951.299 1128.9Z" fill="#232323"/>
<path d="M968.6 1117.2L979 1133.5C979 1133.5 996.3 1107.6 993.1 1105.5C990.1 1103.3 968.6 1117.2 968.6 1117.2Z" fill="#232323"/>
<path d="M1133.7 1213.9C1079.9 1269.3 1063.3 1271.1 1029.5 1296.7C1015.3 1307.4 981.2 1322.6 960.8 1329.8C957 1331.2 952.7 1330.4 949.5 1327.9C928.8 1311.8 909.7 1294.4 892 1275.9C870.8 1253.6 851.7 1229.7 834.9 1204.6C817.5 1178.4 758.8 1122.2 801 1095.9C920.4 1021.5 930.4 1165 961.1 1213.2C968.2 1224.3 983.3 1226.8 993.5 1218.5C1031.9 1187.3 1041.4 1180.7 1099.6 1147.4C1112 1165.8 1137.8 1207.6 1133.7 1213.9Z" fill="url(#paint40_linear)"/>
<path d="M1230.5 1221C1226.4 1218.8 1224.8 1213.7 1227 1209.6L1314.7 1044.6C1316.9 1040.5 1322 1038.9 1326.1 1041.1C1330.2 1043.3 1331.8 1048.4 1329.6 1052.5L1241.9 1217.5C1239.7 1221.6 1234.6 1223.2 1230.5 1221Z" fill="#3F86FC"/>
<path d="M1207.2 1206.3V1205.9H1061.2C1056.6 1205.9 1053 1209.6 1053 1214.1C1053 1218.7 1056.7 1222.3 1061.2 1222.3H1230.9C1233.8 1222.3 1236.3 1220.8 1237.8 1218.5C1240.9 1218 1243.6 1215.7 1244.5 1212.4L1246.1 1206.1H1207.2V1206.3Z" fill="#3F86FC"/>
<defs>
<linearGradient id="paint0_linear" x1="540.183" y1="491.036" x2="473.281" y2="263.744" gradientUnits="userSpaceOnUse">
<stop stop-color="#212121"/>
<stop offset="1" stop-color="#468AFC"/>
</linearGradient>
<linearGradient id="paint1_linear" x1="1583.87" y1="701.562" x2="1644.84" y2="754.19" gradientUnits="userSpaceOnUse">
<stop stop-color="#212121"/>
<stop offset="1" stop-color="#468AFC"/>
</linearGradient>
<linearGradient id="paint2_linear" x1="1615.46" y1="944.515" x2="1607.6" y2="708.859" gradientUnits="userSpaceOnUse">
<stop stop-color="#212121"/>
<stop offset="0.203" stop-color="#212224"/>
<stop offset="0.3443" stop-color="#23272D"/>
<stop offset="0.4669" stop-color="#262E3C"/>
<stop offset="0.5789" stop-color="#293952"/>
<stop offset="0.6836" stop-color="#2E466F"/>
<stop offset="0.7829" stop-color="#345791"/>
<stop offset="0.878" stop-color="#3B6BBB"/>
<stop offset="0.9675" stop-color="#4381E9"/>
<stop offset="1" stop-color="#468AFC"/>
</linearGradient>
<linearGradient id="paint3_linear" x1="1453.39" y1="749.063" x2="1673.16" y2="769.375" gradientUnits="userSpaceOnUse">
<stop stop-color="#212121"/>
<stop offset="1" stop-color="#468AFC"/>
</linearGradient>
<linearGradient id="paint4_linear" x1="862.211" y1="615.441" x2="1512.68" y2="728.663" gradientUnits="userSpaceOnUse">
<stop stop-color="#212121"/>
<stop offset="0.0949628" stop-color="#23252A"/>
<stop offset="0.2506" stop-color="#273143"/>
<stop offset="0.4476" stop-color="#2D446B"/>
<stop offset="0.6782" stop-color="#375FA3"/>
<stop offset="0.9344" stop-color="#4381E9"/>
<stop offset="1" stop-color="#468AFC"/>
</linearGradient>
<linearGradient id="paint5_linear" x1="893.142" y1="1140.41" x2="530.137" y2="439.309" gradientUnits="userSpaceOnUse">
<stop stop-color="#212121"/>
<stop offset="0.0949628" stop-color="#23252A"/>
<stop offset="0.2506" stop-color="#273143"/>
<stop offset="0.4476" stop-color="#2D446B"/>
<stop offset="0.6782" stop-color="#375FA3"/>
<stop offset="0.9344" stop-color="#4381E9"/>
<stop offset="1" stop-color="#468AFC"/>
</linearGradient>
<linearGradient id="paint6_linear" x1="1078.62" y1="1048.84" x2="1627.29" y2="1409.39" gradientUnits="userSpaceOnUse">
<stop stop-color="#212121"/>
<stop offset="0.00241219" stop-color="#222936"/>
<stop offset="0.00774938" stop-color="#23395F"/>
<stop offset="0.0137466" stop-color="#244885"/>
<stop offset="0.0202678" stop-color="#2554A5"/>
<stop offset="0.0274791" stop-color="#255FC1"/>
<stop offset="0.0356246" stop-color="#2667D7"/>
<stop offset="0.0451324" stop-color="#266EE7"/>
<stop offset="0.0568967" stop-color="#2773F3"/>
<stop offset="0.0733925" stop-color="#2775FA"/>
<stop offset="0.1192" stop-color="#2776FC"/>
<stop offset="0.196" stop-color="#2559B0"/>
<stop offset="0.2796" stop-color="#233B64"/>
<stop offset="0.3395" stop-color="#222833"/>
<stop offset="0.3691" stop-color="#212121"/>
<stop offset="0.447" stop-color="#222325"/>
<stop offset="0.532" stop-color="#242933"/>
<stop offset="0.6204" stop-color="#283448"/>
<stop offset="0.7111" stop-color="#2D4367"/>
<stop offset="0.8036" stop-color="#33558E"/>
<stop offset="0.8976" stop-color="#3C6CBE"/>
<stop offset="0.9911" stop-color="#4587F6"/>
<stop offset="1" stop-color="#468AFC"/>
</linearGradient>
<linearGradient id="paint7_linear" x1="1134.85" y1="1292.63" x2="1407.02" y2="1257.16" gradientUnits="userSpaceOnUse">
<stop stop-color="#212121"/>
<stop offset="1" stop-color="#468AFC"/>
</linearGradient>
<linearGradient id="paint8_linear" x1="1012.4" y1="1329.98" x2="1282.36" y2="624.319" gradientUnits="userSpaceOnUse">
<stop stop-color="#212121"/>
<stop offset="0.0949628" stop-color="#23252A"/>
<stop offset="0.2506" stop-color="#273143"/>
<stop offset="0.4476" stop-color="#2D446B"/>
<stop offset="0.6782" stop-color="#375FA3"/>
<stop offset="0.9344" stop-color="#4381E9"/>
<stop offset="1" stop-color="#468AFC"/>
</linearGradient>
<linearGradient id="paint9_linear" x1="954.239" y1="602.612" x2="1409.61" y2="541.67" gradientUnits="userSpaceOnUse">
<stop stop-color="#212121"/>
<stop offset="1" stop-color="#468AFC"/>
</linearGradient>
<linearGradient id="paint10_linear" x1="1219.12" y1="512.685" x2="1334.43" y2="487.436" gradientUnits="userSpaceOnUse">
<stop stop-color="#212121"/>
<stop offset="1" stop-color="#468AFC"/>
</linearGradient>
<linearGradient id="paint11_linear" x1="1547.4" y1="671.355" x2="1794.98" y2="757.646" gradientUnits="userSpaceOnUse">
<stop offset="1.2e-07" stop-color="#5235DD"/>
<stop offset="0.8587" stop-color="#5235DD"/>
<stop offset="1" stop-color="#5235DD"/>
</linearGradient>
<linearGradient id="paint12_linear" x1="1473.64" y1="732.601" x2="1611.78" y2="719.506" gradientUnits="userSpaceOnUse">
<stop stop-color="#212121"/>
<stop offset="0.0949867" stop-color="#222529"/>
<stop offset="0.2464" stop-color="#263041"/>
<stop offset="0.4354" stop-color="#2D4266"/>
<stop offset="0.6545" stop-color="#365B9B"/>
<stop offset="0.8961" stop-color="#417BDD"/>
<stop offset="1" stop-color="#468AFC"/>
</linearGradient>
<linearGradient id="paint13_linear" x1="1378.59" y1="729.315" x2="1640.3" y2="713.971" gradientUnits="userSpaceOnUse">
<stop stop-color="#212121"/>
<stop offset="0.196" stop-color="#293952"/>
<stop offset="0.5771" stop-color="#3964AD"/>
<stop offset="0.8448" stop-color="#427FE6"/>
<stop offset="0.973" stop-color="#468AFC"/>
</linearGradient>
<linearGradient id="paint14_linear" x1="2475.5" y1="1162.47" x2="1327.64" y2="735.059" gradientUnits="userSpaceOnUse">
<stop stop-color="#212121"/>
<stop offset="0.0949628" stop-color="#23252A"/>
<stop offset="0.2506" stop-color="#273143"/>
<stop offset="0.4476" stop-color="#2D446B"/>
<stop offset="0.6782" stop-color="#375FA3"/>
<stop offset="0.9344" stop-color="#4381E9"/>
<stop offset="1" stop-color="#468AFC"/>
</linearGradient>
<linearGradient id="paint15_linear" x1="551.454" y1="347.215" x2="483.395" y2="293.888" gradientUnits="userSpaceOnUse">
<stop stop-color="#212121"/>
<stop offset="1" stop-color="#468AFC"/>
</linearGradient>
<linearGradient id="paint16_linear" x1="283.759" y1="360.614" x2="533.635" y2="320.101" gradientUnits="userSpaceOnUse">
<stop stop-color="#212121"/>
<stop offset="0.203" stop-color="#212224"/>
<stop offset="0.3443" stop-color="#23272D"/>
<stop offset="0.4669" stop-color="#262E3C"/>
<stop offset="0.5789" stop-color="#293952"/>
<stop offset="0.6836" stop-color="#2E466F"/>
<stop offset="0.7829" stop-color="#345791"/>
<stop offset="0.878" stop-color="#3B6BBB"/>
<stop offset="0.9675" stop-color="#4381E9"/>
<stop offset="1" stop-color="#468AFC"/>
</linearGradient>
<linearGradient id="paint17_linear" x1="1029.39" y1="1800.15" x2="602.835" y2="858.845" gradientUnits="userSpaceOnUse">
<stop stop-color="#212121"/>
<stop offset="0.203" stop-color="#212224"/>
<stop offset="0.3443" stop-color="#23272D"/>
<stop offset="0.4669" stop-color="#262E3C"/>
<stop offset="0.5789" stop-color="#293952"/>
<stop offset="0.6836" stop-color="#2E466F"/>
<stop offset="0.7829" stop-color="#345791"/>
<stop offset="0.878" stop-color="#3B6BBB"/>
<stop offset="0.9675" stop-color="#4381E9"/>
<stop offset="1" stop-color="#468AFC"/>
</linearGradient>
<linearGradient id="paint18_linear" x1="1151.6" y1="1496.11" x2="289.45" y2="557.636" gradientUnits="userSpaceOnUse">
<stop stop-color="#212121"/>
<stop offset="0.602" stop-color="#2575FC"/>
<stop offset="0.6905" stop-color="#2C79FC"/>
<stop offset="1" stop-color="#468AFC"/>
</linearGradient>
<linearGradient id="paint19_linear" x1="401.765" y1="227.688" x2="363.673" y2="190.927" gradientUnits="userSpaceOnUse">
<stop offset="1.2e-07" stop-color="#5235DD"/>
<stop offset="0.8587" stop-color="#5235DD"/>
<stop offset="1" stop-color="#5235DD"/>
</linearGradient>
<linearGradient id="paint20_linear" x1="-707.609" y1="-673.872" x2="654.923" y2="434.667" gradientUnits="userSpaceOnUse">
<stop stop-color="#212121"/>
<stop offset="0.0126186" stop-color="#222325"/>
<stop offset="0.2886" stop-color="#2E4770"/>
<stop offset="0.5349" stop-color="#3964AC"/>
<stop offset="0.7429" stop-color="#4079D8"/>
<stop offset="0.9045" stop-color="#4485F2"/>
<stop offset="1" stop-color="#468AFC"/>
</linearGradient>
<linearGradient id="paint21_linear" x1="1167.97" y1="1309.69" x2="472.978" y2="482.829" gradientUnits="userSpaceOnUse">
<stop stop-color="#212121"/>
<stop offset="0.4372" stop-color="#314E7E"/>
<stop offset="1" stop-color="#468AFC"/>
</linearGradient>
<linearGradient id="paint22_linear" x1="1071.47" y1="912.206" x2="730.841" y2="552.37" gradientUnits="userSpaceOnUse">
<stop stop-color="#212121"/>
<stop offset="1" stop-color="#468AFC"/>
</linearGradient>
<linearGradient id="paint23_linear" x1="828.505" y1="570.831" x2="748.908" y2="471.479" gradientUnits="userSpaceOnUse">
<stop stop-color="#212121"/>
<stop offset="1" stop-color="#468AFC"/>
</linearGradient>
<linearGradient id="paint24_linear" x1="1407.48" y1="1108.95" x2="468.778" y2="494.93" gradientUnits="userSpaceOnUse">
<stop stop-color="#212121"/>
<stop offset="0.0949628" stop-color="#23252A"/>
<stop offset="0.2506" stop-color="#273143"/>
<stop offset="0.4476" stop-color="#2D446B"/>
<stop offset="0.6782" stop-color="#375FA3"/>
<stop offset="0.9344" stop-color="#4381E9"/>
<stop offset="1" stop-color="#468AFC"/>
</linearGradient>
<linearGradient id="paint25_linear" x1="538.154" y1="473.118" x2="523.761" y2="329.075" gradientUnits="userSpaceOnUse">
<stop stop-color="#212121"/>
<stop offset="0.0949867" stop-color="#222529"/>
<stop offset="0.2464" stop-color="#263041"/>
<stop offset="0.4354" stop-color="#2D4266"/>
<stop offset="0.6545" stop-color="#365B9B"/>
<stop offset="0.8961" stop-color="#417BDD"/>
<stop offset="1" stop-color="#468AFC"/>
</linearGradient>
<linearGradient id="paint26_linear" x1="672.896" y1="1390.78" x2="708.413" y2="1723.5" gradientUnits="userSpaceOnUse">
<stop stop-color="#212121"/>
<stop offset="0.1993" stop-color="#293852"/>
<stop offset="0.5921" stop-color="#3964AD"/>
<stop offset="0.8679" stop-color="#427FE6"/>
<stop offset="1" stop-color="#468AFC"/>
</linearGradient>
<linearGradient id="paint27_linear" x1="701.245" y1="1414.41" x2="508.179" y2="1080.06" gradientUnits="userSpaceOnUse">
<stop stop-color="#212121"/>
<stop offset="0.1993" stop-color="#293852"/>
<stop offset="0.5921" stop-color="#3964AD"/>
<stop offset="0.8679" stop-color="#427FE6"/>
<stop offset="1" stop-color="#468AFC"/>
</linearGradient>
<linearGradient id="paint28_linear" x1="890.742" y1="1431.5" x2="599.264" y2="1415.52" gradientUnits="userSpaceOnUse">
<stop stop-color="#212121"/>
<stop offset="0.1993" stop-color="#293852"/>
<stop offset="0.5921" stop-color="#3964AD"/>
<stop offset="0.8679" stop-color="#427FE6"/>
<stop offset="1" stop-color="#468AFC"/>
</linearGradient>
<linearGradient id="paint29_linear" x1="848.35" y1="1488.35" x2="1048.08" y2="1285.59" gradientUnits="userSpaceOnUse">
<stop stop-color="#212121"/>
<stop offset="1" stop-color="#468AFC"/>
</linearGradient>
<linearGradient id="paint30_linear" x1="787.679" y1="1221.14" x2="1012.34" y2="1209.28" gradientUnits="userSpaceOnUse">
<stop stop-color="#212121"/>
<stop offset="1" stop-color="#468AFC"/>
</linearGradient>
<linearGradient id="paint31_linear" x1="717.426" y1="1503.29" x2="1285.19" y2="1115.4" gradientUnits="userSpaceOnUse">
<stop stop-color="#212121"/>
<stop offset="0.1993" stop-color="#293852"/>
<stop offset="0.5921" stop-color="#3964AD"/>
<stop offset="0.8679" stop-color="#427FE6"/>
<stop offset="1" stop-color="#468AFC"/>
</linearGradient>
<linearGradient id="paint32_linear" x1="538.809" y1="1371.95" x2="962.337" y2="1135.12" gradientUnits="userSpaceOnUse">
<stop stop-color="#212121"/>
<stop offset="0.196" stop-color="#293952"/>
<stop offset="0.5771" stop-color="#3964AD"/>
<stop offset="0.8448" stop-color="#427FE6"/>
<stop offset="0.973" stop-color="#468AFC"/>
</linearGradient>
<linearGradient id="paint33_linear" x1="898.299" y1="1031.32" x2="1048.62" y2="1063.86" gradientUnits="userSpaceOnUse">
<stop stop-color="#212121"/>
<stop offset="1" stop-color="#468AFC"/>
</linearGradient>
<linearGradient id="paint34_linear" x1="990.608" y1="997.288" x2="1105.03" y2="1012.33" gradientUnits="userSpaceOnUse">
<stop stop-color="#212121"/>
<stop offset="1" stop-color="#468AFC"/>
</linearGradient>
<linearGradient id="paint35_linear" x1="974.498" y1="1158.44" x2="1208.15" y2="1186.54" gradientUnits="userSpaceOnUse">
<stop stop-color="#212121"/>
<stop offset="0.196" stop-color="#293952"/>
<stop offset="0.5771" stop-color="#3964AD"/>
<stop offset="0.8448" stop-color="#427FE6"/>
<stop offset="0.973" stop-color="#468AFC"/>
</linearGradient>
<linearGradient id="paint36_linear" x1="633.972" y1="1507.07" x2="714.693" y2="1779.17" gradientUnits="userSpaceOnUse">
<stop stop-color="#212121"/>
<stop offset="0.203" stop-color="#212224"/>
<stop offset="0.3443" stop-color="#23272D"/>
<stop offset="0.4669" stop-color="#262E3C"/>
<stop offset="0.5789" stop-color="#293952"/>
<stop offset="0.6836" stop-color="#2E466F"/>
<stop offset="0.7829" stop-color="#345791"/>
<stop offset="0.878" stop-color="#3B6BBB"/>
<stop offset="0.9675" stop-color="#4381E9"/>
<stop offset="1" stop-color="#468AFC"/>
</linearGradient>
<linearGradient id="paint37_linear" x1="853.248" y1="1577.9" x2="1108.87" y2="1701.26" gradientUnits="userSpaceOnUse">
<stop stop-color="#212121"/>
<stop offset="0.203" stop-color="#212224"/>
<stop offset="0.3443" stop-color="#23272D"/>
<stop offset="0.4669" stop-color="#262E3C"/>
<stop offset="0.5789" stop-color="#293952"/>
<stop offset="0.6836" stop-color="#2E466F"/>
<stop offset="0.7829" stop-color="#345791"/>
<stop offset="0.878" stop-color="#3B6BBB"/>
<stop offset="0.9675" stop-color="#4381E9"/>
<stop offset="1" stop-color="#468AFC"/>
</linearGradient>
<linearGradient id="paint38_linear" x1="902.016" y1="1254.6" x2="1338.27" y2="1254.6" gradientUnits="userSpaceOnUse">
<stop stop-color="#212121"/>
<stop offset="0.1993" stop-color="#293852"/>
<stop offset="0.5921" stop-color="#3964AD"/>
<stop offset="0.8679" stop-color="#427FE6"/>
<stop offset="1" stop-color="#468AFC"/>
</linearGradient>
<linearGradient id="paint39_linear" x1="1234.96" y1="1719.56" x2="1061.36" y2="1066.98" gradientUnits="userSpaceOnUse">
<stop stop-color="#212121"/>
<stop offset="0.1993" stop-color="#293852"/>
<stop offset="0.5921" stop-color="#3964AD"/>
<stop offset="0.8679" stop-color="#427FE6"/>
<stop offset="1" stop-color="#468AFC"/>
</linearGradient>
<linearGradient id="paint40_linear" x1="697.439" y1="1388.66" x2="1013.69" y2="1116.26" gradientUnits="userSpaceOnUse">
<stop stop-color="#212121"/>
<stop offset="0.196" stop-color="#293952"/>
<stop offset="0.5771" stop-color="#3964AD"/>
<stop offset="0.8448" stop-color="#427FE6"/>
<stop offset="0.973" stop-color="#468AFC"/>
</linearGradient>
</defs>
</svg>
