<svg width="2068" height="1500" viewBox="0 0 2068 1500" fill="none" xmlns="http://www.w3.org/2000/svg">
<g clip-path="url(#clip0)">
<path opacity="0.19" d="M868.5 1093.4C568.885 1093.4 326 850.739 326 551.4C326 252.062 568.885 9.40039 868.5 9.40039C1168.11 9.40039 1411 252.062 1411 551.4C1411 850.739 1168.11 1093.4 868.5 1093.4Z" fill="url(#paint0_radial)"/>
<path opacity="0.84" d="M386.6 326.6L393.8 325.7L389.2 320.2L388.3 313L382.8 317.6L375.6 318.5L380.2 324L381.1 331.2L386.6 326.6ZM142.8 155.7L138.7 148.1L131.1 143.9L138.7 139.8L142.9 132.3L147 139.9L154.6 144.1L147 148.2L142.8 155.7ZM396.8 746.2L388.2 744.8L380.2 748.3L381.6 739.7L378.1 731.7L386.7 733.1L394.7 729.6L393.3 738.2L396.8 746.2ZM143.7 541.5L142.2 535.1L137.4 530.5L143.8 529L148.4 524.2L149.9 530.6L154.7 535.2L148.3 536.7L143.7 541.5ZM665.3 157.5L659.8 154.1L653.3 154.2L656.7 148.7L656.6 142.2L662.1 145.6L668.6 145.5L665.2 151L665.3 157.5ZM68.1005 296.5L72.6005 289.1L72.4003 280.5L79.8004 284.9L88.4003 284.7L83.9003 292.1L84.1005 300.7L76.7003 296.3L68.1005 296.5ZM1437.9 141.1L1434.7 132.9L1427.6 127.7L1435.8 124.5L1441 117.4L1444.2 125.6L1451.3 130.8L1443.1 134L1437.9 141.1ZM1432.6 511.1L1428.6 505.5L1422.2 502.9L1427.8 498.9L1430.4 492.5L1434.4 498.1L1440.8 500.7L1435.2 504.7L1432.6 511.1ZM1195.6 365.4L1192.3 361.3L1187.3 359.7L1191.4 356.4L1193.1 351.4L1196.4 355.5L1201.4 357.1L1197.3 360.4L1195.6 365.4ZM1136.9 104.1L1135.4 94.6998L1129.1 87.5998L1138.5 86.0998L1145.6 79.7998L1147.1 89.1998L1153.4 96.2998L1144 97.7998L1136.9 104.1ZM779.8 628.5L778.2 622.2L773.5 617.8L779.8 616.2L784.2 611.5L785.8 617.8L790.5 622.2L784.2 623.8L779.8 628.5ZM1245.1 205L1249.2 199.6L1249.8 192.8L1255.2 196.9L1262 197.5L1257.9 202.9L1257.3 209.7L1251.9 205.6L1245.1 205ZM1274.1 620.8L1267.2 621.6L1261.9 626L1261.1 619.1L1256.7 613.8L1263.6 613L1268.9 608.6L1269.7 615.5L1274.1 620.8ZM1051.6 443.6L1046.3 436.2L1037.8 432.8L1045.2 427.5L1048.6 419L1053.9 426.4L1062.4 429.8L1055 435.1L1051.6 443.6ZM729 351.2L725.1 345.3L718.6 342.4L724.5 338.5L727.4 332L731.3 337.9L737.8 340.8L731.9 344.7L729 351.2ZM482.6 175.2L476.1 171.4L468.5 171.7L472.3 165.2L472 157.6L478.5 161.4L486.1 161.1L482.2 167.6L482.6 175.2ZM709.6 769.6L706.5 762.7L700.1 758.5L707.1 755.4L711.3 749L714.4 755.9L720.8 760.1L713.8 763.2L709.6 769.6ZM492.5 592.6L487.3 584.7L478.7 580.9L486.6 575.7L490.5 567.1L495.7 575L504.3 578.8L496.4 584L492.5 592.6ZM460.6 250.1L460.1 246.2L457.6 243.2L461.5 242.7L464.5 240.2L465 244.1L467.5 247.1L463.6 247.6L460.6 250.1ZM469.2 477.6L464.5 476.8L460.1 478.7L460.9 474L459 469.6L463.7 470.4L468.1 468.5L467.3 473.2L469.2 477.6ZM335.3 213.9L332.3 212H328.7L330.6 209V205.4L333.6 207.3H337.2L335.3 210.3V213.9ZM1039.7 146L1038 141.5L1034.1 138.7L1038.6 137L1041.4 133.1L1043.1 137.6L1047 140.4L1042.5 142.1L1039.7 146ZM1036.8 348.8L1034.6 345.7L1031.1 344.3L1034.2 342.1L1035.6 338.6L1037.8 341.7L1041.3 343.1L1038.2 345.3L1036.8 348.8ZM910.8 447.4L909 445.2L906.2 444.3L908.4 442.5L909.3 439.7L911.1 441.9L913.9 442.8L911.7 444.6L910.8 447.4ZM874.8 125.7L874 120.6L870.5 116.7L875.7 115.9L879.6 112.4L880.4 117.5L883.9 121.4L878.7 122.2L874.8 125.7ZM811.2 515.6L807.7 515.3L804.6 516.9L804.9 513.5L803.3 510.4L806.8 510.7L809.9 509.1L809.6 512.5L811.2 515.6ZM679.1 413.1L678.2 409.6L675.6 407.2L679.1 406.3L681.5 403.7L682.4 407.2L685 409.6L681.5 410.5L679.1 413.1ZM799.5 725.6L797.8 721.7L794.3 719.3L798.2 717.6L800.6 714.1L802.3 718L805.8 720.4L801.9 722.1L799.5 725.6ZM672.7 638.2L673.2 634.2L671.4 630.6L675.4 631.1L679 629.3L678.5 633.3L680.3 636.9L676.3 636.4L672.7 638.2ZM1411.2 367.5L1413.5 364.5L1413.8 360.8L1416.8 363.1L1420.5 363.4L1418.2 366.4L1417.9 370.1L1414.9 367.8L1411.2 367.5ZM1040.6 630.4L1036.8 630.9L1033.9 633.3L1033.4 629.5L1031 626.6L1034.8 626.1L1037.7 623.7L1038.2 627.5L1040.6 630.4ZM828 311.7L825.1 307.6L820.4 305.7L824.5 302.8L826.4 298.1L829.3 302.2L834 304.1L829.9 307L828 311.7ZM651.2 261.1L649.1 257.8L645.5 256.2L648.8 254.1L650.4 250.5L652.5 253.8L656.1 255.4L652.8 257.5L651.2 261.1ZM516.2 164.7L512.6 162.6L508.5 162.8L510.6 159.2L510.4 155.1L514 157.2L518.1 157L516 160.6L516.2 164.7ZM640.6 490.4L638.9 486.6L635.4 484.3L639.2 482.6L641.5 479.1L643.2 482.9L646.7 485.2L642.9 486.9L640.6 490.4ZM224.9 410.7L222 406.4L217.3 404.3L221.6 401.5L223.7 396.8L226.6 401.1L231.3 403.2L227 406L224.9 410.7ZM1861.8 290.8L1869 289.9L1864.4 284.4L1863.5 277.2L1858 281.8L1850.8 282.7L1855.4 288.2L1856.3 295.4L1861.8 290.8ZM1618.1 119.9L1614 112.3L1606.4 108.1L1614 104L1618.2 96.4998L1622.3 104.1L1629.9 108.3L1622.3 112.4L1618.1 119.9ZM1872 710.4L1863.4 709L1855.4 712.5L1856.8 703.9L1853.3 695.9L1861.9 697.3L1869.9 693.8L1868.5 702.4L1872 710.4ZM1619 505.7L1617.5 499.3L1612.7 494.7L1619.1 493.2L1623.7 488.4L1625.2 494.8L1630 499.4L1623.6 500.9L1619 505.7ZM1543.4 260.7L1547.9 253.3L1547.7 244.7L1555.1 249.1L1563.7 248.9L1559.2 256.3L1559.4 264.9L1552 260.5L1543.4 260.7ZM1957.9 139.4L1951.4 135.6L1943.8 135.9L1947.6 129.4L1947.3 121.8L1953.8 125.6L1961.4 125.3L1957.5 131.8L1957.9 139.4ZM1967.8 556.9L1962.6 549L1954 545.2L1961.9 540L1965.8 531.4L1971 539.3L1979.6 543.1L1971.7 548.3L1967.8 556.9ZM1935.8 214.4L1935.3 210.5L1932.8 207.5L1936.7 207L1939.7 204.5L1940.2 208.4L1942.7 211.4L1938.8 211.9L1935.8 214.4ZM1944.4 441.8L1939.7 441L1935.3 442.9L1936.1 438.2L1934.2 433.8L1938.9 434.6L1943.3 432.7L1942.5 437.4L1944.4 441.8ZM1810.6 178.1L1807.6 176.2H1804L1805.9 173.2V169.6L1808.9 171.5H1812.5L1810.6 174.5V178.1ZM1991.5 128.9L1987.9 126.8L1983.8 127L1985.9 123.4L1985.7 119.3L1989.3 121.4L1993.4 121.2L1991.3 124.8L1991.5 128.9ZM1700.1 374.9L1697.2 370.6L1692.5 368.5L1696.8 365.7L1698.9 361L1701.8 365.3L1706.5 367.4L1702.2 370.2L1700.1 374.9Z" fill="url(#paint1_linear)"/>
<path d="M855.9 598.4C855.9 598.4 839.7 565.3 833.1 557.7C826.5 550.1 810.7 505.4 796.9 503.3C783.1 501.2 796.3 520.7 796.3 520.7C796.3 520.7 829.2 612.3 855.9 598.4Z" fill="#5235DD"/>
<path d="M856.9 601.4C856.9 601.4 840.7 568.3 834.1 560.7C827.5 553 811.7 508.4 797.9 506.3C784.1 504.2 797.3 523.7 797.3 523.7C797.3 523.7 830.2 615.3 856.9 601.4Z" fill="url(#paint2_linear)"/>
<path d="M837.5 613.9C837.5 613.9 794.7 571.8 805.3 552.9C816.7 532.5 818 510.3 825.3 510.1C832.1 509.9 833.2 538 827.5 559.8C823.7 574.4 855 597 847.8 602.9C840.6 608.8 837.5 613.9 837.5 613.9Z" fill="#5235DD"/>
<path d="M834.5 613.9C834.5 613.9 791.7 571.8 802.3 552.9C813.7 532.5 815 510.3 822.3 510.1C829.1 509.9 830.2 538 824.5 559.8C820.7 574.4 852 597 844.8 602.9C837.6 608.8 834.5 613.9 834.5 613.9Z" fill="url(#paint3_linear)"/>
<path d="M769.1 560.3C773.4 560.9 777.8 565.6 782.1 572C776.3 559 772.6 548.9 772.6 548.9C772.6 548.9 759.4 529.4 773.2 531.5C787 533.6 802.8 578.2 809.4 585.9C810 586.6 810.8 587.6 811.6 588.8C826.4 576.1 839.6 568.6 839.6 568.6C854.2 571.2 864.1 576.1 864.1 576.1C864.1 576.1 881.5 561 888.3 595.9C899.1 651.4 934.3 696.6 934.3 696.6L878.5 727.2C878.5 727.2 855.9 678.9 843.6 664.8C830.2 649.5 812.8 644 802.9 636.6C798.1 633 789.5 621.2 788.5 615C776.4 596.7 768.2 577.6 768.2 577.6C768.2 577.6 755.2 558.3 769.1 560.3Z" fill="url(#paint4_linear)"/>
<path d="M862.5 623.9C849.9 622.7 838.6 607.3 853 585.8C867.4 564.3 857.4 557.3 851.3 549.2C845.2 541.1 841.3 525.2 849.8 522.3C858.2 519.4 863.4 532 873.4 539C890.3 550.8 887 570.5 887 570.5C887 570.5 897 627.3 862.5 623.9Z" fill="#5235DD"/>
<path d="M862.8 625.8C850.3 624.2 839.5 608.4 854.6 587.4C869.7 566.4 859.9 559 854.1 550.8C848.2 542.5 844.9 526.5 853.5 523.8C862 521.2 866.7 533.9 876.5 541.2C893 553.6 889.1 573.2 889.1 573.2C889.1 573.2 897.2 630.3 862.8 625.8Z" fill="url(#paint5_linear)"/>
<path d="M1537.5 1182L1426.5 1252.5C1397.8 1270.7 1391 1302.3 1433.9 1339.3L1588.6 1498.5H1469.1C1463.7 1493.3 1458.9 1488.9 1456.3 1486.7C1456.3 1486.7 1346 1389.2 1312.7 1351.3C1267.4 1299.7 1262 1271.6 1292.1 1235.3L1431.3 1079.4C1449 1058 1457.9 1070.9 1478.9 1089.1L1515.2 1120.6C1540.5 1142.3 1565.5 1164.2 1537.5 1182Z" fill="url(#paint6_linear)"/>
<path d="M1660.5 1498.5L1606.7 1360.1L1538.1 1169C1527.6 1158.4 1518.1 1146.9 1509.8 1134.5C1480.3 1090.5 1465.5 1036.3 1471.7 979.6V979.5C1472.8 969.1 1474.7 958.9 1477.1 949C1478.7 949.1 1480.4 949.3 1482 949.5C1540.6 955.9 1591.7 983.5 1628.5 1023.8C1636 1032 1642.9 1040.8 1649.2 1050L1687.1 1214L1692.5 1237.3L1752.8 1498.5H1660.5Z" fill="url(#paint7_linear)"/>
<path d="M827.3 662C848.6 727.4 877.9 755.6 917.5 810.2C931.9 830 947.3 849 963.8 867.1C998.8 863 1032.9 856.2 1066 846.8C1102.7 836.4 1138.1 822.9 1171.9 806.6C1229.3 778.9 1282 743.1 1328.5 700.7C1339 691.1 1349.2 681.2 1359.1 671C1352.7 670.1 1346.2 669.4 1339.6 668.8C1326.7 667.7 1313.7 667.1 1300.6 667.1C1299.5 667.1 1298.3 667.1 1297.2 667.1C1296.9 666.7 1296.6 666.4 1296.3 666C1190.4 671.3 1091.2 701.6 1004.3 751.1C963.3 698.1 943.2 678.5 906.3 626.1C895.1 631.6 838.8 656.9 827.3 662Z" fill="url(#paint8_linear)"/>
<path d="M1094.3 718.9C1097.1 742.3 1101.7 765 1108.1 787.1C1130 792 1151.3 798.5 1171.8 806.5C1296.6 855.4 1393.3 960.3 1430.7 1090.3C1432.9 1090.8 1435 1091.2 1437.2 1091.7C1441.6 1092.6 1445.9 1093.4 1450.3 1094.2C1474.7 1098.5 1499.8 1100.7 1525.4 1100.7C1559.1 1100.7 1591.9 1096.9 1623.4 1089.6C1624.7 1089.3 1626 1089 1627.3 1088.7C1655.5 1081.9 1682.6 1072.4 1708.4 1060.4C1687.4 1050.7 1667.4 1039.3 1648.4 1026.4C1632.9 1015.9 1618.2 1004.5 1604.2 992.2C1595.7 984.7 1587.5 976.9 1579.6 968.8C1542 930.1 1511.6 884.3 1490.5 833.7C1488.6 829.2 1486.8 824.7 1485.1 820.2C1470.4 781.3 1461.1 739.8 1458.2 696.5C1437 688.2 1415 681.6 1392.4 676.7C1392.4 676.7 1392.4 676.7 1392.3 676.7C1381.4 674.3 1370.3 672.4 1359 670.9C1352.6 670 1346.1 669.3 1339.5 668.7C1326.6 667.6 1313.6 667 1300.5 667C1299.4 667 1298.2 667 1297.1 667C1247.4 667.4 1199.8 676.1 1155.4 691.8C1134.3 699.2 1113.9 708.3 1094.3 718.9Z" fill="url(#paint9_linear)"/>
<path d="M1173.5 593.3C1169.2 610.7 1161.5 626.5 1151.1 640C1158.9 642.4 1166.3 645.6 1173.3 649.4C1201 664.4 1222 689.3 1232.4 718.6C1258.9 710.9 1282.2 694.7 1298.7 672.7C1296.2 662 1295.1 650.8 1295.6 639.3C1286.8 633.9 1280 625.8 1276.1 616.3C1277.7 614 1278.8 611.3 1279.3 608.4C1280.4 601.6 1277.8 595 1273 590.7C1270.3 588.3 1267 586.7 1263.3 586.1C1263 586 1262.7 586 1262.4 586C1263.5 583 1264.4 579.9 1264.9 576.7C1269.3 550.2 1251.3 525.2 1224.8 520.9C1224.6 520.9 1224.5 520.8 1224.3 520.8C1224.1 521.1 1223.9 521.4 1223.7 521.6C1214 534.3 1202.9 545.7 1190.6 555.7C1186.3 559.2 1181.9 562.5 1177.4 565.6C1174.5 567.6 1171.5 569.6 1168.4 571.5C1163.9 574.3 1159.3 576.8 1154.6 579.2C1160.4 584.2 1166.8 588.9 1173.5 593.3Z" fill="url(#paint10_linear)"/>
<path d="M1223.2 510.7C1222.6 514 1222.7 517.4 1223.2 520.5C1223.3 520.5 1223.4 520.5 1223.6 520.6C1224 520.3 1224.3 520.1 1224.7 519.8C1224.5 520.1 1224.3 520.4 1224.1 520.7C1224.3 520.7 1224.4 520.7 1224.6 520.8C1251.1 525.2 1269 550.2 1264.7 576.6C1264.2 579.8 1263.3 583 1262.2 585.9C1262.5 585.9 1262.8 586 1263.1 586C1266.9 586.6 1270.2 588.3 1272.8 590.6C1277.6 594.9 1280.2 601.5 1279.1 608.3C1278.6 611.2 1277.5 613.9 1275.9 616.2C1279.8 625.7 1286.6 633.7 1295.4 639.2C1295.5 636.3 1295.7 633.3 1296 630.4C1296.2 629 1296.3 627.6 1296.5 626.2C1299.6 604.6 1308 585 1320.2 568.6C1323.6 564.1 1327.3 559.8 1331.2 555.8C1325.6 554 1320.2 551.9 1314.8 549.7C1314.5 549.6 1314.3 549.5 1314 549.4C1301.1 543.9 1289 537.1 1277.7 529.2C1267.8 522.3 1258.7 514.6 1250.2 506.1C1246.8 502.7 1243.5 499.1 1240.3 495.4C1239 493.9 1237.7 492.3 1236.4 490.8C1229.7 495 1224.6 502.1 1223.2 510.7Z" fill="url(#paint11_linear)"/>
<path d="M1196.8 568.1C1196.5 570 1196.5 571.8 1196.7 573.6C1202.6 576.6 1208.9 578.9 1215.6 580.4C1209.1 575.2 1203.5 569 1198.9 562.1C1197.8 563.9 1197.1 565.9 1196.8 568.1Z" fill="url(#paint12_linear)"/>
<path d="M1196.8 568.1C1196.5 570 1196.5 571.8 1196.7 573.6C1202.6 576.6 1208.9 578.9 1215.6 580.4C1209.1 575.2 1203.5 569 1198.9 562.1C1197.8 563.9 1197.1 565.9 1196.8 568.1Z" fill="#232323"/>
<path d="M852.5 452.4L834.5 372.9L822.1 450.4L789.8 468L828.1 484.7L838.2 565L853.5 485.7L889.8 468L852.5 452.4Z" fill="#5235DD"/>
<path d="M1454.1 1003.4V1063.6H1832.2V1003.4H1853.4V1500H1832.2V1439.8H1454.1V1500H1432.9V1003.4H1454.1ZM1454.1 1089.5V1238.7H1832.2V1089.5H1454.1ZM1832.1 1413.9V1264.7H1454V1413.9H1832.1Z" fill="url(#paint13_linear)"/>
<path d="M1144 255L1140 241.7L1131.8 251.3L1119.4 254.3L1129.5 263.9L1133.5 277.2L1141.7 267.5L1154.1 264.6L1144 255Z" fill="#5235DD"/>
<path d="M1834.6 1118.3C1828 1121.4 1816.4 1097 1808.2 1079.4C1804.4 1071.1 1795.7 1067.2 1795 1060.6C1793.6 1059.3 1796.1 1062.3 1795 1060.6C1787.7 1049.2 1793.5 1025.5 1804.9 1018.1C1816.3 1010.8 1831.4 1014 1838.8 1025.4C1846.1 1036.8 1842.9 1051.9 1831.5 1059.2C1829.9 1060.2 1829.3 1062.2 1830.1 1063.9C1830.8 1065.3 1831.5 1066.7 1832.2 1068.2C1840.4 1085.9 1841.2 1115.2 1834.6 1118.3Z" fill="url(#paint14_linear)"/>
<path d="M1770.4 1011.3L1824.1 1070.1C1827.2 1073.5 1845.5 1084.6 1861.3 1092.3C1878.6 1100.6 1879.1 1077.2 1879.1 1077.2C1879.1 1077.2 1878 1069.3 1886 1054.4C1886 1054.4 1893.9 1027 1891.1 1024.2C1882.8 1015.9 1899.5 1001.5 1869 1007.5L1812.2 989.5L1770.4 1011.3Z" fill="url(#paint15_linear)"/>
<path d="M1443.6 691.9C1447.5 737.6 1459.6 780.9 1478.3 820.5C1600.7 849.6 1704 928.2 1765.6 1034C1767.2 1036.7 1768.7 1039.4 1770.2 1042.1C1774.7 1040.2 1779.2 1038.2 1783.6 1036.2C1807.7 1025.2 1821.5 1006.3 1844.8 986C1749.1 841.9 1612.8 743.7 1443.6 691.9Z" fill="url(#paint16_linear)"/>
<path d="M1778.9 111.4L1777.5 106.1L1773.9 110.2L1768.6 111.6L1772.7 115.2L1774.1 120.5L1777.7 116.5L1783 115L1778.9 111.4Z" fill="#5235DD"/>
<path d="M1766.2 480.9L1763.3 472.8L1759.5 478L1753.1 479.1L1759 485.4L1762 493.5L1765.8 488.2L1772.2 487.2L1766.2 480.9Z" fill="#5235DD"/>
<path opacity="0.76" d="M346 104.7L341.7 89.5L331.5 101L316.7 104.8L328.3 115.6L332.7 130.9L342.8 119.4L357.7 115.5L346 104.7Z" fill="#5235DD"/>
<path d="M1245 736.6L1238 716.7C1264.5 717.2 1298.6 672.6 1298.6 672.6C1287.5 732.3 1245 736.6 1245 736.6Z" fill="#232323"/>
<path d="M1238.1 740.7C1238.1 740.7 1284.4 869.8 1400.2 895.9C1443.2 905.6 1438.1 954.7 1438.1 954.7C1438.1 954.7 1388.9 932 1373.4 926.4C1315.8 905.7 1234.9 833 1238.1 740.7Z" fill="#232323"/>
<path d="M1232.3 718.5V736.6C1232.3 736.6 1212.7 692.9 1215.5 691.7C1218.3 690.6 1232.3 718.5 1232.3 718.5Z" fill="#232323"/>
</g>
<defs>
<radialGradient id="paint0_radial" cx="0" cy="0" r="1" gradientUnits="userSpaceOnUse" gradientTransform="translate(868.503 551.44) rotate(180) scale(542.543 542)">
<stop stop-color="#5235DD"/>
<stop offset="1" stop-color="#212121"/>
</radialGradient>
<linearGradient id="paint1_linear" x1="3115.4" y1="861.396" x2="-294.466" y2="-176.179" gradientUnits="userSpaceOnUse">
<stop stop-color="#212121"/>
<stop offset="1" stop-color="#5235DD"/>
</linearGradient>
<linearGradient id="paint2_linear" x1="876.351" y1="554.436" x2="771.373" y2="554.436" gradientUnits="userSpaceOnUse">
<stop stop-color="#212121"/>
<stop offset="1" stop-color="#2575FC"/>
</linearGradient>
<linearGradient id="paint3_linear" x1="638.234" y1="767.288" x2="846.731" y2="541.425" gradientUnits="userSpaceOnUse">
<stop stop-color="#212121"/>
<stop offset="0.203" stop-color="#212224"/>
<stop offset="0.3443" stop-color="#21262D"/>
<stop offset="0.4669" stop-color="#212C3C"/>
<stop offset="0.5789" stop-color="#223452"/>
<stop offset="0.6836" stop-color="#223F6F"/>
<stop offset="0.7829" stop-color="#234C91"/>
<stop offset="0.878" stop-color="#245CBB"/>
<stop offset="0.9675" stop-color="#256EE9"/>
<stop offset="1" stop-color="#2575FC"/>
</linearGradient>
<linearGradient id="paint4_linear" x1="964.643" y1="712.445" x2="730.485" y2="545.308" gradientUnits="userSpaceOnUse">
<stop stop-color="#212121"/>
<stop offset="1" stop-color="#2575FC"/>
</linearGradient>
<linearGradient id="paint5_linear" x1="958.686" y1="678.955" x2="833.531" y2="548.372" gradientUnits="userSpaceOnUse">
<stop stop-color="#212121"/>
<stop offset="0.0949867" stop-color="#212429"/>
<stop offset="0.2464" stop-color="#222D41"/>
<stop offset="0.4354" stop-color="#223C66"/>
<stop offset="0.6545" stop-color="#23509B"/>
<stop offset="0.8961" stop-color="#2469DD"/>
<stop offset="1" stop-color="#2575FC"/>
</linearGradient>
<linearGradient id="paint6_linear" x1="1614.12" y1="1346.35" x2="1085.73" y2="1130.12" gradientUnits="userSpaceOnUse">
<stop stop-color="#212121"/>
<stop offset="0.7831" stop-color="#2575FC"/>
</linearGradient>
<linearGradient id="paint7_linear" x1="1731.89" y1="1473.96" x2="1395.75" y2="646.223" gradientUnits="userSpaceOnUse">
<stop stop-color="#212121"/>
<stop offset="1" stop-color="#2575FC"/>
</linearGradient>
<linearGradient id="paint8_linear" x1="1710.41" y1="1397.24" x2="1113.87" y2="714.627" gradientUnits="userSpaceOnUse">
<stop stop-color="#212121"/>
<stop offset="0.203" stop-color="#212224"/>
<stop offset="0.3443" stop-color="#21262D"/>
<stop offset="0.4669" stop-color="#212C3C"/>
<stop offset="0.5789" stop-color="#223452"/>
<stop offset="0.6836" stop-color="#223F6F"/>
<stop offset="0.7829" stop-color="#234C91"/>
<stop offset="0.878" stop-color="#245CBB"/>
<stop offset="0.9675" stop-color="#256EE9"/>
<stop offset="1" stop-color="#2575FC"/>
</linearGradient>
<linearGradient id="paint9_linear" x1="1793.75" y1="1514.05" x2="1248.9" y2="679.624" gradientUnits="userSpaceOnUse">
<stop stop-color="#212121"/>
<stop offset="0.203" stop-color="#212224"/>
<stop offset="0.3443" stop-color="#21262D"/>
<stop offset="0.4669" stop-color="#212C3C"/>
<stop offset="0.5789" stop-color="#223452"/>
<stop offset="0.6836" stop-color="#223F6F"/>
<stop offset="0.7829" stop-color="#234C91"/>
<stop offset="0.878" stop-color="#245CBB"/>
<stop offset="0.9675" stop-color="#256EE9"/>
<stop offset="1" stop-color="#2575FC"/>
</linearGradient>
<linearGradient id="paint10_linear" x1="1346.02" y1="703.721" x2="1205.74" y2="599.377" gradientUnits="userSpaceOnUse">
<stop stop-color="#212121"/>
<stop offset="1" stop-color="#2575FC"/>
</linearGradient>
<linearGradient id="paint11_linear" x1="1317.81" y1="601.841" x2="1211.36" y2="508.087" gradientUnits="userSpaceOnUse">
<stop stop-color="#212121"/>
<stop offset="1" stop-color="#2575FC"/>
</linearGradient>
<linearGradient id="paint12_linear" x1="1215.51" y1="571.2" x2="1196.5" y2="571.2" gradientUnits="userSpaceOnUse">
<stop stop-color="#212121"/>
<stop offset="1" stop-color="#2575FC"/>
</linearGradient>
<linearGradient id="paint13_linear" x1="2006.41" y1="1704.95" x2="1179.19" y2="672.952" gradientUnits="userSpaceOnUse">
<stop stop-color="#212121"/>
<stop offset="1" stop-color="#5235DD"/>
</linearGradient>
<linearGradient id="paint14_linear" x1="1845.31" y1="733.204" x2="1808.27" y2="1156.66" gradientUnits="userSpaceOnUse">
<stop stop-color="#212121"/>
<stop offset="0.203" stop-color="#212224"/>
<stop offset="0.3443" stop-color="#21262D"/>
<stop offset="0.4669" stop-color="#212C3C"/>
<stop offset="0.5789" stop-color="#223452"/>
<stop offset="0.6836" stop-color="#223F6F"/>
<stop offset="0.7829" stop-color="#234C91"/>
<stop offset="0.878" stop-color="#245CBB"/>
<stop offset="0.9675" stop-color="#256EE9"/>
<stop offset="1" stop-color="#2575FC"/>
</linearGradient>
<linearGradient id="paint15_linear" x1="1504.01" y1="765.069" x2="1932.43" y2="1098.92" gradientUnits="userSpaceOnUse">
<stop stop-color="#212121"/>
<stop offset="0.203" stop-color="#212224"/>
<stop offset="0.3443" stop-color="#21262D"/>
<stop offset="0.4669" stop-color="#212C3C"/>
<stop offset="0.5789" stop-color="#223452"/>
<stop offset="0.6836" stop-color="#223F6F"/>
<stop offset="0.7829" stop-color="#234C91"/>
<stop offset="0.878" stop-color="#245CBB"/>
<stop offset="0.9675" stop-color="#256EE9"/>
<stop offset="1" stop-color="#2575FC"/>
</linearGradient>
<linearGradient id="paint16_linear" x1="2575.97" y1="1497.12" x2="1011.11" y2="446.14" gradientUnits="userSpaceOnUse">
<stop stop-color="#212121"/>
<stop offset="0.1748" stop-color="#212224"/>
<stop offset="0.3139" stop-color="#21262E"/>
<stop offset="0.4408" stop-color="#222C3F"/>
<stop offset="0.5603" stop-color="#223657"/>
<stop offset="0.6748" stop-color="#234175"/>
<stop offset="0.7855" stop-color="#23509B"/>
<stop offset="0.8927" stop-color="#2461C7"/>
<stop offset="0.9953" stop-color="#2574FA"/>
<stop offset="1" stop-color="#2575FC"/>
</linearGradient>
<clipPath id="clip0">
<rect width="2068" height="1500" fill="white" transform="matrix(-1 0 0 1 2068 0)"/>
</clipPath>
</defs>
</svg>
