<svg width="3000" height="1500" viewBox="0 0 3000 1500" fill="none" xmlns="http://www.w3.org/2000/svg">
<path opacity="0.84" d="M357.2 295.7L364.4 294.8L359.8 289.3L358.9 282.1L353.4 286.7L346.2 287.6L350.8 293.1L351.7 300.3L357.2 295.7ZM113.5 124.7L109.4 117.1L101.8 112.9L109.4 108.8L113.6 101.2L117.7 108.8L125.3 113L117.7 117.1L113.5 124.7ZM367.4 715.7L358.8 714.3L350.8 717.8L352.2 709.2L348.7 701.2L357.3 702.6L365.3 699.1L363.9 707.7L367.4 715.7ZM114.4 510.9L112.9 504.5L108.1 499.9L114.5 498.4L119.1 493.6L120.6 500L125.4 504.6L119 506.1L114.4 510.9ZM636 126.5L630.5 123.1L624 123.2L627.4 117.7L627.3 111.2L632.8 114.6L639.3 114.5L635.9 120L636 126.5ZM38.8 265.6L43.3 258.2L43.1001 249.6L50.5 254.1L59.1001 253.9L54.6001 261.3L54.8 269.9L47.3999 265.4L38.8 265.6ZM1408.5 110L1405.3 101.8L1398.2 96.6L1406.4 93.4L1411.6 86.3L1414.8 94.5L1421.9 99.7L1413.7 102.9L1408.5 110ZM1403.2 480.5L1399.2 474.9L1392.8 472.3L1398.4 468.3L1401 461.9L1405 467.5L1411.4 470.1L1405.8 474.1L1403.2 480.5ZM1166.3 334.6L1163 330.5L1158 328.8L1162.1 325.5L1163.8 320.5L1167.1 324.6L1172.1 326.3L1168 329.6L1166.3 334.6ZM1107.5 73L1106 63.6L1099.7 56.5L1109.1 55L1116.2 48.7L1117.7 58.1L1124 65.2L1114.6 66.7L1107.5 73ZM750.5 598L748.9 591.7L744.2 587.3L750.5 585.7L754.9 581L756.5 587.3L761.2 591.7L754.9 593.3L750.5 598ZM1215.7 174.1L1219.8 168.7L1220.4 161.9L1225.8 166L1232.6 166.6L1228.5 172L1227.9 178.8L1222.5 174.7L1215.7 174.1ZM1244.7 590.2L1237.8 591L1232.5 595.4L1231.7 588.5L1227.3 583.2L1234.2 582.4L1239.5 578L1240.3 584.9L1244.7 590.2ZM1022.2 412.9L1016.9 405.5L1008.4 402.1L1015.8 396.8L1019.2 388.3L1024.5 395.7L1033 399.1L1025.6 404.4L1022.2 412.9ZM699.6 320.4L695.7 314.5L689.2 311.6L695.1 307.7L698 301.2L701.9 307.1L708.4 310L702.5 313.9L699.6 320.4ZM453.3 144.2L446.8 140.4L439.2 140.7L443 134.2L442.7 126.6L449.2 130.4L456.8 130.1L452.9 136.6L453.3 144.2ZM680.2 739.2L677.1 732.2L670.7 728L677.7 724.9L681.9 718.5L685 725.5L691.4 729.7L684.4 732.8L680.2 739.2ZM463.2 562.1L458 554.2L449.4 550.3L457.3 545.1L461.2 536.5L466.4 544.4L475 548.2L467.1 553.4L463.2 562.1ZM431.2 219.2L430.7 215.3L428.2 212.3L432.1 211.8L435.1 209.3L435.6 213.2L438.1 216.2L434.2 216.7L431.2 219.2ZM439.8 446.9L435.1 446.1L430.7 448L431.5 443.3L429.6 438.9L434.3 439.7L438.7 437.8L437.9 442.5L439.8 446.9ZM306 183L303 181.1H299.4L301.3 178.1V174.5L304.3 176.4H307.9L306 179.4V183ZM1010.3 114.9L1008.6 110.4L1004.7 107.6L1009.2 105.9L1012 102L1013.7 106.5L1017.6 109.3L1013.1 111L1010.3 114.9ZM1007.5 317.9L1005.3 314.8L1001.8 313.4L1004.9 311.2L1006.3 307.7L1008.5 310.8L1012 312.2L1008.9 314.4L1007.5 317.9ZM881.5 416.7L879.7 414.5L876.9 413.6L879.1 411.8L880 409L881.8 411.2L884.6 412.1L882.4 413.9L881.5 416.7ZM845.4 94.6L844.6 89.4L841.1 85.5L846.3 84.7L850.2 81.2L851 86.4L854.5 90.3L849.3 91.1L845.4 94.6ZM781.8 485L778.3 484.7L775.2 486.3L775.5 482.8L773.9 479.7L777.4 480L780.5 478.4L780.2 481.9L781.8 485ZM649.7 382.3L648.8 378.8L646.2 376.4L649.7 375.5L652.1 372.9L653 376.4L655.6 378.8L652.1 379.7L649.7 382.3ZM770.1 695.1L768.4 691.2L764.9 688.8L768.8 687.1L771.2 683.6L772.9 687.5L776.4 689.9L772.5 691.6L770.1 695.1ZM643.4 607.7L643.9 603.7L642.1 600.1L646.1 600.6L649.7 598.8L649.2 602.8L651 606.4L647 605.9L643.4 607.7ZM1381.8 336.7L1384.1 333.7L1384.4 330L1387.4 332.3L1391.1 332.6L1388.8 335.6L1388.5 339.3L1385.5 337L1381.8 336.7ZM1011.2 599.9L1007.4 600.4L1004.5 602.8L1004 599L1001.6 596.1L1005.4 595.6L1008.3 593.2L1008.8 597L1011.2 599.9ZM798.7 280.9L795.8 276.8L791.1 274.9L795.2 272L797.1 267.3L800 271.4L804.7 273.3L800.6 276.2L798.7 280.9ZM621.9 230.2L619.8 226.9L616.2 225.3L619.5 223.2L621.1 219.6L623.2 222.9L626.8 224.5L623.5 226.6L621.9 230.2ZM486.9 133.6L483.3 131.5L479.2 131.7L481.3 128.1L481.1 124L484.7 126.1L488.8 125.9L486.7 129.5L486.9 133.6ZM611.2 459.7L609.5 455.9L606 453.6L609.8 451.9L612.1 448.4L613.8 452.2L617.3 454.5L613.5 456.2L611.2 459.7ZM195.5 380L192.6 375.7L187.9 373.6L192.2 370.7L194.3 366L197.2 370.3L201.9 372.4L197.6 375.3L195.5 380ZM1832.5 259.9L1839.7 259L1835.1 253.5L1834.2 246.3L1828.7 250.9L1821.5 251.8L1826.1 257.3L1827 264.5L1832.5 259.9ZM1588.7 88.9L1584.6 81.3L1577 77.1L1584.6 73L1588.8 65.4L1593 73L1600.6 77.2L1593 81.3L1588.7 88.9ZM1842.7 679.9L1834.1 678.5L1826.1 682L1827.5 673.4L1824 665.4L1832.6 666.8L1840.6 663.3L1839.2 671.9L1842.7 679.9ZM1589.6 475.1L1588.1 468.7L1583.3 464.1L1589.7 462.6L1594.3 457.8L1595.8 464.2L1600.6 468.8L1594.2 470.3L1589.6 475.1ZM2111.2 90.7L2105.7 87.3L2099.2 87.4L2102.6 81.9L2102.5 75.4L2108 78.8L2114.5 78.7L2111.1 84.2L2111.2 90.7ZM1514 229.8L1518.5 222.4L1518.3 213.8L1525.7 218.3L1534.3 218.1L1529.8 225.5L1530 234.1L1522.6 229.6L1514 229.8ZM2883.7 74.2L2880.5 66L2873.4 60.8L2881.6 57.6L2886.8 50.5L2890 58.7L2897.1 63.9L2888.9 67.1L2883.7 74.2ZM2878.5 444.7L2874.5 439.1L2868.1 436.5L2873.7 432.5L2876.3 426.1L2880.3 431.7L2886.7 434.3L2881.1 438.3L2878.5 444.7ZM2641.5 298.8L2638.2 294.7L2633.2 293L2637.3 289.7L2639 284.7L2642.3 288.8L2647.3 290.5L2643.2 293.8L2641.5 298.8ZM2582.7 37.2L2581.2 27.8L2574.9 20.7L2584.3 19.2L2591.4 12.9L2592.9 22.3L2599.2 29.4L2589.8 30.9L2582.7 37.2ZM2466.7 749.5L2460.4 748.9L2454.8 751.8L2455.4 745.5L2452.5 739.9L2458.8 740.5L2464.4 737.6L2463.8 743.9L2466.7 749.5ZM2225.7 562.1L2224.1 555.8L2219.4 551.4L2225.7 549.8L2230.1 545.1L2231.7 551.4L2236.4 555.8L2230.1 557.4L2225.7 562.1ZM2690.9 138.2L2695 132.8L2695.6 126L2701 130.1L2707.8 130.7L2703.7 136.1L2703.1 142.9L2697.7 138.8L2690.9 138.2ZM2720 554.4L2713.1 555.2L2707.8 559.6L2707 552.7L2702.6 547.4L2709.5 546.6L2714.8 542.2L2715.6 549.1L2720 554.4ZM2497.5 377L2492.2 369.6L2483.7 366.2L2491.1 360.9L2494.5 352.4L2499.8 359.8L2508.3 363.2L2500.9 368.5L2497.5 377ZM2174.9 284.6L2171 278.7L2164.5 275.8L2170.4 271.9L2173.3 265.4L2177.2 271.3L2183.7 274.2L2177.8 278.1L2174.9 284.6ZM1928.5 108.4L1922 104.6L1914.4 104.9L1918.2 98.4L1917.9 90.8L1924.4 94.6L1932 94.3L1928.1 100.8L1928.5 108.4ZM2155.4 703.4L2152.3 696.4L2145.9 692.2L2152.9 689.1L2157.1 682.7L2160.2 689.7L2166.6 693.9L2159.6 697L2155.4 703.4ZM1938.4 526.2L1933.2 518.3L1924.6 514.4L1932.5 509.2L1936.4 500.6L1941.6 508.5L1950.2 512.3L1942.3 517.5L1938.4 526.2ZM1906.4 183.4L1905.9 179.5L1903.4 176.5L1907.3 176L1910.3 173.5L1910.8 177.4L1913.3 180.4L1909.4 180.9L1906.4 183.4ZM1915.1 411L1910.4 410.2L1906 412.1L1906.8 407.4L1904.9 403L1909.6 403.8L1914 401.9L1913.2 406.6L1915.1 411ZM1781.2 147.1L1778.2 145.2H1774.6L1776.5 142.2V138.6L1779.5 140.5H1783.1L1781.2 143.5V147.1ZM2485.6 79.1L2483.9 74.6L2480 71.8L2484.5 70.1L2487.3 66.2L2489 70.7L2492.9 73.5L2488.4 75.2L2485.6 79.1ZM2482.7 282.1L2480.5 279L2477 277.6L2480.1 275.4L2481.5 271.9L2483.7 275L2487.2 276.4L2484.1 278.6L2482.7 282.1ZM2356.7 380.9L2354.9 378.7L2352.1 377.8L2354.3 376L2355.2 373.2L2357 375.4L2359.8 376.3L2357.6 378.1L2356.7 380.9ZM2320.6 58.8L2319.8 53.6L2316.3 49.7L2321.5 48.9L2325.4 45.4L2326.2 50.6L2329.7 54.5L2324.5 55.3L2320.6 58.8ZM2257.1 449.2L2253.6 448.9L2250.5 450.5L2250.8 447L2249.2 443.9L2252.7 444.2L2255.8 442.6L2255.5 446.1L2257.1 449.2ZM2125 346.5L2124.1 343L2121.5 340.6L2125 339.7L2127.4 337.1L2128.3 340.6L2130.9 343L2127.4 343.9L2125 346.5ZM2245.4 659.3L2243.7 655.4L2240.2 653L2244.1 651.3L2246.5 647.8L2248.2 651.7L2251.7 654.1L2247.8 655.8L2245.4 659.3ZM2118.6 571.9L2119.1 567.9L2117.3 564.3L2121.3 564.8L2124.9 563L2124.4 567L2126.2 570.6L2122.2 570.1L2118.6 571.9ZM2857.1 300.9L2859.4 297.9L2859.7 294.2L2862.7 296.5L2866.4 296.8L2864.1 299.8L2863.8 303.5L2860.8 301.2L2857.1 300.9ZM2486.5 564L2482.7 564.5L2479.8 566.9L2479.3 563.1L2476.9 560.2L2480.7 559.7L2483.6 557.3L2484.1 561.1L2486.5 564ZM2273.9 245L2271 240.9L2266.3 239L2270.4 236.1L2272.3 231.4L2275.2 235.5L2279.9 237.4L2275.8 240.3L2273.9 245ZM2097.1 194.4L2095 191.1L2091.4 189.5L2094.7 187.4L2096.3 183.8L2098.4 187.1L2102 188.7L2098.7 190.8L2097.1 194.4ZM1962.1 97.8L1958.5 95.7L1954.4 95.9L1956.5 92.3L1956.3 88.2L1959.9 90.3L1964 90.1L1961.9 93.7L1962.1 97.8ZM2086.5 423.9L2084.8 420.1L2081.3 417.8L2085.1 416.1L2087.4 412.6L2089.1 416.4L2092.6 418.7L2088.8 420.4L2086.5 423.9ZM1670.8 344.1L1667.9 339.8L1663.2 337.7L1667.5 334.8L1669.6 330.1L1672.5 334.4L1677.2 336.5L1672.9 339.4L1670.8 344.1Z" fill="url(#paint0_linear)"/>
<path d="M67 1336.5C67 1385.5 452 1425.2 927 1425.2C1402 1425.2 1787 1385.5 1787 1336.5C1787 1287.5 1341.4 1282.5 866.5 1282.5C391.5 1282.5 67 1287.5 67 1336.5Z" fill="url(#paint1_linear)"/>
<path d="M895.5 534.3C895.6 534.4 895.7 534.6 895.9 534.7C901 532 906.1 529.3 911.2 526.4C905.9 529 900.7 531.6 895.5 534.3Z" stroke="#231F20" stroke-width="3" stroke-miterlimit="10"/>
<path d="M553.6 542C423.868 542 318.7 436.832 318.7 307.1C318.7 177.368 423.868 72.2 553.6 72.2C683.332 72.2 788.5 177.368 788.5 307.1C788.5 436.832 683.332 542 553.6 542Z" fill="url(#paint2_radial)"/>
<path d="M1442.8 1389.2C1453 1390.5 1463.3 1391.1 1473.8 1391.1C1483.3 1391.1 1492.7 1390.6 1502 1389.5C1503.9 1386.9 1506 1384.4 1508.4 1382.1C1510.4 1383.9 1512.3 1385.8 1514 1387.8C1518.2 1387.1 1522.4 1386.3 1526.6 1385.4C1524.7 1381.2 1523.3 1376.7 1522.4 1371.9C1521.8 1368.7 1521.5 1365.3 1521.5 1361.9C1509.8 1363.8 1498.4 1366.6 1487.3 1370.1C1471.8 1375.2 1456.9 1381.6 1442.8 1389.2Z" fill="url(#paint3_linear)"/>
<path d="M1650.6 1376.6C1651.9 1376.7 1653.2 1376.7 1654.4 1376.7C1660 1376.7 1665.6 1376.2 1671 1375.3C1686.5 1366.2 1699.2 1352.8 1707.4 1336.8C1709.1 1337.5 1710.7 1338.4 1712.4 1339.2C1716.1 1337.1 1719.8 1334.9 1723.4 1332.6C1720.1 1329.3 1717.2 1325.6 1714.8 1321.5C1714.6 1321.1 1714.4 1320.8 1714.2 1320.4C1712.8 1317.9 1711.5 1315.3 1710.5 1312.5C1700.5 1318.2 1691 1324.6 1682 1331.6C1678.7 1341.7 1673.8 1351.1 1667.5 1359.4C1662.5 1365.7 1656.9 1371.5 1650.6 1376.6Z" fill="url(#paint4_linear)"/>
<path d="M1462 1125.9C1462.2 1209.5 1475.7 1290 1500.6 1365.3C1507.6 1364.4 1514.6 1363.2 1521.5 1361.8C1520 1342.4 1519.2 1322.8 1519.1 1303C1518.9 1209.4 1535.5 1119.6 1566 1036.6C1549.2 1040.5 1531.8 1042.5 1513.8 1042.5C1497.7 1042.5 1482 1040.9 1466.8 1037.7C1463.6 1066.6 1462 1096.1 1462 1125.9Z" fill="url(#paint5_linear)"/>
<path d="M1462 1125.9C1462.2 1209.5 1475.7 1290 1500.6 1365.3C1507.6 1364.4 1514.6 1363.2 1521.5 1361.8C1520 1342.4 1519.2 1322.8 1519.1 1303C1518.9 1209.4 1535.5 1119.6 1566 1036.6C1549.2 1040.5 1531.8 1042.5 1513.8 1042.5C1497.7 1042.5 1482 1040.9 1466.8 1037.7C1463.6 1066.6 1462 1096.1 1462 1125.9Z" fill="url(#paint6_linear)"/>
<path d="M1473.8 1039C1521.7 1149.7 1594.9 1246.8 1686.1 1323.2C1693.5 1319 1700.7 1314.6 1707.8 1309.8C1644.1 1230 1596 1137.2 1568 1036C1567.3 1036.2 1566.6 1036.3 1565.9 1036.5C1549.1 1040.4 1531.7 1042.4 1513.7 1042.4C1500.2 1042.5 1486.8 1041.3 1473.8 1039Z" fill="url(#paint7_linear)"/>
<path d="M1392.3 811.3C1397.7 817.5 1403.2 823.4 1409 829.2C1433.7 854.1 1461.7 875.6 1492.4 892.9C1516.4 906.5 1542 917.6 1568.9 925.8C1591 963.9 1619.4 997.8 1652.7 1026.1C1665.6 1022 1678.8 1018.5 1692.2 1015.8C1678.5 988.7 1661.7 963.4 1642.3 940.5C1612.6 905.5 1576.8 875.9 1536.5 853.4C1517.9 843 1498.4 834.2 1478.1 827C1466.7 822.9 1455 819.4 1443.1 816.5C1437.3 815.2 1431.4 814.2 1425.4 813.4C1422 812.9 1418.5 812.5 1415 812.2C1408.2 811.6 1401.2 811.3 1394.2 811.3C1393.5 811.3 1392.9 811.3 1392.3 811.3Z" fill="url(#paint8_linear)"/>
<path d="M1142.2 808.7C1153.6 843.6 1169.1 858.6 1190.2 887.7C1197.8 898.3 1206.1 908.4 1214.8 918C1233.4 915.8 1251.6 912.2 1269.2 907.2C1288.7 901.7 1307.6 894.5 1325.6 885.8C1356.1 871 1384.2 852 1409 829.4C1414.6 824.3 1420 819 1425.3 813.5C1421.9 813 1418.4 812.6 1414.9 812.3C1408.1 811.7 1401.1 811.4 1394.1 811.4C1393.5 811.4 1392.9 811.4 1392.3 811.4C1392.1 811.2 1392 811 1391.8 810.8C1335.4 813.6 1282.6 829.8 1236.4 856.2C1214.6 828 1203.5 812.9 1174.2 792.5C1168.2 795.5 1148.3 806 1142.2 808.7Z" fill="url(#paint9_linear)"/>
<path d="M1284.3 839C1285.8 851.4 1288.3 863.6 1291.6 875.3C1303.3 877.9 1314.6 881.4 1325.5 885.6C1391.9 911.6 1443.4 967.6 1463.3 1036.8C1464.4 1037.1 1465.6 1037.3 1466.8 1037.5C1469.1 1038 1471.4 1038.4 1473.8 1038.8C1486.8 1041.1 1500.1 1042.2 1513.8 1042.2C1531.7 1042.2 1549.2 1040.2 1566 1036.3C1566.7 1036.1 1567.4 1036 1568.1 1035.8C1583.1 1032.2 1597.6 1027.1 1611.3 1020.7C1600.1 1015.5 1589.5 1009.4 1579.3 1002.6C1571.1 997 1563.2 990.9 1555.8 984.4C1551.3 980.4 1546.9 976.2 1542.7 971.9C1522.7 951.3 1506.5 926.9 1495.3 899.9C1494.3 897.5 1493.4 895.1 1492.4 892.7C1484.6 872 1479.6 849.8 1478.1 826.8C1466.8 822.4 1455.1 818.9 1443.1 816.3C1437.3 815 1431.4 814 1425.4 813.2C1422 812.7 1418.5 812.3 1415 812C1408.2 811.4 1401.2 811.1 1394.2 811.1C1393.6 811.1 1393 811.1 1392.4 811.1C1366 811.3 1340.6 815.9 1317 824.3C1305.6 828.6 1294.7 833.4 1284.3 839Z" fill="url(#paint10_linear)"/>
<path d="M1326.5 772.1C1324.2 781.4 1320.1 789.8 1314.6 797C1318.7 798.3 1322.7 800 1326.4 802C1341.2 810 1352.3 823.2 1357.9 838.9C1372 834.8 1384.4 826.2 1393.2 814.4C1391.9 808.7 1391.3 802.7 1391.5 796.6C1386.8 793.7 1383.2 789.4 1381.1 784.4C1381.9 783.2 1382.5 781.8 1382.8 780.2C1383.4 776.6 1382 773 1379.5 770.8C1378.1 769.5 1376.3 768.7 1374.3 768.3C1374.1 768.3 1374 768.2 1373.8 768.2C1374.4 766.6 1374.8 765 1375.1 763.2C1377.4 749.1 1367.9 735.8 1353.8 733.4C1353.7 733.4 1353.6 733.4 1353.5 733.4C1353.4 733.6 1353.3 733.7 1353.2 733.9C1348 740.6 1342.1 746.7 1335.6 752.1C1333.3 754 1331 755.7 1328.5 757.4C1326.9 758.5 1325.3 759.5 1323.7 760.5C1321.3 762 1318.9 763.3 1316.4 764.6C1319.5 767.3 1322.9 769.8 1326.5 772.1Z" fill="url(#paint11_linear)"/>
<path d="M1352.9 728.1C1352.6 729.9 1352.6 731.6 1352.9 733.3C1353 733.3 1353 733.3 1353.1 733.3C1353.3 733.2 1353.5 733 1353.7 732.9C1353.6 733.1 1353.5 733.2 1353.4 733.4C1353.5 733.4 1353.6 733.4 1353.7 733.4C1367.8 735.7 1377.4 749 1375 763.2C1374.7 764.9 1374.3 766.6 1373.7 768.2C1373.9 768.2 1374 768.2 1374.2 768.3C1376.2 768.6 1378 769.5 1379.4 770.8C1382 773.1 1383.4 776.6 1382.7 780.2C1382.4 781.8 1381.8 783.2 1381 784.4C1383.1 789.4 1386.7 793.8 1391.4 796.6C1391.5 795 1391.6 793.5 1391.7 791.9C1391.8 791.1 1391.9 790.4 1392 789.7C1393.6 778.2 1398.1 767.7 1404.6 759C1406.4 756.6 1408.4 754.3 1410.5 752.2C1407.5 751.2 1404.6 750.1 1401.8 748.9C1401.7 748.8 1401.5 748.8 1401.4 748.7C1394.5 745.8 1388.1 742.1 1382.1 737.9C1376.9 734.2 1372 730.1 1367.5 725.6C1365.7 723.8 1363.9 721.9 1362.2 719.9C1361.5 719.1 1360.8 718.3 1360.1 717.4C1356.4 719.7 1353.7 723.5 1352.9 728.1Z" fill="url(#paint12_linear)"/>
<path d="M1338.9 758.7C1338.7 759.7 1338.7 760.7 1338.8 761.6C1341.9 763.2 1345.3 764.4 1348.8 765.2C1345.3 762.4 1342.3 759.1 1339.9 755.4C1339.4 756.4 1339.1 757.5 1338.9 758.7Z" fill="url(#paint13_linear)"/>
<path d="M1338.9 758.7C1338.7 759.7 1338.7 760.7 1338.8 761.6C1341.9 763.2 1345.3 764.4 1348.8 765.2C1345.3 762.4 1342.3 759.1 1339.9 755.4C1339.4 756.4 1339.1 757.5 1338.9 758.7Z" fill="#232323"/>
<path opacity="0.79" d="M861.5 1307.3C852.6 1302.9 843.8 1298.3 835.3 1293.1C829.9 1289.9 824.7 1286.4 819.7 1282.5C823.8 1282.5 827.8 1282.5 831.9 1282.5C834.2 1284 836.6 1285.5 839 1287C847.3 1292 855.9 1296.5 864.7 1300.7C877.7 1306.9 891 1312.6 904.5 1317.9L1009.5 1300.8H1009.4C998.2 1297.2 986.9 1293.5 975.8 1289.6C973 1288.6 970.2 1287.5 967.5 1286.5C964.7 1285.4 961.9 1284.5 959.2 1283.3C958.8 1283.1 958.4 1283 957.9 1282.8C964.7 1282.8 971.4 1282.8 978.2 1282.9C989.3 1286.7 1000.4 1290.4 1011.6 1293.9C1034 1300.9 1056.6 1307.4 1079.3 1313.7C1104.8 1320.8 1130.3 1327.6 1156 1334.3L1157.2 1334.1L1157.3 1334.6C1176.8 1339.7 1196.3 1344.7 1215.8 1349.6C1261.4 1361.1 1307.1 1372.3 1352.9 1383.3C1398.7 1394.3 1444.5 1405 1490.3 1415.5L1488.1 1425.2C1442.2 1414.4 1396.5 1403.4 1350.7 1392.2C1305 1381 1259.3 1369.5 1213.7 1357.7C1195.3 1352.9 1177 1348.1 1158.6 1343.3L1158.7 1343.8L1039.2 1361.9C1074.1 1371.8 1109.2 1380.9 1144.4 1389.4C1182.5 1398.7 1220.8 1407.4 1259.2 1415.3L1257.2 1425.1C1218.7 1416.9 1180.4 1407.9 1142.2 1398.4C1104 1388.8 1066 1378.7 1028.2 1367.6C1025.2 1366.7 1022.2 1365.8 1019.2 1364.9L1018.4 1365L1018.3 1364.6C983.9 1354.3 949.6 1343.2 915.9 1330.5C897.6 1323.5 879.3 1316 861.5 1307.3ZM1017 1355.5L1016.9 1355.2L1135.8 1337.2C1116.2 1331.9 1096.7 1326.5 1077.2 1321C1058.2 1315.6 1039.2 1310 1020.2 1304.1L913.8 1321.5C915.5 1322.1 917.1 1322.8 918.8 1323.4C951 1335.3 983.9 1345.8 1017 1355.5Z" fill="#232323"/>
<path d="M1168.7 795.2L1140.1 763.9C1138.4 762.1 1128.7 756.3 1120.3 752.1C1115.4 749.7 1104.2 742.3 1096.1 740C1093.5 739.2 1091.4 742.4 1093.3 744.4L1110.9 760.2C1110.9 760.2 1099.1 763.3 1094.6 775.1C1094.6 775.1 1094.4 779.3 1095.8 780.8C1100.2 785.2 1100.3 796.9 1116.6 793.7L1146.6 806.9L1168.7 795.2Z" fill="url(#paint14_linear)"/>
<path d="M1364.5 848.5L1360.8 837.9C1374.9 838.2 1393.1 814.4 1393.1 814.4C1387.1 846.2 1364.5 848.5 1364.5 848.5Z" fill="#232323"/>
<path d="M1360.9 850.6C1360.9 850.6 1385.5 919.4 1447.2 933.3C1470.1 938.5 1467.4 964.6 1467.4 964.6C1467.4 964.6 1441.2 952.5 1432.9 949.5C1402.3 938.6 1359.2 899.8 1360.9 850.6Z" fill="#232323"/>
<path d="M1357.8 838.9V848.5C1357.8 848.5 1347.4 825.2 1348.9 824.6C1350.3 823.9 1357.8 838.9 1357.8 838.9Z" fill="#232323"/>
<path d="M745.7 329.7C729.8 305.8 714 281.8 698.7 257.5C714.2 281.7 730.1 305.6 746.2 329.3C758.9 348 771.8 366.7 784.8 385.2L785.7 384.9L786.2 386.3L785.6 386.5C788.8 391 792 395.6 795.2 400.1C802.2 409.9 809.2 419.7 816.2 429.5L816.6 429.3L817.2 430.7H817.1C843.4 467 870.3 502.9 898 538.1C898.5 538.8 899.1 539.5 899.6 540.2C900.1 540 900.4 539.9 900.4 539.9L901.4 542.5C918 563.5 934.9 584.4 952.2 604.8C970.7 626.7 989.7 648.2 1009.2 669.2C1028.8 690.1 1048.9 710.5 1070 729.9C1091 749.3 1113 767.8 1136.6 783.8L1137.4 784.4L1137.6 785.3C1145.1 813.5 1154.5 841.4 1164.3 869.1C1164.4 869.1 1164.4 869 1164.4 869L1166.7 873.4C1166.7 873.4 1166.4 873.5 1166 873.8C1176.2 901.9 1187.3 929.7 1199 957.1C1211 985.1 1223.7 1012.8 1237.1 1040.1L1247.3 1060.6L1257.8 1080.9L1260.4 1086L1263.1 1091L1268.5 1101.1L1273.9 1111.2C1275.7 1114.5 1277.6 1117.8 1279.5 1121.2C1294.2 1147.9 1309.9 1174 1326.1 1199.8L1338.4 1219.1C1342.5 1225.5 1346.8 1231.8 1351 1238.2L1357.3 1247.7C1359.4 1250.9 1361.6 1254 1363.8 1257.1L1376.8 1275.9C1412.1 1325.6 1450.1 1373.3 1490.7 1418.7L1487 1422C1446.3 1376.4 1408.2 1328.5 1372.8 1278.7L1359.7 1259.9C1359.2 1259.2 1358.7 1258.4 1358.2 1257.7C1300.8 1296.6 1228.3 1323 1213.2 1328.3C1216.2 1334.3 1219.1 1340.4 1222.1 1346.4C1234.2 1370.8 1246.5 1395.2 1259.2 1419.2L1254.8 1421.6C1242 1397.4 1229.7 1373.1 1217.6 1348.6C1205.5 1324.1 1193.6 1299.6 1181.9 1274.9C1170.3 1250.2 1158.8 1225.4 1147.7 1200.5C1136.6 1175.6 1125.8 1150.5 1115.2 1125.3C1104.7 1100.1 1094.6 1074.7 1084.9 1049.2C1075.2 1023.7 1066 997.9 1057.4 972C1048.8 946.1 1041 919.9 1034.1 893.4C1027.4 867.2 1021.6 840.6 1018 813.7C1009.5 803.5 1001.3 793.2 993.2 782.8C984.9 772.2 976.7 761.5 968.6 750.8C952.4 729.3 936.7 707.5 921.3 685.4C905.9 663.3 890.9 641 876.2 618.5C861.6 595.9 847.4 573 833.6 549.9C831.1 545.8 828.7 541.6 826.3 537.5C826 537.6 825.8 537.7 825.5 537.7L824.9 535.8C825 535.8 825.1 535.7 825.2 535.7C800.9 494 778.1 451.3 757.4 407.6L753 398.2L752.9 398L748.8 389.3C746 383.2 743.4 377 740.6 370.9L736.5 361.7L732.6 352.4C730.1 346.2 727.4 340 724.9 333.7C715 308.7 706.1 283.3 698 257.7C706.3 283.3 715.4 308.6 725.5 333.5C728 339.7 730.7 345.9 733.3 352.1L737.2 361.4L741.3 370.6C744.1 376.7 746.7 382.9 749.6 389L753.2 396.6L783 385.9C770.9 367.1 758.3 348.4 745.7 329.7ZM814.9 430C810.2 423.4 805.5 416.7 800.8 410L766.9 422.9C774.2 437.5 781.7 452.1 789.4 466.5C807.6 460.2 825.8 453.4 830.5 451.7C825.6 444.9 820.7 438.1 815.9 431.3L779 446.3L778.4 444.9L814.9 430ZM844.7 471.2C840.2 465.1 835.8 459 831.4 452.9C827.5 454.4 808.9 461.3 790.1 467.8C793.6 474.3 797.1 480.7 800.6 487.1C812.9 483.3 839.5 473.2 844.7 471.2ZM801.6 488.9C805.4 495.8 809.3 502.7 813.2 509.5L813.1 509.1C829.8 504.4 855.3 492.9 859.3 491.1C854.8 485.1 850.3 479 845.9 472.9C842.5 474.2 814.7 484.8 801.6 488.9ZM916.5 565.4C910.7 558.1 905 550.8 899.3 543.5C891.4 546.5 865.7 556 845.2 563C850 570.7 854.8 578.4 859.7 586.1L859.4 584.9C880 580.6 908 569 916.5 565.4ZM860.6 587.7C865.6 595.5 870.6 603.3 875.7 611.1C901.5 606.2 929.4 592.8 935.9 589.6C930 582.4 924.2 575.1 918.4 567.9C911 571 882.2 583.1 860.6 587.7ZM963.5 622.8C958.6 625.7 938.9 636.3 897.1 643.3C905.2 655.2 913.4 667 921.6 678.7C962.3 670.9 988.5 663 996.3 660.5C985.3 648.1 974.4 635.5 963.5 622.8ZM1152.6 1198.3C1163.7 1223.2 1175.1 1248 1186.7 1272.6C1194.5 1289 1202.3 1305.4 1210.3 1321.8C1223.1 1317.3 1296.5 1290.9 1354.4 1251.8C1354.1 1251.3 1353.7 1250.8 1353.4 1250.4L1347.1 1240.9C1342.9 1234.5 1338.6 1228.2 1334.5 1221.8L1322.2 1202.5C1306 1176.6 1290.3 1150.4 1275.5 1123.7C1273.6 1120.4 1271.7 1117.1 1269.9 1113.7L1264.5 1103.6L1259.1 1093.5L1258.8 1093C1250.7 1098.3 1208 1124.8 1132.1 1151.2C1138.8 1166.9 1145.6 1182.6 1152.6 1198.3ZM1089.9 1047.3C1099.6 1072.8 1109.7 1098.1 1120.2 1123.2C1123.2 1130.3 1126.2 1137.4 1129.2 1144.5C1206.9 1117.6 1249.3 1090.6 1255.4 1086.6L1253.6 1083.2L1243.1 1062.9L1232.9 1042.4C1222.9 1022 1213.2 1001.3 1204 980.5C1193.6 985.5 1141.4 1009.8 1081.5 1024.5C1084.3 1032.2 1087.1 1039.8 1089.9 1047.3ZM1062.5 970.4C1067.9 986.7 1073.6 1002.8 1079.4 1018.9C1139.4 1004.2 1191.8 979.7 1201.5 975C1199.2 969.7 1196.9 964.4 1194.6 959.1C1182.9 931.7 1171.9 903.9 1161.6 875.9C1147.2 882.5 1104 900.4 1044 909.6C1049.7 930.1 1055.9 950.3 1062.5 970.4ZM1039.4 892.1C1040.5 896.4 1041.6 900.6 1042.8 904.9C1103.1 895.6 1146.3 877.6 1160 871.3C1150.4 844.3 1141.2 817.1 1133.7 789.3C1122.2 793.5 1074.3 810.1 1023.7 814.8C1027.2 840.8 1032.8 866.6 1039.4 892.1ZM997.3 779.7C1005.4 789.9 1013.6 800 1021.9 809.9C1070.1 805.6 1116 790.3 1130.1 785.2C1110.4 771.3 1091.9 755.8 1074.2 739.6C1067.2 742.2 1031.2 755 980.6 758.4C986.1 765.6 991.6 772.7 997.3 779.7ZM972.5 748C974.1 750.1 975.7 752.1 977.3 754.2C1025 751.4 1060 740 1070.5 736.3C1069.4 735.3 1068.3 734.3 1067.2 733.3C1054.3 721.2 1041.7 708.7 1029.4 696C1022.9 698.5 990.9 710.5 948 715.4C956.1 726.2 964.2 737.1 972.5 748ZM945.3 711.5C986.1 707.2 1017.4 696.2 1026.4 692.7C1019.8 685.8 1013.2 678.8 1006.7 671.7C1004.1 668.9 1001.6 666.1 999.1 663.3C993.6 665.1 967 673.5 924 681.8C924.3 682.2 924.5 682.6 924.8 683C931.5 692.6 938.4 702.1 945.3 711.5ZM895 640.1C935.6 633.5 955.8 623.2 961.2 620.1C957.5 615.7 953.7 611.3 950 606.8C945.9 601.9 941.8 596.9 937.8 591.9C932.5 594.5 904.1 608.4 877.4 613.7C878 614.6 878.6 615.6 879.2 616.5C884.4 624.5 889.7 632.3 895 640.1ZM836.2 548.4C838.6 552.4 841.1 556.4 843.6 560.4C863.5 553.7 888.5 544.4 897.4 541C897 540.5 896.6 540 896.3 539.5C890.8 532.4 885.3 525.2 879.9 518.1C873.6 520.5 846.3 530.8 829.2 536.5C831.4 540.5 833.8 544.5 836.2 548.4ZM878.5 516.5C872.5 508.6 866.5 500.6 860.6 492.7C858.3 493.8 831.7 506 814.1 510.9C818.7 518.9 823.3 526.8 828 534.8C844.6 529.4 871.2 519.3 878.5 516.5ZM754.6 397.7L759 407C761.4 411.9 763.7 416.7 766.1 421.6L799.8 408.8C797.9 406.1 796.1 403.5 794.2 400.8C791 396.2 787.8 391.5 784.6 386.9L754.6 397.7Z" fill="#5235DD"/>
<path d="M1105.2 766C1105.6 762.1 1119.9 763.5 1130.2 764.7C1135 765.2 1139.2 762.4 1142.4 763.9C1143.4 763.6 1141.3 763.9 1142.4 763.9C1149.6 763.7 1158.9 772.9 1159.1 780.1C1159.3 787.3 1153.7 793.3 1146.5 793.5C1139.3 793.7 1133.3 788.1 1133.1 780.9C1133.1 779.9 1132.3 779 1131.3 779C1130.5 779 1129.6 778.9 1128.8 778.8C1118.4 777.5 1104.7 769.9 1105.2 766Z" fill="url(#paint15_linear)"/>
<defs>
<linearGradient id="paint0_linear" x1="2845.97" y1="904.929" x2="132.468" y2="-246.551" gradientUnits="userSpaceOnUse">
<stop stop-color="#212121"/>
<stop offset="0.3337" stop-color="#34296A"/>
<stop offset="0.6497" stop-color="#442FA8"/>
<stop offset="0.8797" stop-color="#4E33CE"/>
<stop offset="1" stop-color="#5235DD"/>
</linearGradient>
<linearGradient id="paint1_linear" x1="1787" y1="1353.84" x2="67" y2="1353.84" gradientUnits="userSpaceOnUse">
<stop stop-color="#212121"/>
<stop offset="1" stop-color="#5235DD"/>
</linearGradient>
<radialGradient id="paint2_radial" cx="0" cy="0" r="1" gradientUnits="userSpaceOnUse" gradientTransform="translate(393.642 155.147) rotate(180) scale(472.743)">
<stop offset="0.3353" stop-color="#212121"/>
<stop offset="0.4385" stop-color="#272338"/>
<stop offset="0.6554" stop-color="#372A74"/>
<stop offset="0.9659" stop-color="#4F34D2"/>
<stop offset="1" stop-color="#5235DD"/>
</radialGradient>
<linearGradient id="paint3_linear" x1="1526.62" y1="1376.65" x2="1442.83" y2="1376.65" gradientUnits="userSpaceOnUse">
<stop stop-color="#212121"/>
<stop offset="1" stop-color="#2978FC"/>
</linearGradient>
<linearGradient id="paint4_linear" x1="1723.38" y1="1344.52" x2="1621.57" y2="1344.52" gradientUnits="userSpaceOnUse">
<stop stop-color="#212121"/>
<stop offset="1" stop-color="#2978FC"/>
</linearGradient>
<linearGradient id="paint5_linear" x1="1566" y1="1200.93" x2="1462.04" y2="1200.93" gradientUnits="userSpaceOnUse">
<stop stop-color="#212121"/>
<stop offset="1" stop-color="#2978FC"/>
</linearGradient>
<linearGradient id="paint6_linear" x1="1653.75" y1="1451.91" x2="1412.11" y2="948.309" gradientUnits="userSpaceOnUse">
<stop stop-color="#212121"/>
<stop offset="0.203" stop-color="#212224"/>
<stop offset="0.3443" stop-color="#21262D"/>
<stop offset="0.4669" stop-color="#222C3C"/>
<stop offset="0.5789" stop-color="#233552"/>
<stop offset="0.6836" stop-color="#24406F"/>
<stop offset="0.7829" stop-color="#254E91"/>
<stop offset="0.878" stop-color="#275EBB"/>
<stop offset="0.9675" stop-color="#2870E9"/>
<stop offset="1" stop-color="#2978FC"/>
</linearGradient>
<linearGradient id="paint7_linear" x1="1734.25" y1="1294.55" x2="1234.57" y2="773.995" gradientUnits="userSpaceOnUse">
<stop stop-color="#212121"/>
<stop offset="0.0681716" stop-color="#212326"/>
<stop offset="0.1494" stop-color="#212835"/>
<stop offset="0.2374" stop-color="#22324D"/>
<stop offset="0.33" stop-color="#223F6E"/>
<stop offset="0.4264" stop-color="#234F99"/>
<stop offset="0.5244" stop-color="#2463CD"/>
<stop offset="0.602" stop-color="#2575FC"/>
<stop offset="0.6905" stop-color="#2575FC"/>
<stop offset="1" stop-color="#2978FC"/>
</linearGradient>
<linearGradient id="paint8_linear" x1="1748.76" y1="1152.43" x2="1393.47" y2="728.082" gradientUnits="userSpaceOnUse">
<stop offset="0.0991152" stop-color="#212121"/>
<stop offset="0.1868" stop-color="#212428"/>
<stop offset="0.3153" stop-color="#222C3C"/>
<stop offset="0.4691" stop-color="#23385C"/>
<stop offset="0.6423" stop-color="#254A89"/>
<stop offset="0.8292" stop-color="#2761C2"/>
<stop offset="1" stop-color="#2978FC"/>
</linearGradient>
<linearGradient id="paint9_linear" x1="1612.3" y1="1200.18" x2="1294.72" y2="836.767" gradientUnits="userSpaceOnUse">
<stop stop-color="#212121"/>
<stop offset="0.203" stop-color="#212224"/>
<stop offset="0.3443" stop-color="#21262D"/>
<stop offset="0.4669" stop-color="#222C3C"/>
<stop offset="0.5789" stop-color="#233552"/>
<stop offset="0.6836" stop-color="#24406F"/>
<stop offset="0.7829" stop-color="#254E91"/>
<stop offset="0.878" stop-color="#275EBB"/>
<stop offset="0.9675" stop-color="#2870E9"/>
<stop offset="1" stop-color="#2978FC"/>
</linearGradient>
<linearGradient id="paint10_linear" x1="1656.74" y1="1262.57" x2="1366.57" y2="818.176" gradientUnits="userSpaceOnUse">
<stop stop-color="#212121"/>
<stop offset="0.203" stop-color="#212224"/>
<stop offset="0.3443" stop-color="#21262D"/>
<stop offset="0.4669" stop-color="#222C3C"/>
<stop offset="0.5789" stop-color="#233552"/>
<stop offset="0.6836" stop-color="#24406F"/>
<stop offset="0.7829" stop-color="#254E91"/>
<stop offset="0.878" stop-color="#275EBB"/>
<stop offset="0.9675" stop-color="#2870E9"/>
<stop offset="1" stop-color="#2978FC"/>
</linearGradient>
<linearGradient id="paint11_linear" x1="1418.34" y1="830.924" x2="1343.64" y2="775.361" gradientUnits="userSpaceOnUse">
<stop stop-color="#212121"/>
<stop offset="1" stop-color="#2978FC"/>
</linearGradient>
<linearGradient id="paint12_linear" x1="1403.31" y1="776.668" x2="1346.61" y2="726.728" gradientUnits="userSpaceOnUse">
<stop stop-color="#212121"/>
<stop offset="1" stop-color="#2978FC"/>
</linearGradient>
<linearGradient id="paint13_linear" x1="1348.84" y1="760.336" x2="1338.72" y2="760.336" gradientUnits="userSpaceOnUse">
<stop stop-color="#212121"/>
<stop offset="1" stop-color="#2978FC"/>
</linearGradient>
<linearGradient id="paint14_linear" x1="1391.1" y1="986.994" x2="1087.27" y2="750.978" gradientUnits="userSpaceOnUse">
<stop stop-color="#212121"/>
<stop offset="0.203" stop-color="#212224"/>
<stop offset="0.3443" stop-color="#21262D"/>
<stop offset="0.4669" stop-color="#222C3C"/>
<stop offset="0.5789" stop-color="#233552"/>
<stop offset="0.6836" stop-color="#24406F"/>
<stop offset="0.7829" stop-color="#254E91"/>
<stop offset="0.878" stop-color="#275EBB"/>
<stop offset="0.9675" stop-color="#2870E9"/>
<stop offset="1" stop-color="#2978FC"/>
</linearGradient>
<linearGradient id="paint15_linear" x1="1310.66" y1="900.61" x2="1127.57" y2="767.257" gradientUnits="userSpaceOnUse">
<stop stop-color="#212121"/>
<stop offset="0.203" stop-color="#212224"/>
<stop offset="0.3443" stop-color="#21262D"/>
<stop offset="0.4669" stop-color="#222C3C"/>
<stop offset="0.5789" stop-color="#233552"/>
<stop offset="0.6836" stop-color="#24406F"/>
<stop offset="0.7829" stop-color="#254E91"/>
<stop offset="0.878" stop-color="#275EBB"/>
<stop offset="0.9675" stop-color="#2870E9"/>
<stop offset="1" stop-color="#2978FC"/>
</linearGradient>
</defs>
</svg>
