<svg width="2367" height="1375" viewBox="0 0 2367 1375" fill="none" xmlns="http://www.w3.org/2000/svg">
<path d="M1209 193C1288 222 1317.9 256 1326 250C1384 207 1481 200 1489 199C1497 198 1507.8 213.9 1507.8 213.9L1329 289C1329 289 1255 277 1183 222C1176 216.6 1199.9 189.6 1209 193Z" fill="url(#paint0_linear)"/>
<path d="M957.8 697.3C960.4 667 963.7 643 967.2 624H954.6C950.9 644.3 947.8 668.4 945.4 696.4C934.8 819.2 937.5 1011.3 953.3 1268H965.7C949.9 1011.5 947.2 819.7 957.8 697.3Z" fill="#5235DD"/>
<path d="M947.128 916.043L946.874 924.039L1192.95 931.861L1193.21 923.865L947.128 916.043Z" fill="#5235DD"/>
<path d="M1195.2 624H1182.8C1172.1 760.1 1176.8 976.7 1196.8 1268H1209.2C1189.1 976.3 1184.4 759.7 1195.2 624Z" fill="#5235DD"/>
<path d="M957.129 1138.04L956.875 1146.04L1202.95 1153.86L1203.21 1145.86L957.129 1138.04Z" fill="#5235DD"/>
<path d="M1067.9 332.1C1067.7 339.1 1067 346 1066 352.8C1065.7 355 1065 357.2 1064 359.1C1076.1 358 1088.5 357.4 1101.2 357.4C1117.4 357.4 1133.2 358.3 1148.6 360.1C1148.3 334.6 1153.2 310 1162.5 287.7C1163 286.4 1164.1 285.3 1165.4 284.8C1179.2 278.8 1188.9 265.1 1188.9 249.1C1188.9 248 1188.9 247 1188.8 245.9C1188.7 244.5 1189.1 243.1 1190 242C1201.3 228.2 1214.5 216.1 1229.4 206.1C1232.3 204.2 1232.7 200.1 1230.2 197.7C1196.8 165.1 1150.2 146.3 1099.9 149.6C1065 151.9 1032.9 161.3 1007.1 181.1C1004.4 183.2 1004.7 190.5 1007.3 192.7C1045.9 226.4 1069.8 276.7 1067.9 332.1Z" fill="url(#paint1_linear)"/>
<path d="M1192.8 542.2C1195.6 653.3 1180.4 760.8 1150.1 861.7C1140.7 860.7 1131.4 859.4 1122.3 857.8C1123.6 831.9 1124 805.8 1123.3 779.5C1120.2 655.1 1095 536.4 1051.5 427.2C1073.9 431.7 1097.2 433.8 1121.1 433.2C1142.5 432.6 1162.1 426.7 1182.1 422C1187.4 460.4 1191.8 502.6 1192.8 542.2Z" fill="url(#paint2_linear)"/>
<path d="M1149 353C1135.4 359.4 1128 355 1109 356C1093.5 356.8 1079.5 357.6 1064.6 357.8C1063.8 358.7 1063 359.5 1062.1 360.3C1038.2 379.9 1024.7 410.6 1027.7 442.6C1027.9 444.9 1028.6 447.1 1029.6 449.1C1033.2 587.1 1008.6 722.3 959.6 847.3C970.4 850.6 981.3 853.4 992.4 855.8C1068.2 738.5 1119.8 606.1 1142.7 467C1146.6 466.1 1177.6 448.1 1182 429C1189 399 1149.4 354.3 1149 353Z" fill="url(#paint3_linear)"/>
<path d="M1208.3 45.5996C1207.5 51.0996 1205 55.8996 1201.4 59.6996C1200.4 60.6996 1199.3 61.5996 1198.2 62.4996C1191.5 68.0996 1183.7 72.3996 1175.3 75.1996C1173.6 75.5996 1171.9 76.0996 1170.3 76.6996C1169.2 77.0996 1168.1 77.4996 1166.9 77.8996C1166.6 77.8996 1166.3 77.8996 1166 77.8996C1159.7 80.1996 1153.6 83.6996 1148.3 88.3996C1147.2 89.2996 1146.2 90.2996 1145.3 91.2996C1134.7 100.9 1126.9 113.8 1123.7 128.8C1123.7 128.8 1123.7 128.9 1123.6 128.8C1110 124.2 1097.5 116.1 1087.4 104.6C1075.5 90.9996 1068.7 74.5996 1067 57.8996C1067 57.8996 1067 57.7996 1067.1 57.7996C1067.6 57.7996 1068.2 57.7996 1068.7 57.7996C1075 57.7996 1081.2 56.2996 1087 53.4996C1090 51.9996 1092.8 50.1996 1095.5 47.9996C1095.8 47.7996 1096 47.5996 1096.3 47.2996C1099.9 44.1996 1102.8 40.5996 1105 36.6996C1106.4 34.2996 1107.5 31.8996 1108.3 29.3996C1111.3 23.8996 1115.3 18.7996 1120.3 14.3996C1121.7 13.0996 1123.2 11.9996 1124.7 10.8996C1143.9 -2.80035 1169.4 -2.60036 1188.2 10.5996C1191.7 13.0996 1195 15.9996 1198 19.3996C1200.5 22.2996 1202.7 25.0996 1204.4 27.7996C1204.4 27.7996 1204.4 27.8996 1204.5 27.8996C1207.7 32.8996 1209.2 39.1996 1208.3 45.5996Z" fill="#5235DD"/>
<path d="M1216.5 104.099C1215.6 104.799 1214.7 105.499 1213.7 106.099C1211.5 107.499 1209.2 108.499 1206.7 109.199C1204.4 109.899 1202.7 111.799 1202.4 114.099C1201.6 119.399 1198.1 123.399 1199.7 128.499C1200.8 131.799 1198.1 135.099 1194.6 134.799C1159.3 131.399 1146 122.999 1133.5 176.399C1131.3 178.199 1129.8 179.399 1127.6 181.199C1118.2 181.499 1096.9 185.799 1091.6 164.399C1091.3 162.999 1090.5 161.699 1091 160.399L1093.7 154.999C1096.7 148.699 1107.1 128.999 1108.9 122.099C1113.6 124.799 1118.5 126.999 1123.6 128.699C1126.6 114.699 1131.8 104.299 1141.4 94.8994C1139.8 91.8994 1134.5 86.2994 1135.7 80.6994C1136.8 75.4994 1141.7 71.8994 1147.1 72.3994C1152.4 72.8994 1156.1 76.0994 1158.7 81.0994C1161.7 79.2994 1162.9 78.8994 1166.1 77.7994C1166.4 77.7994 1166.7 77.7994 1167 77.7994C1168.1 77.3994 1169.2 76.9994 1170.4 76.5994C1172 76.0994 1173.7 75.5994 1175.4 75.0994C1183.8 72.2994 1191.5 67.9994 1198.3 62.3994C1199.4 61.4994 1200.5 60.5994 1201.5 59.5994C1205.1 55.8994 1207.6 50.9994 1208.4 45.4994C1208.4 45.2994 1208.5 45.0994 1208.5 44.8994C1208.9 48.3994 1208.9 51.9994 1208.4 55.5994C1208.4 55.6994 1208.4 55.8994 1208.3 55.9994C1208.2 56.7994 1208 57.6994 1207.9 58.4994C1206.9 60.7994 1206.2 63.2994 1205.7 65.8994C1205.5 66.6994 1205.4 67.5994 1205.3 68.3994C1203.9 78.0994 1205.9 87.3994 1210.3 95.2994C1211.3 97.0994 1212.5 98.8994 1213.8 100.599C1214.5 101.899 1215.5 102.999 1216.5 104.099Z" fill="url(#paint4_linear)"/>
<path d="M1196.7 86.4992C1196.4 87.6992 1195.9 88.8992 1195.4 89.8992C1195.4 89.8992 1195.4 89.8992 1195.3 89.8992C1191 90.1992 1186.5 89.9992 1182.1 89.1992C1182 89.1992 1182 89.0992 1182.1 89.0992C1187.4 87.5992 1192.4 85.2992 1196.9 82.1992H1197C1197.1 83.5992 1197 85.0992 1196.7 86.4992Z" fill="#212121"/>
<path d="M1105 197.6L1113.3 184.1C1096.6 177.9 1086.1 152.1 1086.1 152.1C1081 189.8 1105 197.6 1105 197.6Z" fill="#212121"/>
<path d="M1131.9 198.699L1123 182.699C1139.8 176.799 1141.3 156.899 1141.3 156.899C1145.4 190.099 1131.9 198.699 1131.9 198.699Z" fill="#212121"/>
<path d="M1202.5 921.999C1204 922.399 1204.2 924.399 1202.8 925.099C1196.9 927.999 1192.6 929.099 1165 926.499C1145 924.899 1147.7 916.499 1133.3 904.799C1132.3 903.999 1130.7 904.599 1130.6 905.999C1130.4 910.299 1130.8 917.899 1130.5 921.399C1130.4 922.299 1129.6 922.899 1128.8 922.899C1125.7 922.699 1124.8 922.699 1122 922.399C1121.1 922.299 1120.4 921.399 1120.5 920.499C1121.4 913.999 1119.3 898.899 1119.7 893.799C1119.7 893.299 1119.8 892.799 1119.8 892.299C1120 889.599 1120 886.799 1119.8 883.999C1119.7 882.999 1120.6 882.199 1121.6 882.199C1134.3 883.199 1146.7 884.899 1159 887.499C1159.3 887.599 1159.6 887.699 1159.8 887.999C1168.3 896.699 1194.8 919.999 1202.5 921.999Z" fill="url(#paint5_linear)"/>
<path d="M1049.5 913.999C1051 914.399 1051.2 916.399 1049.8 917.099C1043.9 919.999 1039.6 921.099 1012 918.499C992 916.899 994.7 908.499 980.3 896.799C979.3 895.999 977.7 896.599 977.6 897.999C977.4 902.299 977.8 909.899 977.5 913.399C977.4 914.299 976.6 914.899 975.8 914.899C972.7 914.699 971.8 914.699 969 914.399C968.1 914.299 967.4 913.399 967.5 912.499C968.4 905.999 966.3 890.899 966.7 885.799C966.7 885.299 966.8 884.799 966.8 884.299C967 881.599 967 878.799 966.8 875.999C966.7 874.999 967.6 874.199 968.6 874.199C981.3 875.199 993.7 876.899 1006 879.499C1006.3 879.599 1006.6 879.699 1006.8 879.999C1015.3 888.699 1041.8 911.999 1049.5 913.999Z" fill="url(#paint6_linear)"/>
<path d="M983 300.799C1022.5 302.199 1060.1 313.699 1092.8 333.099C1080.2 337.599 1067.1 340.999 1053.4 343.299C1016.2 349.599 979.5 346.599 945.8 335.999C946.1 332.299 946.4 328.699 946.9 325.099C947.9 317.299 949.2 309.499 951 301.899C963.4 247.999 994.8 200.299 1038.9 167.499C1052.7 157.199 1071.4 171.299 1065.3 187.399C1048.6 231.799 1020.1 271.099 983 300.799Z" fill="url(#paint7_linear)"/>
<path d="M1070.1 154.1C1070.1 154.1 1011.3 169.9 1007.1 181.1C1007.1 181.1 1041.4 198.6 1046.1 240.7C1047.9 257.6 1091.9 181.8 1070.1 154.1Z" fill="url(#paint8_linear)"/>
<path d="M1806 407.1L1749.2 134.8L1747.8 135.1L1471.2 192.8L1491 287.7C1493.6 300.2 1481.4 310.7 1469.4 306.3C1444.4 297.1 1416.5 299.7 1406.8 328.4C1398.9 351.6 1412.7 378.4 1436.2 385.5C1455.5 391.3 1469.2 380.4 1482.9 368.3C1492.3 360 1507.1 364.9 1509.7 377.2L1529.2 470.8L1626.6 450.5C1635.8 445.9 1638.7 433.4 1631.4 425.2C1619.3 411.5 1608.3 397.8 1614.2 378.5C1621.3 355 1648 341.2 1671.3 349.1C1700 358.8 1702.5 386.8 1693.4 411.7C1689.5 422.4 1697.4 433.2 1708 433.6L1766.7 421.3L1805.7 413.2L1807.1 412.9L1806 407.1Z" fill="#5235DD"/>
<path d="M1412.1 386.599C1408.4 375.499 1396.9 372.399 1386.9 379.499C1371.8 390.199 1358.4 399.799 1339.3 392.299C1316.1 383.099 1303.4 355.499 1313.3 332.599C1325.6 304.399 1354.1 304.299 1378.6 315.699C1389.1 320.599 1400.7 313.499 1402 302.799L1394.7 242.299L1389.8 202.099L1389.6 200.699L1357 204.599L1115.6 233.799L1103.3 235.299L1103.5 236.699L1108 273.799L1115.8 338.499C1115.7 338.899 1115.6 339.199 1115.5 339.599L1125 418.599C1125.2 418.899 1125.4 419.199 1125.6 419.599L1137.9 521.599L1139.3 521.399L1139.4 522.199L1176.5 517.699L1241.2 509.899C1251.1 512.099 1257.3 523.099 1252.6 532.999C1241.2 557.499 1241.3 585.999 1269.5 598.299C1292.3 608.299 1320.6 596.599 1329.8 573.499C1337.4 554.399 1327.5 539.599 1316.4 524.699C1310 516.099 1313.5 504.499 1322.2 500.099L1424.2 487.799L1419.1 445.899L1412.1 386.599Z" fill="#5235DD"/>
<path d="M1079.9 326.399C1084.2 327.399 1088.5 328.799 1092.4 329.999C1095.9 330.999 1100.2 332.599 1104.8 334.499C1120.1 340.699 1138.2 349.699 1138.5 350.599L1167.3 368.799L1175.6 373.999C1176.5 375.799 1172.1 376.799 1161 372.499C1154.4 369.899 1145.4 365.199 1133.7 357.599C1133.4 357.999 1133 358.399 1132.7 358.799C1135.8 363.299 1140.9 370.699 1145.5 377.699C1150.5 385.299 1154.8 392.399 1155.3 394.699C1156.2 398.999 1149.4 394.399 1135.6 378.699C1132.6 375.299 1129.4 371.499 1125.8 367.099C1125.4 367.599 1125.1 368.099 1124.9 368.399C1124.6 368.899 1124.3 369.399 1123.8 369.999C1124.1 370.999 1124.2 371.599 1124.2 371.599C1124.2 371.599 1124.3 374.199 1124.4 377.799C1124.6 386.999 1124.7 403.399 1123 403.599C1123 403.599 1117.3 403.399 1118 376.399C1117 376.099 1116.1 375.799 1115.1 375.499C1114.8 384.299 1114.1 399.699 1112.8 399.699C1111 399.699 1107.8 385.299 1108.6 380.099C1109 377.399 1108.6 374.599 1108.1 372.599C1106 371.699 1103.6 370.299 1101 368.399C1096.4 365.099 1092.4 361.199 1089.1 356.699C1084.6 350.599 1081.6 343.399 1080.4 335.499C1079.8 332.499 1079.7 329.399 1079.9 326.399Z" fill="url(#paint9_linear)"/>
<path d="M949.129 1029.04L948.875 1037.04L1194.95 1044.86L1195.21 1036.86L949.129 1029.04Z" fill="#5235DD"/>
<path d="M1540 163C1537.2 163 1534.7 164.4 1533.6 171.5C1532.2 166.1 1529.7 165 1527 165C1523.8 165 1521.1 166.5 1519.8 174.2C1518.4 168.2 1515.9 167 1513 167C1509.5 167 1506.5 168.9 1505.4 178.9C1504.3 171.4 1501.9 170 1499 170C1495.1 170 1492 172.6 1492 188.8C1492 205 1495.1 218.1 1499 218.1C1501.9 218.1 1504.4 210.6 1505.5 199.9C1506.6 212.8 1509.6 222 1513 222C1516.1 222 1518.8 214.5 1520.1 203.7C1521.5 213.5 1524 220 1527 220C1530.3 220 1533.2 211.5 1534.4 199.3C1535.7 206.5 1537.7 211.1 1540 211.1C1543.9 211.1 1547 198 1547 181.8C1547 165.6 1543.9 163 1540 163Z" fill="url(#paint10_linear)"/>
<path d="M1479.3 207.3C1486.5 213.2 1490.3 220.5 1487.9 223.5C1485.4 226.5 1477.6 224.1 1470.4 218.1C1463.2 212.1 1464 208.8 1466.5 205.8C1468.9 202.8 1472.1 201.3 1479.3 207.3Z" fill="url(#paint11_linear)"/>
<path opacity="0.82" d="M1855 1364.8C2137.38 1364.8 2366.3 1344.65 2366.3 1319.8C2366.3 1294.95 2137.38 1274.8 1855 1274.8C1572.62 1274.8 1343.7 1294.95 1343.7 1319.8C1343.7 1344.65 1572.62 1364.8 1855 1364.8Z" fill="url(#paint12_linear)"/>
<path d="M2049.7 1001.6L2017.4 1085.9C2017.4 1085.9 2017.4 1086 2017.3 1086C2005.4 1109.2 1996.9 1131.9 2055.6 1140.8C2055.9 1140.9 2056.3 1140.9 2056.6 1141L2163 1170.5C2163.8 1170.7 2164.2 1171.5 2163.9 1172.3L2149.9 1210.6C2149.7 1211.2 2149.1 1211.6 2148.5 1211.5C2135.6 1209.8 2026.6 1202 1980.3 1196.1C1927.7 1189.4 1915.5 1162.8 1921.4 1126.8L1953.2 968.7C1956.3 949.4 1942.5 878.4 1952.3 873.8C1964.1 868.3 2061.4 846 2058.3 964.1C2058.2 966.7 2050.6 999.3 2049.7 1001.6Z" fill="url(#paint13_linear)"/>
<path d="M1849.6 663.1C1847.6 661.4 1844 660.6 1843.4 657.9C1835.3 621.9 1837.4 598.6 1841.1 584.7C1840.9 580.7 1840.7 576.8 1840.7 572.8C1818.3 568.9 1795.3 568.3 1772.6 571.1C1733.8 576 1695.7 591.2 1662.6 616.9C1640.7 633.9 1592.4 681.1 1578.6 703.3C1586.8 708 1595 713.3 1603.2 719.1C1603.2 719.1 1611.2 712 1618.9 705.2C1631 694.5 1644.6 685.6 1659.3 679C1721.6 651.3 1791.2 647.9 1854.5 667.4C1853 666 1851.3 664.6 1849.6 663.1Z" fill="url(#paint14_linear)"/>
<path d="M1744.2 953.5C1744.2 953.5 1724.2 970.8 1717.3 967.8C1709.8 964.6 1700.9 965.199 1701.3 962.599C1701.7 960.199 1710 959.3 1718.5 960.4C1724.2 961.1 1738.6 948 1740.5 950.4C1742.4 952.7 1744.2 953.5 1744.2 953.5Z" fill="url(#paint15_linear)"/>
<path d="M1742.5 945L1724.2 964.7C1724.2 964.7 1693.6 965.5 1693.5 974.9C1693.5 974.9 1699.2 976 1710.6 975C1719.2 974.2 1724.2 975.5 1727.5 974C1733.1 971.5 1745.2 958.2 1745.2 958.2C1745.2 958.2 1750.6 954 1742.5 945Z" fill="url(#paint16_linear)"/>
<path d="M1761.3 911.2C1756.7 909.3 1748.3 907.7 1733.7 910.4C1715.4 913.8 1708.9 910.3 1708.9 910.3C1704.4 912 1713.9 922.1 1726.2 919.8C1734.6 918.2 1738.3 922.4 1740.9 927.1C1740.2 928.7 1739.6 930.3 1739 932.1C1736.6 939.2 1735.7 948.4 1734.7 956.3L1721.6 974.3C1721.6 974.3 1691.4 979 1692.3 988.4C1692.3 988.4 1700.9 989.2 1711.8 985.5C1715.3 984.3 1717.7 984 1719.5 983.9C1710.4 993.1 1700.4 1003 1703.8 1007.4C1705.4 1009.4 1739.4 982.3 1743.7 974.5C1758.9 947.3 1789 938.2 1789 938.2L1788.7 938C1804.5 941.6 1819.4 943.2 1819.4 943.2C1826.5 929.8 1822.1 912 1822.1 912L1761.3 911.2Z" fill="url(#paint17_linear)"/>
<path d="M1848.7 964.3C1742.5 1032.6 1652.6 1106.6 1579.7 1203.9C1587.4 1213.3 1595.3 1222.4 1603.4 1231.2C1626.7 1213.2 1651 1196.1 1676.1 1180C1785.2 1109.9 1872.2 1089.3 1982.7 1045.4C2041.9 1021.9 2040.2 982.3 2044 968.3C2049.2 949.5 2035.4 900.7 2025.4 876.2C1985.6 895 1886.6 939.9 1848.7 964.3Z" fill="url(#paint18_linear)"/>
<path d="M2187.2 1281.6C2188.5 1280.7 2189.8 1279.7 2191 1278.7C2196.6 1274.3 2201.6 1269.6 2206.2 1264.5C2214.4 1243.6 2216.5 1220.6 2212.3 1198.5C2214.5 1197.9 2216.8 1197.4 2219.1 1197.1C2221.1 1192.1 2223 1187.1 2224.8 1182.1C2219 1181.4 2213.3 1180 2207.7 1177.8C2207.2 1177.6 2206.7 1177.4 2206.2 1177.2C2202.9 1175.8 2199.6 1174.2 2196.4 1172.3C2191 1185.7 2186.5 1199.3 2183.1 1213.1C2187.7 1225.6 2190 1238.6 2190.3 1251.6C2190.6 1261.7 2189.5 1271.8 2187.2 1281.6Z" fill="url(#paint19_linear)"/>
<path d="M1847.5 570.1C1847.4 570.3 1823.6 590.1 1830.3 659.5C1830.6 662.2 1834 663.4 1835.8 665.4C1899.6 736 1927.8 833.3 1910.5 927.8C1911.7 928.8 1912.9 929.8 1914.2 930.7C1916.7 932.6 1919.2 934.6 1921.7 936.4C1935.8 946.8 1949.4 961.2 1967.3 964.3C2012.4 972 2061.6 949.4 2081.8 949.9C2071.6 937.1 2045.6 902 2036.3 872.3C2023 829.8 2026.9 822.3 2029.5 783.4C2029.7 780 2030 776.5 2030.4 773.1C2032.3 754 2035.2 722 2040.3 694.1C2044.9 668.7 2033.4 643.2 2011.5 629.6C1917.4 571.8 1861.4 569.7 1847.5 570.1Z" fill="url(#paint20_linear)"/>
<path d="M1929.3 655.8L1918.1 645.8C1934.8 637 1940.6 597.6 1940.6 597.6C1954.2 638.6 1929.3 655.8 1929.3 655.8Z" fill="#212121"/>
<path d="M1918.3 655.1C1918.3 655.1 1897.4 750.2 1957.1 809.7C1979.3 831.8 1957.7 859.4 1957.7 859.4C1957.7 859.4 1936.7 827.2 1929.5 818C1902.6 783.8 1881.5 709.4 1918.3 655.1Z" fill="#212121"/>
<path d="M1907 645.9L1910.4 658.3C1910.4 658.3 1888.7 632.1 1890.4 630.7C1892.1 629.3 1907 645.9 1907 645.9Z" fill="#212121"/>
<path d="M1472.7 1270.1C1486.2 1273.3 1500 1275.8 1514.1 1277.3C1526.9 1278.7 1539.6 1279.4 1552.2 1279.4C1555.2 1276.1 1558.4 1273.1 1561.9 1270.4C1564.3 1273.1 1566.6 1275.9 1568.6 1278.9C1574.4 1278.6 1580.2 1278.2 1585.9 1277.6C1584 1271.6 1582.7 1265.3 1582.3 1258.9C1582 1254.5 1582.1 1249.9 1582.6 1245.4C1566.6 1246.2 1550.8 1248.2 1535.3 1251.2C1513.7 1255.5 1492.7 1261.9 1472.7 1270.1Z" fill="url(#paint21_linear)"/>
<path d="M1833.6 591.1C1837.1 603.4 1837.9 615.9 1836.3 628C1842 626.8 1847.7 626.1 1853.3 626C1875.8 625.5 1897.5 633.4 1914.3 647.9C1927.9 633.8 1936.6 615.5 1939 596C1933.7 590.2 1929 583.7 1925.2 576.5C1917.8 576.3 1910.7 573.7 1905 569.2C1905.2 567.2 1904.9 565.2 1904.2 563.2C1902.5 558.6 1898.5 555.4 1894 554.5C1891.5 554 1888.9 554.1 1886.3 555.1C1886.1 555.2 1885.9 555.3 1885.7 555.4C1885.3 553.2 1884.8 550.9 1883.9 548.8C1877.2 530.9 1857.3 521.7 1839.4 528.4C1839.3 528.4 1839.2 528.5 1839.1 528.5C1839.1 528.7 1839 529 1839 529.3C1837.5 540.6 1834.7 551.6 1830.6 562.1C1829.2 565.8 1827.6 569.4 1825.9 572.9C1824.8 575.2 1823.6 577.5 1822.4 579.7C1820.6 583 1818.7 586.2 1816.6 589.4C1822.3 590.1 1827.9 590.8 1833.6 591.1Z" fill="url(#paint22_linear)"/>
<path d="M1885.8 555.2C1886 555.1 1886.2 555 1886.4 554.9C1886 554.1 1885.6 553.3 1885.2 552.5C1885.4 553.4 1885.6 554.3 1885.8 555.2Z" fill="url(#paint23_linear)"/>
<path d="M1885.8 555.2C1886 555.1 1886.2 555 1886.4 554.9C1886 554.1 1885.6 553.3 1885.2 552.5C1885.4 553.4 1885.6 554.3 1885.8 555.2Z" stroke="#231F20" stroke-width="3" stroke-miterlimit="10"/>
<path d="M1836.3 627.7C1836.3 627.8 1836.3 627.9 1836.3 628C1836.7 627.9 1837 627.799 1837.4 627.799C1842.7 626.699 1848 626.1 1853.3 626C1853.5 626 1853.6 626 1853.8 626C1876.1 625.6 1897.7 633.5 1914.3 647.9C1927.9 633.8 1936.6 615.5 1939 596C1933.7 590.2 1929 583.7 1925.2 576.5C1917.8 576.3 1910.7 573.7 1905 569.2C1905.2 567.2 1904.9 565.2 1904.2 563.2C1902.5 558.6 1898.5 555.4 1894 554.5C1892.2 554.1 1890.4 554.1 1888.5 554.5C1888.4 554.5 1888.3 554.499 1888.3 554.599H1888.2H1888.1C1887.9 554.699 1887.6 554.7 1887.4 554.8C1887.2 554.8 1887.1 554.9 1886.9 554.9H1886.8C1886.7 554.9 1886.6 555 1886.5 555H1886.4C1886.2 555.1 1886 555.2 1885.8 555.3C1885.8 555.1 1885.7 554.899 1885.7 554.599C1885.7 554.499 1885.6 554.3 1885.6 554.2V554.099C1885.6 553.999 1885.6 553.9 1885.5 553.8C1885.5 553.6 1885.4 553.4 1885.4 553.3C1885.4 553.1 1885.3 552.9 1885.3 552.7C1885 551.4 1884.6 550 1884.1 548.7C1877.4 530.8 1857.5 521.6 1839.6 528.3C1839.5 528.3 1839.4 528.4 1839.3 528.4C1839.3 528.6 1839.2 528.9 1839.2 529.2C1839 531.1 1838.7 532.9 1838.3 534.8C1836.7 544.1 1834.1 553.3 1830.8 562C1829.4 565.7 1827.8 569.3 1826.1 572.8C1825 575.1 1823.8 577.399 1822.6 579.599C1820.8 582.899 1818.9 586.1 1816.8 589.3C1822.4 590.3 1828 590.999 1833.6 591.299C1833.6 591.399 1833.7 591.6 1833.7 591.7C1837.1 603.6 1837.9 615.9 1836.3 627.7Z" fill="url(#paint24_linear)"/>
<path d="M1839.1 567.3C1839.6 568.6 1840.2 569.7 1841 570.7C1845.7 570.5 1850.4 569.7 1855.1 568.2C1849.2 567.3 1843.6 565.4 1838.3 562.8C1838.2 564.3 1838.5 565.8 1839.1 567.3Z" fill="#212121"/>
<path d="M1836.3 627.7C1836.6 627.7 1837 627.7 1837.3 627.8C1842.7 628.1 1848.3 627.5 1853.8 626C1855.2 625.6 1856.5 625.2 1857.9 624.7C1884.4 614.8 1897.9 585.3 1888 558.8C1887.5 557.5 1887 556.2 1886.4 555C1886.5 555 1886.6 554.9 1886.7 554.9H1886.8C1886.9 554.9 1887.1 554.8 1887.2 554.8C1887.2 554.8 1887.2 554.8 1887.3 554.8H1887.4C1887.5 554.8 1887.6 554.7 1887.7 554.7C1887.8 554.7 1887.8 554.7 1887.9 554.7C1888 554.7 1888.1 554.7 1888.2 554.6H1888.3H1888.4C1888.5 554.6 1888.5 554.6 1888.6 554.6C1888.8 554.6 1889 554.5 1889.2 554.5C1889.4 554.5 1889.6 554.4 1889.8 554.4H1889.9C1890.1 554.4 1890.2 554.4 1890.4 554.4H1890.5C1890.7 554.4 1890.9 554.4 1891.1 554.4C1891.2 554.4 1891.2 554.4 1891.3 554.4C1891.5 554.4 1891.6 554.4 1891.8 554.4C1891.9 554.4 1891.9 554.4 1892 554.4C1892.2 554.4 1892.4 554.4 1892.6 554.4H1892.7C1892.9 554.4 1893 554.4 1893.2 554.5C1893.3 554.5 1893.3 554.5 1893.4 554.5C1893.6 554.5 1893.8 554.6 1894 554.6C1898.5 555.5 1902.4 558.7 1904.2 563.3C1904.9 565.3 1905.2 567.3 1905 569.3C1910.7 573.8 1917.8 576.4 1925.2 576.6C1924.2 574.8 1923.3 572.9 1922.5 570.9C1922.1 570 1921.7 569 1921.3 568.1C1921.3 568 1921.2 567.9 1921.2 567.8C1921.1 567.6 1921 567.3 1921 567.1C1920.9 566.7 1920.8 566.4 1920.7 566C1920.5 565.4 1920.4 564.7 1920.3 564C1920.3 563.7 1920.2 563.5 1920.2 563.2C1918 548.5 1924.2 524 1907.1 516.4C1906.9 516.3 1906.7 516.2 1906.5 516.1C1906.3 516 1906 515.9 1905.8 515.8C1905 515.5 1904.1 515.2 1903.2 515C1902.9 514.9 1902.7 514.9 1902.4 514.8C1902.1 514.7 1901.9 514.7 1901.6 514.6C1901.6 514.6 1901.5 514.6 1901.4 514.6H1901.3C1896.5 514.7 1844.9 514.8 1823.8 492.3C1822.8 494.6 1821.8 496.9 1820.7 499.1C1819.8 500.8 1819.2 502.6 1818.8 504.4C1818.8 504.4 1818.8 504.4 1818.8 504.5C1818.7 504.7 1818.7 504.9 1818.7 505.2V505.3C1818.7 505.5 1818.6 505.7 1818.6 505.9C1818.6 506 1818.6 506 1818.6 506.1C1818.6 506.3 1818.5 506.5 1818.5 506.7C1818.5 506.8 1818.5 506.8 1818.5 506.9C1818.5 507.1 1818.5 507.3 1818.4 507.4C1818.4 507.5 1818.4 507.6 1818.4 507.7C1818.4 507.9 1818.4 508 1818.4 508.2C1818.4 508.3 1818.4 508.4 1818.4 508.5C1818.4 508.6 1818.4 508.8 1818.4 508.9C1818.4 509 1818.4 509.1 1818.4 509.2C1818.4 509.3 1818.4 509.5 1818.4 509.6C1818.4 509.7 1818.4 509.8 1818.4 510C1818.4 510.1 1818.4 510.3 1818.4 510.4C1818.4 510.5 1818.4 510.7 1818.4 510.8C1818.4 510.9 1818.4 511 1818.4 511.1C1818.4 511.2 1818.4 511.4 1818.4 511.5C1818.4 511.5 1818.4 511.5 1818.4 511.6C1818.4 511.8 1818.4 511.9 1818.4 512.1C1818.4 512.2 1818.4 512.2 1818.4 512.3C1818.4 512.5 1818.4 512.7 1818.5 512.8C1818.5 512.9 1818.5 513 1818.5 513.1C1818.5 513.2 1818.5 513.4 1818.6 513.5C1818.6 513.6 1818.6 513.7 1818.6 513.8C1818.6 514 1818.7 514.2 1818.7 514.4C1818.7 514.5 1818.7 514.6 1818.7 514.6C1818.7 514.8 1818.8 514.9 1818.8 515.1C1818.8 515.2 1818.8 515.3 1818.9 515.4C1818.9 515.5 1819 515.7 1819 515.8C1819 515.9 1819 516 1819.1 516.1C1819.1 516.3 1819.2 516.4 1819.2 516.6C1819.2 516.7 1819.2 516.8 1819.3 516.8C1819.3 517 1819.4 517.1 1819.4 517.3C1819.4 517.4 1819.5 517.5 1819.5 517.6C1819.5 517.7 1819.6 517.9 1819.6 518C1819.6 518.1 1819.7 518.2 1819.7 518.3C1819.8 518.5 1819.8 518.6 1819.9 518.8C1819.9 518.9 1820 519 1820 519C1820.1 519.2 1820.1 519.3 1820.2 519.5C1820.2 519.6 1820.3 519.7 1820.3 519.8C1820.4 519.9 1820.4 520.1 1820.5 520.2C1820.5 520.3 1820.6 520.4 1820.6 520.4C1820.7 520.6 1820.7 520.7 1820.8 520.9C1820.8 521 1820.9 521.1 1820.9 521.2C1821 521.3 1821 521.5 1821.1 521.6C1821.1 521.7 1821.2 521.8 1821.2 521.9C1821.3 522 1821.3 522.1 1821.4 522.2C1821.4 522.3 1821.5 522.4 1821.5 522.5C1821.6 522.6 1821.7 522.8 1821.7 522.9C1821.8 523 1821.8 523.1 1821.9 523.2C1822 523.3 1822.1 523.5 1822.1 523.6C1822.2 523.7 1822.2 523.8 1822.3 523.9C1822.4 524 1822.4 524.1 1822.5 524.2C1822.6 524.3 1822.6 524.4 1822.7 524.5C1822.8 524.6 1822.8 524.7 1822.9 524.8C1823 524.9 1823.1 525.1 1823.2 525.2C1823.3 525.3 1823.3 525.4 1823.4 525.5C1823.5 525.6 1823.5 525.7 1823.6 525.8C1823.7 525.9 1823.7 526 1823.8 526C1823.9 526.1 1824 526.2 1824 526.3C1824.1 526.4 1824.1 526.4 1824.2 526.5C1824.4 526.7 1824.5 526.9 1824.7 527.1L1824.8 527.2C1824.9 527.3 1825 527.4 1825.1 527.5C1825.1 527.6 1825.2 527.6 1825.2 527.7C1825.3 527.8 1825.4 527.9 1825.5 528C1825.7 528.2 1825.9 528.4 1826.1 528.6C1826.2 528.7 1826.3 528.8 1826.4 528.9C1826.5 529 1826.7 529.2 1826.8 529.3C1826.8 529.3 1826.8 529.3 1826.9 529.4C1827.6 530 1828.3 530.5 1829 531L1829.1 531.1C1829.3 531.2 1829.5 531.4 1829.7 531.5C1829.8 531.5 1829.8 531.6 1829.9 531.6C1830.1 531.7 1830.3 531.9 1830.5 532C1830.5 532 1830.6 532 1830.6 532.1C1831.1 532.4 1831.6 532.7 1832.2 533C1832.2 533 1832.3 533 1832.3 533.1C1832.5 533.2 1832.7 533.3 1833 533.4C1833.1 533.4 1833.1 533.5 1833.2 533.5C1833.4 533.6 1833.6 533.7 1833.8 533.8C1833.9 533.8 1833.9 533.9 1834 533.9C1834.2 534 1834.5 534.1 1834.7 534.2H1834.8C1835.4 534.4 1836 534.6 1836.6 534.8C1836.7 534.8 1836.7 534.8 1836.8 534.8C1837 534.9 1837.3 534.9 1837.5 535C1837.6 535 1837.6 535 1837.7 535C1838 535.1 1838.2 535.1 1838.5 535.2H1838.6C1838.6 535.2 1838.6 535.2 1838.7 535.2C1838.8 535.2 1839 535.3 1839.1 535.3C1839.3 535.3 1839.4 535.3 1839.6 535.4C1839.8 535.4 1840 535.5 1840.2 535.5C1840.3 535.5 1840.4 535.5 1840.4 535.5C1840.6 535.5 1840.9 535.5 1841.1 535.6C1841.2 535.6 1841.2 535.6 1841.3 535.6C1841.6 535.6 1841.8 535.6 1842.1 535.7H1842.2C1843.2 535.8 1844.2 535.8 1845.2 535.8C1849.3 535.9 1853.4 535.8 1857.5 535.5C1858.9 535.4 1860.4 535.3 1861.8 535.1H1861.9C1862.1 535.1 1862.4 535.1 1862.6 535C1862.7 535 1862.8 535 1862.8 535C1863.1 535 1863.3 535 1863.6 535H1863.7C1863.9 535 1864.2 535 1864.4 535C1864.5 535 1864.5 535 1864.6 535C1864.9 535 1865.1 535 1865.4 535C1865.5 535 1865.5 535 1865.6 535C1865.8 535 1866 535 1866.3 535.1C1866.4 535.1 1866.4 535.1 1866.5 535.1C1866.7 535.1 1867 535.2 1867.2 535.2C1867.3 535.2 1867.3 535.2 1867.4 535.2C1867.6 535.2 1867.8 535.3 1868 535.3C1868.1 535.3 1868.1 535.3 1868.2 535.3C1868.4 535.3 1868.7 535.4 1868.9 535.5C1869 535.5 1869.1 535.5 1869.1 535.6C1869.3 535.6 1869.5 535.7 1869.7 535.7C1869.8 535.7 1869.8 535.7 1869.9 535.8C1870.1 535.9 1870.4 535.9 1870.6 536C1870.7 536 1870.7 536 1870.8 536.1C1871.1 536.4 1871.4 536.6 1871.7 536.9C1872.5 538.5 1873.2 540.1 1873.8 541.7C1882.4 564.8 1871.8 590.4 1850.1 600.9C1848.5 601.7 1846.5 600.9 1845.9 599.2C1844.1 594.3 1839.1 591.5 1834.2 592.3C1837.1 603.6 1837.9 615.9 1836.3 627.7ZM1885.3 552.9C1885.3 552.8 1885.3 552.7 1885.2 552.6C1885.3 552.7 1885.3 552.8 1885.3 552.9ZM1885.6 554.4C1885.6 554.3 1885.6 554.2 1885.6 554.2C1885.6 554.2 1885.6 554.3 1885.6 554.4ZM1885.5 553.7C1885.5 553.6 1885.5 553.6 1885.5 553.7C1885.5 553.5 1885.4 553.4 1885.4 553.3C1885.4 553.4 1885.5 553.5 1885.5 553.7Z" fill="url(#paint25_linear)"/>
<path d="M2045 705C2042 719 1976.9 819.7 1944 854C1895.9 904.3 1808.5 945.4 1778 957.6C1776.6 958.1 1775 904 1775 904C1790.6 892.3 1858.5 848.9 1878 822C1925 757 1904 688 1967.5 649.1C2041.2 603.9 2050.4 680 2045 705Z" fill="url(#paint26_linear)"/>
<path d="M1694 831.3V738.3C1693.8 737.9 1693.6 737.5 1693.5 737V660.8V617.1V615.4H1578C1564.3 615.4 1554.9 600.9 1561.2 588.8C1561.4 588.4 1561.7 587.9 1562 587.5C1578.7 560.7 1582.5 527.5 1551.5 509.3C1526.4 494.5 1491.9 504 1478 529.6C1466.5 550.7 1475.9 569.2 1486.7 588.1C1486.9 588.5 1487.2 589 1487.4 589.4C1493.2 601.5 1483.7 615.4 1470.4 615.4H1356.4V617.1V664.5V732C1356.4 736.7 1358.1 741.4 1361.4 744.7C1367.4 750.7 1377.1 752.6 1385.3 747.5C1412.1 730.8 1445.3 727 1463.5 758C1478.3 783.1 1467.3 817 1441.7 830.9C1420.6 842.3 1403.7 833.1 1384.6 822.8C1373.3 816.7 1361.8 820.2 1357.5 830.6C1356.6 832.7 1356.3 834.9 1356.3 837.2V934.2C1356.3 944.5 1364.6 952.8 1374.9 952.8H1441.6V953.1H1624.9V952.8H1675C1685.3 952.8 1693.6 944.5 1693.6 934.2V832.6C1693.6 832.1 1693.8 831.7 1694 831.3Z" fill="#5235DD"/>
<path opacity="0.82" d="M511.5 1374.6C793.883 1374.6 1022.8 1354.45 1022.8 1329.6C1022.8 1304.75 793.883 1284.6 511.5 1284.6C229.117 1284.6 0.199951 1304.75 0.199951 1329.6C0.199951 1354.45 229.117 1374.6 511.5 1374.6Z" fill="url(#paint27_linear)"/>
<path d="M545.3 1007.6L577.6 1091.9C577.6 1091.9 577.6 1092 577.7 1092C589.6 1115.2 598.1 1137.9 539.4 1146.8C539.1 1146.9 538.7 1146.9 538.4 1147L432 1176.6C431.2 1176.8 430.8 1177.6 431.1 1178.4L445.1 1216.7C445.3 1217.3 445.9 1217.7 446.5 1217.6C459.4 1215.9 568.4 1208.1 614.7 1202.2C667.3 1195.5 679.5 1168.9 673.6 1132.9L641.8 974.801C638.7 955.501 652.5 884.501 642.7 879.901C630.9 874.401 533.6 852.101 536.7 970.201C536.8 972.701 544.4 1005.3 545.3 1007.6Z" fill="url(#paint28_linear)"/>
<path d="M742.4 669.101C744.4 667.401 748 666.601 748.6 663.901C756.7 627.901 754.6 604.601 750.9 590.701C751.1 586.701 751.3 582.801 751.3 578.801C773.7 574.901 796.7 574.301 819.4 577.101C858.2 582.001 896.3 597.201 929.4 622.901C951.3 639.901 999.6 687.101 1013.4 709.301C1005.2 714.001 997 719.301 988.8 725.101C988.8 725.101 980.8 718.001 973.1 711.201C961 700.501 947.4 691.601 932.7 685.001C870.4 657.301 796.5 655.401 733.1 674.801C734.7 673.501 740.7 670.601 742.4 669.101Z" fill="url(#paint29_linear)"/>
<path d="M850.8 959.5C850.8 959.5 870.8 976.801 877.7 973.801C885.2 970.601 894.1 971.2 893.7 968.6C893.3 966.2 885 965.301 876.5 966.401C870.8 967.101 856.4 954.001 854.5 956.401C852.6 958.701 850.8 959.5 850.8 959.5Z" fill="url(#paint30_linear)"/>
<path d="M852.5 951.001L870.8 970.701C870.8 970.701 901.4 971.501 901.5 980.901C901.5 980.901 895.8 982.001 884.4 981.001C875.8 980.201 870.8 981.501 867.5 980.001C861.9 977.501 849.8 964.201 849.8 964.201C849.8 964.201 844.4 960.001 852.5 951.001Z" fill="url(#paint31_linear)"/>
<path d="M833.7 917.201C838.3 915.301 846.7 913.701 861.3 916.401C879.6 919.801 886.1 916.301 886.1 916.301C890.6 918.001 881.1 928.101 868.8 925.801C860.4 924.201 856.7 928.401 854.1 933.101C854.8 934.701 855.4 936.301 856 938.101C858.4 945.201 859.3 954.401 860.3 962.301L873.4 980.301C873.4 980.301 903.6 985.001 902.7 994.401C902.7 994.401 894.1 995.201 883.2 991.501C879.7 990.301 877.3 990.001 875.5 989.901C884.6 999.101 894.6 1009 891.2 1013.4C889.6 1015.4 855.6 988.301 851.3 980.501C836.1 953.301 806 944.201 806 944.201L806.3 944.001C790.5 947.601 775.6 949.201 775.6 949.201C768.5 935.801 772.9 918.001 772.9 918.001L833.7 917.201Z" fill="url(#paint32_linear)"/>
<path d="M746.3 970.3C852.5 1038.6 942.4 1112.6 1015.3 1209.9C1007.6 1219.3 999.7 1228.4 991.6 1237.2C968.3 1219.2 944 1202.1 918.9 1186C809.8 1115.9 722.8 1095.3 612.3 1051.4C553.1 1027.9 554.8 988.3 551 974.3C545.8 955.5 559.6 906.7 569.6 882.2C609.4 901 708.4 945.9 746.3 970.3Z" fill="url(#paint33_linear)"/>
<path d="M407.8 1287.6C406.5 1286.7 405.2 1285.7 404 1284.7C398.4 1280.3 393.4 1275.6 388.8 1270.5C380.6 1249.6 378.5 1226.6 382.7 1204.5C380.5 1203.9 378.2 1203.4 375.9 1203.1C373.9 1198.1 372 1193.1 370.2 1188.1C376 1187.4 381.7 1186 387.3 1183.8C387.8 1183.6 388.3 1183.4 388.8 1183.2C392.1 1181.8 395.4 1180.2 398.6 1178.3C404 1191.7 408.5 1205.3 411.9 1219.1C407.3 1231.6 405 1244.6 404.7 1257.6C404.4 1267.7 405.5 1277.8 407.8 1287.6Z" fill="url(#paint34_linear)"/>
<path d="M747.5 576.1C747.6 576.3 771.4 596.1 764.7 665.5C764.4 668.2 761 669.4 759.2 671.4C695.4 742 667.2 839.3 684.5 933.8C683.3 934.8 682.1 935.8 680.8 936.7C678.3 938.6 675.8 940.6 673.3 942.4C659.2 952.8 645.6 967.2 627.7 970.3C582.6 978 533.4 955.4 513.2 955.9C523.4 943.1 549.4 908 558.7 878.3C572 835.8 568.1 828.3 565.5 789.4C565.3 786 565 782.5 564.6 779.1C562.7 760 559.8 728 554.7 700.1C550.1 674.7 561.6 649.2 583.5 635.6C677.6 577.8 733.6 575.7 747.5 576.1Z" fill="url(#paint35_linear)"/>
<path d="M759.8 592.4C757.1 604.5 757.1 616.6 759.3 628.2C753.7 627.3 748.2 627 742.7 627.2C720.9 628 698.4 637 683 651.9C665.9 644.6 661.3 624.7 657.9 606C662.7 600.1 667.1 590.7 670.3 583.5C677.4 582.8 684.1 579.9 689.4 575.3C689.1 573.4 689.2 571.4 689.8 569.4C691.2 564.8 694.8 561.5 699.1 560.4C701.5 559.8 704 559.7 706.5 560.5C706.7 560.6 706.9 560.6 707.1 560.7C707.3 558.5 707.7 556.3 708.4 554.2C713.8 536.5 732.6 526.5 750.3 531.9C750.4 531.9 750.5 532 750.6 532C750.6 532.2 750.7 532.5 750.7 532.7C752.8 543.5 756.2 554 760.7 563.9C762.3 567.4 764 570.8 765.8 574.1C767 576.3 768.3 578.4 769.6 580.5C771.5 583.6 773.6 586.6 775.7 589.5C770.6 590.8 765.2 591.7 759.8 592.4Z" fill="url(#paint36_linear)"/>
<path d="M754.3 526.1C753.6 528.3 752.6 530.4 751.3 532.2C751.2 532.2 751.1 532.1 751.1 532.1C751 531.8 750.8 531.5 750.7 531.3C750.7 531.5 750.8 531.8 750.8 532C750.7 532 750.6 531.9 750.5 531.9C732.8 526.5 714 536.5 708.6 554.2C707.9 556.4 707.5 558.6 707.3 560.7C707.1 560.6 706.9 560.6 706.7 560.5C704.2 559.7 701.6 559.7 699.3 560.4C695 561.6 691.4 564.9 690 569.4C689.4 571.4 689.3 573.4 689.6 575.3C684.3 580 677.6 582.9 670.5 583.5C671.3 581.7 672.1 579.8 672.8 577.8C673.1 576.9 673.5 576 673.8 575C678.5 560.7 679.3 546 676.8 532.1C676.1 528.3 675.1 524.5 673.9 520.8C677.9 521.4 681.9 521.8 685.9 522C686.1 522 686.3 522 686.5 522C696.2 522.5 705.8 522 715.1 520.6C723.3 519.3 731.4 517.4 739.2 514.7C742.4 513.6 745.5 512.4 748.6 511.1C749.9 510.6 751.2 510 752.4 509.4C755.1 514.3 756.1 520.3 754.3 526.1Z" fill="url(#paint37_linear)"/>
<path d="M753.1 569.701C752.7 570.901 752.2 572.101 751.5 573.101C747 573.201 742.3 572.701 737.7 571.501C743.3 570.301 748.7 568.201 753.6 565.301C753.7 566.701 753.5 568.201 753.1 569.701Z" fill="#212121"/>
<path d="M665.7 661.801L676.9 651.801C660.2 643.001 654.4 603.601 654.4 603.601C640.8 644.601 665.7 661.801 665.7 661.801Z" fill="#212121"/>
<path d="M676.7 661.101C676.7 661.101 697.6 756.201 637.9 815.701C615.7 837.801 637.3 865.401 637.3 865.401C637.3 865.401 658.3 833.201 665.5 824.001C692.4 789.801 713.5 715.401 676.7 661.101Z" fill="#212121"/>
<path d="M688 651.9L684.6 664.3C684.6 664.3 706.3 638.1 704.6 636.7C702.9 635.3 688 651.9 688 651.9Z" fill="#212121"/>
<path d="M1122.3 1276.1C1108.8 1279.3 1095 1281.8 1080.9 1283.3C1068.1 1284.7 1055.4 1285.4 1042.8 1285.4C1039.8 1282.1 1036.6 1279.1 1033.1 1276.4C1030.7 1279.1 1028.4 1281.9 1026.4 1284.9C1020.6 1284.6 1014.8 1284.2 1009.1 1283.6C1011 1277.6 1012.3 1271.3 1012.7 1264.9C1013 1260.5 1012.9 1255.9 1012.4 1251.4C1028.4 1252.2 1044.2 1254.2 1059.7 1257.2C1081.3 1261.5 1102.3 1267.9 1122.3 1276.1Z" fill="url(#paint38_linear)"/>
<path d="M709.2 561.2C709 561.1 708.8 561 708.6 560.9C709 560.1 709.4 559.3 709.8 558.5C709.6 559.4 709.4 560.3 709.2 561.2Z" fill="url(#paint39_linear)"/>
<path d="M550 711C553 725 618.1 825.7 651 860C699.1 910.3 786.5 951.4 817 963.6C818.4 964.1 820 910 820 910C804.4 898.3 736.5 854.9 717 828C670 763 691 694 627.5 655.1C553.8 609.9 544.6 686 550 711Z" fill="url(#paint40_linear)"/>
<path d="M1336.6 760C1323.2 737.2 1301.4 733.7 1280.3 740.3C1256 748 1231.2 730.2 1231.2 704.7V642.7C1231.2 632.4 1222.9 624.1 1212.6 624.1H1120.6C1107.3 624.1 1097.9 637.9 1103.6 649.9C1103.8 650.3 1104 650.8 1104.3 651.2C1114.8 669.6 1124 687.8 1112.8 708.4C1099.2 733.5 1065.5 742.8 1040.9 728.3C1010.6 710.5 1014.3 678.1 1030.6 651.9C1032.8 648.3 1033.7 644.5 1033.4 640.8C1032.8 631.3 1024.5 624.1 1014.9 624.1H946.3H903.5V623.2H901.9V621.2H901.4V632.2V741.5V832.1V946V950.9H903H925H949.3H1019H1115.5H1180.4H1212.5C1222.8 950.9 1231.1 942.6 1231.1 932.3V869.3C1231.1 843.3 1256.8 825.5 1281.3 834C1292.6 837.9 1304.1 838.6 1316.5 831.8C1341.8 818.3 1351.1 784.6 1336.6 760Z" fill="#5235DD"/>
<defs>
<linearGradient id="paint0_linear" x1="1087.91" y1="240.856" x2="1732.72" y2="240.856" gradientUnits="userSpaceOnUse">
<stop stop-color="#212121"/>
<stop offset="1" stop-color="#2575FC"/>
</linearGradient>
<linearGradient id="paint1_linear" x1="441.327" y1="254.653" x2="1087.93" y2="254.653" gradientUnits="userSpaceOnUse">
<stop stop-color="#212121"/>
<stop offset="0.0126186" stop-color="#212225"/>
<stop offset="0.2886" stop-color="#223F70"/>
<stop offset="0.5349" stop-color="#2456AC"/>
<stop offset="0.7429" stop-color="#2467D8"/>
<stop offset="0.9045" stop-color="#2571F2"/>
<stop offset="1" stop-color="#2575FC"/>
</linearGradient>
<linearGradient id="paint2_linear" x1="949.3" y1="983.231" x2="1254.03" y2="301.534" gradientUnits="userSpaceOnUse">
<stop stop-color="#212121"/>
<stop offset="0.203" stop-color="#212224"/>
<stop offset="0.3443" stop-color="#21262D"/>
<stop offset="0.4669" stop-color="#212C3C"/>
<stop offset="0.5789" stop-color="#223452"/>
<stop offset="0.6836" stop-color="#223F6F"/>
<stop offset="0.7829" stop-color="#234C91"/>
<stop offset="0.878" stop-color="#245CBB"/>
<stop offset="0.9675" stop-color="#256EE9"/>
<stop offset="1" stop-color="#2575FC"/>
</linearGradient>
<linearGradient id="paint3_linear" x1="956.501" y1="840.79" x2="1325.58" y2="-199.26" gradientUnits="userSpaceOnUse">
<stop stop-color="#212121"/>
<stop offset="0.2014" stop-color="#223657"/>
<stop offset="0.4854" stop-color="#23519D"/>
<stop offset="0.7228" stop-color="#2464D0"/>
<stop offset="0.9012" stop-color="#2570F0"/>
<stop offset="1" stop-color="#2575FC"/>
</linearGradient>
<linearGradient id="paint4_linear" x1="1024.89" y1="93.5958" x2="1194.8" y2="118.357" gradientUnits="userSpaceOnUse">
<stop stop-color="#212121"/>
<stop offset="1" stop-color="#2575FC"/>
</linearGradient>
<linearGradient id="paint5_linear" x1="1104.36" y1="931.579" x2="1239.13" y2="866.193" gradientUnits="userSpaceOnUse">
<stop stop-color="#212121"/>
<stop offset="1" stop-color="#2575FC"/>
</linearGradient>
<linearGradient id="paint6_linear" x1="951.365" y1="923.579" x2="1086.14" y2="858.194" gradientUnits="userSpaceOnUse">
<stop stop-color="#212121"/>
<stop offset="1" stop-color="#2575FC"/>
</linearGradient>
<linearGradient id="paint7_linear" x1="803.028" y1="302.922" x2="1101.81" y2="243.452" gradientUnits="userSpaceOnUse">
<stop stop-color="#212121"/>
<stop offset="1" stop-color="#2575FC"/>
</linearGradient>
<linearGradient id="paint8_linear" x1="817.095" y1="198.61" x2="1071.37" y2="198.61" gradientUnits="userSpaceOnUse">
<stop stop-color="#212121"/>
<stop offset="0.3796" stop-color="#224071"/>
<stop offset="1" stop-color="#2575FC"/>
</linearGradient>
<linearGradient id="paint9_linear" x1="1232" y1="346.133" x2="1057.11" y2="371.473" gradientUnits="userSpaceOnUse">
<stop stop-color="#212121"/>
<stop offset="0.0126186" stop-color="#212225"/>
<stop offset="0.2886" stop-color="#223F70"/>
<stop offset="0.5349" stop-color="#2456AC"/>
<stop offset="0.7429" stop-color="#2467D8"/>
<stop offset="0.9045" stop-color="#2571F2"/>
<stop offset="1" stop-color="#2575FC"/>
</linearGradient>
<linearGradient id="paint10_linear" x1="1443.63" y1="216.276" x2="1562.7" y2="179.575" gradientUnits="userSpaceOnUse">
<stop stop-color="#212121"/>
<stop offset="0.0126186" stop-color="#212225"/>
<stop offset="0.2886" stop-color="#223F70"/>
<stop offset="0.5349" stop-color="#2456AC"/>
<stop offset="0.7429" stop-color="#2467D8"/>
<stop offset="0.9045" stop-color="#2571F2"/>
<stop offset="1" stop-color="#2575FC"/>
</linearGradient>
<linearGradient id="paint11_linear" x1="1451.5" y1="245.67" x2="1490.28" y2="198.636" gradientUnits="userSpaceOnUse">
<stop stop-color="#212121"/>
<stop offset="0.0126186" stop-color="#212225"/>
<stop offset="0.2886" stop-color="#223F70"/>
<stop offset="0.5349" stop-color="#2456AC"/>
<stop offset="0.7429" stop-color="#2467D8"/>
<stop offset="0.9045" stop-color="#2571F2"/>
<stop offset="1" stop-color="#2575FC"/>
</linearGradient>
<linearGradient id="paint12_linear" x1="1343.7" y1="1319.76" x2="4282.11" y2="1319.76" gradientUnits="userSpaceOnUse">
<stop stop-color="#212121"/>
<stop offset="1" stop-color="#5235DD"/>
</linearGradient>
<linearGradient id="paint13_linear" x1="2136.28" y1="930.705" x2="1860.4" y2="1291.43" gradientUnits="userSpaceOnUse">
<stop stop-color="#212121"/>
<stop offset="0.138" stop-color="#212325"/>
<stop offset="0.2736" stop-color="#212731"/>
<stop offset="0.4084" stop-color="#222F45"/>
<stop offset="0.5427" stop-color="#223960"/>
<stop offset="0.6766" stop-color="#234784"/>
<stop offset="0.8104" stop-color="#2458B0"/>
<stop offset="0.9415" stop-color="#256BE3"/>
<stop offset="1" stop-color="#2575FC"/>
</linearGradient>
<linearGradient id="paint14_linear" x1="1652.27" y1="627.427" x2="1847.33" y2="679.533" gradientUnits="userSpaceOnUse">
<stop stop-color="#212121"/>
<stop offset="0.0126186" stop-color="#212225"/>
<stop offset="0.2886" stop-color="#223F70"/>
<stop offset="0.5349" stop-color="#2456AC"/>
<stop offset="0.7429" stop-color="#2467D8"/>
<stop offset="0.9045" stop-color="#2571F2"/>
<stop offset="1" stop-color="#2575FC"/>
</linearGradient>
<linearGradient id="paint15_linear" x1="1782.57" y1="970.39" x2="1693.08" y2="951.517" gradientUnits="userSpaceOnUse">
<stop stop-color="#212121"/>
<stop offset="1" stop-color="#2575FC"/>
</linearGradient>
<linearGradient id="paint16_linear" x1="1745.4" y1="959.353" x2="1680.62" y2="961.995" gradientUnits="userSpaceOnUse">
<stop stop-color="#212121"/>
<stop offset="0.5151" stop-color="#2575FC"/>
</linearGradient>
<linearGradient id="paint17_linear" x1="1804.49" y1="956.9" x2="1729.72" y2="958.153" gradientUnits="userSpaceOnUse">
<stop stop-color="#212121"/>
<stop offset="1" stop-color="#2575FC"/>
</linearGradient>
<linearGradient id="paint18_linear" x1="1862.93" y1="1138.49" x2="1749.49" y2="950.971" gradientUnits="userSpaceOnUse">
<stop stop-color="#212121"/>
<stop offset="1" stop-color="#2575FC"/>
</linearGradient>
<linearGradient id="paint19_linear" x1="2226.25" y1="1145.31" x2="2145.14" y2="1382.07" gradientUnits="userSpaceOnUse">
<stop stop-color="#212121"/>
<stop offset="0.1993" stop-color="#223452"/>
<stop offset="0.5921" stop-color="#2457AD"/>
<stop offset="0.8679" stop-color="#256CE6"/>
<stop offset="1" stop-color="#2575FC"/>
</linearGradient>
<linearGradient id="paint20_linear" x1="2308.49" y1="1037.78" x2="1798.19" y2="658.105" gradientUnits="userSpaceOnUse">
<stop stop-color="#212121"/>
<stop offset="0.4882" stop-color="#234D93"/>
<stop offset="0.8391" stop-color="#246ADE"/>
<stop offset="1" stop-color="#2575FC"/>
</linearGradient>
<linearGradient id="paint21_linear" x1="1631.27" y1="1270.72" x2="1471.24" y2="1252.75" gradientUnits="userSpaceOnUse">
<stop stop-color="#212121"/>
<stop offset="1" stop-color="#2575FC"/>
</linearGradient>
<linearGradient id="paint22_linear" x1="1979.34" y1="598.328" x2="1855.68" y2="583.495" gradientUnits="userSpaceOnUse">
<stop stop-color="#212121"/>
<stop offset="1" stop-color="#2575FC"/>
</linearGradient>
<linearGradient id="paint23_linear" x1="1886.58" y1="554.059" x2="1884.97" y2="553.73" gradientUnits="userSpaceOnUse">
<stop stop-color="#212121"/>
<stop offset="1" stop-color="#2575FC"/>
</linearGradient>
<linearGradient id="paint24_linear" x1="1976.19" y1="614.723" x2="1858.28" y2="580.432" gradientUnits="userSpaceOnUse">
<stop stop-color="#212121"/>
<stop offset="1" stop-color="#2575FC"/>
</linearGradient>
<linearGradient id="paint25_linear" x1="1880.59" y1="586.567" x2="1822.96" y2="450.463" gradientUnits="userSpaceOnUse">
<stop stop-color="#212121"/>
<stop offset="1" stop-color="#2575FC"/>
</linearGradient>
<linearGradient id="paint26_linear" x1="1592.05" y1="1543.99" x2="1984.36" y2="631.961" gradientUnits="userSpaceOnUse">
<stop stop-color="#212121"/>
<stop offset="0.3796" stop-color="#224071"/>
<stop offset="1" stop-color="#2575FC"/>
</linearGradient>
<linearGradient id="paint27_linear" x1="1022.74" y1="1329.64" x2="-1915.67" y2="1329.64" gradientUnits="userSpaceOnUse">
<stop stop-color="#212121"/>
<stop offset="1" stop-color="#5235DD"/>
</linearGradient>
<linearGradient id="paint28_linear" x1="458.717" y1="936.706" x2="734.595" y2="1297.43" gradientUnits="userSpaceOnUse">
<stop stop-color="#212121"/>
<stop offset="0.138" stop-color="#212325"/>
<stop offset="0.2736" stop-color="#212731"/>
<stop offset="0.4084" stop-color="#222F45"/>
<stop offset="0.5427" stop-color="#223960"/>
<stop offset="0.6766" stop-color="#234784"/>
<stop offset="0.8104" stop-color="#2458B0"/>
<stop offset="0.9415" stop-color="#256BE3"/>
<stop offset="1" stop-color="#2575FC"/>
</linearGradient>
<linearGradient id="paint29_linear" x1="925.578" y1="623.537" x2="766.478" y2="705.174" gradientUnits="userSpaceOnUse">
<stop stop-color="#212121"/>
<stop offset="0.0126186" stop-color="#212225"/>
<stop offset="0.2886" stop-color="#223F70"/>
<stop offset="0.5349" stop-color="#2456AC"/>
<stop offset="0.7429" stop-color="#2467D8"/>
<stop offset="0.9045" stop-color="#2571F2"/>
<stop offset="1" stop-color="#2575FC"/>
</linearGradient>
<linearGradient id="paint30_linear" x1="812.435" y1="976.391" x2="901.916" y2="957.518" gradientUnits="userSpaceOnUse">
<stop stop-color="#212121"/>
<stop offset="1" stop-color="#2575FC"/>
</linearGradient>
<linearGradient id="paint31_linear" x1="849.597" y1="965.354" x2="914.383" y2="967.995" gradientUnits="userSpaceOnUse">
<stop stop-color="#212121"/>
<stop offset="0.5151" stop-color="#2575FC"/>
</linearGradient>
<linearGradient id="paint32_linear" x1="790.506" y1="962.901" x2="865.277" y2="964.154" gradientUnits="userSpaceOnUse">
<stop stop-color="#212121"/>
<stop offset="1" stop-color="#2575FC"/>
</linearGradient>
<linearGradient id="paint33_linear" x1="732.071" y1="1144.49" x2="845.509" y2="956.971" gradientUnits="userSpaceOnUse">
<stop stop-color="#212121"/>
<stop offset="1" stop-color="#2575FC"/>
</linearGradient>
<linearGradient id="paint34_linear" x1="368.756" y1="1151.32" x2="449.858" y2="1388.07" gradientUnits="userSpaceOnUse">
<stop stop-color="#212121"/>
<stop offset="0.1993" stop-color="#223452"/>
<stop offset="0.5921" stop-color="#2457AD"/>
<stop offset="0.8679" stop-color="#256CE6"/>
<stop offset="1" stop-color="#2575FC"/>
</linearGradient>
<linearGradient id="paint35_linear" x1="286.509" y1="1043.78" x2="796.808" y2="664.105" gradientUnits="userSpaceOnUse">
<stop stop-color="#212121"/>
<stop offset="0.4882" stop-color="#234D93"/>
<stop offset="0.8391" stop-color="#246ADE"/>
<stop offset="1" stop-color="#2575FC"/>
</linearGradient>
<linearGradient id="paint36_linear" x1="604.651" y1="610.354" x2="768.101" y2="580.624" gradientUnits="userSpaceOnUse">
<stop stop-color="#212121"/>
<stop offset="1" stop-color="#2575FC"/>
</linearGradient>
<linearGradient id="paint37_linear" x1="667.884" y1="553.501" x2="762.461" y2="528.093" gradientUnits="userSpaceOnUse">
<stop stop-color="#212121"/>
<stop offset="1" stop-color="#2575FC"/>
</linearGradient>
<linearGradient id="paint38_linear" x1="963.727" y1="1276.73" x2="1123.76" y2="1258.75" gradientUnits="userSpaceOnUse">
<stop stop-color="#212121"/>
<stop offset="1" stop-color="#2575FC"/>
</linearGradient>
<linearGradient id="paint39_linear" x1="708.418" y1="560.059" x2="710.027" y2="559.73" gradientUnits="userSpaceOnUse">
<stop stop-color="#212121"/>
<stop offset="1" stop-color="#2575FC"/>
</linearGradient>
<linearGradient id="paint40_linear" x1="1002.95" y1="1549.99" x2="610.642" y2="637.961" gradientUnits="userSpaceOnUse">
<stop stop-color="#212121"/>
<stop offset="0.3796" stop-color="#224071"/>
<stop offset="1" stop-color="#2575FC"/>
</linearGradient>
</defs>
</svg>
