<svg width="3000" height="1500" viewBox="0 0 3000 1500" fill="none" xmlns="http://www.w3.org/2000/svg">
<path d="M1299.4 732.9L1273.1 774.4C1271.6 776.8 1260.9 784.6 1252.9 791.9C1237.4 805.9 1234.3 786.5 1234.3 786.5C1234.3 786.5 1226.3 783.5 1218.8 770.9C1218.8 770.9 1217.7 766.2 1219.1 764.2C1223.3 758.3 1221 744.9 1240.2 745.3L1271.7 724.1L1299.4 732.9Z" fill="url(#paint0_linear)"/>
<path d="M1875.6 435.9C1875.6 435.9 1879.4 414.3 1885.4 412.5C1891.9 410.6 1897.4 405.5 1898.5 407.4C1899.5 409.2 1894.6 414.1 1888.6 417.9C1884.6 420.4 1882.2 436.4 1879.7 435.9C1877.2 435.5 1875.6 435.9 1875.6 435.9Z" fill="url(#paint1_linear)"/>
<path d="M1881.1 440.5L1882.5 418.2C1882.5 418.2 1901.8 401.6 1896.9 395.5C1896.9 395.5 1892.7 397.8 1885.8 404.5C1880.7 409.5 1876.8 411.3 1875.5 414C1873.2 418.6 1872.4 433.5 1872.4 433.5C1872.4 433.5 1871.2 438.9 1881.1 440.5Z" fill="url(#paint2_linear)"/>
<path d="M1886.8 472.1C1890.8 470.9 1897 467.5 1905 458.1C1915 446.3 1921.1 445.1 1921.1 445.1C1923.1 441.6 1911.7 440.1 1905 448C1900.4 453.4 1895.9 452.7 1891.7 451C1891.3 449.6 1890.9 448.2 1890.3 446.7C1888.1 440.9 1883.8 434.5 1880.4 428.9L1879.4 410.4C1879.4 410.4 1896.4 391.5 1890.9 386C1890.9 386 1885 390 1879.9 398.1C1878.3 400.7 1876.9 402.2 1875.8 403.2C1876.9 392.5 1878.1 380.8 1873.6 379.9C1871.5 379.4 1863.8 414.8 1865.1 422.1C1869.6 447.6 1855 469.3 1855 469.3H1855.3C1843.2 475.3 1832.8 482.1 1832.8 482.1C1835.3 494.5 1847.4 503.6 1847.4 503.6L1886.8 472.1Z" fill="url(#paint3_linear)"/>
<path d="M1610.9 631C1617.8 603.9 1633.1 575 1648.4 553C1726 547.6 1796.8 510.5 1844.8 452.8C1846 451.3 1847.2 449.9 1848.4 448.4C1851 450 1853.5 451.6 1856 453.3C1869.7 462.3 1871.5 469.2 1883.7 483.7C1786.8 582.2 1719.3 616.6 1610.9 631Z" fill="url(#paint4_linear)"/>
<path d="M1589.6 652.5C1584 657.4 1578.2 662 1572.2 666.4C1577.7 661.5 1583.6 656.8 1589.6 652.5Z" fill="url(#paint5_linear)"/>
<path d="M1788.4 1019.7C1776.6 1027.2 1764.1 1034.2 1751.1 1040.3C1739.3 1045.9 1727.3 1050.8 1715.3 1054.9C1711.4 1052.8 1707.3 1051 1703.1 1049.5C1701.7 1052.9 1700.5 1056.4 1699.5 1059.9C1693.8 1061.5 1688.2 1063 1682.5 1064.4C1682.4 1058 1681.5 1051.6 1679.8 1045.3C1678.6 1041 1677 1036.6 1675.1 1032.4C1690.7 1027.9 1706.5 1024.5 1722.3 1022.3C1744.3 1019.3 1766.5 1018.4 1788.4 1019.7Z" fill="url(#paint6_linear)"/>
<path d="M1131.8 1200.6C1130.3 1199.7 1128.8 1198.9 1127.3 1197.9C1120.7 1193.9 1114.6 1189.3 1109.1 1184.4C1097.7 1162.7 1092.5 1138.1 1094.3 1113.5C1091.8 1113.1 1089.3 1112.9 1086.8 1112.8C1084 1107.6 1081.3 1102.5 1078.8 1097.2C1085 1095.7 1091 1093.5 1096.8 1090.5C1097.3 1090.2 1097.8 1090 1098.3 1089.7C1101.7 1087.8 1105.1 1085.6 1108.3 1083.2C1115.8 1097.1 1122.3 1111.3 1127.8 1125.8C1124.4 1139.9 1123.4 1154.3 1124.7 1168.5C1125.7 1179.4 1128.1 1190.3 1131.8 1200.6Z" fill="url(#paint7_linear)"/>
<path d="M1385.4 897.8C1306.8 978.7 1227 1045.3 1132.2 1095C1126.2 1087.5 1120.6 1079.8 1115.3 1072C1135 1054.6 1154.2 1036.3 1172.8 1017.1C1253.5 934 1307.7 872.2 1349.2 776.4C1363.1 744.2 1376.2 744.1 1388.4 742.5C1404.8 740.4 1478 749 1495.7 760.2C1471.6 791.4 1413.5 868.9 1385.4 897.8Z" fill="url(#paint8_linear)"/>
<path d="M1499.4 872.4L1594.8 849.2H1594.9C1621.6 839.6 1647.2 833.6 1648.6 898.1C1648.6 898.5 1648.6 898.9 1648.7 899.2L1665.7 1017.9C1665.8 1018.7 1666.6 1019.3 1667.5 1019.1L1710.7 1009.4C1711.4 1009.2 1711.8 1008.7 1711.8 1008C1711.7 993.8 1718.5 875.4 1718.6 824.6C1718.7 767 1691.7 750.2 1652.2 751.5L1477.4 763.9C1456.2 764.6 1381.6 739.9 1375.3 749.8C1367.7 761.7 1330.2 863.5 1457.8 876.6C1460.7 876.6 1496.8 873 1499.4 872.4Z" fill="url(#paint9_linear)"/>
<path d="M1655.3 551.8C1668.2 621.9 1616 638.2 1572.2 666.3C1539.3 687.5 1519.8 725.3 1506.2 763.1C1505 763.3 1503.8 763.5 1502.6 763.6C1500.2 763.9 1497.8 764.2 1495.4 764.5C1482.1 765.9 1468.4 766.2 1454.6 765.3C1436.4 764.1 1418.8 760.9 1402 755.8C1401.3 755.6 1400.6 755.4 1400 755.2C1385 750.5 1370.7 744.4 1357.2 737C1368.9 732.5 1380.1 727 1390.9 720.8C1398.2 716.5 1405.3 711.8 1412.1 706.8C1413.4 705.8 1414.7 704.8 1416 703.8C1420.9 700 1425.6 696.1 1430.1 692C1451.8 672.4 1469.9 648.7 1483.1 622.1C1484.3 619.7 1485.4 617.4 1486.5 615C1495.8 594.5 1502.3 572.3 1505.5 549C1517.2 545.3 1529.4 542.5 1541.8 540.6C1547.8 539.7 1553.9 539.1 1560 538.6C1563.5 538.4 1567.1 538.2 1570.6 538.1C1577.6 537.9 1584.7 538.1 1591.8 538.6C1592.4 538.6 1593 538.7 1593.7 538.7C1615.1 540.4 1635.8 544.9 1655.3 551.8Z" fill="url(#paint10_linear)"/>
<path d="M1647.9 495.4C1650.2 504.7 1654.3 513.1 1659.8 520.3C1655.7 521.6 1651.7 523.3 1648 525.3C1633.2 533.3 1622.1 546.5 1616.5 562.2C1602.4 558.1 1590 549.5 1581.2 537.7C1582.5 532 1583.1 526 1582.9 519.9C1587.6 517 1591.2 512.7 1593.3 507.7C1592.5 506.5 1591.9 505.1 1591.6 503.5C1591 499.9 1592.4 496.3 1594.9 494.1C1596.3 492.8 1598.1 492 1600.1 491.6C1600.3 491.6 1600.4 491.5 1600.6 491.5C1600 489.9 1599.6 488.3 1599.3 486.5C1597 472.4 1606.5 459.1 1620.6 456.7C1620.7 456.7 1620.8 456.7 1620.9 456.7C1621 456.9 1621.1 457 1621.2 457.2C1626.4 463.9 1632.3 470 1638.8 475.4C1641.1 477.3 1643.4 479 1645.9 480.7C1647.5 481.8 1649.1 482.8 1650.7 483.8C1653.1 485.3 1655.5 486.6 1658 487.9C1654.8 490.6 1651.4 493.1 1647.9 495.4Z" fill="url(#paint11_linear)"/>
<path d="M1621.4 451.4C1621.7 453.2 1621.7 454.9 1621.4 456.6C1621.3 456.6 1621.3 456.6 1621.2 456.6C1621 456.5 1620.8 456.3 1620.6 456.2C1620.7 456.4 1620.8 456.5 1620.9 456.7C1620.8 456.7 1620.7 456.7 1620.6 456.7C1606.5 459 1596.9 472.3 1599.3 486.5C1599.6 488.2 1600 489.9 1600.6 491.5C1600.4 491.5 1600.3 491.5 1600.1 491.6C1598.1 491.9 1596.3 492.8 1594.9 494.1C1592.3 496.4 1590.9 499.9 1591.6 503.5C1591.9 505.1 1592.5 506.5 1593.3 507.7C1591.2 512.7 1587.6 517.1 1582.9 519.9C1582.8 518.3 1582.7 516.8 1582.6 515.2C1582.5 514.4 1582.4 513.7 1582.3 513C1580.7 501.5 1576.2 491 1569.7 482.3C1567.9 479.9 1565.9 477.6 1563.8 475.5C1566.8 474.5 1569.7 473.4 1572.5 472.2C1572.6 472.1 1572.8 472.1 1572.9 472C1579.8 469.1 1586.2 465.4 1592.2 461.2C1597.4 457.5 1602.3 453.4 1606.8 448.9C1608.6 447.1 1610.4 445.2 1612.1 443.2C1612.8 442.4 1613.5 441.6 1614.2 440.7C1617.9 443 1620.6 446.8 1621.4 451.4Z" fill="url(#paint12_linear)"/>
<path d="M1635.5 482C1635.7 483 1635.7 484 1635.6 484.9C1632.5 486.5 1629.1 487.7 1625.6 488.5C1629.1 485.7 1632.1 482.4 1634.5 478.7C1634.9 479.8 1635.3 480.8 1635.5 482Z" fill="url(#paint13_linear)"/>
<path d="M1635.5 482C1635.7 483 1635.7 484 1635.6 484.9C1632.5 486.5 1629.1 487.7 1625.6 488.5C1629.1 485.7 1632.1 482.4 1634.5 478.7C1634.9 479.8 1635.3 480.8 1635.5 482Z" fill="#232323"/>
<path d="M2725.9 237.5L2754.7 91.2998L2781.3 232.4L2841.2 263.1L2772 295.5L2757.7 442.8L2725.7 298.6L2658.5 268.1L2725.9 237.5Z" fill="#7F6AE6"/>
<path d="M1506.9 548.3C1503.6 577 1495.2 604.2 1482.7 628.8C1405 644.9 1338.5 692.6 1297.8 758.2C1296.8 759.9 1295.7 761.6 1294.7 763.2C1291.9 761.9 1289.1 760.6 1286.3 759.2C1271.3 751.8 1263 739.6 1248.7 726.4C1311.7 637.3 1399.4 577.8 1506.9 548.3Z" fill="url(#paint14_linear)"/>
<path d="M1374.2 1325.5H983.2V1496.8H1374.2V1325.5Z" fill="url(#paint15_radial)"/>
<path d="M806.4 1437.4H415.4V1497.9H806.4V1437.4Z" fill="url(#paint16_radial)"/>
<path d="M1914.9 1131.9H1523.9V1496.8H1914.9V1131.9Z" fill="url(#paint17_radial)"/>
<path d="M2945.8 524.4H2553.9V1495.9H2945.8V524.4Z" fill="url(#paint18_radial)"/>
<path d="M2430.6 871H2039.6V1495.9H2430.6V871Z" fill="url(#paint19_radial)"/>
<path d="M2235.1 897.3C2343.07 897.3 2430.6 887.002 2430.6 874.3C2430.6 861.597 2343.07 851.3 2235.1 851.3C2127.13 851.3 2039.6 861.597 2039.6 874.3C2039.6 887.002 2127.13 897.3 2235.1 897.3Z" fill="#2575FC"/>
<path d="M2749.8 547.4C2857.77 547.4 2945.3 537.103 2945.3 524.4C2945.3 511.698 2857.77 501.4 2749.8 501.4C2641.83 501.4 2554.3 511.698 2554.3 524.4C2554.3 537.103 2641.83 547.4 2749.8 547.4Z" fill="#2575FC"/>
<path d="M1718.7 1154.9C1826.67 1154.9 1914.2 1144.6 1914.2 1131.9C1914.2 1119.2 1826.67 1108.9 1718.7 1108.9C1610.73 1108.9 1523.2 1119.2 1523.2 1131.9C1523.2 1144.6 1610.73 1154.9 1718.7 1154.9Z" fill="#2575FC"/>
<path d="M1178.7 1348.5C1286.67 1348.5 1374.2 1338.2 1374.2 1325.5C1374.2 1312.8 1286.67 1302.5 1178.7 1302.5C1070.73 1302.5 983.2 1312.8 983.2 1325.5C983.2 1338.2 1070.73 1348.5 1178.7 1348.5Z" fill="#2575FC"/>
<path d="M610.9 1460.4C718.872 1460.4 806.4 1450.1 806.4 1437.4C806.4 1424.7 718.872 1414.4 610.9 1414.4C502.929 1414.4 415.4 1424.7 415.4 1437.4C415.4 1450.1 502.929 1460.4 610.9 1460.4Z" fill="#2E7BFC"/>
<path d="M1609.8 571.8L1613.5 561.2C1599.4 561.5 1581.2 537.7 1581.2 537.7C1587.2 569.5 1609.8 571.8 1609.8 571.8Z" fill="#232323"/>
<path d="M1613.5 574C1613.5 574 1588.9 642.8 1527.2 656.7C1504.3 661.9 1507 688 1507 688C1507 688 1533.2 675.9 1541.5 672.9C1572.1 661.9 1615.2 623.1 1613.5 574Z" fill="#232323"/>
<path d="M1616.6 562.2V571.8C1616.6 571.8 1627 548.5 1625.5 547.9C1624 547.3 1616.6 562.2 1616.6 562.2Z" fill="#232323"/>
<defs>
<linearGradient id="paint0_linear" x1="1387.32" y1="609.65" x2="1145.8" y2="876.839" gradientUnits="userSpaceOnUse">
<stop stop-color="#212121"/>
<stop offset="0.203" stop-color="#212224"/>
<stop offset="0.3443" stop-color="#22262D"/>
<stop offset="0.4669" stop-color="#222C3C"/>
<stop offset="0.5789" stop-color="#233552"/>
<stop offset="0.6836" stop-color="#25406F"/>
<stop offset="0.7829" stop-color="#274E91"/>
<stop offset="0.878" stop-color="#295FBB"/>
<stop offset="0.9675" stop-color="#2B71E9"/>
<stop offset="1" stop-color="#2C79FC"/>
</linearGradient>
<linearGradient id="paint1_linear" x1="1841.99" y1="445.185" x2="1909.58" y2="410.308" gradientUnits="userSpaceOnUse">
<stop stop-color="#212121"/>
<stop offset="1" stop-color="#2C79FC"/>
</linearGradient>
<linearGradient id="paint2_linear" x1="1871.74" y1="432.762" x2="1912.11" y2="397.002" gradientUnits="userSpaceOnUse">
<stop stop-color="#212121"/>
<stop offset="0.5151" stop-color="#2C79FC"/>
</linearGradient>
<linearGradient id="paint3_linear" x1="1834.95" y1="465.405" x2="1882.48" y2="425.29" gradientUnits="userSpaceOnUse">
<stop stop-color="#212121"/>
<stop offset="1" stop-color="#2C79FC"/>
</linearGradient>
<linearGradient id="paint4_linear" x1="2025.81" y1="436.706" x2="1198.36" y2="755.313" gradientUnits="userSpaceOnUse">
<stop stop-color="#212121"/>
<stop offset="0.0924341" stop-color="#23324C"/>
<stop offset="0.2078" stop-color="#25457A"/>
<stop offset="0.3274" stop-color="#2755A2"/>
<stop offset="0.4495" stop-color="#2962C3"/>
<stop offset="0.5748" stop-color="#2A6CDC"/>
<stop offset="0.7048" stop-color="#2B73EE"/>
<stop offset="0.8423" stop-color="#2C78F9"/>
<stop offset="1" stop-color="#2C79FC"/>
</linearGradient>
<linearGradient id="paint5_linear" x1="1572.17" y1="659.433" x2="1589.58" y2="659.433" gradientUnits="userSpaceOnUse">
<stop stop-color="#212121"/>
<stop offset="1" stop-color="#2C79FC"/>
</linearGradient>
<linearGradient id="paint6_linear" x1="1503.45" y1="1041.79" x2="1806.35" y2="1041.79" gradientUnits="userSpaceOnUse">
<stop stop-color="#212121"/>
<stop offset="0.203" stop-color="#212224"/>
<stop offset="0.3443" stop-color="#22262D"/>
<stop offset="0.4669" stop-color="#222C3C"/>
<stop offset="0.5789" stop-color="#233552"/>
<stop offset="0.6836" stop-color="#25406F"/>
<stop offset="0.7829" stop-color="#274E91"/>
<stop offset="0.878" stop-color="#295FBB"/>
<stop offset="0.9675" stop-color="#2B71E9"/>
<stop offset="1" stop-color="#2C79FC"/>
</linearGradient>
<linearGradient id="paint7_linear" x1="1048.32" y1="1097.8" x2="1219.61" y2="1203.34" gradientUnits="userSpaceOnUse">
<stop stop-color="#212121"/>
<stop offset="1" stop-color="#2C79FC"/>
</linearGradient>
<linearGradient id="paint8_linear" x1="1240.3" y1="892.04" x2="1430.76" y2="983.859" gradientUnits="userSpaceOnUse">
<stop stop-color="#212121"/>
<stop offset="1" stop-color="#2C79FC"/>
</linearGradient>
<linearGradient id="paint9_linear" x1="1422.69" y1="1018.41" x2="1631.97" y2="777.241" gradientUnits="userSpaceOnUse">
<stop stop-color="#212121"/>
<stop offset="1" stop-color="#2C79FC"/>
</linearGradient>
<linearGradient id="paint10_linear" x1="1353.03" y1="713.233" x2="1632.37" y2="608.73" gradientUnits="userSpaceOnUse">
<stop stop-color="#212121"/>
<stop offset="1" stop-color="#2C79FC"/>
</linearGradient>
<linearGradient id="paint11_linear" x1="1556.01" y1="554.243" x2="1630.7" y2="498.68" gradientUnits="userSpaceOnUse">
<stop stop-color="#212121"/>
<stop offset="1" stop-color="#2C79FC"/>
</linearGradient>
<linearGradient id="paint12_linear" x1="1561.16" y1="508.683" x2="1629.84" y2="448.193" gradientUnits="userSpaceOnUse">
<stop stop-color="#212121"/>
<stop offset="1" stop-color="#2C79FC"/>
</linearGradient>
<linearGradient id="paint13_linear" x1="1625.5" y1="483.656" x2="1635.62" y2="483.656" gradientUnits="userSpaceOnUse">
<stop stop-color="#212121"/>
<stop offset="1" stop-color="#2C79FC"/>
</linearGradient>
<linearGradient id="paint14_linear" x1="602.646" y1="1145.83" x2="1608.32" y2="512.205" gradientUnits="userSpaceOnUse">
<stop stop-color="#212121"/>
<stop offset="0.1748" stop-color="#212224"/>
<stop offset="0.3139" stop-color="#22262E"/>
<stop offset="0.4408" stop-color="#232D3F"/>
<stop offset="0.5603" stop-color="#243757"/>
<stop offset="0.6748" stop-color="#254375"/>
<stop offset="0.7855" stop-color="#27529B"/>
<stop offset="0.8927" stop-color="#2964C7"/>
<stop offset="0.9953" stop-color="#2C78FA"/>
<stop offset="1" stop-color="#2C79FC"/>
</linearGradient>
<radialGradient id="paint15_radial" cx="0" cy="0" r="1" gradientUnits="userSpaceOnUse" gradientTransform="translate(1163.43 1275.36) scale(362.461 362.461)">
<stop stop-color="#2C79FC"/>
<stop offset="0.4623" stop-color="#2575FC"/>
<stop offset="1" stop-color="#212121"/>
</radialGradient>
<radialGradient id="paint16_radial" cx="0" cy="0" r="1" gradientUnits="userSpaceOnUse" gradientTransform="translate(613.981 1381.82) scale(288.148)">
<stop stop-color="#2C79FC"/>
<stop offset="0.4623" stop-color="#2575FC"/>
<stop offset="1" stop-color="#212121"/>
</radialGradient>
<radialGradient id="paint17_radial" cx="0" cy="0" r="1" gradientUnits="userSpaceOnUse" gradientTransform="translate(1721.43 1082.56) scale(469.815)">
<stop stop-color="#2C79FC"/>
<stop offset="1" stop-color="#212121"/>
</radialGradient>
<radialGradient id="paint18_radial" cx="0" cy="0" r="1" gradientUnits="userSpaceOnUse" gradientTransform="translate(2762.1 464.758) scale(945.679 945.678)">
<stop stop-color="#2C79FC"/>
<stop offset="0.9626" stop-color="#212121"/>
</radialGradient>
<radialGradient id="paint19_radial" cx="0" cy="0" r="1" gradientUnits="userSpaceOnUse" gradientTransform="translate(2238.21 720.778) scale(839.374 839.374)">
<stop stop-color="#2C79FC"/>
<stop offset="1" stop-color="#212121"/>
</radialGradient>
</defs>
</svg>
