<svg width="3000" height="1500" viewBox="0 0 3000 1500" fill="none" xmlns="http://www.w3.org/2000/svg">
<path d="M2583.8 648C2583.8 648 2605 629.8 2612.4 633C2620.3 636.4 2629.8 635.9 2629.3 638.6C2628.9 641.2 2620.1 642 2611.1 640.9C2605.1 640.1 2589.8 653.9 2587.8 651.4C2585.8 649 2583.8 648 2583.8 648Z" fill="url(#paint0_linear)"/>
<path d="M2585.6 657L2605.1 636.2C2605.1 636.2 2637.5 635.5 2637.6 625.6C2637.6 625.6 2631.6 624.4 2619.5 625.5C2610.4 626.3 2605.1 624.9 2601.6 626.5C2595.6 629.2 2582.7 643.2 2582.7 643.2C2582.7 643.2 2577.1 647.5 2585.6 657Z" fill="url(#paint1_linear)"/>
<path opacity="0.82" d="M2109 1318C2407.95 1318 2650.3 1296.69 2650.3 1270.4C2650.3 1244.11 2407.95 1222.8 2109 1222.8C1810.05 1222.8 1567.7 1244.11 1567.7 1270.4C1567.7 1296.69 1810.05 1318 2109 1318Z" fill="url(#paint2_linear)"/>
<path d="M2315.2 933.6L2280.9 1022.9C2280.9 1022.9 2280.9 1023 2280.8 1023C2268.2 1047.6 2259.2 1071.6 2321.3 1081C2321.7 1081.1 2322 1081.1 2322.4 1081.2L2435 1112.4C2435.8 1112.6 2436.2 1113.5 2436 1114.3L2421.2 1154.9C2421 1155.5 2420.3 1155.9 2419.7 1155.8C2406 1153.9 2290.7 1145.8 2241.6 1139.5C2186 1132.4 2173 1104.2 2179.2 1066.2L2212.9 898.8C2216.2 878.4 2201.6 803.2 2211.9 798.3C2224.4 792.5 2327.4 768.9 2324.1 893.9C2324.2 896.6 2316.2 931.1 2315.2 933.6Z" fill="url(#paint3_linear)"/>
<path d="M2089.4 902.3C1968.6 979.9 1865.7 1063.2 1781.1 1171C1789.3 1180.9 1797.8 1190.5 1806.6 1199.7C1833.2 1179.4 1860.8 1160.1 1889.5 1141.7C2013.5 1062 2111.3 1036.6 2236 985.2C2302.8 957.7 2302.3 914.9 2307.1 899.7C2313.5 879.1 2299.9 826.9 2289.6 800.8C2244.5 822.5 2132.6 874.6 2089.4 902.3Z" fill="url(#paint4_linear)"/>
<path d="M2460.8 1230C2462.2 1229 2463.5 1228 2464.9 1226.9C2470.8 1222.3 2476.2 1217.2 2481 1211.9C2489.7 1189.7 2491.9 1165.4 2487.5 1142C2489.9 1141.4 2492.2 1140.9 2494.7 1140.5C2496.8 1135.2 2498.9 1129.9 2500.7 1124.6C2494.6 1123.8 2488.5 1122.3 2482.6 1120.1C2482.1 1119.9 2481.6 1119.7 2481.1 1119.5C2477.6 1118 2474.1 1116.3 2470.8 1114.3C2465 1128.5 2460.4 1142.9 2456.7 1157.5C2461.5 1170.7 2464 1184.5 2464.3 1198.3C2464.4 1209 2463.3 1219.6 2460.8 1230Z" fill="url(#paint5_linear)"/>
<path d="M2101.1 476.7C2101 476.9 2075.8 497.9 2082.9 571.4C2083.2 574.2 2086.8 575.5 2088.7 577.7C2156.3 652.4 2186.1 755.4 2167.8 855.5C2169.1 856.5 2170.4 857.6 2171.7 858.6C2174.3 860.7 2177 862.7 2179.7 864.7C2194.7 875.7 2209.1 891 2228 894.2C2275.8 902.3 2327.9 878.4 2349.2 878.9C2338.4 865.3 2310.9 828.2 2301.1 796.8C2287 751.8 2291.2 743.9 2293.9 702.7C2294.1 699.1 2294.4 695.4 2294.8 691.8C2297.9 660.7 2303.5 597.4 2316 567.3C2191.4 479.1 2117.8 476.2 2101.1 476.7Z" fill="url(#paint6_linear)"/>
<path d="M2187.7 567.4L2175.9 556.8C2193.5 547.5 2199.7 505.7 2199.7 505.7C2214.1 549.2 2187.7 567.4 2187.7 567.4Z" fill="#212121"/>
<path d="M2176 566.7C2176 566.7 2153.8 667.4 2217.1 730.4C2240.6 753.8 2217.7 783 2217.7 783C2217.7 783 2195.5 748.9 2187.8 739.1C2159.5 702.9 2137.1 624.2 2176 566.7Z" fill="#212121"/>
<path d="M2164.1 556.9L2167.7 570C2167.7 570 2144.8 542.2 2146.6 540.8C2148.3 539.4 2164.1 556.9 2164.1 556.9Z" fill="#212121"/>
<path d="M1683.3 1232.8C1697.6 1236.2 1712.2 1238.8 1727.1 1240.5C1740.7 1242 1754.1 1242.8 1767.5 1242.7C1770.6 1239.3 1774.1 1236.1 1777.7 1233.2C1780.3 1236 1782.6 1239.1 1784.8 1242.3C1790.9 1242 1797.1 1241.5 1803.1 1240.9C1801 1234.6 1799.7 1227.9 1799.3 1221.1C1799 1216.4 1799.1 1211.6 1799.6 1206.8C1782.6 1207.7 1765.9 1209.7 1749.6 1213C1726.7 1217.4 1704.5 1224.1 1683.3 1232.8Z" fill="url(#paint7_linear)"/>
<path d="M2086.4 499C2090.2 512 2091 525.3 2089.3 538C2095.3 536.7 2101.3 536 2107.3 535.8C2131.1 535.2 2154.1 543.6 2171.9 559C2186.3 544 2195.5 524.7 2198 504.1C2192.3 498 2187.4 491.1 2183.4 483.4C2175.6 483.2 2168.1 480.4 2162 475.7C2162.2 473.6 2161.9 471.4 2161.1 469.3C2159.3 464.4 2155.1 461 2150.3 460.1C2147.7 459.6 2144.9 459.7 2142.2 460.7C2142 460.8 2141.8 460.9 2141.5 461C2141.1 458.6 2140.5 456.3 2139.6 454C2132.5 435 2111.4 425.4 2092.4 432.4C2092.3 432.4 2092.2 432.5 2092.1 432.5C2092.1 432.8 2092 433 2092 433.3C2090.4 445.2 2087.4 456.9 2083.1 468C2081.6 471.9 2080 475.7 2078.2 479.5C2077 481.9 2075.8 484.3 2074.5 486.7C2072.6 490.2 2070.6 493.6 2068.4 496.9C2074.4 497.9 2080.4 498.6 2086.4 499Z" fill="url(#paint8_linear)"/>
<path d="M2141.6 460.9C2141.8 460.8 2142 460.7 2142.3 460.6C2141.9 459.7 2141.5 458.9 2141 458.1C2141.3 459 2141.5 459.9 2141.6 460.9Z" fill="url(#paint9_linear)"/>
<path d="M2141.6 460.9C2141.8 460.8 2142 460.7 2142.3 460.6C2141.9 459.7 2141.5 458.9 2141 458.1C2141.3 459 2141.5 459.9 2141.6 460.9Z" stroke="#231F20" stroke-width="3" stroke-miterlimit="10"/>
<path d="M728.9 598.6C808.9 654 892.8 646 918.7 608.4C949.5 563.6 984.1 369.5 863.4 369.5C784.4 369.5 793.4 503.5 776.1 513.2C732.6 537.5 709.7 426.4 678.8 427.8C622.1 430.5 565 725.7 621 749.1C679 773.3 780.6 473 947.6 478.2C1054.2 481.5 1185.8 609.3 1162.7 738.9C1139.9 867.5 972.2 956.5 884.6 909.4C827.4 878.6 794.7 784.5 820.6 713.4C874.4 565.8 1151.3 597.9 1167.3 502.4C1179.7 428.6 1029.2 320.7 879.8 302.9C736.2 285.8 522.5 343.3 495 489.7C472.8 609 581.7 745.5 716.7 782.2C833.3 813.9 976.4 768.1 1025.4 690.5C1034.8 675.6 1047.9 648.1 1080 624.8C1089.3 618 1146.6 577.9 1190.7 596.9C1244.9 620.2 1247.3 719 1240.6 769.6C1228.1 862.9 1166.8 922.8 1139.4 948.8C1129.5 958.2 974.6 1102.1 860.9 1052.1C772 1013 797.3 894.3 701.7 854.2C624 821.6 577.7 887.6 492.9 854.9C418.5 826.2 364 740.6 361.6 660.3C357.6 526.3 499.5 418.4 618.7 404.7C812.2 382.4 1015.2 600.7 1006.3 812.2C998.4 998.8 825.9 1170.3 720.3 1150.7C642.4 1136.2 645.9 1026.1 528.7 981.2C427.4 942.5 365.6 1002.1 306.2 953.7C252 909.5 231.8 801.5 284.9 727.2C329.7 664.5 423.2 630.7 465.9 662C536.6 713.8 399.5 893.4 488.1 1058.2C548.7 1170.8 675.6 1204 699.2 1210.2C823.8 1242.8 984.9 1212.1 1055.6 1111.4C1145.1 983.8 1018.9 845.1 1111.8 688.6C1162.5 603.2 1245.3 568.4 1327.4 533.9C1604 417.6 1663.3 564.6 1774.6 619.4C1983.8 722.5 2303.8 834 2448.5 767.9C2535.5 728.1 2589.2 656.2 2589.2 656.2C2634.2 596 2638 547.3 2686.8 519.8C2728.3 496.4 2776.7 502.9 2810.9 512.1" stroke="#5235DD" stroke-width="15" stroke-miterlimit="10" stroke-linecap="round" stroke-linejoin="round"/>
<path d="M1796.9 620.5C1794.7 624.1 1789.6 629.3 1778.2 634.7C1763.9 641.4 1761.2 647.1 1761.2 647.1C1757.3 648.1 1758.8 636.5 1768.4 632C1775 628.9 1775.4 624.2 1774.9 619.7C1773.6 619 1772.4 618.1 1771.1 617.2C1766 613.5 1760.7 607.6 1756.1 602.7L1738.2 596.7C1738.2 596.7 1715 608.4 1711 601.5C1711 601.5 1716.5 596.7 1725.9 593.8C1728.9 592.9 1730.7 591.9 1732 591.1C1721.2 589.3 1709.3 587.4 1709.6 582.7C1709.7 580.5 1746.6 582.4 1753.4 585.6C1777.4 596.8 1802.6 588.2 1802.6 588.2L1802.5 588.5C1811.6 578.2 1821.1 569.7 1821.1 569.7C1832.6 575.5 1838.4 589.9 1838.4 589.9L1796.9 620.5Z" fill="url(#paint10_linear)"/>
<path d="M2088.7 577.6C2086.8 575.5 2083.2 574.2 2082.9 571.3C2079.2 532.4 2084.4 508.3 2090.3 494.1C2090.6 489.9 2091 485.7 2091.4 481.6C2068.4 474.5 2044.3 470.8 2020.1 470.8C1978.6 470.8 1936.7 481.6 1898.4 504.3C1873.1 519.3 1816.2 562.4 1798.7 583.9C1806.7 590 1814.6 596.6 1822.4 603.8C1822.4 603.8 1831.7 597.4 1840.8 591.3C1854.9 581.7 1870.4 574.1 1886.8 569.2C1956 548.3 2029.4 554.1 2093.4 582.9C2091.9 581.2 2090.3 579.4 2088.7 577.6Z" fill="url(#paint11_linear)"/>
<path d="M2089.3 537.7C2089.3 537.8 2089.3 537.9 2089.3 538C2089.7 537.9 2090.1 537.8 2090.4 537.8C2096 536.6 2101.7 536 2107.3 535.9C2107.5 535.9 2107.7 535.9 2107.8 535.9C2131.4 535.5 2154.2 543.9 2171.9 559.1C2186.3 544.1 2195.5 524.8 2198 504.1C2192.3 498 2187.4 491.1 2183.4 483.4C2175.6 483.2 2168.1 480.4 2162 475.7C2162.2 473.6 2161.9 471.4 2161.1 469.3C2159.3 464.4 2155.1 461 2150.3 460.1C2148.4 459.7 2146.5 459.7 2144.5 460.1C2144.4 460.1 2144.3 460.1 2144.2 460.2H2144.1H2144C2143.7 460.3 2143.5 460.3 2143.2 460.4C2143 460.4 2142.9 460.5 2142.7 460.6H2142.6C2142.5 460.6 2142.4 460.7 2142.2 460.7H2142.1C2141.9 460.8 2141.7 460.9 2141.4 461C2141.4 460.8 2141.3 460.5 2141.3 460.3C2141.3 460.1 2141.2 460 2141.2 459.8C2141.2 459.7 2141.2 459.7 2141.2 459.6C2141.2 459.5 2141.2 459.4 2141.1 459.3C2141.1 459.1 2141 458.9 2141 458.7C2141 458.5 2140.9 458.3 2140.9 458.1C2140.6 456.7 2140.1 455.3 2139.6 453.9C2132.5 434.9 2111.4 425.3 2092.4 432.3C2092.3 432.3 2092.2 432.4 2092.1 432.4C2092.1 432.7 2092 432.9 2092 433.2C2091.7 435.2 2091.4 437.1 2091.1 439.1C2089.4 449 2086.7 458.6 2083.1 467.9C2081.6 471.8 2080 475.6 2078.2 479.4C2077 481.8 2075.8 484.2 2074.5 486.6C2072.6 490.1 2070.6 493.5 2068.4 496.8C2074.3 497.8 2080.2 498.6 2086.2 498.9C2086.2 499.1 2086.3 499.2 2086.3 499.4C2090.1 512.2 2090.9 525.2 2089.3 537.7Z" fill="url(#paint12_linear)"/>
<path d="M2092.2 473.7C2092.7 475 2093.4 476.2 2094.2 477.3C2099.2 477.1 2104.2 476.2 2109.1 474.7C2102.9 473.7 2096.9 471.8 2091.3 468.9C2091.3 470.5 2091.6 472.2 2092.2 473.7Z" fill="#212121"/>
<path d="M2089.3 537.7C2089.7 537.7 2090 537.8 2090.4 537.8C2096.2 538.1 2102 537.5 2107.8 535.9C2109.2 535.5 2110.7 535 2112.1 534.5C2140.2 524 2154.4 492.8 2144 464.7C2143.5 463.3 2142.9 462 2142.3 460.7C2142.4 460.7 2142.5 460.6 2142.7 460.6H2142.8C2142.9 460.6 2143.1 460.5 2143.2 460.5C2143.2 460.5 2143.2 460.5 2143.3 460.5H2143.4C2143.5 460.5 2143.6 460.4 2143.8 460.4C2143.9 460.4 2143.9 460.4 2144 460.4C2144.1 460.4 2144.2 460.4 2144.3 460.3H2144.4H2144.5C2144.6 460.3 2144.7 460.3 2144.7 460.3C2144.9 460.3 2145.1 460.2 2145.4 460.2C2145.6 460.2 2145.8 460.1 2146.1 460.1H2146.2C2146.4 460.1 2146.6 460.1 2146.7 460.1C2146.8 460.1 2146.8 460.1 2146.9 460.1C2147.1 460.1 2147.3 460.1 2147.5 460.1C2147.6 460.1 2147.6 460.1 2147.7 460.1C2147.9 460.1 2148 460.1 2148.2 460.1C2148.3 460.1 2148.3 460.1 2148.4 460.1C2148.6 460.1 2148.8 460.1 2149 460.2H2149.1C2149.3 460.2 2149.4 460.2 2149.6 460.3C2149.7 460.3 2149.7 460.3 2149.8 460.3C2150 460.3 2150.2 460.4 2150.4 460.4C2155.2 461.4 2159.3 464.7 2161.2 469.6C2162 471.7 2162.3 473.9 2162.1 476C2168.2 480.7 2175.7 483.5 2183.5 483.7C2182.5 481.7 2181.5 479.7 2180.6 477.7C2180.2 476.7 2179.8 475.7 2179.4 474.8C2179.4 474.7 2179.3 474.6 2179.3 474.4C2179.2 474.2 2179.1 473.9 2179 473.7C2178.9 473.3 2178.8 472.9 2178.7 472.5C2178.5 471.8 2178.4 471.1 2178.3 470.4C2178.2 470.1 2178.2 469.8 2178.2 469.5C2175.9 453.9 2182.4 428 2164.3 419.9C2164.1 419.8 2163.9 419.7 2163.6 419.6C2163.3 419.5 2163.1 419.4 2162.8 419.3C2161.9 419 2161 418.7 2160.1 418.5C2159.8 418.4 2159.5 418.4 2159.3 418.3C2159 418.2 2158.7 418.2 2158.4 418.1C2158.4 418.1 2158.3 418.1 2158.1 418.1H2158C2152.9 418.2 2098.3 418.3 2075.9 394.5C2074.9 396.9 2073.8 399.3 2072.6 401.7C2071.7 403.6 2071 405.4 2070.6 407.3C2070.6 407.3 2070.6 407.3 2070.6 407.4C2070.5 407.6 2070.5 407.9 2070.4 408.1V408.2C2070.4 408.4 2070.3 408.6 2070.3 408.8C2070.3 408.9 2070.3 408.9 2070.3 409C2070.3 409.2 2070.2 409.4 2070.2 409.6C2070.2 409.7 2070.2 409.8 2070.2 409.8C2070.2 410 2070.2 410.2 2070.1 410.4C2070.1 410.5 2070.1 410.6 2070.1 410.7C2070.1 410.9 2070.1 411 2070.1 411.2C2070.1 411.3 2070.1 411.4 2070.1 411.5C2070.1 411.7 2070.1 411.8 2070.1 412C2070.1 412.1 2070.1 412.2 2070.1 412.4C2070.1 412.5 2070.1 412.7 2070.1 412.8C2070.1 412.9 2070.1 413.1 2070.1 413.2C2070.1 413.3 2070.1 413.5 2070.1 413.6C2070.1 413.7 2070.1 413.9 2070.1 414C2070.1 414.1 2070.1 414.2 2070.1 414.4C2070.1 414.6 2070.1 414.7 2070.1 414.9V415C2070.1 415.2 2070.1 415.4 2070.1 415.5C2070.1 415.6 2070.1 415.6 2070.1 415.7C2070.1 415.9 2070.1 416.1 2070.2 416.3C2070.2 416.4 2070.2 416.5 2070.2 416.6C2070.2 416.8 2070.2 416.9 2070.3 417.1C2070.3 417.2 2070.3 417.3 2070.3 417.4C2070.3 417.6 2070.4 417.8 2070.4 418C2070.4 418.1 2070.4 418.2 2070.4 418.3C2070.4 418.5 2070.5 418.7 2070.5 418.8C2070.5 418.9 2070.5 419 2070.6 419.1C2070.6 419.2 2070.7 419.4 2070.7 419.5C2070.7 419.6 2070.7 419.7 2070.8 419.8C2070.8 420 2070.9 420.2 2070.9 420.4C2070.9 420.5 2070.9 420.6 2071 420.7C2071 420.9 2071.1 421 2071.2 421.2C2071.2 421.3 2071.3 421.4 2071.3 421.5C2071.3 421.6 2071.4 421.8 2071.4 421.9C2071.4 422 2071.5 422.1 2071.5 422.2C2071.6 422.4 2071.6 422.6 2071.7 422.7C2071.7 422.8 2071.8 422.9 2071.8 423C2071.9 423.2 2071.9 423.3 2072 423.5C2072 423.6 2072.1 423.7 2072.1 423.8C2072.2 423.9 2072.2 424.1 2072.3 424.2C2072.3 424.3 2072.4 424.4 2072.4 424.5C2072.5 424.7 2072.5 424.8 2072.6 425C2072.6 425.1 2072.7 425.2 2072.7 425.3C2072.8 425.5 2072.9 425.6 2072.9 425.8C2072.9 425.9 2073 426 2073 426.1C2073.1 426.2 2073.1 426.3 2073.2 426.5C2073.2 426.6 2073.3 426.7 2073.3 426.8C2073.4 426.9 2073.5 427.1 2073.5 427.2C2073.6 427.3 2073.6 427.4 2073.7 427.5C2073.8 427.6 2073.9 427.8 2073.9 427.9C2074 428 2074 428.1 2074.1 428.2C2074.2 428.3 2074.2 428.4 2074.3 428.5C2074.4 428.6 2074.4 428.7 2074.5 428.8C2074.6 428.9 2074.7 429 2074.7 429.1C2074.8 429.3 2074.9 429.4 2075 429.6C2075.1 429.7 2075.1 429.8 2075.2 429.9C2075.3 430 2075.4 430.1 2075.4 430.2C2075.5 430.3 2075.5 430.4 2075.6 430.4C2075.7 430.5 2075.8 430.6 2075.8 430.7C2075.9 430.8 2075.9 430.8 2076 430.9C2076.2 431.1 2076.3 431.3 2076.5 431.5C2076.5 431.6 2076.6 431.6 2076.6 431.7C2076.7 431.8 2076.8 431.9 2076.9 432C2077 432.1 2077 432.1 2077.1 432.2C2077.2 432.3 2077.3 432.4 2077.4 432.5C2077.6 432.7 2077.8 432.9 2078 433.1C2078.1 433.2 2078.2 433.3 2078.3 433.4C2078.4 433.5 2078.6 433.7 2078.7 433.8C2078.7 433.8 2078.7 433.8 2078.8 433.9C2079.5 434.5 2080.3 435.1 2081 435.6L2081.1 435.7C2081.3 435.8 2081.5 436 2081.7 436.1C2081.8 436.2 2081.9 436.2 2081.9 436.3C2082.1 436.4 2082.3 436.6 2082.6 436.7L2082.7 436.8C2083.2 437.1 2083.8 437.4 2084.4 437.7C2084.4 437.7 2084.5 437.7 2084.5 437.8C2084.7 437.9 2085 438 2085.2 438.1C2085.3 438.1 2085.3 438.2 2085.4 438.2C2085.6 438.3 2085.9 438.4 2086.1 438.5C2086.2 438.5 2086.2 438.6 2086.3 438.6C2086.6 438.7 2086.8 438.8 2087.1 438.9H2087.2C2087.8 439.1 2088.4 439.3 2089.1 439.5C2089.2 439.5 2089.2 439.5 2089.3 439.5C2089.6 439.6 2089.8 439.6 2090.1 439.7C2090.2 439.7 2090.2 439.7 2090.3 439.7C2090.6 439.8 2090.8 439.8 2091.1 439.9H2091.2C2091.2 439.9 2091.2 439.9 2091.3 439.9C2091.4 439.9 2091.6 440 2091.7 440C2091.9 440 2092 440 2092.2 440.1C2092.4 440.1 2092.6 440.2 2092.8 440.2C2092.9 440.2 2093 440.2 2093.1 440.2C2093.3 440.2 2093.6 440.3 2093.8 440.3C2093.9 440.3 2093.9 440.3 2094 440.3C2094.3 440.3 2094.6 440.3 2094.8 440.4H2094.9C2096 440.5 2097 440.5 2098.1 440.5C2102.4 440.6 2106.8 440.5 2111.1 440.2C2112.6 440.1 2114.1 440 2115.6 439.8H2115.7C2116 439.8 2116.2 439.8 2116.5 439.7C2116.6 439.7 2116.7 439.7 2116.8 439.7C2117.1 439.7 2117.3 439.7 2117.6 439.7C2117.7 439.7 2117.7 439.7 2117.7 439.7C2117.9 439.7 2118.2 439.7 2118.4 439.7C2118.5 439.7 2118.5 439.7 2118.6 439.7C2118.9 439.7 2119.1 439.7 2119.4 439.7C2119.5 439.7 2119.5 439.7 2119.6 439.7C2119.8 439.7 2120.1 439.7 2120.3 439.8C2120.4 439.8 2120.4 439.8 2120.5 439.8C2120.8 439.8 2121 439.9 2121.3 439.9C2121.4 439.9 2121.5 439.9 2121.5 439.9C2121.7 439.9 2121.9 440 2122.1 440C2122.2 440 2122.2 440 2122.3 440C2122.6 440 2122.8 440.1 2123.1 440.2C2123.2 440.2 2123.3 440.2 2123.3 440.3C2123.5 440.3 2123.7 440.4 2123.9 440.4C2124 440.4 2124 440.4 2124.1 440.5C2124.4 440.6 2124.6 440.6 2124.9 440.7C2125 440.7 2125 440.7 2125.1 440.8C2125.4 441.1 2125.7 441.3 2126.1 441.6C2126.9 443.2 2127.7 445 2128.3 446.7C2137.4 471.2 2126.2 498.2 2103.2 509.4C2101.5 510.2 2099.4 509.4 2098.8 507.6C2096.9 502.4 2091.6 499.5 2086.4 500.3C2090.1 512.2 2090.9 525.2 2089.3 537.7ZM2141.1 458.4C2141.1 458.3 2141.1 458.2 2141 458.1C2141.1 458.2 2141.1 458.3 2141.1 458.4ZM2141.5 460.1C2141.5 460 2141.5 459.9 2141.5 459.8C2141.4 459.9 2141.5 460 2141.5 460.1ZM2141.3 459.3C2141.3 459.3 2141.3 459.2 2141.3 459.3C2141.3 459.1 2141.2 459 2141.2 458.9C2141.3 459 2141.3 459.1 2141.3 459.3Z" fill="url(#paint13_linear)"/>
<path d="M2562.6 691.8C2567.5 693.9 2576.3 695.5 2591.8 692.8C2611.2 689.3 2618.1 693.1 2618.1 693.1C2622.9 691.3 2612.9 680.6 2599.9 682.9C2591 684.5 2587.1 680.1 2584.3 675.1C2585 673.4 2585.7 671.7 2586.4 669.8C2588.9 662.3 2590 652.5 2591.1 644.2L2605 625.2C2605 625.2 2637 620.3 2636 610.4C2636 610.4 2626.9 609.5 2615.4 613.3C2611.7 614.5 2609.2 614.9 2607.2 615C2616.9 605.3 2627.6 594.8 2623.9 590.2C2622.2 588 2586 616.6 2581.4 624.8C2565.2 653.5 2533.3 663 2533.3 663L2533.6 663.2C2516.9 659.3 2501.1 657.5 2501.1 657.5C2493.5 671.7 2498.1 690.5 2498.1 690.5L2562.6 691.8Z" fill="url(#paint14_linear)"/>
<path d="M2254.8 586.9C2258.2 546.7 2285.1 537.1 2313.8 565.3C2380.4 630.8 2463.2 655.9 2532.9 646.1C2536.6 645.6 2540.3 644.9 2544 644.3C2544.1 647.1 2544.2 649.9 2544.3 652.7C2545.5 678.4 2545.7 678.9 2548.8 703.1C2535.8 706.8 2522.2 709.7 2508 711.7C2419.6 724.1 2334 722.1 2283.4 674.1C2274.3 665.4 2267.7 654.3 2264.1 642.2C2258 620.5 2253.6 601.9 2254.8 586.9Z" fill="url(#paint15_linear)"/>
<defs>
<linearGradient id="paint0_linear" x1="2543.34" y1="629.995" x2="2637.99" y2="650.428" gradientUnits="userSpaceOnUse">
<stop stop-color="#212121"/>
<stop offset="1" stop-color="#2575FC"/>
</linearGradient>
<linearGradient id="paint1_linear" x1="2582.63" y1="641.869" x2="2651.24" y2="639.399" gradientUnits="userSpaceOnUse">
<stop stop-color="#212121"/>
<stop offset="0.5151" stop-color="#2575FC"/>
</linearGradient>
<linearGradient id="paint2_linear" x1="1567.7" y1="1270.41" x2="4678.81" y2="1270.41" gradientUnits="userSpaceOnUse">
<stop stop-color="#212121"/>
<stop offset="1" stop-color="#5235DD"/>
</linearGradient>
<linearGradient id="paint3_linear" x1="2464.96" y1="782.517" x2="2084.91" y2="1279.46" gradientUnits="userSpaceOnUse">
<stop stop-color="#212121"/>
<stop offset="0.138" stop-color="#212325"/>
<stop offset="0.2736" stop-color="#212731"/>
<stop offset="0.4084" stop-color="#222F45"/>
<stop offset="0.5427" stop-color="#223960"/>
<stop offset="0.6766" stop-color="#234784"/>
<stop offset="0.8104" stop-color="#2458B0"/>
<stop offset="0.9415" stop-color="#256BE3"/>
<stop offset="1" stop-color="#2575FC"/>
</linearGradient>
<linearGradient id="paint4_linear" x1="2191.07" y1="1159.33" x2="1942.88" y2="894.027" gradientUnits="userSpaceOnUse">
<stop stop-color="#212121"/>
<stop offset="1" stop-color="#2575FC"/>
</linearGradient>
<linearGradient id="paint5_linear" x1="2502.12" y1="1085.71" x2="2363.51" y2="1490.32" gradientUnits="userSpaceOnUse">
<stop stop-color="#212121"/>
<stop offset="0.1993" stop-color="#223452"/>
<stop offset="0.5921" stop-color="#2457AD"/>
<stop offset="0.8679" stop-color="#256CE6"/>
<stop offset="1" stop-color="#2575FC"/>
</linearGradient>
<linearGradient id="paint6_linear" x1="2589.93" y1="970.868" x2="2049.63" y2="568.878" gradientUnits="userSpaceOnUse">
<stop stop-color="#212121"/>
<stop offset="0.4882" stop-color="#234D93"/>
<stop offset="0.8391" stop-color="#246ADE"/>
<stop offset="1" stop-color="#2575FC"/>
</linearGradient>
<linearGradient id="paint7_linear" x1="1851.17" y1="1233.49" x2="1681.74" y2="1214.46" gradientUnits="userSpaceOnUse">
<stop stop-color="#212121"/>
<stop offset="1" stop-color="#2575FC"/>
</linearGradient>
<linearGradient id="paint8_linear" x1="2240.69" y1="506.569" x2="2109.78" y2="490.865" gradientUnits="userSpaceOnUse">
<stop stop-color="#212121"/>
<stop offset="1" stop-color="#2575FC"/>
</linearGradient>
<linearGradient id="paint9_linear" x1="2142.49" y1="459.699" x2="2140.79" y2="459.351" gradientUnits="userSpaceOnUse">
<stop stop-color="#212121"/>
<stop offset="1" stop-color="#2575FC"/>
</linearGradient>
<linearGradient id="paint10_linear" x1="1804.03" y1="567.511" x2="1751.81" y2="603.672" gradientUnits="userSpaceOnUse">
<stop stop-color="#212121"/>
<stop offset="1" stop-color="#2575FC"/>
</linearGradient>
<linearGradient id="paint11_linear" x1="2297.82" y1="393.997" x2="1928.75" y2="576.496" gradientUnits="userSpaceOnUse">
<stop stop-color="#212121"/>
<stop offset="0.0126186" stop-color="#212225"/>
<stop offset="0.2886" stop-color="#223F70"/>
<stop offset="0.5349" stop-color="#2456AC"/>
<stop offset="0.7429" stop-color="#2467D8"/>
<stop offset="0.9045" stop-color="#2571F2"/>
<stop offset="1" stop-color="#2575FC"/>
</linearGradient>
<linearGradient id="paint12_linear" x1="2237.36" y1="523.929" x2="2112.53" y2="487.623" gradientUnits="userSpaceOnUse">
<stop stop-color="#212121"/>
<stop offset="1" stop-color="#2575FC"/>
</linearGradient>
<linearGradient id="paint13_linear" x1="2136.14" y1="494.118" x2="2075.12" y2="350.014" gradientUnits="userSpaceOnUse">
<stop stop-color="#212121"/>
<stop offset="1" stop-color="#2575FC"/>
</linearGradient>
<linearGradient id="paint14_linear" x1="2517.06" y1="643.167" x2="2596.23" y2="642.218" gradientUnits="userSpaceOnUse">
<stop stop-color="#212121"/>
<stop offset="1" stop-color="#2575FC"/>
</linearGradient>
<linearGradient id="paint15_linear" x1="2618.23" y1="788.989" x2="2172.68" y2="509.168" gradientUnits="userSpaceOnUse">
<stop stop-color="#212121"/>
<stop offset="0.1279" stop-color="#223351"/>
<stop offset="0.3375" stop-color="#234F9A"/>
<stop offset="0.5118" stop-color="#2464CF"/>
<stop offset="0.642" stop-color="#2570F0"/>
<stop offset="0.7132" stop-color="#2575FC"/>
<stop offset="1" stop-color="#2575FC"/>
</linearGradient>
</defs>
</svg>
