<svg width="3000" height="1500" viewBox="0 0 3000 1500" fill="none" xmlns="http://www.w3.org/2000/svg">
<g clip-path="url(#clip0)">
<path d="M2505.7 1500H3000V1356.1C2828.2 1342.5 2651.7 1389.7 2505.7 1500Z" fill="url(#paint0_linear)"/>
<path d="M3000 1488.7V1430.7C2777.3 1526.3 2521 1512.1 2310.4 1393.4C2296.1 1385.3 2282 1376.8 2268.1 1367.8C2007.3 1221.7 1672 1247.3 1434.5 1455.8C1418.3 1470 1402.9 1484.8 1388.3 1500.1H1854.6C1894.5 1496.8 1934.5 1496.8 1974.2 1500.1H2987.2L3000 1488.7Z" fill="url(#paint1_linear)"/>
<path d="M2377.2 464.7C2332.3 678.7 2122.3 815.8 1908.3 770.8C1883.9 765.7 1860.5 758.4 1838.2 749.2C1821.6 742.3 1805.6 734.4 1790.3 725.5C1743.5 704.4 1693.6 688.1 1641.3 677.1C1332 612.2 1027.4 754.6 872 1010.1C864.4 1024.8 856.3 1039.2 847.8 1053.2C740.1 1231.4 564.8 1358.6 364.4 1407.3V1489.9L412.4 1500H790.9C846.5 1442.6 893.6 1376.5 929.7 1303.4C937 1288.7 943.8 1273.7 950.2 1258.4C1083.4 990.7 1374.8 822.9 1688.5 861.4C1741.6 867.9 1793.5 876.1 1842 893.1C1858 900.7 1965.7 909.9 1990.5 906.9C2194.2 882.7 2324.5 803.7 2373.5 580C2379.6 552.2 2409.5 473.5 2407.1 446.3C2407.2 473.8 2383 436.8 2377.2 464.7Z" fill="url(#paint2_linear)"/>
<path d="M1385.1 688.9C1365.5 880.2 1194.5 1019.4 1003.1 999.8C981.3 997.6 960.1 993.3 939.8 987.4C924.6 982.9 909.9 977.5 895.7 971.1C852.8 957 807.7 947.2 760.9 942.4C484.4 914 231.1 1066.6 118.7 1304.4C113.4 1317.9 107.6 1331.3 101.5 1344.3C74.8999 1401.1 40.6999 1453.3 0.399902 1500H215.5C311.2 1261.2 546.7 1094.5 819.2 1099.3C866.2 1100.1 912 1106 955.9 1116.4C970.6 1121.6 985.7 1125.7 1001.2 1128.9C1021.9 1133.1 1043.4 1135.6 1065.3 1135.9C1257.6 1139.2 1416.2 986.1 1419.6 793.8C1420 768.8 1414.3 693.8 1409.7 670.2C1412.3 694.1 1387.7 664 1385.1 688.9Z" fill="url(#paint3_linear)"/>
<path d="M1976.2 1295.2C1817.7 1144.5 1567.1 1150.8 1416.4 1309.2C1399.2 1327.3 1384.1 1346.6 1370.9 1366.8C1361.1 1381.9 1352.4 1397.5 1344.9 1413.5C1326.7 1443.5 1306.2 1472.4 1283.3 1500.1H1454C1461.1 1489.2 1468.7 1478.6 1477 1468.3C1613.7 1297.6 1862.9 1270.1 2033.6 1406.9C2055.8 1424.7 2051 1380.7 2068.4 1401.9C2052.9 1379.2 1996.8 1314.8 1976.2 1295.2Z" fill="url(#paint4_linear)"/>
<path d="M1806.8 916.4C1547.3 923.8 1328.7 1086.2 1237.2 1312.4C1234.6 1319.6 1231.9 1326.7 1229 1333.7C1204.5 1394.3 1170.9 1450.3 1129.8 1500H1336.9C1435.5 1290.8 1645.4 1143.4 1892.4 1136.3C2125.5 1129.6 2319.5 1192.3 2434.8 1376.7C2346.7 1098.6 2123.5 907.3 1806.8 916.4Z" fill="url(#paint5_linear)"/>
<path d="M2474.5 1410.8L2449.6 1220.7L2297.4 1337.3L2474.5 1410.8Z" fill="#573BDE"/>
<path d="M2116.4 1447.3L2052.3 1290.9L1948.9 1424.7L2116.4 1447.3Z" fill="#573BDE"/>
<path d="M1412.7 598.2L1317.8 721.8L1472.3 742.2L1412.7 598.2Z" fill="#5235DD"/>
<path d="M2762 156.5L2618.4 266.5L2785.5 335.9L2762 156.5Z" fill="#5235DD"/>
<path d="M2418.3 355.6L2321.9 457.1L2456.1 490.4L2418.3 355.6Z" fill="#6F57E3"/>
<path d="M2700.3 856.8C2697.7 860.9 2695.1 865 2692.4 869.1C2687 877.2 2681.3 885.1 2675.5 892.9C2669.7 900.7 2663.7 908.3 2657.6 915.7C2651.5 923.1 2645.2 930.5 2638.7 937.6C2613 966.1 2584.9 992 2555 1014.9C2525.1 1037.8 2493.5 1057.7 2460.5 1074.2C2444 1082.5 2427.3 1089.9 2410.2 1096.6C2393.2 1103.3 2376 1109.2 2358.5 1114.1C2341 1119 2323.4 1123.3 2305.7 1126.7C2287.9 1130.1 2270 1132.5 2252.2 1134.6L2238.7 1135.9L2235.3 1136.2L2231.9 1136.4L2225.2 1136.8C2216.2 1137.5 2207.2 1137.7 2198.2 1138.1L2184.7 1138.2L2178 1138.3L2171.2 1138.2L2157.7 1138L2144.2 1137.4L2137.5 1137.1L2130.7 1136.6L2117.2 1135.7L2103.7 1134.4C2099.2 1134 2094.7 1133.6 2090.2 1133C2081.2 1131.9 2072.2 1131 2063.3 1129.6L2049.9 1127.7L2036.5 1125.4C2027.6 1124 2018.6 1122.1 2009.7 1120.4L2002.9 1119.1L1995.2 1117.7L1979.8 1114.9C1977.2 1114.4 1974.6 1114 1972.1 1113.6L1964.3 1112.4L1948.8 1110L1933.2 1107.9C1928 1107.2 1922.8 1106.5 1917.6 1105.9C1875.8 1101 1833.6 1098.5 1791.4 1098.3L1775.5 1098.4C1770.2 1098.4 1764.9 1098.4 1759.6 1098.6L1743.7 1099.1L1739.7 1099.2L1735.7 1099.4L1727.8 1099.8C1706.6 1100.8 1685.5 1102.7 1664.4 1104.8L1648.6 1106.6L1640.7 1107.5L1632.8 1108.6L1617 1110.8L1601.3 1113.3L1593.4 1114.6L1585.6 1116L1569.9 1118.8L1554.3 1121.9L1546.5 1123.5L1538.7 1125.2C1497.2 1134.2 1456.1 1145.4 1415.7 1158.6C1395.5 1165.2 1375.5 1172.3 1355.6 1179.8C1335.8 1187.4 1316.1 1195.5 1296.7 1203.9C1277.2 1212.3 1258 1221.4 1239 1230.8L1231.9 1234.3L1224.8 1237.9C1220.1 1240.3 1215.3 1242.7 1210.6 1245.2C1201.2 1250.1 1191.8 1255.2 1182.5 1260.3C1163.9 1270.6 1145.5 1281.3 1127.4 1292.5C1118.3 1298.1 1109.3 1303.8 1100.4 1309.6C1095.9 1312.5 1091.5 1315.4 1087 1318.4L1080.3 1322.9L1073.7 1327.4C1069.3 1330.4 1064.9 1333.5 1060.5 1336.6C1056.1 1339.7 1051.7 1342.8 1047.4 1346C1038.7 1352.3 1030 1358.8 1021.3 1365.5C1012.7 1372.2 1004 1379 995.4 1386.2C991.1 1389.8 986.7 1393.4 982.3 1397.3C980.1 1399.2 977.9 1401.2 975.6 1403.2L972.1 1406.4L970.2 1408.2L967.6 1410.6L1055 1499.9H1249.1C1252.7 1497.3 1256.3 1494.6 1259.9 1492C1274.3 1481.6 1288.9 1471.5 1303.8 1461.6C1363.2 1422.2 1426.1 1387.6 1491.4 1358.8L1503.7 1353.5L1509.9 1350.9L1516.1 1348.3C1520.2 1346.6 1524.3 1344.9 1528.5 1343.2L1541 1338.3C1557.7 1331.9 1574.5 1325.8 1591.4 1320.2C1625.2 1308.7 1659.8 1299.4 1694.6 1291.3C1729.5 1283.4 1764.9 1277.4 1800.6 1273C1836.3 1268.8 1872.3 1266.5 1908.5 1265.9C1913 1265.8 1917.6 1265.8 1922.1 1265.8H1935.7L1949.3 1266.2L1956.1 1266.4C1958.4 1266.5 1960.6 1266.5 1962.9 1266.6L1976.5 1267.3L1983.3 1267.6L1991 1268C2001.5 1268.6 2011.9 1269.3 2022.4 1269.5C2064.4 1270.9 2106.6 1270.1 2148.6 1265.7L2164.3 1264L2180 1261.9L2187.8 1260.9L2195.6 1259.6L2211.2 1257C2221.6 1255 2232 1253.1 2242.3 1250.7L2250 1249L2253.9 1248.1L2257.8 1247.1L2273.2 1243.2C2278.3 1241.9 2283.4 1240.4 2288.5 1238.9L2296.1 1236.7L2303.7 1234.3L2311.2 1231.9L2315 1230.7L2318.7 1229.4L2333.6 1224.2C2353.4 1216.9 2372.9 1208.8 2391.9 1199.7C2410.9 1190.7 2429.4 1180.7 2447.3 1169.9C2465.2 1159 2482.5 1147.4 2499.1 1134.9C2532.3 1110 2562.7 1081.8 2589.8 1051.3L2594.9 1045.6L2599.8 1039.8C2603.1 1035.9 2606.3 1032 2609.5 1028L2611.9 1025L2614.2 1022L2618.9 1016C2622 1012 2625 1007.9 2628 1003.8C2630.9 999.7 2633.9 995.6 2636.7 991.4L2640.9 985.1L2645 978.8C2647.8 974.6 2650.4 970.3 2653.1 966.1C2655.7 961.8 2658.3 957.5 2660.8 953.2C2670.9 935.8 2680 918.1 2688.2 899.9C2692.3 890.8 2696.1 881.6 2699.6 872.4C2703.1 863.1 2706.3 853.8 2708.9 844.2L2708 843.8C2705.4 848.4 2702.9 852.6 2700.3 856.8Z" fill="url(#paint6_linear)"/>
<path d="M2734.4 210.4C2732 216.7 2729.5 222.9 2727 229.1C2722 241.5 2716.8 253.8 2711.5 266.1C2700.9 290.6 2689.6 314.8 2677.8 338.6C2666 362.4 2653.8 386 2640.8 409.2C2627.9 432.4 2614.5 455.2 2600.5 477.5C2586.5 499.8 2572 521.7 2556.8 543C2541.6 564.3 2525.8 585.1 2509.4 605.2C2492.9 625.3 2475.8 644.7 2458 663.2C2449.1 672.5 2440 681.5 2430.8 690.3C2421.6 699.1 2412.2 707.7 2402.6 716C2383.5 732.6 2363.6 748.1 2343.1 762.3C2322.7 776.6 2301.5 789.5 2279.8 800.9C2277.1 802.3 2274.4 803.8 2271.6 805.1L2263.4 809.2L2255.1 813.1C2252.3 814.4 2249.6 815.6 2246.8 816.9C2235.7 821.8 2224.5 826.3 2213.2 830.4C2201.9 834.5 2190.5 838.1 2179 841.3C2167.5 844.5 2155.9 847.4 2144.3 849.7C2097.8 859.2 2050.3 861.4 2003.1 857.2C2000.1 856.9 1997.2 856.7 1994.3 856.4L1985.5 855.4C1982.6 855.1 1979.6 854.6 1976.7 854.2L1972.3 853.6L1967.9 852.9C1956.1 851.2 1944.4 848.9 1932.7 846.4L1913.6 842.2C1906.4 840.6 1899.1 839.2 1891.8 837.7C1877.2 835 1862.5 832.6 1847.7 830.8C1788.5 823.3 1727.9 822.9 1668.2 829.9C1608.4 836.8 1549.6 850.8 1493.3 870.5C1479.2 875.4 1465.3 880.7 1451.5 886.2C1437.7 891.8 1424.1 897.7 1410.6 903.8C1397.2 910 1383.9 916.5 1370.7 923.2C1357.6 930 1344.6 937 1331.8 944.2C1280.6 973.1 1232.3 1006 1186.4 1041.4C1163.5 1059.1 1141.2 1077.5 1119.6 1096.5C1097.9 1115.4 1076.9 1134.9 1056.4 1154.9C1035.9 1174.9 1015.9 1195.3 996.5 1216.2C977.1 1237.1 958.2 1258.4 939.8 1280.1C903.1 1323.5 868.3 1368.3 835.5 1414.6C819.1 1437.8 803.1 1461.3 787.7 1485.4C784.6 1490.2 781.5 1495.1 778.5 1500H1070.3C1087.2 1475 1104.7 1450.3 1122.8 1426.1C1182.9 1345.6 1248.9 1270 1321.8 1203.9C1358.2 1170.8 1396.4 1140.3 1436.2 1112.9C1446.2 1106.1 1456.3 1099.5 1466.4 1093C1476.6 1086.6 1486.9 1080.5 1497.3 1074.5C1507.7 1068.6 1518.2 1062.9 1528.8 1057.4C1539.4 1052 1550.1 1046.8 1560.9 1041.9C1604.1 1022.3 1648.9 1006.9 1694.8 997.1C1717.8 992.2 1741 988.5 1764.5 986.3C1776.2 985.2 1788 984.3 1799.8 984L1804.2 983.8L1808.6 983.7L1817.5 983.6C1823.4 983.7 1829.4 983.6 1835.3 983.8C1847.2 984 1859.1 984.8 1871 985.7C1876.9 986.2 1882.9 986.7 1888.9 987.4L1893.4 987.9L1895.6 988.1L1898.4 988.5L1909.4 989.9C1924.1 991.6 1938.9 993 1953.8 993.8L1959.4 994.1L1965 994.3C1968.7 994.4 1972.4 994.6 1976.2 994.7L1987.4 994.9C1991.1 995 1994.9 994.9 1998.6 994.9C2058.3 994.4 2118.4 985.5 2175.4 967.7C2189.6 963.3 2203.7 958.2 2217.5 952.8C2231.3 947.3 2244.9 941.4 2258.1 934.9C2284.6 922 2310.1 907.3 2334.2 891C2358.3 874.7 2381.2 857 2402.8 838.2C2424.4 819.3 2444.6 799.3 2463.7 778.5C2473.2 768.1 2482.5 757.5 2491.5 746.7C2500.5 735.9 2509.1 724.9 2517.5 713.7C2525.9 702.6 2534 691.3 2541.9 679.8L2547.8 671.2L2553.6 662.6L2559.3 653.9L2564.9 645.1C2579.6 621.7 2593.5 597.9 2606.4 573.7C2619.3 549.5 2631.4 525 2642.8 500.2C2654.1 475.4 2664.6 450.3 2674.4 425C2684.2 399.7 2693.3 374.2 2701.6 348.4C2710 322.7 2717.6 296.8 2724.5 270.7C2727.9 257.7 2731.2 244.6 2734.2 231.5C2737.2 218.4 2740 205.2 2742.4 192L2741.4 191.8C2739.2 197.9 2736.9 204.2 2734.4 210.4Z" fill="#5235DD"/>
<path d="M2731.8 810L2633.3 866.8L2731.8 923.7V810Z" fill="#6F57E3"/>
<path d="M2364.9 401.5C2364.9 401.5 2385.1 377 2394.7 380.9C2405.1 385.1 2413.7 382 2413.9 385.6C2414.1 389 2402.6 393.7 2391.6 392.5C2384.3 391.7 2373.6 409 2370.5 405.8C2367.5 402.6 2364.9 401.5 2364.9 401.5Z" fill="url(#paint7_linear)"/>
<path d="M2362.9 415.6C2362.9 415.6 2382.5 407.7 2388.4 405.4C2394.3 403.1 2423.9 402.4 2428.1 394.9C2432.3 387.4 2418 391.3 2418 391.3C2418 391.3 2364.6 395.8 2362.9 415.6Z" fill="url(#paint8_linear)"/>
<path d="M2364.6 415.5C2364.6 415.5 2387.7 413.9 2393.7 411.9C2399.7 410 2429.3 411.1 2433.9 404C2438.5 396.8 2424 399.8 2424 399.8C2424 399.8 2363.1 397.7 2364.6 415.5Z" fill="url(#paint9_linear)"/>
<path d="M2359.7 427.5C2359.7 427.5 2382.7 425.4 2388.7 423.3C2394.7 421.2 2424.3 421.8 2428.8 414.5C2433.3 407.2 2418.9 410.5 2418.9 410.5C2418.9 410.5 2357.9 409.6 2359.7 427.5Z" fill="url(#paint10_linear)"/>
<path d="M2379.7 429.1C2378.4 429.2 2377.2 429.2 2376.1 429.2C2379.1 422.3 2379.2 414.6 2378.8 412.3C2378.1 407.6 2379.7 394.5 2378.2 393.5C2377 392.7 2349.8 398.2 2334 404L2293.4 412.9C2293.4 412.9 2291.4 430.3 2300.9 441.4C2300.9 441.4 2316.2 437.1 2332.3 430.7C2334.4 433.1 2337 435.3 2340.2 437.1C2340.7 437.7 2343.9 440.8 2352.6 441.3C2353.2 441.4 2353.8 441.5 2354.4 441.5C2358.7 442 2362.3 441.5 2365.3 440.4C2367.6 440 2370 439.5 2372.6 438.8C2390.6 434.2 2397.3 437.2 2397.3 437.2C2401.6 435.2 2400 427.4 2379.7 429.1Z" fill="url(#paint11_linear)"/>
<path d="M1693.3 241.5C1689.5 243.2 1682.6 244.6 1670.4 242.7C1655.2 240.2 1649.8 243.3 1649.8 243.3C1646 242 1653.7 233.4 1664 235.1C1671 236.2 1674 232.7 1676.1 228.8C1675.5 227.5 1674.9 226.1 1674.4 224.7C1672.3 218.8 1671.4 211.2 1670.4 204.7L1659.2 190C1659.2 190 1634 186.6 1634.6 178.8C1634.6 178.8 1641.7 178 1650.8 180.8C1653.7 181.7 1655.7 182 1657.3 182C1649.6 174.5 1641 166.5 1643.8 162.8C1645.1 161.1 1673.9 183 1677.6 189.4C1690.7 211.7 1715.9 218.7 1715.9 218.7L1715.7 218.9C1728.8 215.6 1741.1 214 1741.1 214C1747.2 225 1743.9 239.9 1743.9 239.9L1693.3 241.5Z" fill="url(#paint12_linear)"/>
<path d="M2030.8 410.7C2052 392.5 2081.2 377.6 2106.3 368.5C2172.9 408.8 2252.1 419.1 2324.5 399.6C2326.3 399.1 2328.2 398.6 2330 398.1C2331.2 400.9 2332.3 403.7 2333.4 406.5C2339.4 421.8 2336.9 428.4 2338.6 447.3C2202.7 472.1 2127.7 461.3 2030.8 410.7Z" fill="url(#paint13_linear)"/>
<path d="M1916.8 328.9C1916.6 331.5 1916.4 334.1 1916.2 336.6C1916 339 1915.7 341.3 1915.4 343.7C1915.2 343.8 1914.9 343.9 1914.7 343.9C1914.6 344.7 1914.5 345.4 1914.4 346.2C1859 290.1 1783.4 260.3 1706.6 261.4C1704.6 261.4 1702.7 261.5 1700.7 261.5C1700.3 258.4 1699.9 255.4 1699.5 252.3C1697.6 235.7 1703.4 222.1 1706.8 202.9C1776.6 206 1848 224.8 1912.1 260.7C1911.8 260.9 1911.4 261.2 1911.1 261.5C1911.3 262.3 1911.5 263 1911.6 263.8C1916.5 285.7 1918.2 307.6 1916.8 328.9Z" fill="url(#paint14_linear)"/>
<path d="M2146.2 848C2136.5 851.3 2126.5 854.1 2116.2 856.3C2106.9 858.3 2097.6 859.7 2088.3 860.6C2085.9 858.4 2083.3 856.4 2080.6 854.7C2079 856.8 2077.6 859.1 2076.3 861.5C2072 861.7 2067.7 861.8 2063.5 861.8C2064.5 857.3 2065 852.6 2064.8 847.8C2064.7 844.5 2064.3 841.2 2063.6 837.9C2075.4 837.4 2087.2 837.7 2098.8 838.8C2115 840.2 2130.9 843.3 2146.2 848Z" fill="url(#paint15_linear)"/>
<path d="M1443 880C1449.7 872.3 1457 864.9 1464.8 857.8C1471.9 851.4 1479.2 845.5 1486.8 840.1C1490 840.8 1493.2 841.2 1496.5 841.3C1496.8 838.6 1496.9 836 1496.9 833.3C1500.5 831 1504.2 828.8 1507.9 826.6C1509.3 831 1511.3 835.3 1513.8 839.4C1515.5 842.2 1517.5 844.9 1519.8 847.4C1509.8 853.8 1499.5 859.4 1488.9 864.2C1473.9 871.2 1458.5 876.4 1443 880Z" fill="url(#paint16_linear)"/>
<path d="M1896.5 665.4L1993.2 648.6H1993.3C2020.6 640.7 2046.6 636.5 2043.7 701.4C2043.7 701.5 2043.7 701.5 2043.7 701.6L2052.9 821.7C2053 822.5 2053.7 823.2 2054.6 823L2098.4 816.1C2099.1 816 2099.6 815.4 2099.6 814.8C2100.5 800.6 2115.1 682.9 2118.5 632.2C2122.4 574.8 2096.6 556.1 2057 554.8L1881.8 555.6C1860.6 554.9 1787.8 525.3 1780.8 534.7C1772.4 546.1 1728.3 645.2 1854.8 666.6C1857.6 667.1 1893.8 665.9 1896.5 665.4Z" fill="url(#paint17_linear)"/>
<path d="M1781.2 686.9C1694.5 759.1 1608.1 816.9 1508.6 856.4C1503.5 848.3 1498.7 840.1 1494.2 831.8C1515.6 816.6 1536.6 800.4 1557.1 783.3C1646.1 709.2 1706.5 653.4 1757.8 562.5C1775 532 1788 533.2 1800.3 532.9C1816.8 532.5 1888.8 548.8 1905.1 561.8C1878.1 590.1 1812.2 661.1 1781.2 686.9Z" fill="url(#paint18_linear)"/>
<path d="M2107.2 368.7C2104.9 381 2101.6 393 2097.5 404.5C2085.7 406.3 2074.2 409 2063 412.6C2035 421.5 2009.3 435.6 1986.9 453.8C1982.7 457.2 1978.6 460.8 1974.7 464.5C1948.5 489.1 1928 519.7 1915.5 554.4C1914.3 554.6 1913.2 554.7 1912 554.9C1909.7 555.2 1907.3 555.5 1904.9 555.8C1891.8 557.2 1878.4 557.5 1864.8 556.6C1846.9 555.4 1829.6 552.2 1813.1 547.3C1812.4 547.1 1811.8 546.9 1811.1 546.7C1796.4 542.1 1782.3 536.1 1769 528.8C1780.5 524.4 1791.5 519 1802.1 512.9C1810.7 507.9 1818.9 502.3 1826.8 496.3C1831.6 492.6 1836.2 488.7 1840.7 484.7C1862 465.4 1879.8 442.2 1892.8 416C1893.9 413.7 1895.1 411.4 1896.1 409C1905 389.5 1911.2 368.5 1914.4 346.5C1914.5 345.7 1914.6 345 1914.7 344.2C1914.9 344.1 1915.2 344 1915.4 344C1915.7 341.7 1916 339.3 1916.2 336.9C1916.4 334.3 1916.7 331.8 1916.8 329.2C1918.1 307.8 1916.5 286 1911.6 264.2C1911.4 263.4 1911.2 262.7 1911.1 261.9C1911.4 261.6 1911.8 261.4 1912.1 261.1C1946.9 280.6 1979.6 305.1 2008.7 334.8C2012.2 335.2 2015.7 335.6 2019.1 336.1C2038.9 339.1 2057.8 344.6 2075.6 352.3C2086.7 356.8 2097.2 362.4 2107.2 368.7Z" fill="url(#paint19_linear)"/>
<path d="M1986.9 458C1985.9 458.6 1984.8 459.1 1983.8 459.7C1981.7 460.8 1979.6 462 1977.5 463C1976.5 463.5 1975.6 464 1974.6 464.4C1978.5 460.7 1982.6 457.1 1986.8 453.7C1986.8 455.2 1986.9 456.6 1986.9 458Z" fill="url(#paint20_linear)"/>
<path d="M2069.6 299.1C2071.2 308.5 2074.8 317.2 2079.9 324.7C2075.7 325.7 2071.6 327.1 2067.8 328.9C2052.5 335.9 2040.5 348.4 2034 363.6C2020.2 358.6 2008.4 349.1 2000.4 336.8C2002.1 331.2 2003.1 325.3 2003.2 319.2C2008.1 316.6 2012 312.6 2014.4 307.7C2013.6 306.4 2013.1 305 2013 303.4C2012.6 299.7 2014.2 296.3 2017 294.2C2018.5 293 2020.3 292.3 2022.3 292.1C2022.5 292.1 2022.6 292.1 2022.8 292.1C2022.3 290.5 2022 288.8 2021.8 287.1C2020.4 272.9 2030.8 260.2 2045.1 258.8C2045.2 258.8 2045.3 258.8 2045.4 258.8C2045.5 259 2045.6 259.1 2045.7 259.3C2050.4 266.4 2055.9 272.8 2062.1 278.6C2064.3 280.6 2066.5 282.5 2068.8 284.3C2070.3 285.5 2071.8 286.6 2073.4 287.7C2075.7 289.3 2078 290.9 2080.4 292.3C2076.8 294.8 2073.3 297.1 2069.6 299.1Z" fill="url(#paint21_linear)"/>
<path d="M2046.1 253.5C2046.3 255.3 2046.1 257.1 2045.7 258.7C2045.6 258.7 2045.6 258.7 2045.5 258.7C2045.3 258.5 2045.1 258.4 2044.9 258.2C2045 258.4 2045.1 258.5 2045.2 258.7C2045.1 258.7 2045 258.7 2044.9 258.7C2030.7 260.1 2020.3 272.7 2021.6 287C2021.8 288.7 2022.1 290.4 2022.6 292C2022.4 292 2022.3 292 2022.1 292C2020.1 292.2 2018.3 293 2016.8 294.1C2014.1 296.2 2012.5 299.6 2012.8 303.3C2013 304.9 2013.5 306.3 2014.2 307.6C2011.8 312.5 2007.9 316.6 2003 319.1C2003 317.5 2003 316 2003 314.4C2003 313.6 2002.9 312.9 2002.9 312.2C2002 300.6 1998.3 289.9 1992.3 280.7C1990.7 278.2 1988.9 275.8 1986.9 273.5C1989.9 272.7 1992.9 271.8 1995.8 270.8C1995.9 270.7 1996.1 270.7 1996.2 270.6C2003.2 268.1 2009.9 264.9 2016.2 261.1C2021.7 257.8 2026.8 254 2031.6 249.8C2033.5 248.1 2035.4 246.3 2037.2 244.5C2038 243.7 2038.7 243 2039.4 242.2C2043.2 244.9 2045.6 248.9 2046.1 253.5Z" fill="url(#paint22_linear)"/>
<path d="M2058.1 284.9C2058.2 285.9 2058.1 286.9 2058 287.8C2054.8 289.2 2051.3 290.2 2047.7 290.7C2051.3 288.2 2054.6 285.1 2057.2 281.5C2057.7 282.6 2058 283.8 2058.1 284.9Z" fill="url(#paint23_linear)"/>
<path d="M2058.1 284.9C2058.2 285.9 2058.1 286.9 2058 287.8C2054.8 289.2 2051.3 290.2 2047.7 290.7C2051.3 288.2 2054.6 285.1 2057.2 281.5C2057.7 282.6 2058 283.8 2058.1 284.9Z" fill="#232323"/>
<path d="M2026.5 372.8L2030.9 362.5C2016.8 361.9 2000.3 336.9 2000.3 336.9C2004.1 369 2026.5 372.8 2026.5 372.8Z" fill="#232323"/>
<path d="M2030.1 375.2C2030.1 375.2 2001 442.2 1938.5 452C1915.3 455.7 1916.3 481.9 1916.3 481.9C1916.3 481.9 1943.2 471.6 1951.7 469.1C1982.9 460.2 2028.5 424.4 2030.1 375.2Z" fill="#232323"/>
<path d="M2033.9 363.7L2033.3 373.3C2033.3 373.3 2045.3 350.8 2043.8 350C2042.3 349.3 2033.9 363.7 2033.9 363.7Z" fill="#232323"/>
</g>
<defs>
<linearGradient id="paint0_linear" x1="2505.67" y1="1426.9" x2="3000" y2="1426.9" gradientUnits="userSpaceOnUse">
<stop stop-color="#212121"/>
<stop offset="1" stop-color="#684FE1"/>
</linearGradient>
<linearGradient id="paint1_linear" x1="1388.23" y1="1387.62" x2="3000" y2="1387.62" gradientUnits="userSpaceOnUse">
<stop stop-color="#212121"/>
<stop offset="1" stop-color="#684FE1"/>
</linearGradient>
<linearGradient id="paint2_linear" x1="488.999" y1="973.218" x2="2531.88" y2="973.218" gradientUnits="userSpaceOnUse">
<stop stop-color="#212121"/>
<stop offset="1" stop-color="#684FE1"/>
</linearGradient>
<linearGradient id="paint3_linear" x1="0.449202" y1="1085.09" x2="1757.48" y2="1085.09" gradientUnits="userSpaceOnUse">
<stop stop-color="#212121"/>
<stop offset="0.905" stop-color="#573BDE"/>
<stop offset="1" stop-color="#684FE1"/>
</linearGradient>
<linearGradient id="paint4_linear" x1="1283.33" y1="1343.05" x2="2068.41" y2="1343.05" gradientUnits="userSpaceOnUse">
<stop stop-color="#212121"/>
<stop offset="1" stop-color="#684FE1"/>
</linearGradient>
<linearGradient id="paint5_linear" x1="860.198" y1="1208.02" x2="2969.79" y2="1208.02" gradientUnits="userSpaceOnUse">
<stop stop-color="#212121"/>
<stop offset="1" stop-color="#684FE1"/>
</linearGradient>
<linearGradient id="paint6_linear" x1="-654.411" y1="1172.08" x2="2034.91" y2="1172.08" gradientUnits="userSpaceOnUse">
<stop stop-color="#212121"/>
<stop offset="1" stop-color="#684FE1"/>
</linearGradient>
<linearGradient id="paint7_linear" x1="2409.67" y1="377.186" x2="2370.49" y2="406.598" gradientUnits="userSpaceOnUse">
<stop stop-color="#212121"/>
<stop offset="0.0924341" stop-color="#23324C"/>
<stop offset="0.2078" stop-color="#24447A"/>
<stop offset="0.3274" stop-color="#2654A2"/>
<stop offset="0.4495" stop-color="#2761C3"/>
<stop offset="0.5748" stop-color="#286BDC"/>
<stop offset="0.7048" stop-color="#2872EE"/>
<stop offset="0.8423" stop-color="#2977F9"/>
<stop offset="1" stop-color="#2978FC"/>
</linearGradient>
<linearGradient id="paint8_linear" x1="2490.59" y1="388.707" x2="2422.66" y2="398.615" gradientUnits="userSpaceOnUse">
<stop stop-color="#212121"/>
<stop offset="0.0924341" stop-color="#23324C"/>
<stop offset="0.2078" stop-color="#24447A"/>
<stop offset="0.3274" stop-color="#2654A2"/>
<stop offset="0.4495" stop-color="#2761C3"/>
<stop offset="0.5748" stop-color="#286BDC"/>
<stop offset="0.7048" stop-color="#2872EE"/>
<stop offset="0.8423" stop-color="#2977F9"/>
<stop offset="1" stop-color="#2978FC"/>
</linearGradient>
<linearGradient id="paint9_linear" x1="2455.07" y1="403.275" x2="2384.07" y2="407.849" gradientUnits="userSpaceOnUse">
<stop stop-color="#212121"/>
<stop offset="0.0924341" stop-color="#23324C"/>
<stop offset="0.2078" stop-color="#24447A"/>
<stop offset="0.3274" stop-color="#2654A2"/>
<stop offset="0.4495" stop-color="#2761C3"/>
<stop offset="0.5748" stop-color="#286BDC"/>
<stop offset="0.7048" stop-color="#2872EE"/>
<stop offset="0.8423" stop-color="#2977F9"/>
<stop offset="1" stop-color="#2978FC"/>
</linearGradient>
<linearGradient id="paint10_linear" x1="2478.38" y1="409.705" x2="2364.68" y2="420.735" gradientUnits="userSpaceOnUse">
<stop stop-color="#212121"/>
<stop offset="0.0924341" stop-color="#23324C"/>
<stop offset="0.2078" stop-color="#24447A"/>
<stop offset="0.3274" stop-color="#2654A2"/>
<stop offset="0.4495" stop-color="#2761C3"/>
<stop offset="0.5748" stop-color="#286BDC"/>
<stop offset="0.7048" stop-color="#2872EE"/>
<stop offset="0.8423" stop-color="#2977F9"/>
<stop offset="1" stop-color="#2978FC"/>
</linearGradient>
<linearGradient id="paint11_linear" x1="2296.07" y1="435.337" x2="2394.58" y2="413.311" gradientUnits="userSpaceOnUse">
<stop stop-color="#212121"/>
<stop offset="0.0924341" stop-color="#23324C"/>
<stop offset="0.2078" stop-color="#24447A"/>
<stop offset="0.3274" stop-color="#2654A2"/>
<stop offset="0.4495" stop-color="#2761C3"/>
<stop offset="0.5748" stop-color="#286BDC"/>
<stop offset="0.7048" stop-color="#2872EE"/>
<stop offset="0.8423" stop-color="#2977F9"/>
<stop offset="1" stop-color="#2978FC"/>
</linearGradient>
<linearGradient id="paint12_linear" x1="1728.33" y1="202.639" x2="1666.13" y2="202.965" gradientUnits="userSpaceOnUse">
<stop stop-color="#212121"/>
<stop offset="1" stop-color="#2978FC"/>
</linearGradient>
<linearGradient id="paint13_linear" x1="1860.51" y1="1034.23" x2="2281.14" y2="263.849" gradientUnits="userSpaceOnUse">
<stop stop-color="#212121"/>
<stop offset="0.0924341" stop-color="#23324C"/>
<stop offset="0.2078" stop-color="#24447A"/>
<stop offset="0.3274" stop-color="#2654A2"/>
<stop offset="0.4495" stop-color="#2761C3"/>
<stop offset="0.5748" stop-color="#286BDC"/>
<stop offset="0.7048" stop-color="#2872EE"/>
<stop offset="0.8423" stop-color="#2977F9"/>
<stop offset="1" stop-color="#2978FC"/>
</linearGradient>
<linearGradient id="paint14_linear" x1="1391.44" y1="517.602" x2="1992.95" y2="168.978" gradientUnits="userSpaceOnUse">
<stop stop-color="#212121"/>
<stop offset="0.1748" stop-color="#212224"/>
<stop offset="0.3139" stop-color="#21262E"/>
<stop offset="0.4408" stop-color="#222D3F"/>
<stop offset="0.5603" stop-color="#233657"/>
<stop offset="0.6748" stop-color="#244275"/>
<stop offset="0.7855" stop-color="#25519B"/>
<stop offset="0.8927" stop-color="#2763C7"/>
<stop offset="0.9953" stop-color="#2977FA"/>
<stop offset="1" stop-color="#2978FC"/>
</linearGradient>
<linearGradient id="paint15_linear" x1="2061.62" y1="852.886" x2="2143.61" y2="835.65" gradientUnits="userSpaceOnUse">
<stop stop-color="#212121"/>
<stop offset="1" stop-color="#2978FC"/>
</linearGradient>
<linearGradient id="paint16_linear" x1="1513.69" y1="833.394" x2="1451.38" y2="889.407" gradientUnits="userSpaceOnUse">
<stop stop-color="#212121"/>
<stop offset="1" stop-color="#2978FC"/>
</linearGradient>
<linearGradient id="paint17_linear" x1="1853.24" y1="762.777" x2="2078" y2="535.966" gradientUnits="userSpaceOnUse">
<stop stop-color="#212121"/>
<stop offset="1" stop-color="#2978FC"/>
</linearGradient>
<linearGradient id="paint18_linear" x1="1637.5" y1="665.892" x2="1817.22" y2="777.247" gradientUnits="userSpaceOnUse">
<stop stop-color="#212121"/>
<stop offset="1" stop-color="#2978FC"/>
</linearGradient>
<linearGradient id="paint19_linear" x1="1471.76" y1="663.805" x2="2033.65" y2="338.139" gradientUnits="userSpaceOnUse">
<stop stop-color="#212121"/>
<stop offset="0.1309" stop-color="#212224"/>
<stop offset="0.2351" stop-color="#21262E"/>
<stop offset="0.3302" stop-color="#222C3F"/>
<stop offset="0.4198" stop-color="#223657"/>
<stop offset="0.5055" stop-color="#234175"/>
<stop offset="0.5884" stop-color="#23509B"/>
<stop offset="0.6687" stop-color="#2461C7"/>
<stop offset="0.7456" stop-color="#2574FA"/>
<stop offset="0.7491" stop-color="#2575FC"/>
<stop offset="1" stop-color="#2978FC"/>
</linearGradient>
<linearGradient id="paint20_linear" x1="1977.78" y1="457.708" x2="1985.34" y2="461.251" gradientUnits="userSpaceOnUse">
<stop stop-color="#212121"/>
<stop offset="0.1748" stop-color="#212224"/>
<stop offset="0.3139" stop-color="#21262E"/>
<stop offset="0.4408" stop-color="#222D3F"/>
<stop offset="0.5603" stop-color="#233657"/>
<stop offset="0.6748" stop-color="#244275"/>
<stop offset="0.7855" stop-color="#25519B"/>
<stop offset="0.8927" stop-color="#2763C7"/>
<stop offset="0.9953" stop-color="#2977FA"/>
<stop offset="1" stop-color="#2978FC"/>
</linearGradient>
<linearGradient id="paint21_linear" x1="1974.02" y1="351.752" x2="2052.22" y2="301.249" gradientUnits="userSpaceOnUse">
<stop stop-color="#212121"/>
<stop offset="1" stop-color="#2978FC"/>
</linearGradient>
<linearGradient id="paint22_linear" x1="1992.6" y1="298.609" x2="2052.48" y2="252.526" gradientUnits="userSpaceOnUse">
<stop stop-color="#212121"/>
<stop offset="1" stop-color="#2978FC"/>
</linearGradient>
<linearGradient id="paint23_linear" x1="2048.02" y1="285.912" x2="2058.12" y2="286.581" gradientUnits="userSpaceOnUse">
<stop stop-color="#212121"/>
<stop offset="1" stop-color="#2978FC"/>
</linearGradient>
<clipPath id="clip0">
<rect width="3000" height="1500" fill="white"/>
</clipPath>
</defs>
</svg>
